<svg width="600" height="600" viewBox="0 0 600 600" fill="none" xmlns="http://www.w3.org/2000/svg">
<path fill-rule="evenodd" clip-rule="evenodd" d="M475.723 421.279C461.35 476.456 371.826 444.316 314.783 444.805C282.908 445.078 255.872 435.65 226.434 423.415C176.108 402.499 97.8468 404.698 88.9627 350.95C80.1343 297.54 152.388 271.78 196.089 239.831C232.263 213.384 271.362 169.932 312.64 187.422C352.75 204.418 326.156 269.774 351.07 305.5C385.194 354.434 490.755 363.572 475.723 421.279Z" fill="#E5D6FC"/>
<path d="M241.571 175.008C258.863 174.386 281.374 177.461 284.329 198.365C285.031 203.283 285.479 207.486 289.055 211.321C292.101 214.581 296.769 215.894 299.276 219.66C300.402 221.353 301.253 223.265 302.035 225.13C304.219 230.336 305.703 235.945 306.059 241.588C307.048 257.021 297.183 266.373 282.145 267.617C275.89 268.135 269.406 267.64 263.243 266.511L230.717 260.534C230.717 260.534 226.383 277.095 199.824 264.335C173.266 251.574 194.133 232.306 194.133 232.306C194.133 232.306 216.357 216.562 215.001 205.701C213.656 194.829 219.071 175.826 241.571 175.008Z" fill="#FDC759"/>
<path d="M281.512 257.102C289.319 257.102 295.677 250.733 295.677 242.913C295.677 235.093 289.319 228.724 281.512 228.724C273.706 228.724 267.348 235.093 267.348 242.913C267.348 250.733 273.694 257.102 281.512 257.102ZM281.512 230.451C288.376 230.451 293.952 236.037 293.952 242.913C293.952 249.788 288.376 255.374 281.512 255.374C274.649 255.374 269.072 249.788 269.072 242.913C269.072 236.037 274.649 230.451 281.512 230.451Z" fill="white"/>
<path d="M252.137 188.587C252.217 188.587 252.286 188.575 252.367 188.541C252.654 188.414 252.792 188.08 252.666 187.78C252.505 187.4 248.665 178.475 243.721 177.058C243.41 176.966 243.1 177.15 243.008 177.45C242.916 177.761 243.1 178.072 243.399 178.164C247.814 179.431 251.562 188.137 251.597 188.23C251.7 188.46 251.907 188.587 252.137 188.587Z" fill="#934C22"/>
<path d="M207.286 266.534C207.378 266.534 207.47 266.511 207.55 266.465C207.826 266.315 207.941 265.97 207.792 265.682C203.894 258.276 202.975 251.32 205.044 244.997C208.436 234.632 218.818 229.472 218.933 229.415C219.22 229.276 219.335 228.931 219.197 228.643C219.059 228.355 218.714 228.24 218.427 228.378C217.978 228.597 207.493 233.803 203.952 244.64C201.779 251.274 202.733 258.53 206.78 266.223C206.884 266.419 207.079 266.534 207.286 266.534Z" fill="#934C22"/>
<path d="M302.23 247.416C302.506 247.416 302.748 247.174 302.748 246.863C302.909 237.822 293.47 225.222 293.067 224.693C292.883 224.451 292.561 224.416 292.343 224.612C292.124 224.808 292.09 225.165 292.274 225.407C292.366 225.533 301.874 238.214 301.713 246.851C301.713 247.151 301.932 247.416 302.23 247.416Z" fill="#934C22"/>
<path d="M236.351 236.359C236.351 236.359 250.562 260.753 227.786 272.73L226.877 279.502L257.104 315.424L270.624 313.386L276.04 276.347C276.04 276.347 262.76 278.938 262.45 264.023C262.404 261.881 262.622 259.382 263.186 256.468C263.117 256.802 271.487 253.646 272.062 253.255C279.236 248.257 281.811 239.193 282.386 230.877C283.053 221.295 281.11 204.745 270.624 200.219C262.737 196.821 256.195 200.668 253.494 191.857C253.494 191.857 244.25 216.93 232.063 219.637C232.063 219.637 222.819 217.379 221.922 223.483C221.014 229.576 223.727 235.91 236.351 236.359Z" fill="#C5503B"/>
<path d="M252.137 251.493C252.769 257.436 258.805 261.87 262.45 264.024C262.404 261.882 262.622 259.382 263.186 256.469C253.942 255.328 252.137 251.493 252.137 251.493Z" fill="#833823"/>
<path d="M271.027 275.276C271.027 275.276 274.005 327.978 256.057 308.237C238.11 288.497 226.716 271.659 226.716 271.659C226.716 271.659 214.541 274.561 209.517 274.561C204.492 274.561 186.143 279.79 179.957 300.498C173.772 321.206 168.747 331.847 163.539 336.685C158.319 341.522 126.828 380.622 163.539 402.102L213.575 381.97C213.575 381.97 212.805 399.003 226.716 402.102C240.628 405.2 298.977 402.102 298.977 402.102C298.689 397.011 298.574 391.909 298.563 386.818C298.551 380.507 298.505 373.942 299.586 367.608C300.103 364.59 300.667 361.435 302.242 358.774C304.587 354.801 308.565 351.749 310.336 347.453C310.6 346.808 311.877 342.961 311.152 342.489C311.152 342.489 343.218 363.197 354.049 362.034C364.868 360.87 377.043 356.033 378.388 338.424C379.733 320.814 346.311 312.303 346.311 312.303C346.311 312.303 330.272 303.792 318.878 287.725C307.485 271.659 271.027 275.276 271.027 275.276Z" fill="#B4E1C6"/>
<path d="M311.152 343.065C311.451 343.065 311.704 342.835 311.727 342.535C312.865 326.745 307.749 315.286 303.242 308.445C298.356 301.028 293.274 297.411 293.067 297.25C292.803 297.066 292.446 297.135 292.262 297.388C292.078 297.653 292.147 298.01 292.4 298.195C292.607 298.333 312.716 312.89 310.577 342.443C310.554 342.766 310.796 343.03 311.106 343.053C311.129 343.065 311.141 343.065 311.152 343.065Z" fill="#739043"/>
<path d="M209.861 358.694C210.149 358.694 210.402 358.464 210.436 358.176C210.448 358.083 211.299 348.835 213.552 340.128C215.817 331.364 219.738 311.762 219.772 311.566C219.83 311.255 219.634 310.956 219.324 310.886C219.013 310.829 218.714 311.025 218.645 311.336C218.611 311.531 214.702 331.099 212.437 339.829C210.16 348.628 209.298 357.968 209.287 358.06C209.264 358.383 209.493 358.659 209.804 358.682C209.827 358.694 209.85 358.694 209.861 358.694Z" fill="#739043"/>
<path d="M222.591 285.385L223.526 286.054L215.93 296.711L214.994 296.042L222.591 285.385Z" fill="#739043"/>
<path d="M225.314 297.29L234.155 304.956L233.403 305.827L224.562 298.161L225.314 297.29Z" fill="#739043"/>
<path d="M248.391 307.513L249.325 308.184L242.286 318.022L241.352 317.351L248.391 307.513Z" fill="#739043"/>
<path d="M257.418 326.45L266.256 334.363L265.49 335.222L256.652 327.309L257.418 326.45Z" fill="#739043"/>
<path d="M277.189 309.308L278.122 309.98L271.409 319.33L270.476 318.658L277.189 309.308Z" fill="#739043"/>
<path d="M283.281 293.972L293.113 303L292.336 303.849L282.504 294.821L283.281 293.972Z" fill="#739043"/>
<path d="M317.66 298.499L326.99 307.44L326.195 308.273L316.865 299.332L317.66 298.499Z" fill="#739043"/>
<path d="M307.314 285.361L308.228 286.059L300.865 295.729L299.951 295.031L307.314 285.361Z" fill="#739043"/>
<path d="M282.062 277.061L291.07 284.106L290.362 285.014L281.354 277.969L282.062 277.061Z" fill="#739043"/>
<path d="M313.221 309.926L314.085 310.686L308.19 317.411L307.326 316.651L313.221 309.926Z" fill="#739043"/>
<path d="M338.721 318.573L348.689 327.775L347.909 328.622L337.942 319.42L338.721 318.573Z" fill="#739043"/>
<path d="M332.199 316.687L333.127 317.367L325.933 327.207L325.006 326.527L332.199 316.687Z" fill="#739043"/>
<path d="M365.713 345.813L371.801 352.188L370.97 352.984L364.882 346.609L365.713 345.813Z" fill="#739043"/>
<path d="M353.641 336.01L354.542 336.726L349.698 342.844L348.797 342.128L353.641 336.01Z" fill="#739043"/>
<path d="M343.696 347.723L352.071 355.065L351.314 355.932L342.939 348.59L343.696 347.723Z" fill="#739043"/>
<path d="M340.244 336.004L341.126 336.742L334.268 344.975L333.386 344.237L340.244 336.004Z" fill="#739043"/>
<path d="M318.626 337.105L327.481 344.14L326.766 345.042L317.911 338.007L318.626 337.105Z" fill="#739043"/>
<path d="M290.607 326.401L300.753 334.325L300.046 335.233L289.9 327.309L290.607 326.401Z" fill="#739043"/>
<path d="M283.096 336.031L284.03 336.703L276.973 346.544L276.04 345.872L283.096 336.031Z" fill="#739043"/>
<path d="M296.761 355.156L301.25 361.413L300.316 362.085L295.827 355.828L296.761 355.156Z" fill="#739043"/>
<path d="M287.366 366.199L288.244 366.944L280.47 376.136L279.593 375.391L287.366 366.199Z" fill="#739043"/>
<path d="M293.169 384.92L298.971 391.845L298.091 392.586L292.288 385.66L293.169 384.92Z" fill="#739043"/>
<path d="M266.258 386.262L273.718 393.462L272.921 394.291L265.46 387.092L266.258 386.262Z" fill="#739043"/>
<path d="M253.371 367.33L254.269 368.049L249.29 374.281L248.393 373.562L253.371 367.33Z" fill="#739043"/>
<path d="M234.568 382.51L243.559 390.684L242.786 391.537L233.795 383.363L234.568 382.51Z" fill="#739043"/>
<path d="M226.095 392.568L227.039 393.226L222.613 399.598L221.67 398.94L226.095 392.568Z" fill="#739043"/>
<path d="M229.718 322.767L238.135 329.559L237.414 330.456L228.997 323.664L229.718 322.767Z" fill="#739043"/>
<path d="M222.606 336.022L223.515 336.727L215.917 346.565L215.008 345.86L222.606 336.022Z" fill="#739043"/>
<path d="M251.85 338.362L252.757 339.07L248.194 344.94L247.286 344.232L251.85 338.362Z" fill="#739043"/>
<path d="M209.904 274.121L215.829 279.124L215.088 280.004L209.163 275.001L209.904 274.121Z" fill="#739043"/>
<path d="M203.445 288.11L204.391 288.764L197.992 298.054L197.045 297.4L203.445 288.11Z" fill="#739043"/>
<path d="M202.331 307.39L210.236 313.862L209.508 314.754L201.603 308.282L202.331 307.39Z" fill="#739043"/>
<path d="M184.906 307.395L194.036 315.147L193.293 316.025L184.163 308.273L184.906 307.395Z" fill="#739043"/>
<path d="M200.274 324.519L201.188 325.218L194.115 334.501L193.201 333.802L200.274 324.519Z" fill="#739043"/>
<path d="M178.268 325.397L186.145 332.048L185.404 332.928L177.527 326.278L178.268 325.397Z" fill="#739043"/>
<path d="M191.259 344.176L199.698 351.462L198.948 352.335L190.508 345.048L191.259 344.176Z" fill="#739043"/>
<path d="M179.205 350.061L180.182 350.669L174.509 359.816L173.532 359.208L179.205 350.061Z" fill="#739043"/>
<path d="M173.552 334.916L174.482 335.593L167.707 344.927L166.777 344.25L173.552 334.916Z" fill="#739043"/>
<path d="M157.231 356.148L166.636 363.355L165.938 364.27L156.533 357.062L157.231 356.148Z" fill="#739043"/>
<path d="M155.294 375.962L164.562 383.711L163.825 384.596L154.557 376.846L155.294 375.962Z" fill="#739043"/>
<path d="M185.584 363.357L191.254 368.018L190.525 368.908L184.855 364.247L185.584 363.357Z" fill="#739043"/>
<path d="M158.446 388.849L159.423 389.457L155.409 395.922L154.433 395.314L158.446 388.849Z" fill="#739043"/>
<path d="M352.06 206.358L351.623 242.913L334.204 252.357C331.606 253.762 328.456 251.885 328.456 248.925V213.636C328.456 212.116 329.341 210.734 330.721 210.089L346.541 202.764C349.139 201.566 352.094 203.49 352.06 206.358Z" fill="#322159"/>
<path d="M324.317 248.003C324.639 248.003 324.892 247.75 324.892 247.427V210.941C324.892 209.997 325.42 209.133 326.26 208.696L342.609 200.277C342.896 200.127 343 199.781 342.862 199.505C342.712 199.217 342.367 199.113 342.091 199.252L325.742 207.671C324.512 208.304 323.753 209.559 323.753 210.941V247.427C323.742 247.75 323.995 248.003 324.317 248.003Z" fill="#8974B5"/>
<path d="M326.386 204.469C326.421 204.469 326.455 204.469 326.49 204.457C326.8 204.399 327.007 204.1 326.95 203.789L325.409 195.531C325.351 195.22 325.053 195.013 324.742 195.071C324.432 195.128 324.225 195.428 324.282 195.739L325.823 203.996C325.88 204.273 326.122 204.469 326.386 204.469Z" fill="#8974B5"/>
<path d="M322.788 206.634C322.971 206.634 323.144 206.553 323.259 206.392C323.443 206.127 323.385 205.77 323.121 205.586L316.326 200.737C316.062 200.553 315.705 200.61 315.521 200.875C315.337 201.14 315.395 201.497 315.659 201.682L322.454 206.53C322.546 206.599 322.673 206.634 322.788 206.634Z" fill="#8974B5"/>
<path d="M322.167 211.713C322.454 211.713 322.707 211.494 322.742 211.195C322.776 210.884 322.546 210.596 322.236 210.561L313.475 209.605C313.164 209.571 312.877 209.801 312.842 210.112C312.808 210.423 313.038 210.711 313.348 210.746L322.109 211.702C322.121 211.713 322.144 211.713 322.167 211.713Z" fill="#8974B5"/>
<path d="M264.175 345.876L284.525 354.94C284.525 354.94 283.099 357.761 275.269 354.94C267.44 352.118 265.83 352.118 265.83 352.118C265.83 352.118 274.465 361.585 275.269 363.796C276.074 366.007 267.037 361.378 262.208 360.168C257.38 358.959 256.172 360.571 259.196 362.184C262.208 363.796 269.854 367.217 266.635 367.021C263.416 366.825 253.965 362.794 251.757 363.393C249.55 363.992 237.087 367.021 230.855 365.604C230.855 365.604 195.271 408.494 170.138 406.893C164.102 404.682 156.066 397.23 166.919 385.149C177.773 373.067 231.649 346.486 238.087 345.069C244.526 343.664 264.175 345.876 264.175 345.876Z" fill="#C5503B"/>
<path d="M334.055 220.028C332.319 219.349 341.137 205.805 350.795 216.228C350.795 216.228 360.901 220.305 361.349 232.236C361.798 244.168 363.304 257.908 363.304 257.908C363.304 257.908 392.541 325.87 370.697 344.597C348.852 363.324 347.231 275.771 347.231 259.67C347.231 259.67 343.23 252.587 343.391 247.427L348.978 243.972C348.978 243.972 350.841 243.166 350.921 240.057C351.002 236.947 350.921 233.515 350.921 233.515C350.921 233.515 348.311 233.837 347.162 235.392C346.023 236.947 340.631 237.166 338.907 236.244C337.194 235.312 334.653 229.91 335.883 227.699C337.113 225.487 343.402 220.904 347.323 221.641C347.323 221.641 346.265 218.036 344.874 217.379C343.483 216.723 340.459 216.147 339.068 218.036C337.676 219.925 335.975 220.788 334.055 220.028Z" fill="#C5503B"/>
<path d="M273.51 222.528C272.139 222.528 271.027 220.934 271.027 218.969C271.027 217.003 272.139 215.41 273.51 215.41C274.882 215.41 275.994 217.003 275.994 218.969C275.994 220.934 274.882 222.528 273.51 222.528Z" fill="#322159"/>
<path d="M254.977 225.602C253.605 225.602 252.493 224.009 252.493 222.044C252.493 220.078 253.605 218.485 254.977 218.485C256.348 218.485 257.46 220.078 257.46 222.044C257.46 224.009 256.348 225.602 254.977 225.602Z" fill="#322159"/>
<g opacity="0.5">
<path d="M277.431 233.722C272.897 233.722 269.222 230.04 269.222 225.499C269.222 220.957 272.897 217.275 277.431 217.275C281.965 217.275 285.64 220.957 285.64 225.499C285.64 230.04 281.965 233.722 277.431 233.722Z" fill="white"/>
</g>
<path d="M277.419 234.298C282.26 234.298 286.203 230.347 286.203 225.499C286.203 220.65 282.26 216.7 277.419 216.7C272.579 216.7 268.635 220.65 268.635 225.499C268.635 230.347 272.579 234.298 277.419 234.298ZM277.419 217.851C281.627 217.851 285.054 221.284 285.054 225.499C285.054 229.714 281.627 233.146 277.419 233.146C273.211 233.146 269.785 229.714 269.785 225.499C269.785 221.284 273.211 217.851 277.419 217.851Z" fill="#322159"/>
<g opacity="0.5">
<path d="M255.965 237.281C251.432 237.281 247.756 233.599 247.756 229.058C247.756 224.516 251.432 220.834 255.965 220.834C260.499 220.834 264.174 224.516 264.174 229.058C264.174 233.599 260.499 237.281 255.965 237.281Z" fill="white"/>
</g>
<path d="M255.965 237.857C260.806 237.857 264.749 233.907 264.749 229.058C264.749 224.209 260.806 220.259 255.965 220.259C251.125 220.259 247.182 224.209 247.182 229.058C247.182 233.907 251.125 237.857 255.965 237.857ZM255.965 221.41C260.173 221.41 263.6 224.843 263.6 229.058C263.6 233.273 260.173 236.705 255.965 236.705C251.757 236.705 248.331 233.273 248.331 229.058C248.331 224.843 251.757 221.41 255.965 221.41Z" fill="#322159"/>
<path d="M247.756 225.637C247.998 225.637 248.216 225.488 248.297 225.246C248.4 224.946 248.239 224.612 247.94 224.509L232.247 219.084C231.948 218.981 231.614 219.142 231.511 219.441C231.407 219.741 231.568 220.075 231.867 220.178L247.561 225.603C247.63 225.626 247.699 225.637 247.756 225.637Z" fill="#322159"/>
<path d="M243.56 218.278C243.939 218.278 244.307 218.094 244.526 217.748C248.389 211.771 255.333 214.454 255.621 214.569C256.207 214.8 256.874 214.523 257.115 213.925C257.357 213.337 257.069 212.669 256.483 212.427C253.39 211.172 246.515 210.412 242.594 216.493C242.249 217.023 242.399 217.737 242.939 218.082C243.135 218.22 243.353 218.278 243.56 218.278Z" fill="#833823"/>
<path d="M278.351 213.89C278.581 213.89 278.799 213.821 279.006 213.682C279.523 213.325 279.661 212.6 279.293 212.081C279.213 211.955 277.166 209.052 273.648 208.488C271.337 208.12 268.969 208.822 266.635 210.607C266.129 210.987 266.026 211.713 266.416 212.22C266.796 212.726 267.52 212.83 268.026 212.438C269.843 211.056 271.613 210.492 273.292 210.757C275.821 211.16 277.396 213.371 277.419 213.394C277.626 213.705 277.983 213.89 278.351 213.89Z" fill="#833823"/>
<path d="M266.244 220.028C266.244 220.028 268.589 226.789 273.292 228.044C277.994 229.3 269.762 233.469 269.762 233.469" fill="#C6503B"/>
<path d="M269.774 234.056C269.866 234.056 269.946 234.033 270.038 233.999C271.326 233.342 275.522 231.062 275.315 229.104C275.235 228.355 274.614 227.814 273.441 227.503C269.095 226.34 266.807 219.913 266.784 219.856C266.681 219.556 266.347 219.395 266.049 219.499C265.75 219.602 265.589 219.936 265.692 220.236C265.796 220.524 268.199 227.296 273.142 228.62C273.752 228.781 274.143 229.012 274.166 229.231C274.246 230.014 271.82 231.799 269.509 232.974C269.222 233.112 269.118 233.469 269.256 233.745C269.36 233.941 269.555 234.056 269.774 234.056Z" fill="#833823"/>
<path d="M274.913 236.245C274.913 236.245 269.751 241.174 260.081 237.581C260.081 237.581 260.012 247.313 268.762 247.416C277.511 247.531 274.913 236.245 274.913 236.245Z" fill="white"/>
<path d="M269.107 222.625L269.315 223.757L264.284 224.684L264.076 223.552L269.107 222.625Z" fill="#322159"/>
<path d="M230.016 257.102C237.823 257.102 244.181 250.733 244.181 242.913C244.181 237.465 241.157 232.594 236.271 230.175C235.845 229.968 235.328 230.14 235.121 230.567C234.914 230.993 235.086 231.511 235.512 231.718C239.8 233.837 242.456 238.122 242.456 242.901C242.456 249.777 236.868 255.363 230.016 255.363C223.164 255.363 217.576 249.777 217.576 242.901C217.576 238.502 219.933 234.39 223.716 232.156C224.129 231.914 224.267 231.384 224.026 230.97C223.785 230.555 223.256 230.417 222.842 230.659C218.53 233.204 215.851 237.891 215.851 242.89C215.851 250.733 222.198 257.102 230.016 257.102Z" fill="white"/>
<path fill-rule="evenodd" clip-rule="evenodd" d="M425.752 283.279C459.389 302.051 499.654 358.313 525.344 329.606C552.037 299.776 480.33 266.218 476.692 226.354C473.381 190.074 527.653 156.85 506.849 126.945C486.179 97.2313 433.93 101.514 403.784 121.55C377.898 138.756 388.019 177.205 384.726 208.115C383.015 224.174 381.946 239.722 389.683 253.896C397.5 268.218 411.505 275.328 425.752 283.279Z" fill="#E5D6FC"/>
<path fill-rule="evenodd" clip-rule="evenodd" d="M200.605 178.441C201.454 186.447 206.878 194.987 201.969 201.357C196.274 208.748 185.871 211.005 176.681 209.491C166.762 207.856 153.365 203.363 153.006 193.288C152.64 183 168.017 181.543 175.432 174.424C177.902 172.053 178.084 168.181 181.008 166.405C186.274 163.208 192.434 157.69 197.684 160.914C202.983 164.168 199.949 172.243 200.605 178.441Z" fill="#E5D6FC"/>
<path fill-rule="evenodd" clip-rule="evenodd" d="M111.892 216.937C119.652 217.008 126.207 222.901 130.053 229.709C133.278 235.417 132.026 242.309 129.692 248.443C127.799 253.418 123.393 256.242 118.896 259.03C113.361 262.461 106.893 269.695 101.645 265.831C96.2522 261.859 103.533 253.181 102.032 246.612C100.521 239.999 91.1784 235.811 93.3164 229.377C95.8032 221.892 104.076 216.866 111.892 216.937Z" fill="#E5D6FC"/>
<circle cx="366.5" cy="444.437" r="15" stroke="#694EA5" stroke-width="3"/>
<circle cx="392" cy="420.937" r="7.5" stroke="#694EA5" stroke-width="3"/>
<path d="M404.798 191.916L403.348 196.612L403.134 197.306L403.728 197.724L407.746 200.554L402.832 200.626L402.106 200.637L401.891 201.331L400.442 206.027L398.854 201.376L398.62 200.688L397.893 200.699L392.98 200.771L396.912 197.825L397.494 197.389L397.259 196.701L395.672 192.051L399.69 194.88L400.284 195.299L400.865 194.863L404.798 191.916Z" stroke="#694EA5" stroke-width="2"/>
<path d="M132.798 407.916L131.348 412.612L131.134 413.306L131.728 413.724L135.746 416.554L130.832 416.626L130.106 416.637L129.891 417.331L128.442 422.027L126.854 417.376L126.62 416.688L125.893 416.699L120.979 416.771L124.912 413.825L125.494 413.389L125.259 412.701L123.672 408.051L127.69 410.88L128.284 411.299L128.865 410.863L132.798 407.916Z" stroke="#694EA5" stroke-width="2"/>
<path d="M104 334.173L105.519 338.846L105.743 339.537H106.47H111.384L107.408 342.426L106.82 342.853L107.045 343.544L108.564 348.218L104.588 345.329L104 344.902L103.412 345.329L99.4365 348.218L100.955 343.544L101.18 342.853L100.592 342.426L96.6161 339.537H101.53H102.257L102.481 338.846L104 334.173Z" stroke="#694EA5" stroke-width="2"/>
<circle cx="101" cy="290.937" r="7.5" stroke="#694EA5" stroke-width="3"/>
<circle cx="93" cy="255.937" r="15.5" stroke="#694EA5" stroke-width="3"/>
</svg>
