<svg width="600" height="600" viewBox="0 0 600 600" fill="none" xmlns="http://www.w3.org/2000/svg">
<g clip-path="url(#clip0_596_7589)">
<path fill-rule="evenodd" clip-rule="evenodd" d="M225.071 247.758C259.02 242.64 284.947 272.493 315.671 287.793C336.52 298.176 354.261 308.886 373.671 321.758C429.243 358.615 523.313 365.103 531.937 431.225C540.009 493.11 465.284 544.107 404.57 558.659C351.43 571.397 312.832 509.196 259.698 496.478C203.254 482.967 129.844 528.544 92.663 483.998C55.7148 439.73 83.0404 368.929 111.242 318.612C133.955 278.088 179.132 254.684 225.071 247.758Z" fill="#E5D6FC"/>
<path d="M346.493 505.632H142.938V513.873H346.493V505.632Z" fill="#FDC759"/>
<path d="M346.493 504.547H142.938V507.041H346.493V504.547Z" fill="#522A3E"/>
<path d="M217.428 425.224H170.851C170.851 425.224 149.304 426.254 157.357 450.653C165.41 475.052 173.79 504.927 173.79 504.927L248.225 505.578L217.428 425.224Z" fill="#8D3B52"/>
<path d="M180.047 492.457C179.721 492.457 179.394 492.24 179.285 491.86L163.941 442.845C163.832 442.412 164.05 441.978 164.485 441.815C164.921 441.707 165.356 441.924 165.519 442.357L180.809 491.426C180.918 491.86 180.7 492.294 180.265 492.457C180.21 492.457 180.156 492.457 180.047 492.457Z" fill="#491928"/>
<path d="M283.81 505.74L174.279 504.981C169.165 497.445 174.878 482.48 176.782 480.094C178.687 477.654 185.651 468.762 189.896 450.273C193.541 434.441 207.579 429.128 211.551 427.935C212.204 427.718 212.585 427.664 212.585 427.664C212.531 427.338 212.531 426.959 212.531 426.634C211.769 411.777 225.1 406.952 225.1 406.952L257.801 421.808C257.801 421.808 258.781 423.706 259.76 426.688C259.76 426.742 259.76 426.796 259.815 426.796C260.032 427.447 260.522 427.935 261.229 428.423C263.569 430.049 268.412 431.622 274.451 439.701C282.396 450.219 283.81 505.74 283.81 505.74Z" fill="#543E88"/>
<path d="M261.229 428.368C260.196 434.604 256.604 445.014 243.981 447.02C242.893 447.183 241.75 447.291 240.662 447.291C234.187 447.291 227.44 444.309 221.019 438.562C215.85 433.953 212.585 429.073 211.987 428.151L211.551 427.88C212.204 427.664 212.585 427.609 212.585 427.609C212.531 427.284 212.531 426.904 212.531 426.579L213.184 427.013L213.293 427.176C213.401 427.392 226.787 448.159 243.763 445.448C250.782 444.309 255.625 440.351 258.237 433.628C259.216 431.079 259.651 428.639 259.869 426.796C260.087 427.392 260.522 427.88 261.229 428.368Z" fill="#4E273F"/>
<path d="M253.013 465.834C252.741 465.834 252.524 465.726 252.36 465.455C251.599 464.37 251.653 461.605 251.816 456.78C251.925 453.201 252.034 449.189 251.544 446.586C250.728 442.194 246.375 441.218 245.504 441.11C243.056 441.706 241.315 442.954 240.281 444.743C238.921 447.237 239.138 450.327 239.846 452.388C241.206 456.509 241.804 463.015 241.859 463.286C241.913 463.72 241.587 464.154 241.097 464.154C240.662 464.208 240.226 463.882 240.226 463.394C240.226 463.34 239.628 456.834 238.322 452.876C237.288 449.731 237.506 446.369 238.866 443.929C240.118 441.652 242.294 440.134 245.287 439.429L245.45 439.375H245.613C245.668 439.375 252.034 440.243 253.176 446.207C253.721 448.972 253.557 453.093 253.449 456.725C253.34 459.816 253.231 463.72 253.721 464.425C253.993 464.804 253.884 465.292 253.503 465.563C253.34 465.78 253.176 465.834 253.013 465.834Z" fill="#FCCC2F"/>
<path d="M214.979 484.269C214.925 484.269 214.871 484.269 214.762 484.269C214.326 484.161 214.054 483.727 214.163 483.293C216.231 474.618 206.872 445.556 206.763 445.285C206.6 444.851 206.872 444.417 207.307 444.255C207.743 444.092 208.178 444.363 208.341 444.797C208.722 445.99 217.972 474.618 215.796 483.727C215.687 483.998 215.36 484.269 214.979 484.269Z" fill="#4E273F"/>
<path d="M185.869 486.872C185.597 486.872 185.271 486.709 185.162 486.438C184.944 486.059 185.107 485.571 185.543 485.354C185.706 485.245 189.678 483.293 195.119 481.829C200.234 480.474 207.634 479.39 214.054 481.775C214.49 481.938 214.707 482.426 214.544 482.805C214.381 483.239 213.891 483.456 213.51 483.293C201.975 478.902 186.468 486.709 186.304 486.763C186.087 486.872 185.978 486.872 185.869 486.872Z" fill="#4E273F"/>
<path d="M202.41 478.793C202.247 478.793 202.084 478.739 201.975 478.685L194.303 473.805C193.922 473.588 193.813 473.046 194.031 472.666C194.249 472.287 194.793 472.178 195.174 472.395L202.846 477.275C203.226 477.492 203.335 478.034 203.118 478.414C202.954 478.685 202.682 478.793 202.41 478.793Z" fill="#4E273F"/>
<path d="M270.969 459.111C270.534 459.111 270.153 458.786 270.153 458.352L269.337 440.459C269.337 440.026 269.663 439.646 270.099 439.592C270.534 439.592 270.915 439.917 270.969 440.351L271.785 458.243C271.785 458.731 271.459 459.111 270.969 459.111Z" fill="#4E273F"/>
<path d="M210.028 484.811C210.028 484.811 214.871 485.462 219.822 479.444C224.774 473.371 232.01 471.582 237.778 473.534C243.546 475.486 250.728 479.823 250.728 482.263C250.728 484.703 241.478 480.257 241.478 480.257L248.443 490.559L235.765 498.8L228.909 491.643C228.909 491.643 224.61 495.655 222.978 495.113C222.978 495.113 221.4 500.156 218.951 500.481C216.449 500.806 203.825 498.475 210.028 484.811Z" fill="#FFA2A4"/>
<path d="M273.69 453.58C273.69 453.58 276.682 441.273 275.703 438.724C274.724 436.176 272.493 432.38 273.69 424.41C274.832 416.44 277.716 408.632 278.913 407.656C280.056 406.68 282.015 407.873 282.015 409.283C282.015 410.693 280.654 419.476 280.654 419.476C280.654 419.476 284.681 418.392 286.313 420.94C286.313 420.94 290.884 421.265 290.884 423.597C290.884 423.597 293.006 423.814 292.462 427.501C292.462 427.501 295.019 427.067 295.346 430.374L283.321 454.665L273.69 453.58Z" fill="#FFA2A4"/>
<path d="M216.938 501.023C215.306 501.023 213.619 500.481 211.824 499.342C207.307 496.468 206.328 490.884 209.212 484.432C209.375 483.998 209.865 483.835 210.3 483.998C210.735 484.161 210.899 484.649 210.735 485.082C209.484 487.793 207.253 494.462 212.694 497.932C214.816 499.288 216.884 499.667 218.571 499.071C220.203 498.475 221.4 497.011 222.162 494.788C222.325 494.354 222.76 494.137 223.196 494.245C223.631 494.408 223.849 494.842 223.74 495.276C222.869 497.987 221.291 499.83 219.169 500.589C218.462 500.915 217.7 501.023 216.938 501.023Z" fill="#4E273F"/>
<path d="M248.443 491.318C248.171 491.318 247.899 491.209 247.79 490.938L240.825 480.636C240.553 480.257 240.662 479.769 241.043 479.498C241.424 479.227 241.913 479.335 242.185 479.715L249.15 490.016C249.422 490.396 249.313 490.884 248.932 491.155C248.769 491.263 248.606 491.318 248.443 491.318Z" fill="#4E273F"/>
<path d="M265.528 477.98C265.528 477.98 268.14 453.798 274.234 449.948C285.497 452.009 287.456 453.635 287.456 453.635L285.769 478.793L265.528 477.98Z" fill="#543E88"/>
<path d="M286.531 479.661L264.603 478.739L264.712 477.871C264.821 476.895 267.432 453.256 273.799 449.243L274.071 449.081L274.397 449.135C285.551 451.141 287.782 452.822 288 453.039L288.326 453.31L286.531 479.661ZM266.453 477.221L285.007 477.98L286.64 454.069C285.769 453.581 282.776 452.334 274.451 450.816C270.044 454.123 267.324 470.172 266.453 477.221Z" fill="#4E273F"/>
<path d="M275.05 431.025C275.05 431.025 282.722 419.097 282.722 416.494C282.722 413.892 291.21 416.44 282.722 431.025C282.722 431.025 288.653 434.007 288.979 439.212" fill="#FFA2A4"/>
<path d="M288.979 439.755C288.707 439.755 288.435 439.538 288.435 439.267C288.163 434.441 282.504 431.567 282.45 431.513L281.96 431.242L282.232 430.754C287.728 421.374 285.715 417.741 284.953 416.874C284.354 416.169 283.701 416.06 283.429 416.169C283.321 416.223 283.212 416.277 283.212 416.494C283.212 419.205 276.247 430.103 275.485 431.35C275.322 431.622 274.996 431.676 274.724 431.513C274.451 431.35 274.397 431.025 274.56 430.754C277.607 426.037 282.124 418.338 282.124 416.494C282.124 415.844 282.45 415.356 283.049 415.139C283.919 414.813 285.007 415.247 285.769 416.169C286.857 417.47 288.762 421.428 283.429 430.808C284.953 431.676 289.197 434.549 289.524 439.158C289.578 439.483 289.36 439.755 288.979 439.755C289.034 439.755 289.034 439.755 288.979 439.755Z" fill="#EB3154"/>
<path d="M239.628 497.39C239.465 497.39 239.301 497.336 239.193 497.173L228.691 483.89C228.528 483.673 228.528 483.293 228.8 483.131C229.018 482.968 229.399 482.968 229.562 483.239L240.063 496.577C240.226 496.794 240.226 497.174 239.954 497.336C239.846 497.336 239.737 497.39 239.628 497.39Z" fill="#EB3154"/>
<path d="M244.743 494.842C244.579 494.842 244.416 494.788 244.307 494.625L233.044 480.203C232.881 479.986 232.881 479.606 233.153 479.444C233.371 479.281 233.751 479.281 233.915 479.552L245.232 493.974C245.396 494.191 245.396 494.571 245.124 494.734C245.015 494.788 244.851 494.842 244.743 494.842Z" fill="#EB3154"/>
<path d="M247.735 490.776C247.572 490.776 247.409 490.667 247.3 490.559L238.485 477.546C238.322 477.275 238.376 476.949 238.649 476.787C238.921 476.624 239.247 476.678 239.41 476.949L248.225 489.962C248.388 490.233 248.334 490.559 248.062 490.721C247.953 490.721 247.844 490.776 247.735 490.776Z" fill="#EB3154"/>
<path d="M228.093 415.193V426.037C228.093 426.905 229.29 428.314 229.725 428.965C231.14 430.971 233.044 432.652 235.329 433.628C237.179 434.441 239.356 434.821 241.369 434.658C243.818 434.495 245.504 433.357 246.974 431.459C247.082 431.351 248.334 429.832 248.225 429.67L239.519 417.525L236.146 401.909L227.168 405.325V413.241L228.093 415.193Z" fill="#FFA2A4"/>
<path d="M240.39 381.631C240.39 381.631 244.471 382.661 248.388 383.257C252.306 383.854 259.216 388.083 258.672 397.572C258.128 407.06 257.801 407.548 257.91 409.229C258.074 410.91 257.693 420.073 257.856 421.699C258.019 423.326 256.985 430.808 251.762 430.7C246.538 430.537 237.397 430.429 237.071 420.344C236.744 410.259 236.581 406.301 235.003 405.433C233.425 404.566 228.365 405.217 228.256 408.903C228.093 412.59 229.997 415.735 233.479 415.898C233.479 415.898 233.262 418.555 228.256 418.121C224.229 414.109 222.379 402.831 224.066 397.138C225.753 391.445 232.01 389.655 232.01 389.655C232.01 389.655 231.194 385.155 233.153 384.559C235.112 383.962 240.662 384.613 240.662 384.613L240.39 381.631Z" fill="#4E273F"/>
<path d="M241.043 397.083C241.043 397.083 243.763 397.517 246.266 398.385C248.824 399.252 258.672 397.626 258.672 397.626L257.91 407.602L257.801 418.392C257.801 418.392 256.496 416.223 255.244 416.223C253.993 416.223 248.497 415.681 247.844 417.308C247.246 418.934 247.082 419.422 247.082 419.422C247.082 419.422 241.75 419.097 241.043 413.349C240.335 407.602 240.335 404.512 240.335 404.512C240.335 404.512 241.804 399.361 241.043 397.083Z" fill="#FFA2A2"/>
<path d="M232.772 413.838C232.718 413.838 232.609 413.838 232.554 413.783C232.446 413.729 230.215 412.591 230.215 410.151C230.215 408.145 232.228 407.223 233.262 407.006C233.534 406.952 233.86 407.169 233.915 407.44C233.969 407.711 233.751 408.036 233.479 408.09C233.371 408.09 231.303 408.524 231.303 410.151C231.303 411.886 232.99 412.753 233.044 412.807C233.316 412.916 233.425 413.295 233.262 413.512C233.153 413.729 232.99 413.838 232.772 413.838Z" fill="#EB3154"/>
<path d="M324.075 475.54V501.891C324.075 504.005 322.388 505.686 320.266 505.686H229.616C228.637 505.686 227.821 505.09 227.494 504.168L227.276 503.571L226.624 501.565L250.674 488.173L254.646 475.106C255.081 473.696 256.387 472.72 257.856 472.72H319.668C320.81 472.72 321.735 473.534 321.844 474.672C321.844 474.726 321.844 474.835 321.844 474.889L324.075 475.54Z" fill="#CDD3CC"/>
<path d="M321.844 474.672H286.585V505.686H283.701V488.064H268.684V474.672H257.801L252.197 490.233L227.331 503.571L226.678 501.565L250.728 488.173L254.7 475.106C255.135 473.696 256.441 472.72 257.91 472.72H319.722C320.81 472.774 321.735 473.588 321.844 474.672Z" fill="#2F214F"/>
<path d="M283.756 474.672H270.969V485.137H283.756V474.672Z" fill="#CDD3CC"/>
<path d="M250.456 406.572C250.184 406.572 249.912 406.464 249.749 406.301C248.606 405.271 247.518 404.837 246.484 404.891C245.015 405 243.981 406.193 243.981 406.193C243.6 406.626 242.893 406.735 242.457 406.355C242.022 405.976 241.913 405.325 242.294 404.837C242.349 404.783 243.872 402.939 246.266 402.777C247.953 402.668 249.585 403.319 251.163 404.729C251.599 405.108 251.653 405.813 251.218 406.247C251.054 406.464 250.728 406.572 250.456 406.572Z" fill="#4E273F"/>
<path d="M254.537 406.952C254.319 406.952 254.156 406.897 253.938 406.789C253.449 406.464 253.285 405.813 253.612 405.325C253.721 405.162 254.7 403.644 256.387 403.373C257.04 403.265 258.128 403.265 259.271 404.132C259.76 404.512 259.869 405.162 259.488 405.65C259.107 406.138 258.454 406.247 257.965 405.867C257.529 405.542 257.149 405.433 256.822 405.488C256.169 405.596 255.625 406.247 255.462 406.518C255.244 406.789 254.918 406.952 254.537 406.952Z" fill="#4E273F"/>
<path d="M253.013 416.115C252.741 416.115 252.524 415.952 252.469 415.681C252.415 415.41 252.632 415.085 252.904 415.031C252.904 415.031 254.21 414.759 255.19 413.892C255.299 413.784 255.353 413.729 255.353 413.675C255.353 413.458 254.863 413.024 254.537 412.699C254.156 412.374 253.721 411.94 253.449 411.506C252.469 410.097 252.741 407.386 252.796 407.114C252.85 406.843 253.122 406.626 253.394 406.626C253.666 406.681 253.884 406.952 253.884 407.223C253.775 407.928 253.721 409.988 254.374 410.91C254.646 411.289 254.972 411.615 255.353 411.94C255.951 412.536 256.55 413.079 256.496 413.729C256.496 414.109 256.332 414.434 255.951 414.759C254.754 415.79 253.231 416.115 253.176 416.115C253.068 416.115 253.068 416.115 253.013 416.115Z" fill="#EB3154"/>
<path d="M248.443 410.639C248.833 410.639 249.15 410.056 249.15 409.337C249.15 408.619 248.833 408.036 248.443 408.036C248.052 408.036 247.735 408.619 247.735 409.337C247.735 410.056 248.052 410.639 248.443 410.639Z" fill="#4E273F"/>
<path d="M255.516 410.205C255.847 410.205 256.115 409.768 256.115 409.229C256.115 408.69 255.847 408.253 255.516 408.253C255.186 408.253 254.918 408.69 254.918 409.229C254.918 409.768 255.186 410.205 255.516 410.205Z" fill="#4E273F"/>
<path d="M253.013 423C249.803 423.055 249.15 420.832 249.204 419.422L256.169 419.259C256.169 419.259 256.55 422.946 253.013 423Z" fill="white"/>
<path d="M286.204 433.086C286.15 433.086 286.041 433.086 285.987 433.032C285.715 432.923 285.606 432.598 285.715 432.327L290.34 422.404C290.449 422.133 290.775 422.025 291.047 422.133C291.319 422.242 291.428 422.567 291.319 422.838L286.694 432.76C286.585 432.977 286.422 433.086 286.204 433.086Z" fill="#EB3154"/>
<path d="M288.49 436.447C288.435 436.447 288.326 436.447 288.272 436.393C288 436.285 287.837 435.959 288 435.688L291.918 426.308C292.026 426.037 292.353 425.874 292.625 426.037C292.897 426.146 293.06 426.471 292.897 426.742L288.979 436.122C288.925 436.339 288.707 436.447 288.49 436.447Z" fill="#EB3154"/>
<path d="M272.275 472.992H308.296C308.296 472.992 313.084 438.345 334.576 424.465C334.576 424.465 314.553 410.91 296.924 427.013C279.294 443.116 272.275 472.992 272.275 472.992Z" fill="#2F214F"/>
<path d="M318.743 419.205L357.865 419.097C357.865 419.097 379.085 426.471 377.616 447.562C376.8 459.165 374.896 470.714 373.644 482.317C372.501 492.944 369.4 505.144 374.841 515.12C375.113 515.662 375.44 516.205 375.331 516.801C375.222 517.181 374.95 517.506 374.678 517.777C369.291 523.524 360.585 526.073 352.913 524.121C335.012 519.512 337.188 503.788 339.637 489.745C341.378 479.823 343.065 469.901 343.5 459.816C344.207 442.737 339.691 421.428 318.743 419.205Z" fill="#FBDCAF"/>
<path d="M410.1 451.629L444.869 451.466C444.869 451.466 465.165 463.286 461.519 510.783H426.315C426.26 510.783 430.559 463.666 410.1 451.629Z" fill="#FEEED9"/>
<path d="M358.028 526.506C356.178 526.506 354.328 526.289 352.478 525.801C333.107 520.759 336.209 502.975 338.44 490.016C340.29 479.443 341.868 469.901 342.249 460.033C342.684 449.731 341.432 441.327 338.549 434.983C334.849 426.904 328.428 422.296 319.396 421.374L319.613 419.205C336.862 421.049 345.404 435.2 344.371 460.141C343.935 470.118 342.357 479.769 340.507 490.396C337.732 506.174 336.807 519.566 352.913 523.741C360.15 525.639 368.421 523.199 373.535 517.723C373.644 517.614 373.862 517.343 373.916 517.235L376.038 517.723C375.875 518.373 375.494 518.861 375.168 519.241C370.924 523.85 364.449 526.506 358.028 526.506Z" fill="#2F214F"/>
<path d="M461.9 508.668V510.783H425.553L425.607 509.698C425.607 509.481 425.879 499.125 424.356 487.034C422.615 473.696 418.697 458.244 409.719 451.683C410.862 451.629 412.113 451.737 413.419 452.008C419.35 457.81 423.54 467.949 425.879 482.263C425.988 482.859 426.097 483.51 426.151 484.161C427.784 495.222 427.838 505.415 427.784 508.668H461.9Z" fill="#2F214F"/>
<path d="M424.465 480.474C424.465 480.474 424.247 481.341 423.812 482.805C423.431 484.052 422.941 485.679 422.288 487.631C418.425 499.342 409.774 521.789 398.837 525.639H364.068C364.068 525.639 378.324 518.157 384.254 495.655C389.478 475.865 393.831 452.388 407.597 451.683C408.74 451.629 409.991 451.737 411.297 452.008C412.113 452.171 412.984 452.442 413.854 452.767C415.65 453.526 423.05 459.924 424.465 480.474Z" fill="#2F214F"/>
<path d="M277.39 480.419C280.215 480.419 282.504 478.138 282.504 475.323C282.504 472.508 280.215 470.226 277.39 470.226C274.565 470.226 272.275 472.508 272.275 475.323C272.275 478.138 274.565 480.419 277.39 480.419Z" fill="#4E263E"/>
<path d="M277.39 477.98C278.862 477.98 280.056 476.79 280.056 475.323C280.056 473.855 278.862 472.666 277.39 472.666C275.917 472.666 274.724 473.855 274.724 475.323C274.724 476.79 275.917 477.98 277.39 477.98Z" fill="#EF494B"/>
<path d="M376.637 434.875C374.351 434.875 372.175 433.791 370.543 431.947C368.693 433.248 366.299 434.116 363.578 434.441C360.531 434.821 357.81 434.441 355.579 433.194C353.947 432.327 352.75 431.08 351.771 429.724C349.921 431.676 348.288 433.14 347.853 433.465C347.472 433.791 346.874 433.736 346.547 433.357C346.221 432.977 346.275 432.381 346.656 432.056C347.635 431.188 349.213 429.724 350.791 428.043C350.138 426.742 349.649 425.387 349.376 424.194C349.05 422.947 348.887 421.754 348.778 420.832V420.615C348.669 419.693 348.506 418.501 349.159 417.47C350.029 416.115 351.825 415.627 353.076 415.627C353.076 415.627 353.076 415.627 353.131 415.627C355.579 415.627 357.375 417.308 357.484 419.748C357.647 422.296 355.416 425.549 353.076 428.26C353.893 429.561 354.981 430.754 356.504 431.513C358.354 432.544 360.694 432.869 363.36 432.544C366.081 432.164 368.04 431.351 369.454 430.375C368.529 428.911 367.822 427.122 367.278 425.061C366.625 422.567 367.06 420.669 368.475 419.477C369.944 418.175 372.447 417.85 374.079 419.477C374.841 420.236 375.004 421.483 375.113 422.567C375.222 424.085 375.004 425.658 374.406 427.122C373.862 428.477 373.046 429.724 371.957 430.754C373.263 432.218 374.95 433.032 376.746 432.977C379.085 432.923 381.588 431.568 382.84 429.616C383.275 428.965 383.547 428.26 383.601 427.664C383.656 427.176 384.146 426.796 384.635 426.905C385.125 426.959 385.506 427.447 385.397 427.935C385.288 428.802 384.907 429.724 384.309 430.592C382.731 433.086 379.629 434.767 376.691 434.821C376.691 434.875 376.691 434.875 376.637 434.875ZM371.359 420.29C370.76 420.29 370.107 420.561 369.618 420.941C368.747 421.7 368.584 422.892 369.019 424.682C369.454 426.471 370.053 427.989 370.815 429.29C371.849 428.26 372.393 427.176 372.61 426.525C373.1 425.332 373.263 424.031 373.209 422.784C373.154 422.35 373.1 421.266 372.719 420.832C372.338 420.453 371.903 420.29 371.359 420.29ZM353.076 417.525C352.26 417.525 351.172 417.85 350.737 418.501C350.41 418.989 350.519 419.693 350.628 420.398V420.615C350.737 421.483 350.9 422.621 351.172 423.76C351.39 424.627 351.716 425.603 352.151 426.579C354.11 424.194 355.797 421.645 355.688 419.91C355.579 418.501 354.546 417.579 353.076 417.525Z" fill="#F24D4F"/>
<path d="M348.832 464.696C348.778 464.696 348.724 464.696 348.615 464.696C348.016 464.587 347.635 464.045 347.744 463.449C347.907 462.69 349.159 455.966 352.478 454.014C353.457 453.418 354.546 453.309 355.634 453.635C358.082 454.394 359.171 456.888 360.096 459.111C360.694 460.521 361.347 462.039 362.163 462.256C362.544 462.364 363.088 462.202 363.796 461.768C365.101 460.955 366.516 459.707 367.876 458.46C370.706 455.912 373.318 453.526 375.984 454.177C377.616 454.557 378.813 456.075 379.793 458.677C380.01 459.219 379.684 459.87 379.14 460.087C378.596 460.304 377.943 459.979 377.725 459.436C377.29 458.135 376.528 456.563 375.44 456.292C373.916 455.912 371.468 458.135 369.346 460.033C367.931 461.334 366.462 462.635 364.938 463.557C363.632 464.37 362.544 464.587 361.51 464.262C359.769 463.72 358.953 461.876 358.137 459.924C357.321 458.081 356.504 456.129 354.981 455.641C354.491 455.478 354.056 455.533 353.621 455.804C351.553 457.051 350.247 461.985 349.921 463.774C349.812 464.316 349.376 464.696 348.832 464.696Z" fill="#F24D4F"/>
<path d="M361.238 494.137C360.966 494.137 360.694 494.137 360.422 494.083C359.116 493.866 357.865 492.998 356.613 491.643C355.416 492.782 354.056 493.378 352.587 493.432C347.962 493.595 343.772 488.39 343.554 488.173C343.228 487.739 343.282 487.143 343.718 486.817C344.153 486.492 344.751 486.546 345.078 486.98C345.132 487.034 348.832 491.643 352.532 491.534C353.621 491.48 354.6 491.046 355.471 490.125C354.818 489.149 354.11 487.956 353.512 486.6C352.913 485.353 352.859 484.215 353.349 483.239C354.056 481.721 355.743 481.233 355.96 481.233L356.124 481.178C356.232 481.178 358.844 481.07 359.878 482.913C360.803 484.54 360.204 486.872 358.028 490.016C357.974 490.071 357.974 490.125 357.919 490.179C358.899 491.318 359.878 492.022 360.803 492.239C361.782 492.402 362.816 492.022 363.904 490.992C364.938 490.016 365.809 488.986 366.625 488.064C368.584 485.841 370.107 484.106 372.012 484.377C373.426 484.54 374.624 485.733 375.929 488.173C376.147 488.661 375.984 489.203 375.549 489.474C375.059 489.691 374.515 489.528 374.243 489.095C373.1 486.872 372.284 486.329 371.794 486.275C370.869 486.167 369.509 487.685 368.04 489.366C367.224 490.287 366.244 491.372 365.21 492.402C363.904 493.541 362.544 494.137 361.238 494.137ZM356.232 483.076C355.906 483.185 355.253 483.51 354.981 484.052C354.763 484.486 354.818 485.082 355.199 485.787C355.688 486.817 356.178 487.739 356.668 488.552C358.626 485.516 358.354 484.269 358.137 483.889C357.701 483.13 356.559 483.076 356.232 483.076Z" fill="#F24D4F"/>
<path d="M446.828 468.328C443.89 468.328 441.387 467.515 439.537 465.997C437.959 467.407 436.272 468.166 434.476 468.274C429.307 468.6 425.335 463.232 425.118 463.015C424.737 462.527 424.846 461.876 425.335 461.497C425.825 461.117 426.478 461.226 426.859 461.714C426.913 461.768 430.341 466.322 434.313 466.105C435.565 466.051 436.816 465.455 438.013 464.425C437.578 463.882 437.251 463.286 436.925 462.635C435.728 460.033 434.15 453.635 437.415 451.466C438.612 450.653 440.299 450.219 441.768 450.327C442.965 450.436 443.944 450.87 444.543 451.575C445.032 452.117 445.304 452.876 445.359 453.798C445.576 456.509 444.271 459.111 442.91 461.551C442.312 462.635 441.659 463.557 441.006 464.425C442.965 465.943 445.413 466.214 446.991 466.214C447.318 466.214 447.59 466.214 447.916 466.16C458.799 465.455 461.084 459.924 461.138 459.708C461.356 459.165 461.954 458.894 462.553 459.057C463.097 459.274 463.424 459.87 463.206 460.467C463.097 460.738 460.485 467.515 448.079 468.328C447.753 468.328 447.426 468.383 447.046 468.383C446.937 468.328 446.882 468.328 446.828 468.328ZM441.278 452.442C440.353 452.442 439.319 452.713 438.557 453.201C436.816 454.34 437.741 459.328 438.829 461.659C438.993 462.039 439.21 462.419 439.428 462.744C439.918 462.093 440.462 461.334 440.951 460.467C442.149 458.352 443.346 456.075 443.128 453.96C443.074 453.472 442.965 453.147 442.801 452.93C442.475 452.55 441.876 452.496 441.55 452.442C441.496 452.442 441.387 452.442 441.278 452.442Z" fill="#F24D4F"/>
<path d="M433.225 493.487C433.062 493.487 432.953 493.487 432.79 493.432C432.246 493.216 431.974 492.565 432.191 492.023C432.518 491.155 435.728 483.727 440.135 484.486C442.203 484.866 443.182 486.655 444.053 488.227C445.196 490.342 445.849 491.426 447.916 490.938C450.474 490.396 452.215 488.227 453.738 486.33C455.044 484.649 456.241 483.239 457.819 482.968C461.193 482.48 465.274 483.076 466.906 492.185C467.015 492.782 466.634 493.324 466.035 493.432C465.437 493.541 464.893 493.161 464.784 492.565C463.315 484.378 460.213 484.811 458.146 485.137C457.384 485.245 456.459 486.438 455.425 487.685C453.793 489.745 451.725 492.294 448.406 493.053C444.652 493.866 443.182 491.209 442.149 489.203C441.332 487.685 440.788 486.763 439.809 486.547C437.687 486.167 435.184 490.559 434.259 492.782C434.041 493.27 433.66 493.487 433.225 493.487Z" fill="#F24D4F"/>
<circle cx="145.217" cy="82.128" r="15" transform="rotate(39.2551 145.217 82.128)" stroke="#694EA5" stroke-width="3"/>
<path d="M260.786 -14.535L256.692 -11.8163L256.087 -11.4144L256.282 -10.7146L257.602 -5.98106L253.752 -9.03437L253.183 -9.48578L252.577 -9.08385L248.484 -6.36519L250.197 -10.9709L250.451 -11.6518L249.882 -12.1032L246.031 -15.1565L250.941 -14.9497L251.667 -14.9191L251.92 -15.6001L253.634 -20.2058L254.955 -15.4722L255.15 -14.7724L255.876 -14.7418L260.786 -14.535Z" stroke="#694EA5" stroke-width="2"/>
<path d="M478.03 301.376L473.936 304.094L473.331 304.496L473.526 305.196L474.846 309.93L470.996 306.876L470.426 306.425L469.821 306.827L465.727 309.545L467.441 304.94L467.695 304.259L467.125 303.807L463.275 300.754L468.185 300.961L468.911 300.992L469.164 300.311L470.878 295.705L472.199 300.438L472.394 301.138L473.12 301.169L478.03 301.376Z" stroke="#694EA5" stroke-width="2"/>
<circle cx="444.664" cy="90.9955" r="7.5" transform="rotate(39.2551 444.664 90.9955)" stroke="#694EA5" stroke-width="3"/>
<circle cx="460.616" cy="58.8315" r="15.5" transform="rotate(39.2551 460.616 58.8315)" stroke="#694EA5" stroke-width="3"/>
</g>
<defs>
<clipPath id="clip0_596_7589">
<rect width="600" height="600" fill="white"/>
</clipPath>
</defs>
</svg>
