<svg width="343" height="317" viewBox="0 0 343 317" fill="none" xmlns="http://www.w3.org/2000/svg">
<path d="M320.286 216.281H207.858V151.41H320.286V216.281ZM208.544 215.597H319.6V152.094H208.544V215.597Z" fill="#E0E0E0"/>
<path d="M297.093 186H222.916V188.169H297.093V186Z" fill="#F0F0F0"/>
<path d="M302.203 194.085H222.916V196.452H302.203V194.085Z" fill="#F0F0F0"/>
<path d="M302.203 202.266H222.916V204.632H302.203V202.266Z" fill="#F0F0F0"/>
<path d="M248.839 174.256H222.916V179.885H248.839V174.256Z" fill="#F0F0F0"/>
<path d="M319.944 151.752H208.222V162.081H319.944V151.752Z" fill="#E0E0E0"/>
<path d="M311.348 160.535C311.204 160.398 312.644 158.667 314.558 156.67C316.472 154.673 318.153 153.161 318.29 153.291C318.427 153.421 316.994 155.159 315.08 157.163C313.166 159.167 311.485 160.672 311.348 160.535Z" fill="white"/>
<path d="M318.304 160.535C318.167 160.672 316.493 159.167 314.572 157.163C312.651 155.159 311.218 153.428 311.362 153.291C311.506 153.155 313.173 154.659 315.094 156.67C317.014 158.681 318.434 160.398 318.304 160.535Z" fill="white"/>
<path d="M181.941 23.2903H70.219V87.4837H181.941V23.2903Z" fill="#E6E6E6"/>
<path d="M159.097 57.5449H84.9199V59.7132H159.097V57.5449Z" fill="#F0F0F0"/>
<path d="M164.208 65.6299H84.9199V67.9965H164.208V65.6299Z" fill="#F0F0F0"/>
<path d="M164.208 73.8105H84.9199V76.1772H164.208V73.8105Z" fill="#F0F0F0"/>
<path d="M110.844 45.8008H84.9199V51.4301H110.844V45.8008Z" fill="#F0F0F0"/>
<path d="M181.941 23.2903H70.219V33.6187H181.941V23.2903Z" fill="#E0E0E0"/>
<path d="M172.968 32.0251C172.824 31.8951 174.264 30.1578 176.178 28.1605C178.092 26.1632 179.773 24.6516 179.91 24.7884C180.047 24.9252 178.614 26.6557 176.7 28.653C174.786 30.6503 173.105 32.1482 172.968 32.0251Z" fill="white"/>
<path d="M179.91 32.0249C179.773 32.1617 178.099 30.6569 176.178 28.6528C174.258 26.6487 172.824 24.925 172.968 24.7882C173.112 24.6514 174.779 26.1562 176.7 28.1603C178.621 30.1644 180.054 31.8949 179.91 32.0249Z" fill="white"/>
<path d="M139.628 142.539H27.2205V77.6614H139.628V142.539ZM27.9065 141.855H138.942V78.3454H27.9065V141.855Z" fill="#E0E0E0"/>
<path d="M116.442 112.258H42.2644V114.427H116.442V112.258Z" fill="#F0F0F0"/>
<path d="M121.552 120.343H42.2644V122.71H121.552V120.343Z" fill="#F0F0F0"/>
<path d="M121.552 128.524H42.2644V130.89H121.552V128.524Z" fill="#F0F0F0"/>
<path d="M68.1883 100.514H42.2644V106.143H68.1883V100.514Z" fill="#F0F0F0"/>
<path d="M139.285 78.0034H27.5635V88.3318H139.285V78.0034Z" fill="#E0E0E0"/>
<path d="M269.358 157.402H137.44V275.16H269.358V157.402Z" fill="#E6E6E6"/>
<path d="M144.074 120.309H40.7346V227.362H144.074V120.309Z" fill="#F0F0F0"/>
<path d="M144.074 120.309H40.7346V131.971H144.074V120.309Z" fill="#E0E0E0"/>
<path d="M49.2685 126.02C49.2496 126.443 49.1067 126.851 48.8574 127.194C48.608 127.537 48.2633 127.799 47.8659 127.948C47.4685 128.097 47.036 128.126 46.622 128.032C46.208 127.938 45.8308 127.725 45.5371 127.42C45.2435 127.114 45.0464 126.729 44.9702 126.312C44.8941 125.896 44.9422 125.466 45.1088 125.077C45.2753 124.687 45.5528 124.355 45.9069 124.122C46.261 123.888 46.6761 123.764 47.1007 123.763C47.6878 123.778 48.2454 124.023 48.6515 124.446C49.0577 124.869 49.2795 125.435 49.2685 126.02Z" fill="white"/>
<path d="M58.0698 126.02C58.0523 126.445 57.9099 126.855 57.6603 127.2C57.4106 127.545 57.0648 127.809 56.6658 127.959C56.2669 128.11 55.8324 128.14 55.4164 128.046C55.0004 127.952 54.6214 127.738 54.3264 127.431C54.0314 127.124 53.8335 126.737 53.7574 126.318C53.6812 125.9 53.7301 125.468 53.8981 125.077C54.066 124.687 54.3455 124.354 54.7018 124.12C55.0582 123.886 55.4755 123.762 55.9021 123.763C56.4892 123.777 57.0467 124.023 57.4529 124.446C57.8591 124.869 58.0809 125.435 58.0698 126.02Z" fill="white"/>
<path d="M66.8713 126.02C66.8538 126.445 66.7114 126.855 66.4618 127.2C66.2122 127.545 65.8663 127.809 65.4674 127.959C65.0684 128.11 64.6339 128.14 64.2179 128.046C63.802 127.952 63.4229 127.738 63.1279 127.431C62.8329 127.124 62.635 126.737 62.5589 126.318C62.4827 125.9 62.5317 125.468 62.6996 125.077C62.8675 124.687 63.147 124.354 63.5034 124.12C63.8597 123.886 64.2771 123.762 64.7036 123.763C65.2907 123.777 65.8482 124.023 66.2544 124.446C66.6606 124.869 66.8824 125.435 66.8713 126.02Z" fill="white"/>
<path d="M305.531 46.7036H173.613V177.799H305.531V46.7036Z" fill="#F0F0F0"/>
<path d="M305.531 46.7036H173.613V62.0594H305.531V46.7036Z" fill="#E0E0E0"/>
<path d="M184.849 54.2276C184.825 54.7858 184.637 55.3247 184.308 55.7773C183.98 56.2299 183.525 56.5762 183.001 56.7734C182.476 56.9705 181.905 57.0097 181.359 56.8861C180.812 56.7626 180.314 56.4817 179.926 56.0783C179.539 55.6749 179.278 55.1669 179.177 54.6172C179.077 54.0675 179.14 53.5005 179.36 52.9864C179.579 52.4724 179.946 52.034 180.413 51.7257C180.881 51.4174 181.428 51.2527 181.989 51.2522C182.763 51.2701 183.499 51.5933 184.035 52.1509C184.571 52.7086 184.864 53.4553 184.849 54.2276Z" fill="white"/>
<path d="M195.599 52.2167C195.98 52.6285 196.23 53.1428 196.319 53.6954C196.408 54.2481 196.333 54.8148 196.101 55.3248C195.87 55.8348 195.493 56.2656 195.017 56.5635C194.542 56.8615 193.989 57.0134 193.428 57.0003C192.867 56.9873 192.322 56.8098 191.861 56.4901C191.4 56.1704 191.044 55.7225 190.837 55.2023C190.629 54.6821 190.58 54.1125 190.695 53.5646C190.81 53.0167 191.084 52.5146 191.483 52.1209C192.042 51.5905 192.79 51.3027 193.561 51.3206C194.333 51.3386 195.066 51.6608 195.599 52.2167Z" fill="white"/>
<path d="M208.023 54.2276C207.999 54.7858 207.81 55.3247 207.482 55.7773C207.153 56.2299 206.698 56.5762 206.174 56.7734C205.65 56.9705 205.079 57.0097 204.532 56.8861C203.986 56.7626 203.488 56.4817 203.1 56.0783C202.712 55.6749 202.452 55.1669 202.351 54.6172C202.25 54.0675 202.313 53.5005 202.533 52.9864C202.753 52.4724 203.119 52.034 203.586 51.7257C204.054 51.4174 204.602 51.2527 205.162 51.2522C205.937 51.2701 206.673 51.5933 207.209 52.1509C207.745 52.7086 208.037 53.4553 208.023 54.2276Z" fill="white"/>
<path d="M277.034 309.941C277.034 310.037 229.398 310.119 170.656 310.119C111.914 310.119 64.2576 310.037 64.2576 309.941C64.2576 309.845 111.887 309.763 170.656 309.763C229.426 309.763 277.034 309.852 277.034 309.941Z" fill="#263238"/>
<path d="M230.619 226.206C220.021 218.825 217.62 205.125 218.038 192.806C218.107 190.754 217.88 188.579 218.861 186.78C219.842 184.981 222.134 183.743 223.979 184.605C225.509 185.323 226.174 187.101 227.032 188.572C228.176 190.531 229.853 192.127 231.868 193.175C233.178 193.859 234.804 194.27 236.101 193.558C237.884 192.58 238.09 190.138 238.076 188.086C238.076 184.27 238.053 180.458 238.008 176.65C237.884 174.605 238.093 172.554 238.625 170.576C239.263 168.633 240.683 166.835 242.624 166.287C244.566 165.74 246.987 166.869 247.426 168.866C247.502 169.712 247.523 170.562 247.488 171.41C247.543 172.265 247.941 173.203 248.744 173.462C249.546 173.722 250.383 173.127 251.001 172.525C253.113 170.473 254.554 167.799 255.892 165.159C257.229 162.518 258.54 159.803 260.46 157.553C262.381 155.302 265.036 153.517 268.006 153.346C270.977 153.175 274.071 154.994 274.812 157.867C275.552 160.74 273.872 163.674 272.068 166.007C269.345 169.469 266.136 172.522 262.539 175.07C261.837 175.452 261.277 176.049 260.941 176.773C260.495 178.141 261.791 179.509 263.143 179.94C264.673 180.446 266.333 180.289 267.945 180.48C269.557 180.672 271.272 181.37 271.882 182.874C272.719 184.967 270.963 187.156 269.241 188.593C265.784 191.465 261.858 193.726 257.634 195.275C256.125 195.822 254.54 196.308 253.319 197.361C252.098 198.415 251.371 200.255 252.105 201.698C252.839 203.141 254.726 203.6 256.31 203.305C257.895 203.011 259.301 202.163 260.81 201.595C263.63 200.535 267.266 200.727 269.042 203.155C269.593 203.991 269.941 204.944 270.06 205.937C270.179 206.93 270.066 207.938 269.728 208.88C269.042 210.755 267.985 212.474 266.621 213.935C262.128 219.287 256.29 223.354 249.704 225.72C243.166 227.977 237.109 228.593 230.613 226.219" fill="#5748AE"/>
<path d="M271.793 155.036C271.793 155.036 271.731 155.104 271.594 155.227L270.984 155.768C270.449 156.246 269.66 156.944 268.665 157.867C265.845 160.478 263.226 163.298 260.831 166.301C259.301 168.196 257.716 170.344 256.029 172.676C254.341 175.008 252.599 177.526 250.87 180.2C249.027 183.02 247.339 185.938 245.814 188.942C245.019 190.508 244.319 192.143 243.599 193.812L241.472 198.907C238.669 205.326 236.227 211.896 234.159 218.586C232.493 224.06 231.345 229.677 230.729 235.365C230.33 239.203 230.266 243.068 230.537 246.917C230.647 248.285 230.75 249.332 230.846 250.043C230.887 250.385 230.914 250.659 230.942 250.857V251.138C230.912 251.049 230.892 250.957 230.88 250.864C230.846 250.666 230.805 250.399 230.75 250.057C230.626 249.373 230.496 248.292 230.373 246.924C230.042 243.068 230.065 239.189 230.441 235.337C231.019 229.626 232.142 223.982 233.796 218.483C235.847 211.774 238.281 205.188 241.088 198.757L243.269 193.682C243.99 192.02 244.696 190.371 245.499 188.798C247.034 185.786 248.736 182.861 250.596 180.036C252.352 177.3 254.122 174.824 255.789 172.512C257.456 170.2 259.068 168.038 260.591 166.151C263.01 163.155 265.664 160.356 268.528 157.778C269.543 156.869 270.353 156.185 270.901 155.726L271.539 155.213C271.618 155.146 271.703 155.086 271.793 155.036Z" fill="#263238"/>
<path d="M245.588 188.784C245.491 188.502 245.425 188.211 245.389 187.915C245.279 187.348 245.156 186.547 245.012 185.508C244.717 183.456 244.415 180.645 244.093 177.532C243.77 174.42 243.407 171.602 243.105 169.571C242.947 168.558 242.81 167.744 242.714 167.177C242.639 166.886 242.6 166.587 242.597 166.287C242.715 166.561 242.8 166.848 242.851 167.142C243.002 167.703 243.173 168.51 243.365 169.53C243.757 171.582 244.141 174.372 244.463 177.491C244.785 180.61 245.06 183.346 245.273 185.474C245.375 186.431 245.465 187.245 245.533 187.895C245.587 188.188 245.605 188.487 245.588 188.784Z" fill="#263238"/>
<path d="M271.985 183.873C271.651 183.945 271.312 183.987 270.97 183.996C270.284 184.058 269.31 184.14 268.103 184.277C265.688 184.536 262.368 185.015 258.725 185.699C255.082 186.383 251.81 187.156 249.457 187.751C248.284 188.052 247.337 188.326 246.713 188.511C246.38 188.629 246.035 188.711 245.684 188.757C246.001 188.598 246.332 188.467 246.672 188.367C247.317 188.141 248.25 187.826 249.416 187.491C251.755 186.807 255.027 185.993 258.684 185.296C261.781 184.705 264.906 184.271 268.048 183.996C269.262 183.894 270.243 183.852 270.929 183.839C271.281 183.815 271.635 183.826 271.985 183.873Z" fill="#263238"/>
<path d="M234.132 218.005C234.059 217.906 233.999 217.797 233.953 217.683L233.501 216.732C233.11 215.905 232.581 214.68 231.95 213.182C230.674 210.173 229.048 205.959 227.32 201.281C225.591 196.602 224 192.389 222.792 189.345C222.202 187.868 221.715 186.657 221.352 185.754L220.967 184.776C220.914 184.663 220.877 184.543 220.858 184.42C220.931 184.519 220.991 184.627 221.036 184.742L221.489 185.692C221.873 186.52 222.408 187.744 223.039 189.242C224.315 192.252 225.941 196.465 227.67 201.144C229.398 205.823 230.99 210.036 232.197 213.08C232.787 214.557 233.274 215.768 233.631 216.671C233.789 217.061 233.919 217.355 234.022 217.649C234.075 217.762 234.112 217.881 234.132 218.005Z" fill="#263238"/>
<path d="M269.173 206.739C269.063 206.802 268.945 206.85 268.823 206.883L267.808 207.225L264.055 208.435C260.886 209.461 256.509 210.925 251.707 212.539C246.905 214.154 242.508 215.59 239.318 216.548C237.726 217.033 236.43 217.403 235.531 217.649L234.495 217.916C234.375 217.954 234.251 217.979 234.125 217.991C234.235 217.928 234.352 217.88 234.475 217.847L235.49 217.505L239.243 216.294C242.412 215.268 246.789 213.805 251.591 212.19C256.393 210.576 260.783 209.14 263.973 208.182C265.571 207.697 266.861 207.327 267.766 207.081L268.802 206.814C268.923 206.776 269.047 206.751 269.173 206.739Z" fill="#263238"/>
<path d="M254.876 40.8211L251.343 42.0797L249.827 37.4764C247.042 28.9879 238.165 24.4804 230.009 27.3463C221.852 30.2123 217.51 39.5215 220.295 48.01L221.811 52.6133L218.265 53.8787C216.912 54.4017 215.814 55.4243 215.198 56.7338C214.582 58.0433 214.496 59.5391 214.958 60.9102L224.788 90.8626C224.992 91.5413 225.331 92.1722 225.785 92.7179C226.238 93.2635 226.797 93.7126 227.428 94.0387C228.059 94.3647 228.749 94.561 229.458 94.6158C230.166 94.6706 230.879 94.5829 231.552 94.3578L268.164 81.3002C269.534 80.7781 270.648 79.7465 271.271 78.4224C271.894 77.0983 271.978 75.5848 271.505 74.2003L261.668 44.248C261.458 43.5711 261.114 42.9433 260.656 42.4018C260.198 41.8604 259.636 41.4166 259.002 41.0968C258.368 40.7769 257.676 40.5877 256.967 40.5403C256.258 40.493 255.547 40.5885 254.876 40.8211ZM226.97 45.6091C226.219 43.402 226.354 40.9908 227.346 38.8805C228.338 36.7703 230.111 35.1249 232.293 34.2889C233.371 33.9214 234.511 33.774 235.647 33.8555C236.783 33.9371 237.891 34.246 238.904 34.7637C239.918 35.2814 240.816 35.9974 241.546 36.8689C242.276 37.7404 242.822 38.7495 243.153 39.8362L244.662 44.4395L228.479 50.2125L226.97 45.6091ZM247.55 72.1894L250.061 79.8365C250.107 79.9898 250.092 80.155 250.019 80.2976C249.946 80.4403 249.821 80.5495 249.67 80.6026L246.15 81.8543C246.01 81.893 245.861 81.8762 245.733 81.8073C245.605 81.7385 245.509 81.6229 245.464 81.4849L242.933 73.872C241.537 73.7962 240.198 73.297 239.095 72.4413C237.991 71.5856 237.176 70.4142 236.759 69.084C236.162 67.3254 236.271 65.4048 237.063 63.7244C237.854 62.044 239.267 60.7341 241.005 60.0689C241.864 59.7765 242.772 59.6594 243.677 59.7245C244.582 59.7897 245.464 60.0358 246.271 60.4481C247.078 60.8604 247.794 61.4306 248.375 62.1246C248.957 62.8186 249.392 63.6222 249.656 64.4875C250.097 65.8388 250.134 67.2891 249.761 68.6607C249.388 70.0324 248.622 71.2658 247.557 72.2099L247.55 72.1894Z" fill="#5748AE"/>
<path d="M251.186 41.9976C251.186 42.0933 244.634 44.5489 236.485 47.4696C228.335 50.3902 221.688 52.7363 221.653 52.6679C221.619 52.5995 228.205 50.1235 236.361 47.1959C244.518 44.2684 251.151 41.9086 251.186 41.9976Z" fill="#263238"/>
<path d="M258.965 43.2561C258.995 43.3155 259.021 43.3772 259.04 43.4408C259.095 43.5776 259.157 43.7554 259.239 43.9743C259.418 44.4736 259.665 45.1645 259.973 46.0263L262.608 53.6734C263.705 56.9156 265.016 60.7597 266.47 65.0278C267.156 67.1687 267.965 69.3986 268.72 71.7447C269.124 72.9537 269.298 74.2271 269.234 75.4999C269.176 76.1618 268.987 76.8057 268.679 77.3945C268.349 77.9815 267.909 78.4994 267.382 78.9199C266.322 79.6913 265.146 80.2893 263.897 80.6914L260.364 81.9568L253.676 84.344L242.35 88.3659L234.701 91.0472L232.643 91.7312L232.094 91.909C232.036 91.935 231.973 91.9512 231.909 91.9569C231.909 91.9569 231.964 91.9569 232.081 91.8748L232.616 91.6628L234.674 90.8899L242.281 88.0991L253.587 83.9951L260.262 81.5875L263.794 80.3152C265.008 79.9294 266.15 79.3496 267.176 78.5984C267.666 78.2082 268.076 77.7275 268.384 77.1825C268.674 76.6379 268.849 76.0395 268.898 75.4246C268.961 74.1983 268.794 72.9711 268.404 71.8063C267.664 69.4807 266.881 67.2303 266.175 65.0894C264.748 60.8144 263.431 56.9566 262.388 53.7145C261.345 50.4723 260.467 47.8663 259.864 46.0331C259.576 45.1371 259.356 44.4394 259.178 43.9333L259.013 43.3861C258.992 43.3446 258.976 43.301 258.965 43.2561Z" fill="#263238"/>
<path d="M239.647 33.8239C239.647 33.8239 239.284 33.646 238.612 33.3724C237.653 33.0053 236.64 32.8018 235.614 32.7705C234.093 32.7185 232.579 33.0035 231.182 33.605C229.483 34.3539 228.03 35.5654 226.991 37.1002C225.944 38.6307 225.382 40.4393 225.379 42.2918C225.393 43.8101 225.624 45.3186 226.065 46.772C226.421 48.0169 226.792 49.0087 227.039 49.6995C227.184 50.0504 227.304 50.4116 227.395 50.7802C227.201 50.4521 227.037 50.1063 226.908 49.7474C226.627 49.0634 226.222 48.0921 225.824 46.8404C225.336 45.3717 225.07 43.8387 225.036 42.2918C225.017 40.3693 225.592 38.4877 226.682 36.9019C227.758 35.3109 229.27 34.0621 231.038 33.304C232.479 32.6992 234.04 32.4325 235.6 32.5243C236.648 32.5775 237.678 32.8209 238.639 33.2425C238.896 33.3606 239.144 33.4978 239.38 33.6529C239.477 33.6956 239.568 33.7533 239.647 33.8239Z" fill="#263238"/>
<path d="M239.963 60.5888C240.072 60.5226 240.187 60.4654 240.306 60.4178C240.649 60.2633 241.005 60.1374 241.369 60.0415C241.947 59.8714 242.544 59.7704 243.146 59.7406C243.965 59.6967 244.784 59.8201 245.554 60.1031C247.31 60.7187 248.922 62.504 249.718 64.8911C250.099 66.1722 250.099 67.5362 249.718 68.8173C249.295 70.2077 248.536 71.4735 247.509 72.504L247.55 72.3194C248.462 74.816 249.457 77.5246 250.486 80.3495L250.548 80.5205L250.376 80.5821L248.805 81.1019L245.375 82.2442L245.204 82.2989L245.149 82.1279C244.209 79.2962 243.18 76.6559 242.405 74.0635L242.556 74.1798C241.215 74.0688 239.936 73.5669 238.879 72.7366C237.922 72.0021 237.138 71.0684 236.581 70.0006C236.078 69.0537 235.828 67.9938 235.854 66.9226C235.885 65.8278 236.16 64.7536 236.656 63.7768C237.153 62.8001 237.861 61.945 238.728 61.2728C239.085 60.9838 239.486 60.753 239.915 60.5888C239.527 60.818 239.152 61.0668 238.79 61.3343C237.837 62.1379 237.107 63.1718 236.67 64.3371C236.295 65.2158 236.119 66.1664 236.156 67.1208C236.193 68.0751 236.441 69.0095 236.883 69.8569C237.431 70.8842 238.196 71.7804 239.126 72.4835C240.134 73.2727 241.354 73.7485 242.631 73.8515H242.748L242.782 73.9541C243.537 76.4986 244.573 79.1593 245.526 82.0048L245.3 81.8954L248.73 80.7531L250.294 80.2264L250.184 80.4589C249.162 77.634 248.174 74.9185 247.269 72.4219V72.3194L247.351 72.2373C248.348 71.2495 249.092 70.0364 249.519 68.701C249.883 67.4756 249.883 66.1713 249.519 64.9458C248.771 62.6476 247.228 60.9034 245.554 60.2878C244.813 60.0029 244.022 59.8703 243.228 59.8979C242.636 59.9114 242.046 59.9918 241.472 60.1373C240.45 60.3904 239.97 60.623 239.963 60.5888Z" fill="#263238"/>
<path d="M218.758 258.087L150.234 257.772C146.277 257.75 142.49 256.164 139.705 253.36C136.92 250.557 135.366 246.766 135.382 242.82L136.109 71.5395C136.117 69.5847 136.512 67.6506 137.27 65.8478C138.028 64.045 139.135 62.4089 140.528 61.033C141.92 59.6571 143.571 58.5683 145.386 57.829C147.201 57.0896 149.145 56.7142 151.105 56.7241L219.623 57.0387C223.58 57.0586 227.368 58.6438 230.154 61.446C232.939 64.2482 234.496 68.0384 234.482 71.9841L233.754 243.258C233.746 245.213 233.352 247.148 232.594 248.951C231.836 250.755 230.729 252.392 229.337 253.769C227.944 255.146 226.293 256.236 224.478 256.977C222.663 257.718 220.72 258.095 218.758 258.087Z" fill="#455A64"/>
<path d="M219.52 62.9281H206.239C205.806 62.9361 205.378 63.0291 204.981 63.2019C204.584 63.3747 204.224 63.6238 203.924 63.935C203.623 64.2463 203.387 64.6135 203.228 65.0158C203.07 65.4181 202.993 65.8476 203.001 66.2797V68.6805C203.009 69.1122 202.932 69.5413 202.774 69.9433C202.615 70.3452 202.379 70.712 202.078 71.0227C201.777 71.3333 201.418 71.5818 201.021 71.7539C200.624 71.9259 200.196 72.0181 199.763 72.0253L173.874 71.909C172.998 71.8857 172.167 71.5168 171.564 70.8832C170.96 70.2497 170.634 69.4033 170.656 68.53V66.1292C170.678 65.257 170.353 64.4117 169.751 63.7783C169.149 63.145 168.32 62.7753 167.446 62.7502H162.774L151.146 62.6955C148.381 62.6791 145.721 63.756 143.75 65.6906C141.779 67.6251 140.657 70.2595 140.63 73.0171L139.944 240.2C139.938 241.568 140.202 242.924 140.721 244.191C141.24 245.457 142.004 246.609 142.97 247.581C143.936 248.552 145.084 249.325 146.349 249.854C147.614 250.384 148.972 250.659 150.344 250.666L218.724 250.98C220.097 250.986 221.458 250.723 222.729 250.205C224 249.687 225.156 248.924 226.131 247.961C227.106 246.997 227.881 245.852 228.413 244.589C228.944 243.327 229.221 241.973 229.227 240.604L229.913 73.4206C229.929 70.6553 228.844 67.9967 226.895 66.0291C224.946 64.0616 222.293 62.9461 219.52 62.9281Z" fill="white"/>
<path d="M210.32 228.675L159.474 228.456C158.946 228.456 158.521 227.881 158.527 227.184L158.582 213.921C158.582 213.237 159.014 212.649 159.543 212.649L210.389 212.881C210.682 212.932 210.944 213.093 211.12 213.331C211.296 213.57 211.374 213.867 211.336 214.16L211.288 227.409C211.288 228.114 210.849 228.682 210.32 228.675Z" fill="#5748AE"/>
<path d="M175.773 224.638C175.35 224.638 174.944 224.57 174.553 224.435C174.168 224.294 173.87 224.115 173.659 223.898L173.895 223.435C174.095 223.63 174.363 223.795 174.7 223.931C175.041 224.061 175.399 224.126 175.773 224.126C176.131 224.126 176.421 224.083 176.643 223.996C176.871 223.904 177.036 223.782 177.139 223.63C177.247 223.478 177.302 223.31 177.302 223.126C177.302 222.903 177.237 222.725 177.106 222.589C176.982 222.454 176.816 222.348 176.61 222.272C176.404 222.191 176.177 222.12 175.927 222.061C175.678 222.001 175.429 221.939 175.179 221.874C174.93 221.803 174.7 221.711 174.488 221.597C174.282 221.483 174.114 221.334 173.984 221.15C173.859 220.96 173.797 220.713 173.797 220.41C173.797 220.128 173.87 219.87 174.017 219.637C174.168 219.399 174.399 219.209 174.708 219.068C175.017 218.922 175.412 218.849 175.895 218.849C176.215 218.849 176.532 218.895 176.846 218.987C177.161 219.074 177.432 219.196 177.659 219.353L177.456 219.833C177.212 219.67 176.952 219.551 176.675 219.475C176.404 219.399 176.142 219.361 175.887 219.361C175.545 219.361 175.263 219.407 175.041 219.499C174.819 219.591 174.654 219.716 174.545 219.873C174.442 220.025 174.391 220.198 174.391 220.394C174.391 220.616 174.453 220.795 174.578 220.93C174.708 221.066 174.876 221.172 175.082 221.247C175.293 221.323 175.524 221.391 175.773 221.451C176.022 221.51 176.269 221.575 176.513 221.646C176.762 221.716 176.99 221.808 177.196 221.922C177.407 222.031 177.575 222.177 177.7 222.361C177.83 222.546 177.895 222.787 177.895 223.085C177.895 223.362 177.819 223.619 177.668 223.858C177.516 224.091 177.283 224.28 176.968 224.427C176.659 224.568 176.261 224.638 175.773 224.638ZM179.206 224.589V218.897H179.808V224.589H179.206ZM181.66 224.589V218.897H182.156L186.083 223.841H185.823V218.897H186.417V224.589H185.921L182.001 219.646H182.262V224.589H181.66ZM190.771 224.638C190.337 224.638 189.936 224.568 189.567 224.427C189.204 224.28 188.887 224.077 188.616 223.817C188.35 223.557 188.142 223.25 187.99 222.898C187.844 222.546 187.77 222.161 187.77 221.743C187.77 221.326 187.844 220.941 187.99 220.589C188.142 220.236 188.353 219.93 188.624 219.67C188.895 219.41 189.212 219.209 189.576 219.068C189.944 218.922 190.345 218.849 190.779 218.849C191.213 218.849 191.608 218.916 191.966 219.052C192.329 219.187 192.638 219.393 192.893 219.67L192.519 220.052C192.281 219.814 192.018 219.643 191.73 219.54C191.443 219.437 191.134 219.385 190.803 219.385C190.451 219.385 190.126 219.445 189.828 219.564C189.535 219.678 189.277 219.843 189.055 220.06C188.838 220.272 188.668 220.521 188.543 220.808C188.424 221.09 188.364 221.402 188.364 221.743C188.364 222.079 188.424 222.391 188.543 222.679C188.668 222.966 188.838 223.218 189.055 223.435C189.277 223.646 189.535 223.811 189.828 223.931C190.126 224.045 190.448 224.101 190.795 224.101C191.12 224.101 191.427 224.053 191.714 223.955C192.007 223.858 192.275 223.692 192.519 223.459L192.861 223.914C192.59 224.153 192.272 224.335 191.909 224.459C191.546 224.579 191.167 224.638 190.771 224.638ZM192.283 223.841V221.743H192.861V223.914L192.283 223.841ZM176.497 234.638C175.77 234.638 175.198 234.429 174.781 234.012C174.363 233.595 174.155 232.977 174.155 232.158V228.897H174.757V232.134C174.757 232.806 174.908 233.302 175.212 233.622C175.515 233.942 175.944 234.101 176.497 234.101C177.055 234.101 177.486 233.942 177.789 233.622C178.093 233.302 178.245 232.806 178.245 232.134V228.897H178.83V232.158C178.83 232.977 178.622 233.595 178.204 234.012C177.792 234.429 177.223 234.638 176.497 234.638ZM180.643 234.589V228.897H182.774C183.256 228.897 183.671 228.976 184.018 229.133C184.365 229.285 184.631 229.507 184.815 229.8C185.005 230.087 185.099 230.437 185.099 230.849C185.099 231.25 185.005 231.597 184.815 231.89C184.631 232.177 184.365 232.399 184.018 232.557C183.671 232.714 183.256 232.792 182.774 232.792H180.977L181.245 232.508V234.589H180.643ZM181.245 232.557L180.977 232.264H182.758C183.327 232.264 183.758 232.142 184.051 231.898C184.349 231.649 184.498 231.299 184.498 230.849C184.498 230.394 184.349 230.041 184.051 229.792C183.758 229.543 183.327 229.418 182.758 229.418H180.977L181.245 229.133V232.557Z" fill="#E8E8E3"/>
<path d="M169.616 112.073L151.972 111.994L151.958 115.222L169.601 115.302L169.616 112.073Z" fill="#5748AE"/>
<path opacity="0.1" d="M169.616 112.073L151.972 111.994L151.958 115.222L169.601 115.302L169.616 112.073Z" fill="black"/>
<path d="M221.338 131.896C221.476 131.882 221.613 131.85 221.743 131.8C221.933 131.726 222.098 131.6 222.219 131.437C222.34 131.273 222.413 131.079 222.429 130.877C222.429 129.789 222.429 128.202 222.429 126.164C222.429 125.145 222.429 124.002 222.429 122.744C222.429 122.436 222.429 122.114 222.429 121.793C222.473 121.481 222.405 121.163 222.237 120.897C222.142 120.769 222.019 120.665 221.878 120.593C221.736 120.52 221.579 120.482 221.42 120.48H220.35H210.437L153.06 120.268C152.913 120.265 152.768 120.298 152.637 120.364C152.505 120.429 152.392 120.525 152.306 120.644C152.14 120.911 152.077 121.23 152.127 121.54C152.127 122.224 152.127 122.908 152.127 123.592C152.127 124.96 152.127 126.328 152.127 127.696C152.127 128.38 152.127 129.064 152.127 129.748C152.099 130.066 152.099 130.387 152.127 130.706C152.163 130.842 152.23 130.969 152.323 131.075C152.416 131.182 152.532 131.266 152.662 131.321C152.798 131.375 152.942 131.4 153.088 131.396H156.58L171.816 131.478L197.609 131.636L214.999 131.773L219.726 131.827H220.954C221.235 131.827 221.372 131.827 221.372 131.827H220.954H219.726H214.999H197.609L171.816 131.745L156.58 131.684H153.088C152.896 131.691 152.704 131.659 152.525 131.588C152.345 131.511 152.184 131.394 152.056 131.246C151.927 131.098 151.834 130.922 151.784 130.733C151.745 130.553 151.731 130.369 151.743 130.186V129.68C151.743 128.996 151.743 128.312 151.743 127.628C151.743 126.26 151.743 124.892 151.743 123.524C151.743 122.84 151.743 122.156 151.743 121.472C151.73 121.289 151.73 121.106 151.743 120.924C151.769 120.723 151.847 120.532 151.97 120.37C152.088 120.205 152.245 120.071 152.426 119.979C152.608 119.888 152.809 119.841 153.012 119.844L210.389 120.158L220.302 120.227H221.372C221.561 120.227 221.746 120.272 221.914 120.359C222.081 120.446 222.225 120.572 222.333 120.726C222.526 121.023 222.604 121.381 222.552 121.731C222.552 122.053 222.552 122.374 222.552 122.682C222.552 123.927 222.552 125.069 222.552 126.102C222.552 128.154 222.504 129.727 222.49 130.822C222.474 131.032 222.397 131.233 222.269 131.402C222.142 131.57 221.969 131.699 221.77 131.773C221.64 131.853 221.491 131.895 221.338 131.896Z" fill="#E0E0E0"/>
<path d="M189.542 123.701H157.272V126.718H189.542V123.701Z" fill="#5748AE"/>
<path opacity="0.2" d="M189.542 123.701H157.272V126.718H189.542V123.701Z" fill="white"/>
<path d="M169.496 141.526L151.852 141.446L151.837 144.674L169.481 144.754L169.496 141.526Z" fill="#5748AE"/>
<path opacity="0.1" d="M169.496 141.526L151.852 141.446L151.837 144.674L169.481 144.754L169.496 141.526Z" fill="black"/>
<path d="M220.892 161.349C221.03 161.332 221.168 161.307 221.303 161.273C221.495 161.213 221.671 161.112 221.82 160.977C221.97 160.843 222.088 160.678 222.168 160.494C222.276 160.218 222.318 159.92 222.291 159.625C222.291 159.297 222.291 158.941 222.291 158.544C222.291 157.751 222.291 156.848 222.291 155.808V151.465C222.324 151.15 222.254 150.834 222.092 150.562C221.923 150.283 221.657 150.076 221.345 149.981C221.003 149.92 220.655 149.901 220.309 149.926H210.437L153.259 149.714C152.952 149.715 152.655 149.827 152.424 150.029C152.193 150.232 152.044 150.511 152.004 150.815C152.004 151.465 152.004 152.183 152.004 152.867C152.004 154.235 152.004 155.603 152.004 156.971C152.004 157.655 152.004 158.339 152.004 159.023C151.978 159.343 151.992 159.664 152.045 159.981C152.131 160.258 152.307 160.499 152.546 160.665C152.799 160.825 153.097 160.902 153.396 160.884H154.35H156.332L171.514 160.959L197.218 161.116L214.546 161.253L219.259 161.308H214.546H197.218L171.5 161.28L156.319 161.226H153.335C152.964 161.247 152.595 161.149 152.285 160.945C151.973 160.73 151.745 160.413 151.64 160.049C151.579 159.702 151.56 159.348 151.585 158.996C151.585 158.312 151.585 157.628 151.585 156.944C151.585 155.576 151.585 154.208 151.585 152.84C151.585 152.156 151.585 151.472 151.585 150.788C151.635 150.397 151.827 150.037 152.123 149.776C152.42 149.516 152.802 149.372 153.197 149.372L210.375 149.686L220.247 149.762C220.615 149.739 220.984 149.765 221.345 149.837C221.701 149.953 222.002 150.197 222.188 150.521C222.366 150.822 222.443 151.172 222.408 151.52C222.408 151.841 222.408 152.156 222.408 152.47C222.408 153.708 222.408 154.844 222.408 155.89C222.408 156.937 222.408 157.819 222.408 158.626C222.408 159.016 222.408 159.379 222.408 159.714C222.433 160.02 222.383 160.327 222.264 160.61C222.175 160.799 222.046 160.966 221.886 161.101C221.726 161.235 221.539 161.334 221.338 161.39C221.188 161.402 221.037 161.388 220.892 161.349Z" fill="#E0E0E0"/>
<path d="M169.363 172.257L151.719 172.177L151.705 175.405L169.348 175.485L169.363 172.257Z" fill="#5748AE"/>
<path opacity="0.1" d="M169.363 172.257L151.719 172.177L151.705 175.405L169.348 175.485L169.363 172.257Z" fill="black"/>
<path d="M220.755 192.067C220.893 192.051 221.031 192.026 221.166 191.992C221.357 191.932 221.533 191.831 221.682 191.698C221.831 191.565 221.95 191.402 222.031 191.219C222.138 190.943 222.18 190.646 222.154 190.35C222.154 190.015 222.154 189.666 222.154 189.263C222.154 188.476 222.154 187.567 222.154 186.527V182.183C222.187 181.869 222.117 181.552 221.955 181.281C221.782 181.007 221.517 180.803 221.207 180.706C220.866 180.643 220.518 180.622 220.172 180.644H210.3L153.122 180.432C152.814 180.433 152.518 180.545 152.287 180.748C152.056 180.95 151.906 181.23 151.867 181.534C151.867 182.218 151.867 182.902 151.867 183.586C151.867 184.954 151.867 186.322 151.867 187.69C151.867 188.374 151.867 189.058 151.867 189.742C151.841 190.059 151.855 190.378 151.908 190.692C151.99 190.971 152.167 191.213 152.409 191.376C152.66 191.54 152.959 191.617 153.259 191.595H156.243L171.424 191.677L197.129 191.835L214.457 191.971L219.17 192.026H214.457H197.129L171.424 191.951L156.243 191.889H153.259C152.888 191.914 152.519 191.816 152.21 191.609C151.897 191.393 151.67 191.077 151.565 190.713C151.503 190.365 151.485 190.012 151.51 189.66C151.51 188.976 151.51 188.292 151.51 187.608C151.51 186.24 151.51 184.872 151.51 183.504C151.51 182.82 151.51 182.136 151.51 181.417C151.558 181.027 151.748 180.667 152.044 180.407C152.339 180.146 152.72 180.002 153.115 180.001L210.293 180.316L220.165 180.391C220.532 180.369 220.901 180.394 221.262 180.467C221.619 180.583 221.919 180.826 222.106 181.151C222.284 181.452 222.36 181.802 222.326 182.149C222.326 182.471 222.326 182.792 222.326 183.1C222.326 184.338 222.326 185.473 222.326 186.52C222.326 187.567 222.326 188.449 222.326 189.256C222.326 189.646 222.326 190.008 222.326 190.344C222.352 190.649 222.302 190.957 222.182 191.24C222.093 191.428 221.964 191.596 221.804 191.73C221.644 191.865 221.457 191.963 221.255 192.019C221.095 192.074 220.923 192.091 220.755 192.067Z" fill="#E0E0E0"/>
<path d="M188.853 154.007L156.584 153.861L156.57 156.878L188.839 157.024L188.853 154.007Z" fill="#5748AE"/>
<path opacity="0.2" d="M188.853 154.007L156.584 153.861L156.57 156.878L188.839 157.024L188.853 154.007Z" fill="white"/>
<path d="M159.502 186.486C159.481 186.761 159.381 187.024 159.212 187.243C159.043 187.461 158.813 187.625 158.552 187.715C158.29 187.805 158.008 187.816 157.74 187.747C157.472 187.678 157.23 187.533 157.045 187.328C156.859 187.124 156.738 186.869 156.696 186.597C156.654 186.324 156.693 186.045 156.808 185.794C156.924 185.544 157.111 185.332 157.346 185.186C157.581 185.041 157.853 184.967 158.13 184.974C158.512 184.995 158.87 185.166 159.127 185.449C159.384 185.732 159.519 186.104 159.502 186.486Z" fill="#5748AE"/>
<path d="M163.871 186.506C163.885 186.699 163.859 186.893 163.794 187.075C163.729 187.257 163.627 187.424 163.495 187.565C163.363 187.707 163.203 187.819 163.025 187.896C162.847 187.974 162.656 188.013 162.462 188.013C162.268 188.013 162.076 187.974 161.898 187.896C161.72 187.819 161.561 187.707 161.428 187.565C161.296 187.424 161.194 187.257 161.13 187.075C161.065 186.893 161.039 186.699 161.052 186.506C161.039 186.313 161.065 186.12 161.13 185.938C161.194 185.755 161.296 185.588 161.428 185.447C161.561 185.306 161.72 185.193 161.898 185.116C162.076 185.039 162.268 184.999 162.462 184.999C162.656 184.999 162.847 185.039 163.025 185.116C163.203 185.193 163.363 185.306 163.495 185.447C163.627 185.588 163.729 185.755 163.794 185.938C163.859 186.12 163.885 186.313 163.871 186.506Z" fill="#5748AE"/>
<path d="M168.248 186.527C168.228 186.802 168.127 187.065 167.958 187.284C167.79 187.502 167.56 187.666 167.298 187.756C167.037 187.846 166.754 187.857 166.487 187.788C166.219 187.719 165.977 187.574 165.791 187.369C165.605 187.165 165.484 186.91 165.442 186.638C165.4 186.365 165.439 186.086 165.555 185.835C165.67 185.585 165.857 185.373 166.092 185.227C166.327 185.082 166.6 185.008 166.876 185.015C167.258 185.038 167.615 185.209 167.872 185.492C168.128 185.774 168.263 186.146 168.248 186.527Z" fill="#5748AE"/>
<path d="M172.618 186.547C172.598 186.822 172.497 187.086 172.328 187.304C172.159 187.523 171.93 187.687 171.668 187.777C171.406 187.866 171.124 187.878 170.856 187.809C170.588 187.74 170.346 187.594 170.161 187.39C169.975 187.185 169.854 186.931 169.812 186.658C169.77 186.385 169.809 186.106 169.925 185.856C170.04 185.605 170.227 185.394 170.462 185.248C170.697 185.102 170.969 185.028 171.246 185.036C171.627 185.059 171.985 185.23 172.241 185.512C172.498 185.795 172.633 186.166 172.618 186.547Z" fill="#5748AE"/>
<path d="M176.988 186.561C176.969 186.837 176.869 187.1 176.701 187.32C176.533 187.539 176.304 187.705 176.042 187.796C175.781 187.886 175.498 187.898 175.23 187.83C174.961 187.762 174.719 187.617 174.532 187.413C174.346 187.208 174.224 186.954 174.182 186.681C174.139 186.408 174.178 186.129 174.293 185.877C174.409 185.626 174.596 185.415 174.831 185.269C175.066 185.123 175.339 185.049 175.616 185.056C175.996 185.079 176.352 185.249 176.609 185.53C176.865 185.812 177.001 186.181 176.988 186.561Z" fill="#5748AE"/>
<path d="M181.365 186.581C181.346 186.856 181.247 187.118 181.081 187.337C180.914 187.556 180.687 187.722 180.427 187.814C180.168 187.906 179.887 187.92 179.619 187.854C179.351 187.789 179.109 187.647 178.921 187.446C178.733 187.245 178.608 186.994 178.562 186.723C178.515 186.452 178.549 186.174 178.66 185.922C178.77 185.67 178.951 185.456 179.182 185.306C179.413 185.156 179.683 185.076 179.958 185.077C180.345 185.091 180.71 185.257 180.973 185.539C181.237 185.821 181.378 186.196 181.365 186.581Z" fill="#5748AE"/>
<path d="M185.735 186.602C185.748 186.795 185.722 186.988 185.657 187.17C185.592 187.353 185.49 187.52 185.358 187.661C185.226 187.802 185.066 187.915 184.888 187.992C184.71 188.069 184.519 188.109 184.325 188.109C184.131 188.109 183.939 188.069 183.761 187.992C183.584 187.915 183.424 187.802 183.291 187.661C183.159 187.52 183.057 187.353 182.993 187.17C182.928 186.988 182.902 186.795 182.915 186.602C182.902 186.409 182.928 186.215 182.993 186.033C183.057 185.851 183.159 185.684 183.291 185.543C183.424 185.401 183.584 185.289 183.761 185.212C183.939 185.135 184.131 185.095 184.325 185.095C184.519 185.095 184.71 185.135 184.888 185.212C185.066 185.289 185.226 185.401 185.358 185.543C185.49 185.684 185.592 185.851 185.657 186.033C185.722 186.215 185.748 186.409 185.735 186.602Z" fill="#5748AE"/>
<path d="M190.104 186.622C190.086 186.897 189.987 187.159 189.82 187.378C189.654 187.597 189.427 187.763 189.167 187.855C188.907 187.946 188.626 187.961 188.359 187.895C188.091 187.83 187.848 187.688 187.661 187.487C187.473 187.286 187.348 187.035 187.301 186.764C187.255 186.493 187.289 186.215 187.399 185.963C187.51 185.711 187.691 185.497 187.922 185.347C188.153 185.197 188.422 185.117 188.698 185.118C189.084 185.132 189.449 185.298 189.713 185.58C189.977 185.862 190.117 186.237 190.104 186.622Z" fill="#5748AE"/>
<path d="M194.474 186.643C194.455 186.919 194.355 187.182 194.187 187.402C194.019 187.621 193.79 187.787 193.528 187.878C193.267 187.968 192.984 187.98 192.716 187.912C192.447 187.844 192.205 187.699 192.018 187.495C191.832 187.29 191.71 187.036 191.668 186.763C191.625 186.49 191.664 186.211 191.779 185.959C191.895 185.708 192.082 185.497 192.317 185.351C192.552 185.205 192.825 185.131 193.102 185.138C193.482 185.161 193.838 185.331 194.095 185.612C194.351 185.894 194.487 186.263 194.474 186.643Z" fill="#5748AE"/>
<g opacity="0.2">
<path d="M159.502 186.486C159.481 186.761 159.381 187.024 159.212 187.243C159.043 187.461 158.813 187.625 158.552 187.715C158.29 187.805 158.008 187.816 157.74 187.747C157.472 187.678 157.23 187.533 157.045 187.328C156.859 187.124 156.738 186.869 156.696 186.597C156.654 186.324 156.693 186.045 156.808 185.794C156.924 185.544 157.111 185.332 157.346 185.186C157.581 185.041 157.853 184.967 158.13 184.974C158.512 184.995 158.87 185.166 159.127 185.449C159.384 185.732 159.519 186.104 159.502 186.486Z" fill="white"/>
<path d="M163.872 186.506C163.885 186.699 163.859 186.893 163.794 187.075C163.729 187.257 163.628 187.424 163.495 187.565C163.363 187.707 163.203 187.819 163.025 187.896C162.848 187.974 162.656 188.013 162.462 188.013C162.268 188.013 162.076 187.974 161.899 187.896C161.721 187.819 161.561 187.707 161.429 187.565C161.296 187.424 161.195 187.257 161.13 187.075C161.065 186.893 161.039 186.699 161.052 186.506C161.039 186.313 161.065 186.12 161.13 185.938C161.195 185.755 161.296 185.588 161.429 185.447C161.561 185.306 161.721 185.193 161.899 185.116C162.076 185.039 162.268 184.999 162.462 184.999C162.656 184.999 162.848 185.039 163.025 185.116C163.203 185.193 163.363 185.306 163.495 185.447C163.628 185.588 163.729 185.755 163.794 185.938C163.859 186.12 163.885 186.313 163.872 186.506Z" fill="white"/>
<path d="M168.248 186.527C168.228 186.802 168.127 187.065 167.958 187.284C167.79 187.502 167.56 187.666 167.298 187.756C167.037 187.846 166.754 187.857 166.487 187.788C166.219 187.719 165.977 187.574 165.791 187.369C165.605 187.165 165.484 186.91 165.442 186.638C165.4 186.365 165.439 186.086 165.555 185.835C165.67 185.585 165.857 185.373 166.092 185.227C166.327 185.082 166.6 185.008 166.876 185.015C167.258 185.038 167.615 185.209 167.872 185.492C168.128 185.774 168.263 186.146 168.248 186.527Z" fill="white"/>
<path d="M172.618 186.547C172.598 186.822 172.497 187.086 172.328 187.304C172.159 187.523 171.93 187.687 171.668 187.777C171.406 187.866 171.124 187.878 170.856 187.809C170.588 187.74 170.346 187.594 170.161 187.39C169.975 187.185 169.854 186.931 169.812 186.658C169.77 186.385 169.809 186.106 169.925 185.856C170.04 185.605 170.227 185.394 170.462 185.248C170.697 185.102 170.969 185.028 171.246 185.036C171.627 185.059 171.985 185.23 172.241 185.512C172.498 185.795 172.633 186.166 172.618 186.547Z" fill="white"/>
<path d="M176.988 186.561C176.969 186.837 176.869 187.1 176.701 187.32C176.533 187.539 176.304 187.705 176.042 187.796C175.781 187.886 175.498 187.898 175.23 187.83C174.961 187.762 174.719 187.617 174.532 187.413C174.346 187.208 174.224 186.954 174.182 186.681C174.139 186.408 174.178 186.129 174.293 185.877C174.409 185.626 174.596 185.415 174.831 185.269C175.066 185.123 175.339 185.049 175.616 185.056C175.996 185.079 176.352 185.249 176.609 185.53C176.865 185.812 177.001 186.181 176.988 186.561Z" fill="white"/>
<path d="M181.365 186.581C181.346 186.856 181.247 187.118 181.081 187.337C180.914 187.556 180.687 187.722 180.427 187.814C180.168 187.906 179.887 187.92 179.619 187.854C179.351 187.789 179.109 187.647 178.921 187.446C178.733 187.245 178.608 186.994 178.562 186.723C178.515 186.452 178.549 186.174 178.66 185.922C178.77 185.67 178.951 185.456 179.182 185.306C179.413 185.156 179.683 185.076 179.958 185.077C180.345 185.091 180.71 185.257 180.973 185.539C181.237 185.821 181.378 186.196 181.365 186.581Z" fill="white"/>
<path d="M185.735 186.602C185.748 186.795 185.722 186.988 185.657 187.171C185.592 187.353 185.49 187.52 185.358 187.661C185.226 187.803 185.066 187.915 184.888 187.992C184.71 188.07 184.519 188.109 184.325 188.109C184.131 188.109 183.939 188.07 183.761 187.992C183.584 187.915 183.424 187.803 183.291 187.661C183.159 187.52 183.057 187.353 182.993 187.171C182.928 186.988 182.902 186.795 182.915 186.602C182.902 186.409 182.928 186.216 182.993 186.034C183.057 185.851 183.159 185.684 183.291 185.543C183.424 185.402 183.584 185.289 183.761 185.212C183.939 185.135 184.131 185.095 184.325 185.095C184.519 185.095 184.71 185.135 184.888 185.212C185.066 185.289 185.226 185.402 185.358 185.543C185.49 185.684 185.592 185.851 185.657 186.034C185.722 186.216 185.748 186.409 185.735 186.602Z" fill="white"/>
<path d="M190.104 186.622C190.086 186.897 189.987 187.159 189.82 187.378C189.654 187.597 189.427 187.763 189.167 187.855C188.907 187.946 188.626 187.961 188.359 187.895C188.091 187.83 187.848 187.688 187.661 187.487C187.473 187.286 187.348 187.035 187.301 186.764C187.255 186.493 187.289 186.215 187.399 185.963C187.51 185.711 187.691 185.497 187.922 185.347C188.153 185.197 188.422 185.117 188.698 185.118C189.084 185.132 189.449 185.298 189.713 185.58C189.977 185.862 190.117 186.237 190.104 186.622Z" fill="white"/>
<path d="M194.474 186.643C194.455 186.919 194.355 187.182 194.187 187.402C194.019 187.621 193.79 187.787 193.528 187.878C193.267 187.968 192.984 187.98 192.716 187.912C192.447 187.844 192.205 187.699 192.018 187.495C191.832 187.29 191.71 187.036 191.668 186.763C191.625 186.49 191.664 186.211 191.779 185.959C191.895 185.708 192.082 185.497 192.317 185.351C192.552 185.205 192.825 185.131 193.102 185.138C193.482 185.161 193.838 185.331 194.095 185.612C194.351 185.894 194.487 186.263 194.474 186.643Z" fill="white"/>
</g>
<path d="M188.266 87.9007C188.742 87.6915 189.147 87.3471 189.428 86.9105C189.71 86.4739 189.857 85.9643 189.85 85.4452C189.868 85.1077 189.817 84.7701 189.7 84.4531C189.582 84.136 189.401 83.8461 189.168 83.6009C188.935 83.3558 188.654 83.1606 188.343 83.0272C188.031 82.8938 187.696 82.825 187.357 82.825C187.018 82.825 186.682 82.8938 186.371 83.0272C186.06 83.1606 185.779 83.3558 185.545 83.6009C185.312 83.8461 185.131 84.136 185.014 84.4531C184.897 84.7701 184.845 85.1077 184.863 85.4452C184.853 85.9695 184.998 86.4852 185.282 86.9271C185.565 87.369 185.973 87.7173 186.455 87.9281C182.613 88.5026 182.785 92.6614 182.785 92.6614L191.867 92.7024C191.867 92.7024 192.08 88.4684 188.266 87.9007Z" fill="#5748AE"/>
<path opacity="0.1" d="M188.266 87.9007C188.742 87.6915 189.147 87.3471 189.428 86.9105C189.71 86.4739 189.857 85.9643 189.85 85.4452C189.868 85.1077 189.817 84.7701 189.7 84.4531C189.582 84.136 189.401 83.8461 189.168 83.6009C188.935 83.3558 188.654 83.1606 188.343 83.0272C188.031 82.8938 187.696 82.825 187.357 82.825C187.018 82.825 186.682 82.8938 186.371 83.0272C186.06 83.1606 185.779 83.3558 185.545 83.6009C185.312 83.8461 185.131 84.136 185.014 84.4531C184.897 84.7701 184.845 85.1077 184.863 85.4452C184.853 85.9695 184.998 86.4852 185.282 86.9271C185.565 87.369 185.973 87.7173 186.455 87.9281C182.613 88.5026 182.785 92.6614 182.785 92.6614L191.867 92.7024C191.867 92.7024 192.08 88.4684 188.266 87.9007Z" fill="black"/>
<path d="M203.025 95.3848L170.653 95.2383L170.635 99.096L203.007 99.2425L203.025 95.3848Z" fill="#5748AE"/>
<path opacity="0.2" d="M203.025 95.3848L170.653 95.2383L170.635 99.096L203.007 99.2425L203.025 95.3848Z" fill="white"/>
<path d="M84.0144 115.377H83.6919L82.759 115.445C82.2541 115.476 81.752 115.542 81.2566 115.644C80.9358 115.689 80.6175 115.75 80.3031 115.828L79.2398 116.123C77.43 116.676 75.7225 117.519 74.184 118.619C72.1513 120.09 70.454 121.974 69.2036 124.146C68.4687 125.398 67.8839 126.732 67.4612 128.12C67.017 129.629 66.7612 131.186 66.6997 132.757C66.6588 133.583 66.6726 134.41 66.7409 135.234C66.7409 135.651 66.8575 136.068 66.9124 136.492C66.9586 136.92 67.0388 137.343 67.1525 137.757C67.7694 140.502 69.021 143.065 70.8076 145.242C72.5941 147.419 74.8662 149.149 77.4425 150.295C79.3071 151.097 81.3057 151.545 83.3352 151.615C85.4315 151.73 87.5298 151.43 89.5092 150.733L90.1129 150.507H90.1952L90.2638 150.548L98.9143 154.926L98.6605 155.145C97.7344 152.286 96.8426 149.515 95.9782 146.855V146.752L96.0537 146.677C98.1521 144.569 99.7099 141.988 100.595 139.153C101.397 136.56 101.631 133.827 101.281 131.136C100.97 128.745 100.199 126.437 99.0103 124.337C97.9856 122.534 96.6638 120.915 95.1001 119.549C93.8101 118.468 92.3822 117.562 90.8538 116.854C89.6973 116.357 88.4928 115.979 87.2591 115.726L85.8871 115.5L84.8925 115.425L84.2888 115.384H84.083C84.1514 115.376 84.2204 115.376 84.2888 115.384H84.8993L85.894 115.425L87.266 115.623C88.515 115.858 89.7359 116.222 90.9087 116.711C92.4634 117.41 93.917 118.314 95.2305 119.399C96.8228 120.759 98.1728 122.378 99.223 124.187C100.445 126.309 101.24 128.649 101.562 131.075C101.941 133.807 101.723 136.588 100.924 139.228C100.033 142.123 98.4516 144.758 96.3143 146.909L96.3555 146.732C97.2199 149.392 98.1185 152.163 99.0515 155.015L99.1818 155.432L98.7908 155.234L90.1403 150.863H90.2913L89.6739 151.089C87.6563 151.797 85.5191 152.103 83.3833 151.992C81.3099 151.913 79.2696 151.449 77.367 150.624C73.7379 149.074 70.7185 146.38 68.7714 142.956C67.8755 141.374 67.2211 139.668 66.8301 137.894C66.723 137.469 66.6428 137.037 66.59 136.602C66.5351 136.171 66.4459 135.747 66.4253 135.322C66.2397 132.889 66.4977 130.441 67.1868 128.099C67.62 126.692 68.2212 125.342 68.9773 124.077C70.2574 121.886 71.9901 119.99 74.0605 118.517C75.6243 117.414 77.3606 116.577 79.1986 116.04L80.2757 115.767C80.5927 115.694 80.9132 115.636 81.2361 115.596C81.7366 115.503 82.2434 115.449 82.7521 115.432L83.6919 115.398C83.7988 115.383 83.9065 115.376 84.0144 115.377Z" fill="#5748AE"/>
<path d="M87.9245 131.328H86.6554L83.9114 127.484V124.96C83.9114 124.96 81.9495 124.837 82.1827 128.14C82.416 131.444 82.1827 130.603 82.1827 130.603C82.1827 130.603 78.0187 130.603 77.6757 130.979C77.3327 131.355 77.3121 135.363 77.2641 137.6C77.2378 138.139 77.393 138.672 77.7049 139.113C78.0169 139.554 78.4678 139.879 78.986 140.035C79.1312 140.075 79.2811 140.096 79.4319 140.097C80.4746 140.097 85.7774 139.255 85.7774 139.255H87.9657L87.9245 131.328Z" fill="#5748AE"/>
<path d="M91.5536 130.651L90.7715 139.296H88.6038V130.828L91.5536 130.651Z" fill="#5748AE"/>
<path d="M117.409 306.665V300.816L106.892 300.741L106.803 309.585L107.455 309.633C110.357 309.818 122.218 310.091 124.166 309.49C126.334 308.819 117.409 306.665 117.409 306.665Z" fill="#5748AE"/>
<path d="M124.413 308.942C124.413 309.038 120.475 309.12 115.625 309.12C110.775 309.12 106.838 309.038 106.838 308.942C106.838 308.846 110.775 308.764 115.625 308.764C120.475 308.764 124.413 308.846 124.413 308.942Z" fill="#263238"/>
<path d="M117.594 307.862C117.505 307.814 117.594 307.506 117.807 307.178C118.019 306.849 118.308 306.712 118.376 306.781C118.445 306.849 118.301 307.109 118.095 307.39C117.889 307.67 117.683 307.909 117.594 307.862Z" fill="#263238"/>
<path d="M118.266 308.245C118.17 308.245 118.218 307.862 118.424 307.499C118.63 307.137 118.904 306.918 118.98 306.972C119.055 307.027 118.932 307.335 118.74 307.656C118.548 307.978 118.355 308.279 118.266 308.245Z" fill="#263238"/>
<path d="M110.007 308.915C109.966 308.915 109.808 308.792 109.582 308.532C109.305 308.198 108.997 307.891 108.662 307.615C108.333 307.353 107.94 307.181 107.524 307.116C107.201 307.075 106.995 307.116 106.975 307.075C106.954 307.034 107.153 306.89 107.53 306.863C108.028 306.853 108.514 307.017 108.902 307.328C109.266 307.624 109.573 307.983 109.808 308.388C109.966 308.689 110.048 308.888 110.007 308.915Z" fill="#263238"/>
<path d="M117.628 306.76C117.676 306.843 117.498 307.048 117.196 307.157C116.894 307.267 116.627 307.226 116.613 307.157C116.599 307.089 116.812 306.945 117.073 306.849C117.333 306.754 117.574 306.678 117.628 306.76Z" fill="#263238"/>
<path d="M117.464 306.193C117.464 306.295 117.189 306.377 116.833 306.384C116.476 306.391 116.195 306.309 116.202 306.213C116.208 306.117 116.49 306.028 116.833 306.022C117.176 306.015 117.45 306.097 117.464 306.193Z" fill="#263238"/>
<path d="M143.305 306.665V300.816L132.789 300.741L132.7 309.496L133.351 309.544C136.253 309.729 148.121 310.091 150.062 309.49C152.23 308.819 143.305 306.665 143.305 306.665Z" fill="#5748AE"/>
<path d="M150.309 308.956C150.309 309.052 146.379 309.134 141.522 309.134C136.665 309.134 132.741 309.052 132.741 308.956C132.741 308.86 136.672 308.778 141.522 308.778C146.372 308.778 150.309 308.86 150.309 308.956Z" fill="#263238"/>
<path d="M143.491 307.862C143.408 307.814 143.491 307.506 143.703 307.178C143.916 306.849 144.204 306.712 144.273 306.781C144.341 306.849 144.197 307.109 143.991 307.39C143.786 307.67 143.58 307.909 143.491 307.862Z" fill="#263238"/>
<path d="M144.163 308.245C144.074 308.245 144.115 307.862 144.328 307.499C144.54 307.137 144.808 306.918 144.883 306.972C144.959 307.027 144.828 307.335 144.636 307.656C144.444 307.978 144.259 308.279 144.163 308.245Z" fill="#263238"/>
<path d="M135.903 308.915C135.862 308.915 135.711 308.792 135.478 308.532C135.202 308.198 134.894 307.891 134.559 307.615C134.229 307.353 133.837 307.181 133.42 307.116C133.105 307.075 132.892 307.116 132.871 307.075C132.851 307.034 133.05 306.89 133.427 306.863C133.925 306.853 134.411 307.017 134.799 307.328C135.165 307.622 135.472 307.982 135.705 308.388C135.862 308.689 135.945 308.888 135.903 308.915Z" fill="#263238"/>
<path d="M143.525 306.76C143.573 306.843 143.395 307.048 143.093 307.157C142.791 307.267 142.523 307.226 142.51 307.157C142.496 307.089 142.709 306.945 142.969 306.849C143.23 306.754 143.47 306.678 143.525 306.76Z" fill="#263238"/>
<path d="M143.374 306.193C143.374 306.295 143.1 306.377 142.743 306.384C142.386 306.391 142.112 306.309 142.119 306.213C142.126 306.117 142.4 306.028 142.743 306.022C143.086 306.015 143.374 306.097 143.374 306.193Z" fill="#263238"/>
<path d="M182.051 132.997C181.776 132.716 181.097 132.853 181.097 132.853C181.165 132.459 181.165 132.057 181.097 131.663C180.974 131.28 180.109 131.355 180.109 131.355C180.069 131.033 180.069 130.707 180.109 130.384C180.116 130.313 180.101 130.241 180.065 130.178C180.03 130.116 179.976 130.066 179.91 130.035C179.501 129.869 179.062 129.79 178.621 129.803C178.092 129.426 180.233 126.437 181.029 125.48C181.824 124.522 181.68 123.777 180.974 123.777C180.487 123.777 177.99 126.649 177.221 127.614C176.453 128.578 174.415 131.26 174.347 129.119C174.278 126.978 173.414 125.363 172.872 125.09C172.33 124.816 171.754 125.459 172.049 126.054C172.308 126.73 172.47 127.44 172.529 128.161C172.604 128.736 172.578 129.319 172.454 129.885C172.226 130.938 171.916 131.971 171.527 132.976H171.473C171.473 132.976 156.504 147.293 155.42 148.312C154.453 149.228 134.998 147.224 131.095 146.814C129.768 146.62 128.429 146.529 127.088 146.54C125.394 146.615 125.092 146.855 123.405 146.875C119.143 146.922 114.891 147.295 110.686 147.99C108.782 148.313 107.004 149.151 105.545 150.413C104.086 151.674 103.003 153.311 102.413 155.145C98.4822 167.388 89.5779 196.37 88.0069 212.649C86.8199 214.795 85.7482 217.003 84.7965 219.263C83.692 222.259 83.9595 222.362 84.33 222.43C85.3315 222.615 86.4703 217.238 86.8956 218.538C87.3209 219.838 84.7347 224.947 85.7843 225.098C87.1563 225.289 88.247 219.626 88.3774 219.174C88.5077 218.723 89.1869 218.866 89.0634 219.29C88.8644 219.892 86.9368 226.274 88.2813 226.479C89.0222 226.589 89.1045 225.241 89.1045 225.241C89.1045 225.241 90.4765 219.133 91.1008 219.256C91.7251 219.379 91.0596 222.984 90.7441 224.188C90.4285 225.392 90.8676 226 91.5124 225.706C91.9514 225.501 93.001 221.842 93.2891 220.652C93.5773 219.461 94.2976 216.164 95.2648 218.073C96.2321 219.981 97.7001 221.089 98.3038 221.117C98.4398 221.101 98.5681 221.045 98.672 220.956C98.7759 220.867 98.8507 220.749 98.8869 220.618C98.923 220.486 98.9188 220.347 98.8748 220.217C98.8308 220.088 98.749 219.975 98.6399 219.892C98.1207 219.387 97.6751 218.811 97.316 218.182C96.996 217.692 96.7638 217.151 96.63 216.582C96.3535 215.447 96.1926 214.288 96.1498 213.121L96.04 212.437C97.5766 204.851 102.001 182.587 108.388 168.367L111.009 173.743L112.147 177.724L105.164 194.913L134.95 194.523L130.505 177.464L135.903 159.68C141.741 159.81 156.73 160.029 159.227 158.9C162.369 157.532 178.621 137.067 178.621 137.067C179.68 136.246 180.694 135.369 181.66 134.44C181.66 134.44 182.648 133.613 182.051 132.997Z" fill="#FFBE9D"/>
<path d="M103.854 182.211C104.718 179.27 109.156 164.728 109.156 164.728C109.156 164.728 111.338 176.581 110.762 178.011C110.232 179.235 109.605 180.415 108.889 181.54C103.854 189.181 104.512 193.004 104.512 193.004L134.936 192.081C135.005 187.84 132.487 177.977 131.966 176.404C131.444 174.83 133.18 169.68 133.18 169.68C133.18 169.68 136.61 166.198 136.487 164.406C136.421 162.796 136.222 161.195 135.89 159.618L154.412 160.302L153.829 147.785L127.226 145.131C126.3 147.737 117.923 146.458 117.923 146.458C108.882 146.759 108.319 148.414 104.56 151.328C100.801 154.242 94.5789 179.249 94.5789 179.249L103.854 182.211Z" fill="#5748AE"/>
<path d="M121.84 179.249C121.313 179.343 120.776 179.371 120.242 179.331C119.247 179.331 117.882 179.263 116.38 179.112C114.877 178.962 113.519 178.75 112.552 178.558C112.019 178.49 111.496 178.357 110.995 178.162C111.531 178.162 112.066 178.212 112.593 178.312C113.567 178.435 114.919 178.606 116.414 178.757C117.91 178.907 119.268 179.01 120.249 179.078C120.783 179.085 121.316 179.142 121.84 179.249Z" fill="#263238"/>
<path d="M123.926 176.67C123.398 176.928 122.841 177.119 122.266 177.238C119.529 177.955 116.705 178.289 113.876 178.23C113.291 178.249 112.705 178.194 112.134 178.066C112.711 177.993 113.294 177.963 113.876 177.977C114.953 177.943 116.435 177.867 118.067 177.676C119.7 177.484 121.154 177.211 122.183 176.992C122.755 176.84 123.338 176.732 123.926 176.67Z" fill="#263238"/>
<path d="M134.161 165.166C134.147 165.687 134.076 166.205 133.948 166.711C133.77 167.662 133.496 168.962 133.146 170.384C132.796 171.807 132.46 173.12 132.158 174.01C132.037 174.519 131.857 175.012 131.623 175.48C131.661 174.96 131.758 174.446 131.911 173.948C132.172 172.881 132.467 171.65 132.796 170.302C133.125 168.955 133.441 167.724 133.701 166.657C133.794 166.143 133.949 165.642 134.161 165.166Z" fill="#263238"/>
<path d="M104.176 180.467C102.589 180.222 101.023 179.859 99.4907 179.379C97.9252 179.014 96.3889 178.534 94.8945 177.943C96.4808 178.191 98.0467 178.554 99.5799 179.03C101.146 179.394 102.682 179.874 104.176 180.467Z" fill="#263238"/>
<path d="M136.219 159.468C135.96 159.512 135.696 159.512 135.437 159.468C134.721 159.394 134.017 159.227 133.345 158.968C132.223 158.548 131.201 157.898 130.346 157.061C129.49 156.223 128.82 155.216 128.378 154.105C127.89 152.883 127.681 151.567 127.768 150.254C127.798 149.171 128.123 148.117 128.707 147.204C129.118 146.588 129.732 146.136 130.443 145.925C130.633 145.872 130.829 145.847 131.026 145.849C131.163 145.849 131.232 145.849 131.232 145.849C131.232 145.849 130.944 145.849 130.484 146.034C129.832 146.274 129.279 146.724 128.913 147.313C127.98 148.777 127.72 151.451 128.714 153.948C129.177 155.125 129.902 156.182 130.834 157.04C131.598 157.741 132.477 158.306 133.434 158.708C134.332 159.062 135.266 159.317 136.219 159.468Z" fill="#263238"/>
<path d="M152.21 160.056C152.038 157.959 151.983 155.853 152.045 153.75C151.991 151.648 152.056 149.545 152.237 147.45C152.409 149.545 152.464 151.648 152.402 153.75C152.46 155.854 152.395 157.959 152.21 160.056Z" fill="#263238"/>
<path d="M127.047 145.897C127.123 144.372 127.28 142.648 127.28 142.648C127.28 142.648 131.067 142.231 131.293 138.332C131.52 134.433 131.293 125.439 131.293 125.439L124.433 121.937L116.819 127.908L117.992 147.402L124.975 147.847C125.509 147.861 126.027 147.664 126.415 147.299C126.804 146.934 127.031 146.429 127.047 145.897Z" fill="#FFBE9D"/>
<path d="M127.726 135.247C127.726 135.247 127.726 135.323 127.665 135.411C127.614 135.476 127.548 135.527 127.472 135.561C127.397 135.594 127.315 135.608 127.232 135.603C126.793 135.603 126.368 135.097 126.217 134.509C126.145 134.223 126.145 133.925 126.217 133.64C126.231 133.515 126.276 133.396 126.348 133.294C126.42 133.191 126.516 133.108 126.629 133.052C126.721 133.014 126.825 133.014 126.917 133.052C126.985 133.086 127.041 133.141 127.075 133.209C127.123 133.325 127.075 133.401 127.075 133.394C127.075 133.387 127.075 133.325 127.006 133.257C126.97 133.208 126.917 133.174 126.858 133.161C126.798 133.149 126.736 133.158 126.684 133.188C126.599 133.239 126.53 133.31 126.48 133.395C126.431 133.48 126.404 133.576 126.402 133.674C126.345 133.929 126.345 134.193 126.402 134.447C126.54 134.981 126.91 135.411 127.239 135.453C127.304 135.461 127.369 135.457 127.432 135.439C127.494 135.421 127.553 135.391 127.603 135.35C127.685 135.295 127.713 135.24 127.726 135.247Z" fill="#EB996E"/>
<path d="M133.647 123.332C133.118 121.54 131.204 120.651 129.462 120.158C126.807 119.406 123.94 119.078 121.347 120.028C118.754 120.979 115.639 122.648 115.639 125.5C114.109 125.377 113.231 126.711 112.628 128.366C112.242 129.375 112.01 130.436 111.942 131.513C111.749 135.247 110.7 140.405 108.271 143.141C106.899 144.666 104.999 145.719 104.217 147.621C103.531 149.269 103.888 151.226 103.25 152.895C102.681 154.365 101.425 155.412 100.506 156.691C99.5694 158.142 99.0183 159.806 98.9043 161.528C98.7903 163.25 99.1171 164.972 99.8542 166.534C100.597 168.055 101.642 169.409 102.926 170.515C104.21 171.62 105.707 172.453 107.325 172.963C110.529 173.935 113.946 173.968 117.169 173.059C119.588 172.482 121.844 171.367 123.768 169.796C125.737 168.193 127.09 165.96 127.596 163.476C128.083 160.685 127.301 157.847 126.718 155.07C124.893 146.294 125.415 145.836 127.72 137.689C127.774 137.546 127.802 137.395 127.843 137.252C127.884 137.108 127.905 137.039 127.932 136.93C127.998 136.608 128.032 136.28 128.035 135.952C127.698 136.077 127.333 136.103 126.982 136.028C126.631 135.953 126.308 135.779 126.053 135.528C125.796 135.26 125.618 134.927 125.535 134.566C125.453 134.205 125.471 133.828 125.586 133.476C125.748 133.091 125.989 132.744 126.294 132.457C126.599 132.171 126.961 131.952 127.356 131.814C128.117 131.499 128.934 131.335 129.681 130.986C131.266 130.234 132.364 128.674 133.111 127.039C133.726 125.906 133.916 124.592 133.647 123.332Z" fill="#263238"/>
<path d="M128.001 135.432C128.146 135.646 128.265 135.875 128.358 136.116C128.563 136.547 128.838 137.156 129.14 137.86L129.194 137.99H129.05L128.364 138.052C127.891 138.052 127.493 138.141 127.027 138.134C126.986 138.125 126.948 138.106 126.917 138.078C126.886 138.051 126.862 138.016 126.848 137.977C126.828 137.914 126.828 137.847 126.848 137.785C126.864 137.693 126.885 137.602 126.91 137.511L127.034 137.026C127.096 136.702 127.192 136.385 127.322 136.082C127.309 136.412 127.261 136.74 127.178 137.06L127.082 137.546C127.047 137.71 126.986 137.963 127.082 137.942C127.425 137.942 127.912 137.867 128.364 137.84L129.05 137.778L128.961 137.929C128.666 137.245 128.419 136.602 128.275 136.157C128.149 135.93 128.056 135.686 128.001 135.432Z" fill="#5748AE"/>
<path d="M104.512 193.004L134.936 192.081L148.176 243.614L145.741 302.725H129.654L131.623 244.872L119.858 208.996L121.669 305.016L105.411 305.256L103.703 215.002C103.627 212.492 102.804 206.835 103.113 204.345L104.512 193.004Z" fill="#263238"/>
<path d="M123.905 209.728C123.407 209.759 122.907 209.729 122.417 209.639C121.498 209.53 120.242 209.338 118.863 209.065C117.484 208.791 116.25 208.476 115.358 208.223C114.881 208.119 114.42 207.953 113.986 207.731C113.986 207.628 116.222 208.162 118.966 208.716C121.71 209.27 123.919 209.625 123.905 209.728Z" fill="#455A64"/>
<path d="M145.576 299.483C145.576 299.578 141.933 299.66 137.44 299.66C132.947 299.66 129.297 299.578 129.297 299.483C129.297 299.387 132.94 299.305 137.44 299.305C141.94 299.305 145.576 299.38 145.576 299.483Z" fill="#455A64"/>
<path d="M121.525 302.52C121.525 302.622 117.985 302.697 113.622 302.697C109.259 302.697 105.726 302.622 105.726 302.52C105.726 302.417 109.266 302.342 113.622 302.342C117.978 302.342 121.525 302.424 121.525 302.52Z" fill="#455A64"/>
<path d="M119.426 302.273C119.33 302.273 118.904 281.295 118.472 255.419C118.04 229.544 117.786 208.552 117.875 208.552C117.965 208.552 118.404 229.523 118.829 255.413C119.254 281.302 119.529 302.273 119.426 302.273Z" fill="#455A64"/>
<path d="M143.415 299.483C143.408 299.389 143.408 299.296 143.415 299.202V298.381C143.415 297.643 143.47 296.583 143.511 295.235C143.607 292.499 143.744 288.525 143.916 283.655C144.286 273.86 144.808 260.358 145.377 245.454C145.377 245.31 145.377 245.173 145.377 245.05V245.098C141.776 230.734 138.517 217.697 136.15 208.264L133.406 197.108C133.091 195.802 132.851 194.783 132.679 194.071C132.597 193.736 132.542 193.476 132.494 193.278C132.467 193.189 132.451 193.097 132.446 193.004C132.482 193.091 132.509 193.18 132.528 193.271C132.583 193.463 132.652 193.723 132.748 194.051C132.933 194.735 133.201 195.775 133.544 197.074C134.23 199.714 135.197 203.517 136.404 208.203C138.792 217.628 142.084 230.631 145.734 245.016V245.064C145.734 245.187 145.734 245.33 145.734 245.467C145.123 260.372 144.568 273.867 144.163 283.662C143.95 288.539 143.772 292.485 143.648 295.235C143.58 296.603 143.525 297.643 143.491 298.381C143.491 298.73 143.449 299.004 143.443 299.202C143.444 299.296 143.434 299.39 143.415 299.483Z" fill="#455A64"/>
<path d="M138.167 243.846C137.012 244.225 135.821 244.488 134.614 244.633C133.132 244.886 131.87 245.064 131.3 245.091V244.954C131.486 245.009 131.582 245.043 131.582 245.071C131.582 245.098 131.465 245.071 131.273 245.071H130.861L131.273 244.947C131.808 244.79 133.07 244.53 134.552 244.263C135.74 244.006 136.951 243.867 138.167 243.846Z" fill="#455A64"/>
<path d="M137.886 245.809C136.816 245.858 135.744 245.81 134.682 245.665C133.611 245.644 132.543 245.527 131.492 245.317C133.636 245.142 135.794 245.308 137.886 245.809Z" fill="#455A64"/>
<path opacity="0.2" d="M104.382 194.092C104.742 194.553 105.196 194.934 105.714 195.208C106.231 195.483 106.801 195.646 107.387 195.686C108.612 195.83 109.851 195.807 111.07 195.617C118.925 194.749 127.246 193.948 134.936 192.081C124.982 192.635 114.466 192.45 104.512 193.004L104.409 193.853" fill="black"/>
<g opacity="0.2">
<path d="M114.637 208.08L120.249 229.79L119.858 208.996L114.637 208.08Z" fill="black"/>
</g>
</svg>
