<svg width="372" height="296" viewBox="0 0 372 296" fill="none" xmlns="http://www.w3.org/2000/svg">
<path d="M372 256.506H0V256.692H372V256.506Z" fill="#EBEBEB"/>
<path d="M334.726 268.477H310.084V268.663H334.726V268.477Z" fill="#EBEBEB"/>
<path d="M246.428 270.5H239.962V270.686H246.428V270.5Z" fill="#EBEBEB"/>
<path d="M309.34 261.572H295.063V261.758H309.34V261.572Z" fill="#EBEBEB"/>
<path d="M71.1636 262.822H39.0303V263.008H71.1636V262.822Z" fill="#EBEBEB"/>
<path d="M82.5021 262.822H77.7926V263.008H82.5021V262.822Z" fill="#EBEBEB"/>
<path d="M167.512 265.962H97.8137V266.148H167.512V265.962Z" fill="#EBEBEB"/>
<path d="M176.328 223.323H32.669C31.5436 223.321 30.465 222.873 29.6699 222.076C28.8748 221.28 28.4282 220.2 28.4282 219.075V17.131C28.438 16.012 28.8889 14.9421 29.6829 14.1536C30.477 13.3652 31.55 12.9218 32.669 12.9199H176.328C177.455 12.9199 178.535 13.3675 179.332 14.1642C180.129 14.9609 180.576 16.0415 180.576 17.1682V219.075C180.576 220.202 180.129 221.282 179.332 222.079C178.535 222.876 177.455 223.323 176.328 223.323ZM32.669 13.0687C31.5929 13.0707 30.5616 13.4995 29.8014 14.2612C29.0412 15.0228 28.6142 16.0549 28.6142 17.131V219.075C28.6142 220.151 29.0412 221.183 29.8014 221.945C30.5616 222.706 31.5929 223.135 32.669 223.137H176.328C177.405 223.135 178.437 222.707 179.198 221.945C179.96 221.184 180.388 220.152 180.39 219.075V17.131C180.388 16.0542 179.96 15.0221 179.198 14.2607C178.437 13.4993 177.405 13.0707 176.328 13.0687H32.669Z" fill="#EBEBEB"/>
<path d="M337.263 223.323H193.596C192.47 223.321 191.391 222.873 190.594 222.077C189.798 221.28 189.35 220.201 189.348 219.075V17.131C189.36 16.0113 189.812 14.9414 190.608 14.1532C191.403 13.3649 192.477 12.9218 193.596 12.9199H337.263C338.38 12.9238 339.452 13.368 340.244 14.1562C341.036 14.9445 341.486 16.0133 341.496 17.131V219.075C341.496 220.199 341.05 221.277 340.257 222.074C339.464 222.87 338.387 223.319 337.263 223.323ZM193.596 13.0687C192.519 13.0707 191.487 13.4993 190.726 14.2607C189.965 15.0221 189.536 16.0542 189.534 17.131V219.075C189.536 220.152 189.965 221.184 190.726 221.945C191.487 222.707 192.519 223.135 193.596 223.137H337.263C338.339 223.135 339.372 222.707 340.133 221.945C340.894 221.184 341.323 220.152 341.325 219.075V17.131C341.323 16.0542 340.894 15.0221 340.133 14.2607C339.372 13.4993 338.339 13.0707 337.263 13.0687H193.596Z" fill="#EBEBEB"/>
<path d="M152.87 16.3943L334.629 256.476H152.87V16.3943Z" fill="#FAFAFA"/>
<path d="M170.205 54.5393H152.87V62.5968H170.205V54.5393Z" fill="#F5F5F5"/>
<path d="M299.2 137.852H280.257V145.91H299.2V137.852Z" fill="#F5F5F5"/>
<path d="M322.122 137.852H303.18V145.91H322.122V137.852Z" fill="#F5F5F5"/>
<path d="M158.74 65.7588H152.87V73.8163H158.74V65.7588Z" fill="#F5F5F5"/>
<path d="M181.662 65.7588H162.72V73.8163H181.662V65.7588Z" fill="#F5F5F5"/>
<path d="M310.665 149.072H291.722V157.13H310.665V149.072Z" fill="#F5F5F5"/>
<path d="M333.58 149.072H314.638V157.13H333.58V149.072Z" fill="#F5F5F5"/>
<path d="M158.204 106.664H152.87V114.721H158.204V106.664Z" fill="#F5F5F5"/>
<path d="M157.557 15.6504H152.87V23.7079H157.557V15.6504Z" fill="#F5F5F5"/>
<path d="M180.479 15.6504H161.537V23.7079H180.479V15.6504Z" fill="#F5F5F5"/>
<path d="M168.739 212.111H152.87V220.169H168.739V212.111Z" fill="#F5F5F5"/>
<path d="M191.662 212.111H172.72V220.169H191.662V212.111Z" fill="#F5F5F5"/>
<path d="M169.662 117.876H152.87V125.933H169.662V117.876Z" fill="#F5F5F5"/>
<path d="M169.022 26.8699H152.87V34.9274H169.022V26.8699Z" fill="#F5F5F5"/>
<path d="M157.282 223.331H152.87V231.388H157.282V223.331Z" fill="#F5F5F5"/>
<path d="M180.204 223.331H161.262V231.388H180.204V223.331Z" fill="#F5F5F5"/>
<path d="M209.101 18.0312H190.159V26.0888H209.101V18.0312Z" fill="#F5F5F5"/>
<path d="M232.024 18.0312H213.082V26.0888H232.024V18.0312Z" fill="#F5F5F5"/>
<path d="M197.644 29.2507H178.701V37.3083H197.644V29.2507Z" fill="#F5F5F5"/>
<path d="M220.566 29.2507H201.624V37.3083H220.566V29.2507Z" fill="#F5F5F5"/>
<path d="M266.404 29.2507H247.462V37.3083H266.404V29.2507Z" fill="#F5F5F5"/>
<path d="M289.327 29.2507H270.385V37.3083H289.327V29.2507Z" fill="#F5F5F5"/>
<path d="M209.101 40.4702H190.159V48.5277H209.101V40.4702Z" fill="#F5F5F5"/>
<path d="M232.024 40.4702H213.082V48.5277H232.024V40.4702Z" fill="#F5F5F5"/>
<path d="M277.869 40.4702H258.927V48.5277H277.869V40.4702Z" fill="#F5F5F5"/>
<path d="M301.759 189.389H282.817V197.447H301.759V189.389Z" fill="#F5F5F5"/>
<path d="M324.682 189.389H305.739V197.447H324.682V189.389Z" fill="#F5F5F5"/>
<path d="M324.682 18.0535H305.739V26.111H324.682V18.0535Z" fill="#F5F5F5"/>
<path d="M313.217 200.609H294.274V208.666H313.217V200.609Z" fill="#F5F5F5"/>
<path d="M336.139 200.609H317.197V208.666H336.139V200.609Z" fill="#F5F5F5"/>
<path d="M313.217 29.2729H294.274V37.3305H313.217V29.2729Z" fill="#F5F5F5"/>
<path d="M301.759 211.828H282.817V219.886H301.759V211.828Z" fill="#F5F5F5"/>
<path d="M324.682 211.828H305.739V219.886H324.682V211.828Z" fill="#F5F5F5"/>
<path d="M209.071 89.3362H190.129V97.3937H209.071V89.3362Z" fill="#F5F5F5"/>
<path d="M231.987 89.3362H213.044V97.3937H231.987V89.3362Z" fill="#F5F5F5"/>
<path d="M295.041 70.3716H276.098V78.4291H295.041V70.3716Z" fill="#F5F5F5"/>
<path d="M197.606 100.556H178.664V108.613H197.606V100.556Z" fill="#F5F5F5"/>
<path d="M220.529 100.556H201.587V108.613H220.529V100.556Z" fill="#F5F5F5"/>
<path d="M283.576 81.5911H264.633V89.6486H283.576V81.5911Z" fill="#F5F5F5"/>
<path d="M306.498 81.5911H287.556V89.6486H306.498V81.5911Z" fill="#F5F5F5"/>
<path d="M209.071 111.775H190.129V119.833H209.071V111.775Z" fill="#F5F5F5"/>
<path d="M231.987 111.775H213.044V119.833H231.987V111.775Z" fill="#F5F5F5"/>
<path d="M197.606 122.995H178.664V131.052H197.606V122.995Z" fill="#F5F5F5"/>
<path d="M220.529 122.995H201.587V131.052H220.529V122.995Z" fill="#F5F5F5"/>
<path d="M225.365 225.808H206.423V233.866H225.365V225.808Z" fill="#F5F5F5"/>
<path d="M241.718 164.227H222.776V172.285H241.718V164.227Z" fill="#F5F5F5"/>
<path d="M264.641 164.227H245.698V172.285H264.641V164.227Z" fill="#F5F5F5"/>
<path d="M287.563 164.227H268.621V172.285H287.563V164.227Z" fill="#F5F5F5"/>
<path d="M213.907 237.028H194.965V245.085H213.907V237.028Z" fill="#F5F5F5"/>
<path d="M230.261 175.439H211.318V183.497H230.261V175.439Z" fill="#F5F5F5"/>
<path d="M276.106 175.439H257.164V183.497H276.106V175.439Z" fill="#F5F5F5"/>
<path d="M202.442 248.247H183.5V256.305H202.442V248.247Z" fill="#F5F5F5"/>
<path d="M225.365 248.247H206.423V256.305H225.365V248.247Z" fill="#F5F5F5"/>
<path d="M241.718 186.659H222.776V194.716H241.718V186.659Z" fill="#F5F5F5"/>
<path d="M230.261 197.878H211.318V205.936H230.261V197.878Z" fill="#F5F5F5"/>
<path d="M253.183 197.878H234.241V205.936H253.183V197.878Z" fill="#F5F5F5"/>
<path d="M191.134 148.975H172.191V157.033H191.134V148.975Z" fill="#F5F5F5"/>
<path d="M260.675 226.068H241.733V234.126H260.675V226.068Z" fill="#F5F5F5"/>
<path d="M283.598 226.068H264.656V234.126H283.598V226.068Z" fill="#F5F5F5"/>
<path d="M179.676 160.195H160.734V168.252H179.676V160.195Z" fill="#F5F5F5"/>
<path d="M202.599 160.195H183.656V168.252H202.599V160.195Z" fill="#F5F5F5"/>
<path d="M272.133 237.288H253.191V245.346H272.133V237.288Z" fill="#F5F5F5"/>
<path d="M295.056 237.288H276.113V245.346H295.056V237.288Z" fill="#F5F5F5"/>
<path d="M168.211 171.414H152.87V179.472H168.211V171.414Z" fill="#F5F5F5"/>
<path d="M191.134 171.414H172.191V179.472H191.134V171.414Z" fill="#F5F5F5"/>
<path d="M260.675 248.508H241.733V256.565H260.675V248.508Z" fill="#F5F5F5"/>
<path d="M283.598 248.508H264.656V256.565H283.598V248.508Z" fill="#F5F5F5"/>
<path d="M257.573 133.887H238.631V141.944H257.573V133.887Z" fill="#F5F5F5"/>
<path d="M271.352 110.815H252.409V118.873H271.352V110.815Z" fill="#F5F5F5"/>
<path d="M294.274 110.815H275.332V118.873H294.274V110.815Z" fill="#F5F5F5"/>
<path d="M317.197 110.815H298.255V118.873H317.197V110.815Z" fill="#F5F5F5"/>
<path d="M132.395 32.5764H34.9904V140.36H132.395V32.5764Z" fill="#E9E9E9"/>
<path d="M128.362 36.8469H39.2758V136.312H128.362V36.8469Z" fill="#F4F4F4"/>
<path d="M64.4527 36.8469L39.2758 131.141V80.0956L50.7929 36.8469H64.4527Z" fill="white"/>
<path d="M75.702 36.8469L49.1486 136.312H44.1415L70.6948 36.8469H75.702Z" fill="white"/>
<path d="M128.362 63.9731V115.026L122.723 136.312H109.063L128.362 63.9731Z" fill="white"/>
<path d="M85.4186 32.5764H81.959V140.36H85.4186V32.5764Z" fill="#E9E9E9"/>
<path d="M130.52 54.45H36.6792V57.9096H130.52V54.45Z" fill="#E9E9E9"/>
<path d="M327.561 53.0142H291.402V99.8266H327.561V53.0142Z" fill="#E0E0E0"/>
<path d="M325.5 55.6851H293.463V97.1631H325.5V55.6851Z" fill="#F0F0F0"/>
<path d="M323.216 58.6387H295.747V94.2019H323.216V58.6387Z" fill="#EBEBEB"/>
<path d="M327.561 118.308H291.402V148.484H327.561V118.308Z" fill="#E0E0E0"/>
<path d="M325.5 120.026H293.463V146.765H325.5V120.026Z" fill="#F0F0F0"/>
<path d="M323.216 121.931H295.747V144.861H323.216V121.931Z" fill="#EBEBEB"/>
<path d="M186 290.105C265.669 290.105 330.254 286.334 330.254 281.683C330.254 277.031 265.669 273.26 186 273.26C106.331 273.26 41.7458 277.031 41.7458 281.683C41.7458 286.334 106.331 290.105 186 290.105Z" fill="#F5F5F5"/>
<path d="M52.1172 226.448C52.2734 227.542 49.3123 228.263 46.9092 228.68C47.1026 230.667 48.3972 232.675 50.2497 234.55C52.5487 233.256 55.8223 231.574 56.4249 231.961C57.0276 232.348 53.7317 234.587 51.6336 235.867C53.1319 237.177 54.7206 238.381 56.3877 239.468C57.4145 238.501 58.6197 237.66 59.3637 238.114C60.1077 238.568 59.9069 240.078 59.5423 241.403C62.0421 242.891 63.9096 243.746 63.9096 243.746C64.636 241.426 65.193 239.056 65.5761 236.656C65.4497 236.41 65.3232 236.157 65.2116 235.912C64.8098 234.982 65.2116 234.587 65.8663 234.424C66.0446 232.727 66.0446 231.017 65.8663 229.32C63.0465 228.725 59.6093 227.624 60.8964 225.935C61.6404 224.908 63.1284 224.796 64.5717 225.049C64.3685 224.711 64.1343 224.392 63.8724 224.097C58.7239 218.428 55.1378 224.097 55.1378 224.097C52.1618 221.605 47.9508 222.282 47.0431 226.173C48.7171 225.704 51.9312 225.057 52.1172 226.448Z" fill="#5748AE"/>
<path opacity="0.3" d="M52.1172 226.448C52.2734 227.542 49.3123 228.263 46.9092 228.68C47.1026 230.667 48.3972 232.675 50.2497 234.55C52.5487 233.256 55.8223 231.574 56.4249 231.961C57.0276 232.348 53.7317 234.587 51.6336 235.867C53.1319 237.177 54.7206 238.381 56.3877 239.468C57.4145 238.501 58.6197 237.66 59.3637 238.114C60.1077 238.568 59.9069 240.078 59.5423 241.403C62.0421 242.891 63.9096 243.746 63.9096 243.746C64.636 241.426 65.193 239.056 65.5761 236.656C65.4497 236.41 65.3232 236.157 65.2116 235.912C64.8098 234.982 65.2116 234.587 65.8663 234.424C66.0446 232.727 66.0446 231.017 65.8663 229.32C63.0465 228.725 59.6093 227.624 60.8964 225.935C61.6404 224.908 63.1284 224.796 64.5717 225.049C64.3685 224.711 64.1343 224.392 63.8724 224.097C58.7239 218.428 55.1378 224.097 55.1378 224.097C52.1618 221.605 47.9508 222.282 47.0431 226.173C48.7171 225.704 51.9312 225.057 52.1172 226.448Z" fill="white"/>
<path d="M58.5379 268.067L57.7939 268C57.7939 267.621 60.8443 229.67 52.3255 226.091C51.92 225.899 51.4751 225.805 51.0267 225.817C50.5782 225.829 50.1388 225.945 49.7438 226.158C46.6636 227.757 45.1905 234.401 45.1756 234.468L44.4316 234.312C44.4986 234.022 46.0015 227.259 49.3867 225.496C49.8796 225.235 50.4259 225.091 50.9833 225.076C51.5407 225.06 52.0941 225.173 52.6008 225.406C61.6255 229.193 58.6718 266.483 58.5379 268.067Z" fill="#5748AE"/>
<path d="M59.6093 267.242C59.4605 265.538 55.986 225.377 62.4886 221.114C64.0435 220.094 65.4646 219.879 66.6178 220.474C69.683 222.021 70.0922 228.591 70.1071 228.866L69.3631 228.911C69.3631 228.851 68.9688 222.497 66.2755 221.136C65.353 220.675 64.2146 220.876 62.8903 221.739C56.7598 225.764 60.3161 266.765 60.3533 267.175L59.6093 267.242Z" fill="#5748AE"/>
<path d="M60.5914 270.485C60.5393 269.183 59.4679 238.441 65.3902 235.755C65.9405 235.496 66.5414 235.362 67.1497 235.362C67.7581 235.362 68.3589 235.496 68.9093 235.755C72.9715 237.541 75.4788 245.115 75.6053 245.427L74.8613 245.658C74.8613 245.584 72.354 238.084 68.5968 236.425C68.1407 236.21 67.6427 236.099 67.1386 236.099C66.6344 236.099 66.1364 236.21 65.6803 236.425C61.1419 238.486 60.9931 261.721 61.3205 270.456L60.5914 270.485Z" fill="#5748AE"/>
<path d="M59.0811 269.079L58.3371 268.997C59.3787 259.854 61.3726 235.473 58.1139 232.541C57.9552 232.352 57.7449 232.212 57.5086 232.14C57.2722 232.067 57.0199 232.065 56.7821 232.132C54.6022 232.966 53.2705 240.897 52.9431 243.88L52.1991 243.798C52.3256 242.66 53.516 232.586 56.5143 231.433C56.8803 231.311 57.2739 231.299 57.6467 231.399C58.0194 231.498 58.3551 231.704 58.6124 231.991C62.8309 235.77 59.2373 267.725 59.0811 269.079Z" fill="#5748AE"/>
<path d="M46.6711 251.737H73.3956L71.1636 281.683H48.8957L46.6711 251.737Z" fill="#5748AE"/>
<path opacity="0.2" d="M54.7882 251.737L55.5322 281.683H71.1636L73.3956 251.737H54.7882Z" fill="white"/>
<path d="M50.3093 240.755C50.0266 241.499 47.9509 240.904 46.3215 240.324C45.7635 241.618 45.89 243.3 46.3736 245.093C48.2336 245.093 50.8376 245.152 51.0682 245.613C51.2989 246.075 48.5089 246.313 46.7753 246.357C47.2484 247.695 47.8152 248.998 48.4717 250.256C49.4389 250.018 50.4656 249.906 50.7557 250.435C51.0459 250.963 50.4209 251.833 49.7365 252.525C50.7781 254.281 51.6262 255.464 51.6262 255.464C52.8679 254.283 54.0241 253.015 55.0858 251.67C55.0858 251.469 55.0858 251.275 55.0858 251.067C55.1528 250.36 55.5322 250.249 55.9861 250.397C56.6888 249.417 57.2849 248.365 57.7642 247.258C56.2241 245.926 54.4832 244.066 55.8596 243.463C56.6854 243.099 57.6005 243.515 58.4264 244.207C58.4179 243.929 58.383 243.653 58.3222 243.381C57.0946 238.129 52.9357 240.405 52.9357 240.405C51.9461 237.846 49.1264 236.819 47.2292 238.917C48.4493 239.148 50.6516 239.84 50.3093 240.755Z" fill="#5748AE"/>
<path opacity="0.3" d="M50.3093 240.755C50.0266 241.499 47.9509 240.904 46.3215 240.324C45.7635 241.618 45.89 243.3 46.3736 245.093C48.2336 245.093 50.8376 245.152 51.0682 245.613C51.2989 246.075 48.5089 246.313 46.7753 246.357C47.2484 247.695 47.8152 248.998 48.4717 250.256C49.4389 250.018 50.4656 249.906 50.7557 250.435C51.0459 250.963 50.4209 251.833 49.7365 252.525C50.7781 254.281 51.6262 255.464 51.6262 255.464C52.8679 254.283 54.0241 253.015 55.0858 251.67C55.0858 251.469 55.0858 251.275 55.0858 251.067C55.1528 250.36 55.5322 250.249 55.9861 250.397C56.6888 249.417 57.2849 248.365 57.7642 247.258C56.2241 245.926 54.4832 244.066 55.8596 243.463C56.6854 243.099 57.6005 243.515 58.4264 244.207C58.4179 243.929 58.383 243.653 58.3222 243.381C57.0946 238.129 52.9357 240.405 52.9357 240.405C51.9461 237.846 49.1264 236.819 47.2292 238.917C48.4493 239.148 50.6516 239.84 50.3093 240.755Z" fill="white"/>
<path d="M70.1518 244.304C69.3204 244.379 68.5011 244.554 67.7115 244.825C67.4952 244.259 67.3745 243.66 67.3543 243.054C67.1832 237.66 71.0743 239.937 73.0831 238.352C73.544 237.944 74.0857 237.638 74.6728 237.453C75.2599 237.269 75.8793 237.21 76.4907 237.281C76.3177 237.578 76.1636 237.886 76.0294 238.203C75.982 238.322 75.9619 238.449 75.9705 238.576C75.9791 238.703 76.0162 238.827 76.0791 238.938C76.142 239.048 76.2291 239.144 76.3338 239.216C76.4385 239.289 76.5583 239.337 76.6841 239.356C77.1864 239.458 77.708 239.395 78.1721 239.178C78.3103 239.099 78.4422 239.01 78.5664 238.91C78.8933 239.475 79.1435 240.08 79.3104 240.711C79.516 241.463 79.6334 242.237 79.6601 243.017C79.3552 243.083 79.0546 243.167 78.7599 243.27C78.642 243.319 78.5371 243.396 78.4533 243.492C78.3695 243.589 78.3091 243.703 78.2767 243.827C78.2443 243.951 78.2409 244.08 78.2666 244.206C78.2923 244.331 78.3466 244.449 78.4251 244.55C78.7427 244.877 79.1187 245.142 79.5336 245.331C79.397 246.195 79.1701 247.043 78.8566 247.86C78.7673 247.86 78.6706 247.86 78.5813 247.905C78.492 247.95 78.1944 247.994 78.001 248.046C77.8881 248.075 77.7784 248.115 77.6736 248.165C77.5422 248.224 77.4276 248.315 77.3405 248.429C77.2534 248.543 77.1965 248.678 77.1751 248.82C77.1607 248.96 77.1817 249.102 77.2363 249.232C77.2909 249.362 77.3773 249.476 77.4876 249.564C77.6154 249.656 77.7497 249.738 77.8894 249.81C77.3791 250.704 76.6427 251.448 75.7541 251.967C74.9888 251.609 74.2437 251.209 73.5221 250.769C73.6858 250.554 73.842 250.338 73.9908 250.115C74.1678 249.869 74.2498 249.568 74.2215 249.267C74.1812 248.971 74.0262 248.704 73.7899 248.523C73.6677 248.431 73.5285 248.365 73.3805 248.328C73.2325 248.291 73.0786 248.284 72.9277 248.307C72.7769 248.329 72.632 248.382 72.5016 248.461C72.3712 248.54 72.2578 248.645 72.168 248.768C71.9895 249.028 71.796 249.281 71.6026 249.512C70.5714 248.758 69.65 247.864 68.8647 246.856H68.9465C69.4335 246.725 69.9317 246.641 70.4345 246.603C70.7364 246.564 71.0103 246.406 71.1958 246.164C71.3814 245.923 71.4635 245.618 71.424 245.316C71.3846 245.014 71.2268 244.74 70.9854 244.555C70.744 244.369 70.4388 244.287 70.1369 244.326L70.1518 244.304Z" fill="#5748AE"/>
<path opacity="0.5" d="M70.1518 244.304C69.3204 244.379 68.5011 244.554 67.7115 244.825C67.4952 244.259 67.3745 243.66 67.3543 243.054C67.1832 237.66 71.0743 239.937 73.0831 238.352C73.544 237.944 74.0857 237.638 74.6728 237.453C75.2599 237.269 75.8793 237.21 76.4907 237.281C76.3177 237.578 76.1636 237.886 76.0294 238.203C75.982 238.322 75.9619 238.449 75.9705 238.576C75.9791 238.703 76.0162 238.827 76.0791 238.938C76.142 239.048 76.2291 239.144 76.3338 239.216C76.4385 239.289 76.5583 239.337 76.6841 239.356C77.1864 239.458 77.708 239.395 78.1721 239.178C78.3103 239.099 78.4422 239.01 78.5664 238.91C78.8933 239.475 79.1435 240.08 79.3104 240.711C79.516 241.463 79.6334 242.237 79.6601 243.017C79.3552 243.083 79.0546 243.167 78.7599 243.27C78.642 243.319 78.5371 243.396 78.4533 243.492C78.3695 243.589 78.3091 243.703 78.2767 243.827C78.2443 243.951 78.2409 244.08 78.2666 244.206C78.2923 244.331 78.3466 244.449 78.4251 244.55C78.7427 244.877 79.1187 245.142 79.5336 245.331C79.397 246.195 79.1701 247.043 78.8566 247.86C78.7673 247.86 78.6706 247.86 78.5813 247.905C78.492 247.95 78.1944 247.994 78.001 248.046C77.8881 248.075 77.7784 248.115 77.6736 248.165C77.5422 248.224 77.4276 248.315 77.3405 248.429C77.2534 248.543 77.1965 248.678 77.1751 248.82C77.1607 248.96 77.1817 249.102 77.2363 249.232C77.2909 249.362 77.3773 249.476 77.4876 249.564C77.6154 249.656 77.7497 249.738 77.8894 249.81C77.3791 250.704 76.6427 251.448 75.7541 251.967C74.9888 251.609 74.2437 251.209 73.5221 250.769C73.6858 250.554 73.842 250.338 73.9908 250.115C74.1678 249.869 74.2498 249.568 74.2215 249.267C74.1812 248.971 74.0262 248.704 73.7899 248.523C73.6677 248.431 73.5285 248.365 73.3805 248.328C73.2325 248.291 73.0786 248.284 72.9277 248.307C72.7769 248.329 72.632 248.382 72.5016 248.461C72.3712 248.54 72.2578 248.645 72.168 248.768C71.9895 249.028 71.796 249.281 71.6026 249.512C70.5714 248.758 69.65 247.864 68.8647 246.856H68.9465C69.4335 246.725 69.9317 246.641 70.4345 246.603C70.7364 246.564 71.0103 246.406 71.1958 246.164C71.3814 245.923 71.4635 245.618 71.424 245.316C71.3846 245.014 71.2268 244.74 70.9854 244.555C70.744 244.369 70.4388 244.287 70.1369 244.326L70.1518 244.304Z" fill="white"/>
<path d="M71.6993 225.704C72.1628 225.38 72.6621 225.11 73.1873 224.901C73.0496 224.51 72.8512 224.143 72.5996 223.814C70.3229 220.913 69.2888 223.814 67.5255 223.859C67.109 223.853 66.6958 223.934 66.3117 224.095C65.9277 224.256 65.5811 224.495 65.2935 224.796C65.5156 224.875 65.7319 224.97 65.9408 225.079C66.0166 225.121 66.0822 225.18 66.1328 225.25C66.1834 225.321 66.2177 225.402 66.2334 225.487C66.249 225.572 66.2456 225.66 66.2233 225.744C66.201 225.828 66.1604 225.906 66.1045 225.972C65.8793 226.25 65.5721 226.451 65.2265 226.545C65.1202 226.556 65.0129 226.556 64.9066 226.545C64.9814 226.985 65.1166 227.413 65.3084 227.817C65.5325 228.302 65.8095 228.761 66.1342 229.186C66.3252 229.089 66.5215 229.002 66.722 228.926C66.8057 228.899 66.8944 228.893 66.9811 228.906C67.0678 228.919 67.1503 228.953 67.2222 229.003C67.2941 229.053 67.3535 229.119 67.3957 229.196C67.438 229.273 67.462 229.359 67.466 229.446C67.4379 229.759 67.3548 230.063 67.2205 230.347C67.6775 230.742 68.1765 231.086 68.7085 231.373L68.8721 231.277C68.9912 231.21 69.1177 231.15 69.2367 231.098L69.4599 231.016C69.5547 230.987 69.6555 230.984 69.7521 231.006C69.8487 231.028 69.9378 231.075 70.0105 231.143C70.0864 231.209 70.1431 231.294 70.1746 231.39C70.206 231.485 70.211 231.588 70.189 231.686C70.1621 231.79 70.1273 231.892 70.0849 231.991C70.7453 232.236 71.4587 232.303 72.1532 232.184C72.4064 231.657 72.6299 231.115 72.8228 230.562L72.2871 230.421C72.0854 230.37 71.9085 230.249 71.7886 230.079C71.6804 229.903 71.6432 229.693 71.6845 229.491C71.7314 229.288 71.8572 229.111 72.0341 229C72.1196 228.943 72.216 228.904 72.3171 228.886C72.4183 228.868 72.522 228.872 72.6219 228.896C72.8302 228.955 73.046 229 73.2617 229.045C73.4704 228.196 73.563 227.322 73.537 226.448H73.4775C73.1611 226.602 72.8576 226.781 72.5698 226.984C72.3952 227.095 72.1834 227.133 71.9811 227.088C71.7788 227.043 71.6025 226.92 71.491 226.746C71.3914 226.577 71.3576 226.377 71.3961 226.185C71.4345 225.993 71.5425 225.822 71.6993 225.704Z" fill="#5748AE"/>
<path opacity="0.3" d="M71.6993 225.704C72.1628 225.38 72.6621 225.11 73.1873 224.901C73.0496 224.51 72.8512 224.143 72.5996 223.814C70.3229 220.913 69.2888 223.814 67.5255 223.859C67.109 223.853 66.6958 223.934 66.3117 224.095C65.9277 224.256 65.5811 224.495 65.2935 224.796C65.5156 224.875 65.7319 224.97 65.9408 225.079C66.0166 225.121 66.0822 225.18 66.1328 225.25C66.1834 225.321 66.2177 225.402 66.2334 225.487C66.249 225.572 66.2456 225.66 66.2233 225.744C66.201 225.828 66.1604 225.906 66.1045 225.972C65.8793 226.25 65.5721 226.451 65.2265 226.545C65.1202 226.556 65.0129 226.556 64.9066 226.545C64.9814 226.985 65.1166 227.413 65.3084 227.817C65.5325 228.302 65.8095 228.761 66.1342 229.186C66.3252 229.089 66.5215 229.002 66.722 228.926C66.8057 228.899 66.8944 228.893 66.9811 228.906C67.0678 228.919 67.1503 228.953 67.2222 229.003C67.2941 229.053 67.3535 229.119 67.3957 229.196C67.438 229.273 67.462 229.359 67.466 229.446C67.4379 229.759 67.3548 230.063 67.2205 230.347C67.6775 230.742 68.1765 231.086 68.7085 231.373L68.8721 231.277C68.9912 231.21 69.1177 231.15 69.2367 231.098L69.4599 231.016C69.5547 230.987 69.6555 230.984 69.7521 231.006C69.8487 231.028 69.9378 231.075 70.0105 231.143C70.0864 231.209 70.1431 231.294 70.1746 231.39C70.206 231.485 70.211 231.588 70.189 231.686C70.1621 231.79 70.1273 231.892 70.0849 231.991C70.7453 232.236 71.4587 232.303 72.1532 232.184C72.4064 231.657 72.6299 231.115 72.8228 230.562L72.2871 230.421C72.0854 230.37 71.9085 230.249 71.7886 230.079C71.6804 229.903 71.6432 229.693 71.6845 229.491C71.7314 229.288 71.8572 229.111 72.0341 229C72.1196 228.943 72.216 228.904 72.3171 228.886C72.4183 228.868 72.522 228.872 72.6219 228.896C72.8302 228.955 73.046 229 73.2617 229.045C73.4704 228.196 73.563 227.322 73.537 226.448H73.4775C73.1611 226.602 72.8576 226.781 72.5698 226.984C72.3952 227.095 72.1834 227.133 71.9811 227.088C71.7788 227.043 71.6025 226.92 71.491 226.746C71.3914 226.577 71.3576 226.377 71.3961 226.185C71.4345 225.993 71.5425 225.822 71.6993 225.704Z" fill="white"/>
<path d="M49.9224 231.113C49.7662 232.214 52.7273 232.928 55.1304 233.345C54.937 235.332 53.6424 237.34 51.7898 239.215C49.4909 237.921 46.2173 236.239 45.6146 236.634C45.012 237.028 48.3079 239.26 50.406 240.532C48.9077 241.842 47.319 243.046 45.6518 244.133C44.6251 243.173 43.4198 242.325 42.6758 242.786C41.9318 243.248 42.1327 244.743 42.4973 246.075C39.9974 247.526 38.13 248.411 38.13 248.411C37.4191 246.092 36.877 243.725 36.5081 241.328C36.6346 241.083 36.761 240.83 36.8726 240.584C37.2744 239.647 36.8726 239.252 36.2179 239.096C36.0397 237.397 36.0397 235.684 36.2179 233.985C39.0377 233.39 42.475 232.296 41.1878 230.6C40.4438 229.58 38.9558 229.461 37.5125 229.722C37.7158 229.383 37.9499 229.065 38.2118 228.769C43.3603 223.1 46.9464 228.769 46.9464 228.769C49.9224 226.277 54.1334 226.947 55.0411 230.845C53.3225 230.406 50.1158 229.766 49.9224 231.113Z" fill="#5748AE"/>
<path opacity="0.5" d="M49.9224 231.113C49.7662 232.214 52.7273 232.928 55.1304 233.345C54.937 235.332 53.6424 237.34 51.7898 239.215C49.4909 237.921 46.2173 236.239 45.6146 236.634C45.012 237.028 48.3079 239.26 50.406 240.532C48.9077 241.842 47.319 243.046 45.6518 244.133C44.6251 243.173 43.4198 242.325 42.6758 242.786C41.9318 243.248 42.1327 244.743 42.4973 246.075C39.9974 247.526 38.13 248.411 38.13 248.411C37.4191 246.092 36.877 243.725 36.5081 241.328C36.6346 241.083 36.761 240.83 36.8726 240.584C37.2744 239.647 36.8726 239.252 36.2179 239.096C36.0397 237.397 36.0397 235.684 36.2179 233.985C39.0377 233.39 42.475 232.296 41.1878 230.6C40.4438 229.58 38.9558 229.461 37.5125 229.722C37.7158 229.383 37.9499 229.065 38.2118 228.769C43.3603 223.1 46.9464 228.769 46.9464 228.769C49.9224 226.277 54.1334 226.947 55.0411 230.845C53.3225 230.406 50.1158 229.766 49.9224 231.113Z" fill="white"/>
<path d="M321.125 263.254C321.28 262.931 321.354 262.577 321.343 262.22C321.332 261.862 321.235 261.513 321.061 261.201C320.887 260.889 320.64 260.623 320.342 260.426C320.044 260.229 319.702 260.107 319.347 260.069C319.66 259.153 319.685 258.163 319.419 257.232C319.153 256.302 318.609 255.474 317.859 254.861C317.679 254.695 317.449 254.593 317.204 254.571C316.944 254.599 316.699 254.709 316.505 254.884L312.361 257.86C312.025 258.063 311.742 258.344 311.535 258.678C310.687 260.315 313.767 262.398 312.487 263.782C312.13 264.169 311.542 264.251 311.096 264.526C310.107 265.144 309.988 266.505 309.526 267.569C309.065 268.633 307.465 269.474 306.848 268.484C307.302 267.457 305.933 266.572 304.817 266.438C303.701 266.304 302.54 266.252 301.93 265.203C300.345 266.587 296.811 262.733 296.893 261.178C295.591 261.275 294.706 262.495 294.423 263.708C294.241 264.991 294.196 266.291 294.289 267.584C294.289 270.099 293.441 272.561 293.486 275.076C293.486 277.033 294.274 279.205 296.067 279.994C296.956 280.31 297.901 280.439 298.842 280.373L319.25 280.239C319.732 280.276 320.216 280.199 320.664 280.016C321.586 279.532 321.78 278.327 321.869 277.293L322.963 263.99L321.125 263.254Z" fill="#5748AE"/>
<path opacity="0.3" d="M321.125 263.254C321.28 262.931 321.354 262.577 321.343 262.22C321.332 261.862 321.235 261.513 321.061 261.201C320.887 260.889 320.64 260.623 320.342 260.426C320.044 260.229 319.702 260.107 319.347 260.069C319.66 259.153 319.685 258.163 319.419 257.232C319.153 256.302 318.609 255.474 317.859 254.861C317.679 254.695 317.449 254.593 317.204 254.571C316.944 254.599 316.699 254.709 316.505 254.884L312.361 257.86C312.025 258.063 311.742 258.344 311.535 258.678C310.687 260.315 313.767 262.398 312.487 263.782C312.13 264.169 311.542 264.251 311.096 264.526C310.107 265.144 309.988 266.505 309.526 267.569C309.065 268.633 307.465 269.474 306.848 268.484C307.302 267.457 305.933 266.572 304.817 266.438C303.701 266.304 302.54 266.252 301.93 265.203C300.345 266.587 296.811 262.733 296.893 261.178C295.591 261.275 294.706 262.495 294.423 263.708C294.241 264.991 294.196 266.291 294.289 267.584C294.289 270.099 293.441 272.561 293.486 275.076C293.486 277.033 294.274 279.205 296.067 279.994C296.956 280.31 297.901 280.439 298.842 280.373L319.25 280.239C319.732 280.276 320.216 280.199 320.664 280.016C321.586 279.532 321.78 278.327 321.869 277.293L322.963 263.99L321.125 263.254Z" fill="white"/>
<path d="M322.316 241.678H290.651L290.911 244.877L291.097 247.161L291.581 253.113L291.856 256.528L292.221 261.074L292.377 263.023L292.429 263.603L292.615 265.895L292.868 269.035L293.024 270.984L293.188 272.963L293.374 275.254L293.515 276.988L293.672 278.937L293.739 279.785H322.799L322.866 278.937L323.022 276.995L323.164 275.247L323.35 272.956L323.513 270.984L323.67 269.035L323.923 265.888L324.109 263.603L324.153 263.023L324.31 261.074L324.682 256.528L324.957 253.12L325.433 247.168L325.619 244.884L325.879 241.685L322.316 241.678ZM324.22 243.776L323.61 243.166H324.272L324.22 243.776ZM324.064 245.718L324.005 246.462L321.17 249.296L317.919 246.045L320.828 243.136H321.512L324.064 245.718ZM323.246 255.851L321.17 257.927L317.919 254.675L321.17 251.432L323.402 253.664L323.246 255.851ZM293.136 253.678L295.368 251.446L298.619 254.69L295.368 257.927L293.3 255.851L293.136 253.678ZM320.143 250.375L316.892 253.626L313.641 250.375L316.892 247.124L320.143 250.375ZM315.032 243.166H318.752L316.892 245.026L315.032 243.166ZM315.835 254.675L312.592 257.927L309.34 254.675L312.592 251.432L315.835 254.675ZM305.04 258.976L308.291 255.732L311.535 258.976L308.291 262.227L305.04 258.976ZM307.235 263.276L303.983 266.527L300.74 263.284L303.991 260.032L307.235 263.276ZM312.592 260.032L315.835 263.284L312.592 266.527L309.34 263.276L312.592 260.032ZM308.291 253.626L305.04 250.375L308.291 247.124L311.535 250.375L308.291 253.626ZM307.235 254.675L303.991 257.927L300.74 254.675L303.991 251.432L307.235 254.675ZM299.683 253.626L296.439 250.375L299.683 247.124L302.934 250.375L299.683 253.626ZM299.683 255.732L302.934 258.976L299.683 262.227L296.439 258.976L299.683 255.732ZM302.934 267.584L299.683 270.828L296.439 267.584L299.683 264.333L302.934 267.584ZM303.983 268.633L307.235 271.884L303.991 275.135L300.74 271.884L303.983 268.633ZM305.04 267.584L308.291 264.333L311.535 267.584L308.291 270.828L305.04 267.584ZM312.592 268.633L315.835 271.884L312.592 275.135L309.34 271.884L312.592 268.633ZM316.892 272.933L320.143 276.184L318.038 278.29H315.746L313.641 276.184L316.892 272.933ZM313.641 267.584L316.892 264.333L320.143 267.584L316.892 270.828L313.641 267.584ZM313.641 258.976L316.892 255.732L320.143 258.976L316.892 262.227L313.641 258.976ZM315.873 246.075L312.629 249.326L309.377 246.075L312.287 243.166H312.971L315.873 246.075ZM308.269 245.048L306.409 243.188H310.129L308.269 245.048ZM307.212 246.097L303.969 249.348L300.717 246.097L303.626 243.188H304.296L307.212 246.097ZM301.521 243.188L299.661 245.048L297.808 243.188H301.521ZM295.703 243.188L298.612 246.097L295.368 249.326L292.541 246.491L292.481 245.747L295.026 243.196L295.703 243.188ZM292.92 243.188L292.318 243.791L292.265 243.188H292.92ZM292.719 248.805L294.311 250.397L292.957 251.744L292.719 248.805ZM293.605 259.705L293.478 258.165L294.311 258.998L293.605 259.705ZM293.761 261.662L295.361 260.055L298.612 263.306L295.368 266.527L294.059 265.218L293.761 261.662ZM294.245 267.673V267.532L294.319 267.606L294.252 267.673H294.245ZM294.81 274.6L294.401 269.615L295.368 268.633L298.619 271.884L295.368 275.128L294.817 274.577L294.81 274.6ZM295.108 278.32L295.048 277.576L295.361 277.263L296.417 278.32H295.108ZM296.417 276.214L299.661 272.963L302.912 276.214L300.807 278.32H298.515L296.417 276.214ZM302.912 278.32L303.969 277.263L305.025 278.32H302.912ZM307.123 278.32L305.04 276.184L308.291 272.933L311.535 276.184L309.437 278.29L307.123 278.32ZM311.513 278.32L312.569 277.263L313.626 278.32H311.513ZM321.423 278.32H320.113L321.17 277.263L321.482 277.576L321.423 278.32ZM321.728 274.6L321.17 275.15L317.919 271.906L321.17 268.655L322.152 269.6L321.728 274.6ZM322.301 267.524V267.673L322.234 267.606L322.316 267.524H322.301ZM322.487 265.24L321.17 266.55L317.919 263.306L321.17 260.055L322.777 261.662L322.487 265.24ZM322.933 259.712L322.189 258.968L323.03 258.135L322.933 259.712ZM323.819 248.768L323.58 251.744L322.219 250.383L323.819 248.783V248.768Z" fill="#5748AE"/>
<g opacity="0.6">
<path d="M322.316 241.678H290.651L290.911 244.877L291.097 247.161L291.581 253.113L291.856 256.528L292.221 261.074L292.377 263.023L292.429 263.603L292.615 265.895L292.868 269.035L293.024 270.984L293.188 272.963L293.374 275.254L293.515 276.988L293.672 278.937L293.739 279.785H322.799L322.866 278.937L323.022 276.995L323.164 275.247L323.35 272.956L323.513 270.984L323.67 269.035L323.923 265.888L324.109 263.603L324.153 263.023L324.31 261.074L324.682 256.528L324.957 253.12L325.433 247.168L325.619 244.884L325.879 241.685L322.316 241.678ZM324.22 243.776L323.61 243.166H324.272L324.22 243.776ZM324.064 245.718L324.005 246.462L321.17 249.296L317.919 246.045L320.828 243.136H321.512L324.064 245.718ZM323.246 255.851L321.17 257.927L317.919 254.675L321.17 251.432L323.402 253.664L323.246 255.851ZM293.136 253.678L295.368 251.446L298.619 254.69L295.368 257.927L293.3 255.851L293.136 253.678ZM320.143 250.375L316.892 253.626L313.641 250.375L316.892 247.124L320.143 250.375ZM315.032 243.166H318.752L316.892 245.026L315.032 243.166ZM315.835 254.675L312.592 257.927L309.34 254.675L312.592 251.432L315.835 254.675ZM305.04 258.976L308.291 255.732L311.535 258.976L308.291 262.227L305.04 258.976ZM307.235 263.276L303.983 266.527L300.74 263.284L303.991 260.032L307.235 263.276ZM312.592 260.032L315.835 263.284L312.592 266.527L309.34 263.276L312.592 260.032ZM308.291 253.626L305.04 250.375L308.291 247.124L311.535 250.375L308.291 253.626ZM307.235 254.675L303.991 257.927L300.74 254.675L303.991 251.432L307.235 254.675ZM299.683 253.626L296.439 250.375L299.683 247.124L302.934 250.375L299.683 253.626ZM299.683 255.732L302.934 258.976L299.683 262.227L296.439 258.976L299.683 255.732ZM302.934 267.584L299.683 270.828L296.439 267.584L299.683 264.333L302.934 267.584ZM303.983 268.633L307.235 271.884L303.991 275.135L300.74 271.884L303.983 268.633ZM305.04 267.584L308.291 264.333L311.535 267.584L308.291 270.828L305.04 267.584ZM312.592 268.633L315.835 271.884L312.592 275.135L309.34 271.884L312.592 268.633ZM316.892 272.933L320.143 276.184L318.038 278.29H315.746L313.641 276.184L316.892 272.933ZM313.641 267.584L316.892 264.333L320.143 267.584L316.892 270.828L313.641 267.584ZM313.641 258.976L316.892 255.732L320.143 258.976L316.892 262.227L313.641 258.976ZM315.873 246.075L312.629 249.326L309.377 246.075L312.287 243.166H312.971L315.873 246.075ZM308.269 245.048L306.409 243.188H310.129L308.269 245.048ZM307.212 246.097L303.969 249.348L300.717 246.097L303.626 243.188H304.296L307.212 246.097ZM301.521 243.188L299.661 245.048L297.808 243.188H301.521ZM295.703 243.188L298.612 246.097L295.368 249.326L292.541 246.491L292.481 245.747L295.026 243.196L295.703 243.188ZM292.92 243.188L292.318 243.791L292.265 243.188H292.92ZM292.719 248.805L294.311 250.397L292.957 251.744L292.719 248.805ZM293.605 259.705L293.478 258.165L294.311 258.998L293.605 259.705ZM293.761 261.662L295.361 260.055L298.612 263.306L295.368 266.527L294.059 265.218L293.761 261.662ZM294.245 267.673V267.532L294.319 267.606L294.252 267.673H294.245ZM294.81 274.6L294.401 269.615L295.368 268.633L298.619 271.884L295.368 275.128L294.817 274.577L294.81 274.6ZM295.108 278.32L295.048 277.576L295.361 277.263L296.417 278.32H295.108ZM296.417 276.214L299.661 272.963L302.912 276.214L300.807 278.32H298.515L296.417 276.214ZM302.912 278.32L303.969 277.263L305.025 278.32H302.912ZM307.123 278.32L305.04 276.184L308.291 272.933L311.535 276.184L309.437 278.29L307.123 278.32ZM311.513 278.32L312.569 277.263L313.626 278.32H311.513ZM321.423 278.32H320.113L321.17 277.263L321.482 277.576L321.423 278.32ZM321.728 274.6L321.17 275.15L317.919 271.906L321.17 268.655L322.152 269.6L321.728 274.6ZM322.301 267.524V267.673L322.234 267.606L322.316 267.524H322.301ZM322.487 265.24L321.17 266.55L317.919 263.306L321.17 260.055L322.777 261.662L322.487 265.24ZM322.933 259.712L322.189 258.968L323.03 258.135L322.933 259.712ZM323.819 248.768L323.58 251.744L322.219 250.383L323.819 248.783V248.768Z" fill="white"/>
</g>
<path d="M289.847 244.498H326.69C327.364 244.498 327.911 243.951 327.911 243.277V241.574C327.911 240.9 327.364 240.353 326.69 240.353H289.847C289.174 240.353 288.627 240.9 288.627 241.574V243.277C288.627 243.951 289.174 244.498 289.847 244.498Z" fill="#5748AE"/>
<path d="M323.856 277.553H292.675C292.001 277.553 291.454 278.1 291.454 278.774V280.477C291.454 281.151 292.001 281.698 292.675 281.698H323.856C324.53 281.698 325.076 281.151 325.076 280.477V278.774C325.076 278.1 324.53 277.553 323.856 277.553Z" fill="#5748AE"/>
<path d="M203.596 278.148H282.69C284.223 278.148 285.465 276.906 285.465 275.373V67.7675C285.465 66.2349 284.223 64.9924 282.69 64.9924H203.596C202.063 64.9924 200.82 66.2349 200.82 67.7675L200.82 275.373C200.82 276.906 202.063 278.148 203.596 278.148Z" fill="#263238"/>
<path d="M175.361 281.698H278.829C280.423 281.698 281.716 280.405 281.716 278.811V62.1133C281.716 60.519 280.423 59.2266 278.829 59.2266H175.361C173.766 59.2266 172.474 60.519 172.474 62.1133L172.474 278.811C172.474 280.405 173.766 281.698 175.361 281.698Z" fill="#5748AE"/>
<path opacity="0.2" d="M175.361 281.698H278.829C280.423 281.698 281.716 280.405 281.716 278.811V62.1133C281.716 60.519 280.423 59.2266 278.829 59.2266H175.361C173.766 59.2266 172.474 60.519 172.474 62.1133L172.474 278.811C172.474 280.405 173.766 281.698 175.361 281.698Z" fill="white"/>
<path opacity="0.3" d="M175.361 281.698H245.475C247.07 281.698 248.362 280.405 248.362 278.811L248.362 62.1133C248.362 60.519 247.07 59.2266 245.475 59.2266H175.361C173.766 59.2266 172.474 60.519 172.474 62.1133L172.474 278.811C172.474 280.405 173.766 281.698 175.361 281.698Z" fill="black"/>
<path d="M242.923 61.481H170.398C169.009 61.481 167.884 62.6068 167.884 63.9957V116.53C167.884 117.918 169.009 119.044 170.398 119.044H242.923C244.312 119.044 245.438 117.918 245.438 116.53V63.9957C245.438 62.6068 244.312 61.481 242.923 61.481Z" fill="#5748AE"/>
<path d="M242.923 121.417H170.398C169.009 121.417 167.884 122.543 167.884 123.932V276.184C167.884 277.573 169.009 278.699 170.398 278.699H242.923C244.312 278.699 245.438 277.573 245.438 276.184V123.932C245.438 122.543 244.312 121.417 242.923 121.417Z" fill="#5748AE"/>
<path opacity="0.2" d="M242.923 61.481H170.398C169.009 61.481 167.884 62.6068 167.884 63.9957V116.53C167.884 117.918 169.009 119.044 170.398 119.044H242.923C244.312 119.044 245.438 117.918 245.438 116.53V63.9957C245.438 62.6068 244.312 61.481 242.923 61.481Z" fill="white"/>
<path opacity="0.2" d="M242.923 121.417H170.398C169.009 121.417 167.884 122.543 167.884 123.932V276.184C167.884 277.573 169.009 278.699 170.398 278.699H242.923C244.312 278.699 245.438 277.573 245.438 276.184V123.932C245.438 122.543 244.312 121.417 242.923 121.417Z" fill="white"/>
<path opacity="0.2" d="M237.388 61.481H170.398C169.009 61.481 167.884 62.6068 167.884 63.9957V116.53C167.884 117.918 169.009 119.044 170.398 119.044H237.388C238.777 119.044 239.903 117.918 239.903 116.53V63.9957C239.903 62.6068 238.777 61.481 237.388 61.481Z" fill="white"/>
<path opacity="0.2" d="M237.388 121.417H170.398C169.009 121.417 167.884 122.543 167.884 123.932V276.184C167.884 277.573 169.009 278.699 170.398 278.699H237.388C238.777 278.699 239.903 277.573 239.903 276.184V123.932C239.903 122.543 238.777 121.417 237.388 121.417Z" fill="white"/>
<path d="M174.699 128.887H172.467C172.467 128.887 172.987 142.131 174.699 154.823V166.363H172.467C172.467 166.363 169.416 145.694 168.747 126.931H174.699V128.887Z" fill="#5748AE"/>
<path d="M174.699 97.4905C173.187 102.537 172.395 107.772 172.347 113.04H174.699V114.848H168.694C169.223 98.6139 172.467 95.0278 172.467 95.0278H174.699V97.4905Z" fill="#5748AE"/>
<path opacity="0.2" d="M170.926 114.848C171.455 98.6139 174.699 95.0278 174.699 95.0278H172.467C172.467 95.0278 169.223 98.6139 168.694 114.848H170.926Z" fill="white"/>
<path opacity="0.2" d="M168.747 126.923C169.416 145.694 172.467 166.355 172.467 166.355H174.699C174.699 166.355 171.648 145.687 170.979 126.923H168.747Z" fill="white"/>
<path d="M175.435 67.6114L184.512 67.217V76.7477L175.435 77.4322V67.6114Z" fill="#5748AE"/>
<path opacity="0.2" d="M175.435 67.6114L184.512 67.217V76.7477L175.435 77.4322V67.6114Z" fill="white"/>
<path d="M176.789 68.6679C176.831 68.7416 176.888 68.8058 176.956 68.8564C177.024 68.907 177.101 68.9429 177.184 68.9618C177.266 68.9807 177.352 68.9822 177.435 68.9662C177.518 68.9501 177.597 68.917 177.667 68.8687C177.801 68.7646 177.905 68.6009 178.069 68.5786C178.396 68.5414 178.538 69.0548 178.865 69.0845C179.066 69.0845 179.222 68.9208 179.393 68.8167C179.622 68.6968 179.88 68.6451 180.137 68.6679C180.636 68.6625 181.134 68.7049 181.625 68.7944" stroke="#5748AE" stroke-width="0.5" stroke-linecap="round" stroke-linejoin="round"/>
<path d="M177.072 70.022L179.081 70.1857" stroke="#5748AE" stroke-width="0.5" stroke-linecap="round" stroke-linejoin="round"/>
<path d="M179.609 73.3403L180.792 73.5709C180.904 73.5709 181.045 73.5709 181.119 73.5263C181.194 73.4816 181.171 73.3626 181.209 73.2808C181.253 73.2074 181.319 73.1504 181.398 73.1182C181.477 73.086 181.565 73.0804 181.648 73.1022C181.812 73.1487 181.969 73.2162 182.116 73.3031C182.677 73.5096 183.282 73.5685 183.872 73.4742" stroke="#5748AE" stroke-width="0.5" stroke-linecap="round" stroke-linejoin="round"/>
<path d="M179.46 75.6541C180.333 75.664 181.205 75.5917 182.064 75.4383L183.136 75.2896" stroke="#5748AE" stroke-width="0.5" stroke-linecap="round" stroke-linejoin="round"/>
<path d="M225.201 85.408L237.284 87.64L235.372 102.431L222.181 100.645L225.201 85.408Z" fill="#5748AE"/>
<path opacity="0.6" d="M237.284 87.64L235.372 102.431L222.181 100.645L224.718 87.8483L225.201 85.408L227.433 85.8172L237.284 87.64Z" fill="white"/>
<path d="M226.31 89.4851C226.66 89.696 227.062 89.8043 227.47 89.7976C227.732 89.72 228.002 89.6702 228.274 89.6488C228.493 89.6974 228.705 89.7724 228.906 89.872C229.433 89.9793 229.969 90.0268 230.506 90.0133C231.376 90.1175 232.21 90.6904 233.073 90.5193" stroke="#5748AE" stroke-width="0.5" stroke-linecap="round" stroke-linejoin="round"/>
<path d="M226.176 91.717C226.6 91.9277 227.086 91.9779 227.545 91.8584C227.859 91.7727 228.19 91.7727 228.505 91.8584C228.609 91.903 228.698 91.9626 228.795 92.0146C229.337 92.2231 229.927 92.2771 230.499 92.1709" stroke="#5748AE" stroke-width="0.5" stroke-linecap="round" stroke-linejoin="round"/>
<path d="M231.384 94.8717C230.394 94.7638 229.394 94.7813 228.408 94.9238C227.412 95.0725 226.49 95.5397 225.782 96.2555C225.576 96.4608 225.429 96.7179 225.358 96.9995C225.323 97.2323 225.348 97.4702 225.432 97.6903C225.515 97.9104 225.653 98.1055 225.834 98.2569C226.195 98.5541 226.616 98.7698 227.069 98.8893C228.306 99.2871 229.601 99.4732 230.9 99.4398C231.642 99.4657 232.376 99.2854 233.021 98.919C233.342 98.7241 233.594 98.4332 233.74 98.0874C233.887 97.7417 233.922 97.3585 233.839 96.9921C233.807 96.8702 233.746 96.7578 233.661 96.6647C233.581 96.5994 233.49 96.549 233.393 96.5159C232.809 96.2786 232.185 96.1598 231.555 96.1662" stroke="#5748AE" stroke-width="0.5" stroke-linecap="round" stroke-linejoin="round"/>
<path d="M227.88 96.4192C228.551 96.3771 229.225 96.4096 229.889 96.5159C230.633 96.6052 231.332 96.7019 232.054 96.8358" stroke="#5748AE" stroke-width="0.5" stroke-linecap="round" stroke-linejoin="round"/>
<path d="M228.564 97.6838C229.533 97.7222 230.499 97.8092 231.458 97.9442" stroke="#5748AE" stroke-width="0.5" stroke-linecap="round" stroke-linejoin="round"/>
<path opacity="0.1" d="M227.433 85.8172V87.5804L224.718 87.8483L225.201 85.408L227.433 85.8172Z" fill="black"/>
<path d="M212.471 73.6527L224.688 72.3284L227.091 87.0447L213.945 89.113L212.471 73.6527Z" fill="#5748AE"/>
<path opacity="0.6" d="M212.471 73.6527L224.688 72.3284L227.091 87.0447L213.945 89.113L212.471 73.6527Z" fill="white"/>
<path d="M213.997 75.4159C213.997 75.4159 215.023 74.8728 215.611 75.1704C216.489 75.4297 217.42 75.4579 218.312 75.2522C218.886 75.0696 219.477 74.9425 220.075 74.8728C220.45 74.9251 220.831 74.9251 221.206 74.8728C221.452 74.7761 222.969 74.4338 222.969 74.4338" stroke="#5748AE" stroke-width="0.5" stroke-linecap="round" stroke-linejoin="round"/>
<path d="M214.547 77.8862C214.698 77.7611 214.891 77.7003 215.086 77.717C215.281 77.7338 215.462 77.8266 215.589 77.9755C215.753 77.8787 215.879 77.7299 216.05 77.6481C216.21 77.591 216.379 77.5632 216.549 77.5663L218.654 77.4993C218.871 77.5114 219.087 77.4732 219.287 77.3877C219.424 77.2912 219.568 77.2042 219.718 77.1273C219.888 77.0976 220.062 77.0976 220.231 77.1273C221.035 77.1273 221.809 76.3833 222.568 76.6958" stroke="#5748AE" stroke-width="0.5" stroke-linecap="round" stroke-linejoin="round"/>
<path d="M219.971 81.9037C220.321 82.0525 220.715 81.6879 221.094 81.7995C221.191 81.7995 221.28 81.8963 221.385 81.926C221.484 81.9523 221.59 81.942 221.683 81.897C221.776 81.8519 221.849 81.7751 221.89 81.6805C221.89 81.6061 221.935 81.5168 222.01 81.4722C222.051 81.4608 222.095 81.4608 222.136 81.4722L223.758 81.5317" stroke="#5748AE" stroke-width="0.5" stroke-linecap="round" stroke-linejoin="round"/>
<path d="M220.551 83.7712C221.117 83.6149 221.742 83.7712 222.277 83.548C222.411 83.4884 222.538 83.4066 222.672 83.3545C223.148 83.1834 223.721 83.3545 224.16 83.1165" stroke="#5748AE" stroke-width="0.5" stroke-linecap="round" stroke-linejoin="round"/>
<path d="M215.269 87.1265C215.604 87.1265 215.931 87.1265 216.266 87.1265C216.365 87.1344 216.464 87.1191 216.556 87.0819C216.69 87.0149 216.764 86.8736 216.883 86.7769C217.085 86.6505 217.324 86.5955 217.56 86.6206C218.202 86.6123 218.843 86.5701 219.48 86.4941" stroke="#5748AE" stroke-width="0.5" stroke-linecap="round" stroke-linejoin="round"/>
<path d="M211.735 73.1095C212.479 72.1944 214.041 73.1616 213.111 74.4338C212.181 75.7061 210.902 74.1883 211.735 73.1095Z" fill="#263238"/>
<path opacity="0.2" d="M211.631 73.3998C212.055 72.8492 213.007 73.3998 212.449 74.1958C211.891 74.9919 211.132 74.047 211.631 73.3998Z" fill="white"/>
<path d="M179.304 66.4879C180.011 65.5728 181.61 66.54 180.68 67.8122C179.75 69.0845 178.448 67.5742 179.304 66.4879Z" fill="#263238"/>
<path opacity="0.2" d="M179.178 66.7855C179.594 66.2349 180.554 66.7855 179.996 67.5816C179.438 68.3777 178.672 67.4328 179.178 66.7855Z" fill="white"/>
<path d="M235.282 86.5166C235.282 86.5166 234.791 88.9643 235.282 89.1801C235.773 89.3958 237.782 89.4107 237.782 89.1131C237.782 88.8155 237.723 86.3678 237.284 86.3826L235.282 86.5166Z" fill="#5748AE"/>
<path opacity="0.2" d="M235.677 87.1488L237.001 87.0447V87.8482H235.677V87.1488Z" fill="white"/>
<path opacity="0.2" d="M235.677 88.5103L237.001 88.3169V88.8079H235.677V88.5103Z" fill="white"/>
<path d="M224.145 85.0432L225.715 86.628C225.715 86.628 227.53 84.3439 227.433 84.1951C226.721 84.1206 226.003 84.1206 225.291 84.1951V83.771C225.291 83.771 223.944 84.82 224.145 85.0432Z" fill="#263238"/>
<path opacity="0.2" d="M224.145 85.0432L225.715 86.628C225.715 86.628 227.53 84.3439 227.433 84.1951C226.721 84.1206 226.003 84.1206 225.291 84.1951V83.771C225.291 83.771 223.944 84.82 224.145 85.0432Z" fill="white"/>
<path d="M202.911 105.831L212.62 104.938L213.997 115.347L203.499 116.425L202.911 105.831Z" fill="#5748AE"/>
<g opacity="0.6">
<path d="M206.333 107.787C206.205 107.792 206.078 107.758 205.969 107.691C205.864 107.625 205.771 107.542 205.694 107.445C205.645 107.373 205.582 107.312 205.508 107.267C205.351 107.185 205.128 107.267 204.838 107.564C204.821 107.585 204.801 107.602 204.777 107.614C204.753 107.626 204.727 107.633 204.7 107.634C204.674 107.635 204.647 107.63 204.623 107.62C204.598 107.61 204.576 107.595 204.558 107.576C204.539 107.556 204.525 107.533 204.517 107.508C204.508 107.483 204.505 107.456 204.508 107.43C204.51 107.403 204.519 107.378 204.532 107.355C204.545 107.332 204.563 107.312 204.585 107.296C204.734 107.148 205.203 106.701 205.664 106.932C205.787 106.997 205.894 107.088 205.976 107.2C206.024 107.268 206.085 107.326 206.155 107.371C206.326 107.475 206.579 107.371 206.817 107.296H206.914C207.477 107.101 208.085 107.075 208.662 107.222H208.707L208.937 107.267C209.029 107.26 209.119 107.24 209.205 107.207C209.775 107.028 210.376 106.974 210.969 107.051C211.017 107.058 211.06 107.084 211.089 107.123C211.118 107.162 211.131 107.211 211.125 107.259C211.123 107.284 211.116 107.308 211.105 107.33C211.093 107.353 211.077 107.372 211.057 107.387C211.037 107.403 211.015 107.414 210.991 107.42C210.966 107.426 210.941 107.427 210.917 107.423C210.393 107.354 209.86 107.397 209.354 107.549C209.22 107.6 209.08 107.63 208.937 107.639C208.826 107.636 208.716 107.616 208.61 107.579H208.565C208.061 107.452 207.531 107.475 207.04 107.646H206.944C206.75 107.727 206.543 107.775 206.333 107.787Z" fill="white"/>
</g>
<g opacity="0.6">
<path d="M206.505 110.488C206.229 110.488 205.964 110.384 205.761 110.198C205.726 110.163 205.707 110.116 205.707 110.068C205.707 110.019 205.726 109.972 205.761 109.938C205.777 109.92 205.797 109.906 205.82 109.896C205.842 109.886 205.866 109.881 205.891 109.881C205.915 109.881 205.939 109.886 205.962 109.896C205.984 109.906 206.004 109.92 206.021 109.938C206.12 110.027 206.242 110.088 206.373 110.114C206.503 110.14 206.639 110.131 206.765 110.086C206.853 110.052 206.937 110.009 207.018 109.96C207.175 109.851 207.357 109.783 207.546 109.759C207.747 109.758 207.945 109.801 208.126 109.885C208.272 109.965 208.439 109.994 208.603 109.967C208.65 109.948 208.695 109.923 208.737 109.893L208.796 109.856C208.974 109.752 209.171 109.684 209.376 109.657C209.58 109.631 209.788 109.645 209.986 109.699C210.034 109.713 210.074 109.745 210.097 109.789C210.121 109.832 210.127 109.883 210.113 109.93C210.107 109.954 210.096 109.977 210.081 109.996C210.066 110.016 210.047 110.032 210.025 110.044C210.004 110.056 209.98 110.063 209.955 110.065C209.931 110.067 209.906 110.065 209.882 110.057C209.733 110.017 209.577 110.007 209.424 110.027C209.271 110.048 209.123 110.098 208.99 110.176H208.937C208.872 110.218 208.802 110.253 208.729 110.28C208.48 110.348 208.214 110.319 207.985 110.198C207.852 110.134 207.708 110.099 207.561 110.094C207.428 110.117 207.301 110.168 207.189 110.243C207.09 110.304 206.985 110.356 206.877 110.399C206.759 110.45 206.633 110.48 206.505 110.488Z" fill="white"/>
</g>
<g opacity="0.6">
<path d="M206.088 114.722C205.716 114.722 205.344 114.722 205.024 114.677C204.974 114.673 204.928 114.65 204.894 114.613C204.861 114.575 204.843 114.526 204.846 114.476C204.853 114.428 204.877 114.384 204.914 114.353C204.951 114.321 204.998 114.304 205.046 114.305C206.098 114.472 207.175 114.333 208.149 113.903C208.272 113.816 208.415 113.762 208.566 113.747C208.675 113.755 208.783 113.78 208.885 113.821H208.938C209.435 113.939 209.957 113.892 210.426 113.687C210.899 113.507 211.409 113.438 211.914 113.486C211.938 113.49 211.962 113.499 211.983 113.511C212.004 113.524 212.023 113.541 212.037 113.561C212.052 113.582 212.062 113.604 212.068 113.629C212.073 113.653 212.074 113.678 212.07 113.702C212.066 113.727 212.058 113.75 212.045 113.771C212.032 113.792 212.015 113.81 211.994 113.824C211.974 113.838 211.951 113.847 211.927 113.852C211.903 113.857 211.878 113.856 211.854 113.851C211.411 113.819 210.966 113.885 210.552 114.044C210.008 114.271 209.405 114.315 208.833 114.171H208.774L208.603 114.126C208.528 114.141 208.457 114.171 208.394 114.216C207.686 114.59 206.888 114.765 206.088 114.722Z" fill="white"/>
</g>
<path d="M208.625 106.24C208.625 106.24 209.027 103.777 208.528 103.584C208.03 103.39 206.021 103.442 206.028 103.74C206.036 104.038 206.192 106.478 206.624 106.448C207.055 106.418 208.625 106.24 208.625 106.24Z" fill="#263238"/>
<path opacity="0.2" d="M208.208 105.63L206.891 105.779L206.862 104.975L208.186 104.923L208.208 105.63Z" fill="white"/>
<path opacity="0.2" d="M208.164 104.261L206.839 104.506L206.824 104.015L208.149 103.971L208.164 104.261Z" fill="white"/>
<path d="M184.155 139.616L196.364 141.022L195.464 155.909L182.183 155.024L184.155 139.616Z" fill="#5748AE"/>
<path opacity="0.2" d="M184.155 139.616L196.364 141.022L195.464 155.909L182.183 155.024L184.155 139.616Z" fill="white"/>
<path d="M185.256 141.677C185.256 141.677 186.379 141.379 186.893 141.796C187.691 142.241 188.59 142.472 189.504 142.465C190.105 142.406 190.711 142.406 191.312 142.465C191.667 142.595 192.037 142.678 192.413 142.711C192.674 142.666 194.229 142.674 194.229 142.674" stroke="#5748AE" stroke-width="0.5" stroke-linecap="round" stroke-linejoin="round"/>
<path d="M185.256 144.214C185.428 144.126 185.628 144.109 185.813 144.166C185.997 144.223 186.152 144.349 186.246 144.519C186.432 144.467 186.588 144.348 186.774 144.31C186.938 144.273 187.108 144.273 187.272 144.31L189.348 144.712C189.559 144.761 189.777 144.761 189.988 144.712C190.144 144.667 190.303 144.632 190.464 144.608C190.634 144.612 190.802 144.642 190.962 144.697C191.751 144.876 192.659 144.355 193.336 144.794" stroke="#5748AE" stroke-width="0.5" stroke-linecap="round" stroke-linejoin="round"/>
<path d="M189.646 149.325C189.958 149.548 190.434 149.28 190.769 149.466C190.858 149.526 190.925 149.608 191.022 149.66C191.113 149.705 191.217 149.717 191.316 149.694C191.415 149.671 191.503 149.614 191.565 149.533C191.617 149.466 191.654 149.377 191.729 149.355C191.773 149.344 191.819 149.344 191.863 149.355L193.425 149.771" stroke="#5748AE" stroke-width="0.5" stroke-linecap="round" stroke-linejoin="round"/>
<path d="M189.809 151.304C190.39 151.304 190.962 151.579 191.535 151.475C191.677 151.475 191.818 151.393 191.967 151.371C192.465 151.304 192.979 151.631 193.455 151.468" stroke="#5748AE" stroke-width="0.5" stroke-linecap="round" stroke-linejoin="round"/>
<path d="M183.909 153.38L184.877 153.618C184.974 153.64 185.076 153.64 185.174 153.618C185.315 153.618 185.427 153.462 185.561 153.395C185.785 153.316 186.029 153.316 186.253 153.395C186.882 153.527 187.518 153.626 188.158 153.692" stroke="#5748AE" stroke-width="0.5" stroke-linecap="round" stroke-linejoin="round"/>
<path d="M188.046 139.169L189.229 141.059C189.229 141.059 191.461 139.229 191.461 139.065C190.782 138.838 190.081 138.681 189.37 138.597L189.467 138.18C189.467 138.18 187.882 138.909 188.046 139.169Z" fill="#263238"/>
<path opacity="0.2" d="M188.046 139.169L189.229 141.059C189.229 141.059 191.461 139.229 191.461 139.065C190.782 138.838 190.081 138.681 189.37 138.597L189.467 138.18C189.467 138.18 187.882 138.909 188.046 139.169Z" fill="white"/>
<path d="M225.99 152.651L213.721 153.313L212.122 138.485L225.358 137.131L225.99 152.651Z" fill="#5748AE"/>
<path opacity="0.6" d="M213.721 153.313L212.122 138.485L225.358 137.131L225.893 150.166L225.99 152.651L223.728 152.777L213.721 153.313Z" fill="white"/>
<path d="M223.944 148.945C223.553 148.83 223.137 148.83 222.746 148.945C222.51 149.081 222.26 149.193 222.002 149.28C221.777 149.285 221.551 149.26 221.333 149.206C220.797 149.227 220.266 149.307 219.748 149.444C218.877 149.548 217.932 149.184 217.136 149.556" stroke="#5748AE" stroke-width="0.5" stroke-linecap="round" stroke-linejoin="round"/>
<path d="M223.594 146.736C223.135 146.63 222.653 146.696 222.24 146.922C221.953 147.078 221.629 147.155 221.303 147.145L220.975 147.063C220.401 146.985 219.815 147.071 219.286 147.309" stroke="#5748AE" stroke-width="0.5" stroke-linecap="round" stroke-linejoin="round"/>
<path d="M217.791 144.891C218.784 144.768 219.756 144.518 220.685 144.147C221.616 143.766 222.398 143.095 222.917 142.235C223.065 141.992 223.147 141.715 223.155 141.431C223.137 141.198 223.059 140.974 222.929 140.779C222.798 140.585 222.62 140.428 222.411 140.323C221.99 140.113 221.527 140.001 221.057 139.995C219.762 139.894 218.458 140.015 217.203 140.352C216.477 140.505 215.806 140.852 215.261 141.357C214.997 141.615 214.817 141.948 214.747 142.311C214.676 142.674 214.718 143.049 214.867 143.388C214.922 143.501 215.007 143.596 215.113 143.663C215.208 143.711 215.312 143.741 215.418 143.752C216.041 143.843 216.675 143.81 217.285 143.656" stroke="#5748AE" stroke-width="0.5" stroke-linecap="round" stroke-linejoin="round"/>
<path d="M220.812 142.569C220.169 142.774 219.505 142.902 218.833 142.949C218.089 143.031 217.389 143.112 216.66 143.142" stroke="#5748AE" stroke-width="0.5" stroke-linecap="round" stroke-linejoin="round"/>
<path d="M219.852 141.498C218.901 141.691 217.939 141.833 216.973 141.922" stroke="#5748AE" stroke-width="0.5" stroke-linecap="round" stroke-linejoin="round"/>
<path d="M216.66 138.849C216.66 138.849 218.52 136.007 218.967 136.052C219.413 136.097 220.388 139.586 220.335 139.98C220.283 140.375 216.221 139.497 216.66 138.849Z" fill="#263238"/>
<path opacity="0.6" d="M218.9 136.677C219.278 137.623 219.587 138.595 219.822 139.586C219.748 139.846 217.188 139.08 217.025 138.842C216.861 138.604 218.9 136.677 218.9 136.677Z" fill="white"/>
<path d="M260.631 44.3169H229.844V59.2267H260.631V44.3169Z" fill="#263238"/>
<path opacity="0.2" d="M260.631 44.3169H229.844V59.2267H260.631V44.3169Z" fill="white"/>
<path opacity="0.2" d="M250.036 44.3169H229.844V59.2267H250.036V44.3169Z" fill="white"/>
<path d="M248.86 34.5332H228.668V44.3094H248.86V34.5332Z" fill="#263238"/>
<path opacity="0.5" d="M248.86 34.5332H228.668V44.3094H248.86V34.5332Z" fill="white"/>
<path opacity="0.2" d="M241.912 34.5332H228.668V44.3094H241.912V34.5332Z" fill="white"/>
<path d="M208.774 59.2265H198.648L198.968 51.0425V50.6333L199.303 42.0922C199.32 41.6395 199.512 41.211 199.837 40.8963C200.163 40.5815 200.598 40.4049 201.051 40.4033H206.356C206.809 40.4049 207.244 40.5815 207.57 40.8963C207.895 41.211 208.087 41.6395 208.104 42.0922L208.26 46.028V46.4074L208.774 59.2265Z" fill="#5748AE"/>
<path opacity="0.3" d="M201.624 42.5982C201.624 43.2752 201.274 43.8258 200.843 43.8258C200.411 43.8258 200.054 43.2752 200.054 42.5982C200.054 41.9212 200.411 41.3706 200.843 41.3706C201.274 41.3706 201.624 41.936 201.624 42.5982Z" fill="black"/>
<g opacity="0.3">
<path d="M208.268 46.3999C207.33 46.1247 205.136 45.7601 204.057 47.94C203.127 49.8298 201.654 51.0871 200.218 51.2285H199.95C199.602 51.2305 199.257 51.1595 198.938 51.0202V50.611C199.315 50.8017 199.738 50.8817 200.158 50.8416C201.468 50.7151 202.829 49.5322 203.707 47.754C204.838 45.4551 207.137 45.7229 208.231 46.0056L208.268 46.3999Z" fill="black"/>
</g>
<path d="M196.721 53.5349H192.205V59.2265H196.721V53.5349Z" fill="#5748AE"/>
<path opacity="0.4" d="M196.721 53.5349H192.205V59.2265H196.721V53.5349Z" fill="white"/>
<path d="M197.108 52.8506H191.811V54.3237H197.108V52.8506Z" fill="#5748AE"/>
<path d="M182.63 54.7104H193.514V58.0659C193.514 58.3737 193.392 58.6689 193.174 58.8866C192.957 59.1043 192.662 59.2265 192.354 59.2265H183.768C183.46 59.2265 183.165 59.1043 182.947 58.8866C182.73 58.6689 182.607 58.3737 182.607 58.0659V54.7104H182.63Z" fill="#5748AE"/>
<path opacity="0.3" d="M182.63 54.7104H193.514V58.0659C193.514 58.3737 193.392 58.6689 193.174 58.8866C192.957 59.1043 192.662 59.2265 192.354 59.2265H183.768C183.46 59.2265 183.165 59.1043 182.947 58.8866C182.73 58.6689 182.607 58.3737 182.607 58.0659V54.7104H182.63Z" fill="black"/>
<path d="M193.871 54.1675H182.28V55.3356H193.871V54.1675Z" fill="#263238"/>
<path d="M180.152 82.2981C180.363 88.5614 179.467 94.8128 177.504 100.764L190.65 103.316C190.65 103.316 194.578 91.3451 194.184 83.7935L180.152 82.2981Z" fill="#5748AE"/>
<path opacity="0.6" d="M180.152 82.2981C180.363 88.5614 179.467 94.8128 177.504 100.764L190.65 103.316C190.65 103.316 194.578 91.3451 194.184 83.7935L180.152 82.2981Z" fill="white"/>
<path d="M177.995 83.1982C177.995 83.1982 179.862 80.3561 180.301 80.4082C180.74 80.4603 181.722 83.9347 181.677 84.329C181.633 84.7234 177.556 83.8529 177.995 83.1982Z" fill="#263238"/>
<path opacity="0.6" d="M180.241 81.0332C180.616 81.9769 180.922 82.9467 181.157 83.9348C181.09 84.1952 178.53 83.4363 178.367 83.1908C178.203 82.9453 180.241 81.0332 180.241 81.0332Z" fill="white"/>
<path d="M193.053 82.7146C193.335 82.4606 193.68 82.2878 194.052 82.2144C194.424 82.1411 194.809 82.1699 195.166 82.2979C195.605 82.6104 195.166 84.0389 195.166 84.0389L195.851 84.4778L195.412 85.4078L192.696 85.0879V84.4034L193.187 84.2546C193.187 84.2546 192.696 83.1535 193.053 82.7146Z" fill="#263238"/>
<path opacity="0.2" d="M193.522 83.6445C193.194 82.9973 194.11 81.9854 194.586 82.722C195.062 83.4585 193.991 84.5745 193.522 83.6445Z" fill="white"/>
<path opacity="0.2" d="M192.86 84.4258L195.397 84.6713L195.211 85.0433L192.86 84.7383" fill="white"/>
<path d="M170.45 91.9997L173.24 88.8898C173.24 88.8898 174.133 83.2131 174.505 83.0866C174.877 82.9601 179.341 81.7772 179.84 82.3426C180.338 82.9081 179.84 87.3051 179.475 88.3616C179.111 89.4181 176.782 89.8868 176.782 89.8868L173.307 94.6707L170.45 91.9997Z" fill="#EBB376"/>
<path d="M90.3885 145.181C90.3885 145.181 94.4285 104.893 100.574 104.603H101.623C101.623 104.603 97.9773 106.396 96.0057 117.139C94.0341 127.883 91.6757 144.362 91.6757 144.362L90.3885 145.181Z" fill="#263238"/>
<path d="M127.782 102.736C134.776 104.558 149.202 104.849 156.798 101.835C164.394 98.8222 172.095 89.113 172.095 89.113L175.755 92.833C175.755 92.833 168.315 104.737 159.201 109.461C150.087 114.186 129.657 115.332 129.657 115.332L127.782 102.736Z" fill="#5748AE"/>
<path d="M99.9937 82.8114C99.0339 77.7745 100.656 71.443 106.831 70.0443C113.006 68.6456 116.503 71.3686 116.503 71.3686C116.503 71.3686 120.163 69.6797 123.154 74.3893C127.618 81.4498 123.973 89.0386 125.885 93.577C127.797 98.1154 132.945 98.3386 126.629 107.594C120.312 116.849 99.8449 115.815 95.7231 106.91C91.6013 98.0038 96.1025 93.5175 97.7989 91.2855C99.6961 88.808 100.656 86.2933 99.9937 82.8114Z" fill="#263238"/>
<path d="M151.858 271.386L146.895 272.263L144.864 265.508L143.012 259.303L148.726 257.309L150.385 264.764L151.858 271.386Z" fill="#E4897B"/>
<path d="M145.779 272.13C145.698 271.587 152.475 270.828 152.475 270.828C152.475 270.828 157.349 274.302 161.53 274.548C165.711 274.793 163.888 277.591 159.409 278.379L148.316 280.336C145.14 280.887 146.65 277.821 145.779 272.13Z" fill="#263238"/>
<path d="M155.823 271.959C155 271.922 154.183 271.79 153.39 271.564H153.331C153.31 271.553 153.294 271.534 153.286 271.512V271.467C153.283 271.443 153.283 271.418 153.286 271.393C153.286 271.311 153.591 269.652 154.432 269.109C154.559 269.026 154.703 268.972 154.853 268.95C155.004 268.928 155.157 268.939 155.303 268.983C155.637 269.072 155.816 269.235 155.846 269.466C155.89 269.823 155.474 270.262 154.975 270.649C155.468 270.477 155.998 270.444 156.508 270.552C156.605 270.583 156.694 270.633 156.771 270.7C156.848 270.766 156.91 270.848 156.954 270.939C157.03 271.049 157.07 271.178 157.07 271.311C157.07 271.444 157.03 271.574 156.954 271.683C156.796 271.807 156.614 271.896 156.419 271.943C156.224 271.991 156.021 271.996 155.823 271.959ZM153.986 271.341C155.05 271.587 156.344 271.743 156.612 271.423C156.612 271.423 156.709 271.311 156.612 271.058C156.59 271.01 156.558 270.968 156.518 270.933C156.479 270.898 156.432 270.873 156.381 270.857C155.831 270.664 154.707 271.043 154.008 271.341H153.986ZM154.975 269.273C154.841 269.275 154.71 269.314 154.596 269.384C154.131 269.825 153.816 270.4 153.696 271.029C154.626 270.478 155.496 269.786 155.459 269.481C155.459 269.384 155.28 269.325 155.176 269.302C155.111 269.282 155.043 269.272 154.975 269.273Z" fill="#5748AE"/>
<path opacity="0.2" d="M150.415 264.913L144.894 265.642L143.027 259.37L148.733 257.339L150.415 264.913Z" fill="black"/>
<path d="M118.772 273.513H113.735L112.91 266.505L112.166 260.077L118.14 259.102L118.475 266.728L118.772 273.513Z" fill="#E4897B"/>
<path d="M112.657 273.186C112.657 272.636 119.486 273.067 119.486 273.067C119.486 273.067 123.683 277.338 127.76 278.275C131.837 279.213 129.553 281.683 124.999 281.683H113.735C110.506 281.697 112.523 278.937 112.657 273.186Z" fill="#263238"/>
<path d="M123.073 274.808C122.089 274.687 121.135 274.395 120.253 273.945C120.228 273.934 120.208 273.916 120.193 273.893C120.178 273.85 120.178 273.802 120.193 273.759C120.193 273.692 120.788 272.1 121.718 271.713C121.856 271.65 122.006 271.618 122.157 271.618C122.309 271.618 122.458 271.65 122.596 271.713C122.909 271.862 123.058 272.055 123.05 272.286C123.05 272.65 122.537 273.03 121.986 273.305C122.5 273.213 123.029 273.27 123.511 273.469C123.6 273.517 123.679 273.583 123.741 273.662C123.804 273.741 123.85 273.832 123.876 273.93C123.93 274.056 123.943 274.195 123.914 274.328C123.884 274.462 123.814 274.583 123.712 274.674C123.521 274.792 123.295 274.839 123.073 274.808ZM120.841 273.826C121.845 274.25 123.073 274.629 123.422 274.369C123.422 274.369 123.534 274.272 123.467 274.004C123.452 273.953 123.426 273.905 123.391 273.864C123.357 273.823 123.314 273.79 123.266 273.766C122.805 273.491 121.637 273.662 120.87 273.833L120.841 273.826ZM122.061 271.951C121.966 271.953 121.873 271.973 121.785 272.011C121.248 272.37 120.839 272.891 120.617 273.499C121.629 273.112 122.604 272.583 122.619 272.278C122.619 272.182 122.47 272.092 122.381 272.048C122.291 271.998 122.192 271.968 122.09 271.958L122.061 271.951Z" fill="#5748AE"/>
<path opacity="0.2" d="M118.475 266.884L112.91 266.639L112.166 260.144L118.14 259.139L118.475 266.884Z" fill="black"/>
<path d="M150.876 260.984L142.729 262.42C134.508 241.938 128.66 224.841 124.531 210.653C122.299 202.997 120.573 196.189 119.241 190.148L119.613 212.468V263.12H111.34C91.2144 167.144 105.477 145.211 105.477 145.211L129.553 141.096C130.505 145.541 131.179 150.041 131.569 154.57L132.655 162.531L142.104 211.107L150.876 260.984Z" fill="#5748AE"/>
<path opacity="0.6" d="M150.876 260.984L142.729 262.42C134.508 241.938 128.66 224.841 124.531 210.653C122.299 202.997 120.573 196.189 119.241 190.148L119.613 212.468V263.12H111.34C91.2144 167.144 105.477 145.211 105.477 145.211L129.553 141.096C130.505 145.541 131.179 150.041 131.569 154.57L132.655 162.531L142.104 211.107L150.876 260.984Z" fill="white"/>
<path d="M141.457 261.416L151.56 258.061L151.426 262.361L143.064 265.024L141.457 261.416Z" fill="#5748AE"/>
<path d="M110.261 261.877L120.796 260.337L119.918 264.548L111.221 265.716L110.261 261.877Z" fill="#5748AE"/>
<path d="M105.477 141.587V145.181L130.029 143.299V139.05L105.477 141.587Z" fill="#263238"/>
<path d="M124.362 139.92L118.996 140.401L119.361 144.469L124.726 143.988L124.362 139.92Z" fill="white"/>
<path d="M113.714 140.091L112.495 140.153L112.812 146.358L114.031 146.296L113.714 140.091Z" fill="#5748AE"/>
<path opacity="0.6" d="M113.714 140.091L112.495 140.153L112.812 146.358L114.031 146.296L113.714 140.091Z" fill="white"/>
<path d="M128.721 138.429L127.503 138.491L127.819 144.696L129.038 144.633L128.721 138.429Z" fill="#5748AE"/>
<path opacity="0.6" d="M128.721 138.429L127.503 138.491L127.819 144.696L129.038 144.633L128.721 138.429Z" fill="white"/>
<path d="M130.133 139.482L105.581 141.602C105.342 135.516 104.467 129.472 102.97 123.568C102.382 121.217 101.645 118.59 100.738 115.555C100.232 113.933 99.6737 112.192 99.0488 110.347C98.58 108.926 98.0741 107.416 97.5161 105.823C100.85 104.759 104.257 103.936 107.709 103.361C111.337 102.716 115.007 102.328 118.69 102.2C123.467 102.163 128.958 102.699 128.958 102.699C128.958 102.699 129.702 102.885 130.23 107.951C130.676 112.676 131.115 122.184 130.133 139.482Z" fill="#5748AE"/>
<path opacity="0.3" d="M130.133 139.482L105.581 141.602C105.342 135.516 104.467 129.472 102.97 123.568C102.382 121.217 101.645 118.59 100.738 115.555C100.232 113.933 99.6737 112.192 99.0488 110.347C98.58 108.926 98.0741 107.416 97.5161 105.823C100.85 104.759 104.257 103.936 107.709 103.361C111.337 102.716 115.007 102.328 118.69 102.2C123.467 102.163 128.958 102.699 128.958 102.699C128.958 102.699 129.702 102.885 130.23 107.951C130.676 112.676 131.115 122.184 130.133 139.482Z" fill="black"/>
<path opacity="0.2" d="M124.531 210.653C122.299 202.997 120.573 196.189 119.241 190.148C119.354 182.997 119.873 175.858 120.796 168.766C120.796 168.766 124.322 196.346 124.531 210.653Z" fill="black"/>
<path d="M106.392 108.383C106.392 108.383 104.986 101.687 111.86 100.236C118.735 98.7849 122.849 103.212 123.437 105.764L120.528 104.938C120.528 104.938 117.552 109.164 117.76 112.207C117.76 112.207 114.911 107.795 110.32 106.076L106.392 108.383Z" fill="#5748AE"/>
<path d="M116.667 107.594C110.618 106.85 108.795 104.231 108.795 104.231C112.634 100.608 109.442 94.3284 109.442 94.3284L116.734 95.6899C116.565 96.7035 116.468 97.7278 116.443 98.7552C116.391 103.182 118.393 103.219 118.393 103.219C119.672 105.615 116.667 107.594 116.667 107.594Z" fill="#EBB376"/>
<path opacity="0.2" d="M116.734 95.69C116.565 96.7036 116.468 97.7279 116.443 98.7553C111.526 98.7553 109.442 94.2913 109.442 94.2913L116.734 95.69Z" fill="black"/>
<path d="M112.701 75.3193C119.033 74.977 121.257 78.2506 122.083 84.7532C123.11 92.8777 121.614 98.7701 113.601 97.4607C102.724 95.6825 102.188 75.8996 112.701 75.3193Z" fill="#EBB376"/>
<path d="M117.969 84.6267C118.528 85.5435 119.195 86.3902 119.955 87.1489C119.784 87.4206 119.542 87.64 119.254 87.7831C118.967 87.9261 118.646 87.9873 118.326 87.9598L117.969 84.6267Z" fill="#D58745"/>
<path d="M114.063 84.3439C114.107 84.8573 113.854 85.3037 113.512 85.3335C113.17 85.3632 112.85 84.9615 112.813 84.4407C112.776 83.9199 113.014 83.4735 113.363 83.4511C113.713 83.4288 114.025 83.8008 114.063 84.3439Z" fill="#263238"/>
<path d="M113.222 83.4661L114.316 82.9304C114.316 82.9304 113.832 83.9274 113.222 83.4661Z" fill="#263238"/>
<path d="M120.528 83.7042C120.573 84.225 120.32 84.6639 119.977 84.6937C119.635 84.7234 119.315 84.3217 119.278 83.8009C119.241 83.2801 119.479 82.8411 119.829 82.8114C120.178 82.7816 120.476 83.1834 120.528 83.7042Z" fill="#263238"/>
<path d="M119.672 82.8559L120.766 82.3276C120.766 82.3276 120.275 83.3097 119.672 82.8559Z" fill="#263238"/>
<path d="M113.758 79.9469C113.254 79.9136 112.749 79.9962 112.282 80.1883C111.815 80.3805 111.399 80.6772 111.064 81.0555" stroke="#263238" stroke-width="0.72468" stroke-linecap="round" stroke-linejoin="round"/>
<path d="M118.348 79.4262C118.775 79.2949 119.226 79.2616 119.668 79.3285C120.11 79.3955 120.531 79.5611 120.9 79.813" stroke="#263238" stroke-width="0.72468" stroke-linecap="round" stroke-linejoin="round"/>
<path d="M117.552 90.4968C117.295 91.2257 117.089 91.9715 116.935 92.7288C116.798 92.7362 116.662 92.7362 116.525 92.7288C114.673 92.6469 113.84 91.9847 113.482 91.2928C113.312 90.9513 113.228 90.5733 113.237 90.1917C113.235 89.9733 113.262 89.7555 113.319 89.5444C114.439 90.1061 115.667 90.4207 116.92 90.467C117.292 90.4967 117.552 90.4968 117.552 90.4968Z" fill="#263238"/>
<path d="M116.905 90.4597L116.704 91.1144C114.963 91.0326 113.728 90.735 113.222 90.1844C113.22 89.9659 113.248 89.7482 113.304 89.5371C114.424 90.0988 115.652 90.4134 116.905 90.4597Z" fill="white"/>
<path d="M116.51 92.7213C114.658 92.6395 113.825 91.9773 113.467 91.2854C114.171 91.337 114.86 91.5081 115.506 91.7913C115.928 91.9909 116.279 92.3156 116.51 92.7213Z" fill="#DE5753"/>
<path d="M106.392 86.3752C106.392 86.3752 109.063 81.0109 108.393 77.0157C108.393 77.0157 120.662 71.205 121.979 83.9051C121.979 83.9051 122.589 72.5293 111.689 72.8716C100.79 73.2138 101.705 89.1429 107.59 93.5771C107.568 93.5771 104.711 89.7306 106.392 86.3752Z" fill="#263238"/>
<path d="M107.478 87.6548C107.375 86.9261 106.988 86.2677 106.401 85.8231C105.814 85.3786 105.076 85.1839 104.346 85.2815C102.397 85.6014 101.682 89.6785 106.615 90.3779C107.322 90.482 107.679 89.7752 107.478 87.6548Z" fill="#EBB376"/>
<path d="M114.985 75.721C109.442 76.2641 115.677 85.1995 104.703 91.8583C96.2959 96.9547 99.3984 100.578 99.3984 100.578C99.3984 100.578 95.8123 95.4518 99.3984 90.3257C102.984 85.1995 99.2719 81.9631 102.731 76.9337C106.191 71.9042 114.985 75.721 114.985 75.721Z" fill="#263238"/>
<path d="M114.985 75.7209C114.457 75.825 113.97 76.0788 113.582 76.4522C113.194 76.8255 112.922 77.3026 112.798 77.8265C112.218 79.8948 112.359 82.1193 112.128 84.2397C111.697 88.2127 109.219 92.1187 104.688 91.1366" stroke="#263238" stroke-width="0.5" stroke-miterlimit="10"/>
<path d="M104.324 146.647C104.324 146.647 93.3646 143.306 92.0403 143.209C90.716 143.113 88.0673 162.1 88.5137 162.829C88.9601 163.558 100.284 167.099 101.757 166.363C103.23 165.626 104.324 146.647 104.324 146.647Z" fill="#263238"/>
<path opacity="0.1" d="M104.324 146.647C104.324 146.647 93.3646 143.306 92.0403 143.209C90.716 143.113 88.0673 162.1 88.5137 162.829C88.9601 163.558 100.284 167.099 101.757 166.363C103.23 165.626 104.324 146.647 104.324 146.647Z" fill="white"/>
<path d="M104.324 146.646C104.324 146.646 91.6757 142.74 91.2368 142.673C90.7978 142.607 88.9081 151.453 89.3173 151.721C89.7265 151.988 101.385 155.441 101.683 154.838C101.98 154.235 102.322 146.096 104.324 146.646Z" fill="#263238"/>
<path opacity="0.2" d="M104.324 146.646C104.324 146.646 91.6757 142.74 91.2368 142.673C90.7978 142.607 88.9081 151.453 89.3173 151.721C89.7265 151.988 101.385 155.441 101.683 154.838C101.98 154.235 102.322 146.096 104.324 146.646Z" fill="white"/>
<path d="M101.623 104.603C107.248 107.877 104.227 148.053 104.227 148.053H102.865C102.865 148.053 106.169 110.391 100.574 104.603H101.623Z" fill="#263238"/>
<path opacity="0.1" d="M101.623 104.603C107.248 107.877 104.227 148.053 104.227 148.053H102.865C102.865 148.053 106.169 110.391 100.574 104.603H101.623Z" fill="white"/>
<path d="M94.9865 151.944C94.5246 153.723 94.2748 155.551 94.2425 157.39L93.067 158.64L92.628 157.092C92.3517 155.155 92.5798 153.179 93.2902 151.356L94.9865 151.944Z" fill="#263238"/>
<path d="M94.4211 154.28C94.3693 154.287 94.3167 154.287 94.2649 154.28L92.7769 153.834C92.6403 153.792 92.5256 153.699 92.4574 153.574C92.3891 153.448 92.373 153.301 92.4123 153.164L92.8661 151.498C92.8873 151.425 92.9225 151.358 92.9697 151.299C93.0169 151.24 93.0753 151.191 93.1414 151.155C93.2723 151.087 93.4248 151.074 93.5655 151.118L94.9345 151.564C95.0639 151.604 95.1735 151.692 95.2411 151.809C95.3088 151.926 95.3295 152.065 95.299 152.197L94.9345 153.871C94.919 153.946 94.8877 154.016 94.8428 154.078C94.7979 154.139 94.7404 154.19 94.6741 154.228C94.5956 154.267 94.5085 154.285 94.4211 154.28ZM93.4241 151.438C93.3948 151.431 93.3642 151.431 93.3349 151.438C93.3139 151.45 93.2957 151.465 93.2816 151.485C93.2674 151.504 93.2577 151.526 93.253 151.55L92.7917 153.224C92.7818 153.268 92.7885 153.314 92.8104 153.354C92.8323 153.394 92.868 153.424 92.9108 153.439L94.3988 153.878C94.4207 153.889 94.4449 153.895 94.4695 153.895C94.494 153.895 94.5182 153.889 94.5401 153.878C94.5614 153.867 94.5799 153.851 94.5941 153.832C94.6083 153.813 94.6178 153.79 94.622 153.767L94.9865 152.093C94.9961 152.049 94.9892 152.004 94.9672 151.966C94.9452 151.927 94.9097 151.898 94.8675 151.884L93.506 151.438H93.4241Z" fill="#263238"/>
<g opacity="0.4">
<path d="M94.4211 154.28C94.3693 154.287 94.3167 154.287 94.2649 154.28L92.7769 153.834C92.6403 153.792 92.5256 153.699 92.4574 153.574C92.3891 153.448 92.373 153.301 92.4123 153.164L92.8661 151.498C92.8873 151.425 92.9225 151.358 92.9697 151.299C93.0169 151.24 93.0753 151.191 93.1414 151.155C93.2723 151.087 93.4248 151.074 93.5655 151.118L94.9345 151.564C95.0639 151.604 95.1735 151.692 95.2411 151.809C95.3088 151.926 95.3295 152.065 95.299 152.197L94.9345 153.871C94.919 153.946 94.8877 154.016 94.8428 154.078C94.7979 154.139 94.7404 154.19 94.6741 154.228C94.5956 154.267 94.5085 154.285 94.4211 154.28ZM93.4241 151.438C93.3948 151.431 93.3642 151.431 93.3349 151.438C93.3139 151.45 93.2957 151.465 93.2816 151.485C93.2674 151.504 93.2577 151.526 93.253 151.55L92.7917 153.224C92.7818 153.268 92.7885 153.314 92.8104 153.354C92.8323 153.394 92.868 153.424 92.9108 153.439L94.3988 153.878C94.4207 153.889 94.4449 153.895 94.4695 153.895C94.494 153.895 94.5182 153.889 94.5401 153.878C94.5614 153.867 94.5799 153.851 94.5941 153.832C94.6083 153.813 94.6178 153.79 94.622 153.767L94.9865 152.093C94.9961 152.049 94.9892 152.004 94.9672 151.966C94.9452 151.927 94.9097 151.898 94.8675 151.884L93.506 151.438H93.4241Z" fill="white"/>
</g>
<path d="M181.603 86.0775C182.384 86.1527 183.172 86.0325 183.895 85.7278L184.006 86.1816C184.817 86.3426 185.643 86.4149 186.469 86.3974C186.411 86.4767 186.383 86.574 186.39 86.672C186.396 86.77 186.438 86.8625 186.506 86.9331C186.58 86.9975 186.675 87.0329 186.774 87.0329C186.872 87.0329 186.967 86.9975 187.042 86.9331C187.146 86.8438 187.213 86.7024 187.347 86.6801C187.481 86.6578 187.577 86.7396 187.682 86.7917C187.871 86.8657 188.074 86.8963 188.277 86.881H192.332" stroke="#5748AE" stroke-width="0.5" stroke-linecap="round" stroke-linejoin="round"/>
<path d="M181.596 89.1799L182.726 89.2915C183.62 89.4027 184.521 89.4326 185.42 89.3808C185.56 89.349 185.706 89.373 185.829 89.4478C185.911 89.5073 185.948 89.6114 186.03 89.6858C186.152 89.7688 186.301 89.8008 186.446 89.7751H187.495C187.887 90.0185 188.325 90.1762 188.782 90.2377C189.238 90.2993 189.703 90.2633 190.144 90.1323" stroke="#5748AE" stroke-width="0.5" stroke-linecap="round" stroke-linejoin="round"/>
<path d="M189.899 100.013L189.296 97.7807C189.244 97.6022 189.169 97.3939 188.998 97.3343C188.916 97.3203 188.831 97.3244 188.75 97.3462C188.669 97.368 188.594 97.4071 188.53 97.4608L187.473 98.1081C187.428 98.1419 187.373 98.1602 187.317 98.1602C187.266 98.1406 187.224 98.1037 187.198 98.056L186.543 97.1632C186.446 97.0367 186.335 96.8954 186.179 96.8879C186.022 96.8805 185.851 97.0442 185.74 97.1855C185.219 97.8477 184.445 98.1453 184.624 99.0604C184.748 99.4736 184.955 99.857 185.232 100.187C185.51 100.517 185.852 100.787 186.238 100.98C186.525 101.149 186.858 101.224 187.19 101.196C187.354 101.164 187.514 101.114 187.667 101.047L189.765 100.229C189.824 100.229 189.891 100.176 189.906 100.117C189.912 100.082 189.91 100.046 189.899 100.013ZM184.944 98.7405C185.636 98.6602 186.337 98.7763 186.967 99.0753C186.967 99.0753 188.18 98.5173 189.467 99.9532C189.467 99.9681 186.379 99.916 184.944 98.7405Z" fill="#5748AE"/>
<path d="M122.991 119.044C122.991 119.044 118.118 129.951 117.783 136.677L128.906 136.052C128.906 136.052 131.651 125.748 133.913 120.941L122.991 119.044Z" fill="#5748AE"/>
<path opacity="0.6" d="M122.991 119.044C122.991 119.044 118.118 129.951 117.783 136.677L128.906 136.052C128.906 136.052 131.651 125.748 133.913 120.941L122.991 119.044Z" fill="white"/>
<path d="M111.064 130.747L116.964 128.887L119.152 125.45C119.152 125.45 126.019 126.127 126.316 126.328C126.614 126.529 124.828 132.421 124.449 132.421H118.705L111.89 134.653L111.064 130.747Z" fill="#EBB376"/>
<path d="M97.464 105.793C91.8394 106.716 89.28 132.22 91.8394 137.518C94.3987 142.815 114.978 134.378 114.978 134.378L112.798 129.282C112.798 129.282 100.894 133.202 99.1008 131.238C97.3078 129.274 99.1008 121.648 101.459 118.107C101.579 115.261 101.278 112.413 100.566 109.655C99.4059 105.176 97.464 105.793 97.464 105.793Z" fill="#5748AE"/>
</svg>
