<svg width="109" height="109" viewBox="0 0 109 109" fill="none" xmlns="http://www.w3.org/2000/svg">
<path opacity="0.5" d="M101.028 91.2156C98.6475 91.2156 58.6053 91.4793 56.0874 91.3987C55.9064 91.3987 55.8105 91.1284 55.9893 91.039C57.5763 90.2542 59.377 90.4111 61.0251 89.8552C61.9952 89.5282 62.5903 88.8939 63.2639 88.1679C63.8211 87.5324 64.542 87.0618 65.348 86.8076C66.0844 86.5856 66.8662 86.5608 67.6152 86.7357C68.4284 86.9297 69.1412 87.3897 69.9086 87.6883C71.8313 88.4143 73.7018 87.7232 75.0752 86.2997C76.2088 85.1268 77.3206 84.0194 78.8618 83.3894C80.1502 82.8596 81.5825 82.7484 82.873 83.3327C84.3424 83.9976 85.3495 85.3361 86.7295 86.1405C88.3644 87.0975 90.3199 86.8708 92.1271 87.1586C93.9344 87.4463 95.3187 88.9702 96.9035 89.8443C97.4442 90.1452 97.9935 90.3959 98.6301 90.3806C98.9854 90.3806 99.332 90.276 99.683 90.2324C100.228 90.1648 100.745 90.1801 101.113 90.6357C101.202 90.7447 101.183 91.2156 101.028 91.2156Z" fill="#EBEBEB"/>
<path d="M57.4258 14.7673C55.0474 14.7673 15.0052 15.0311 12.4873 14.9504C12.3063 14.9504 12.2104 14.6801 12.3892 14.5907C13.9762 13.8059 15.7747 13.9629 17.425 13.407C18.3951 13.08 18.9902 12.4456 19.6617 11.7197C20.2193 11.0846 20.94 10.6142 21.7457 10.3594C22.4829 10.1374 23.2654 10.1126 24.0151 10.2874C24.8283 10.4814 25.5411 10.9414 26.3085 11.2401C28.2312 11.966 30.1017 11.275 31.4751 9.85141C32.6065 8.67857 33.7205 7.57114 35.2617 6.94112C36.5501 6.41138 37.9824 6.30019 39.2729 6.88443C40.7401 7.54934 41.7494 8.88785 43.1272 9.69227C44.7644 10.6493 46.7198 10.4226 48.5249 10.7103C50.3299 10.9981 51.7186 12.5219 53.3034 13.3961C53.8441 13.6969 54.3934 13.9476 55.03 13.9324C55.3831 13.9324 55.7319 13.8277 56.0807 13.7841C56.6279 13.7166 57.1446 13.7318 57.5108 14.1874C57.6002 14.2964 57.5828 14.7673 57.4258 14.7673Z" fill="#EBEBEB"/>
<path opacity="0.5" d="M40.7487 75.3736C39.0047 75.3736 9.77523 75.5676 7.93749 75.5087C7.80669 75.5087 7.73475 75.3104 7.86773 75.245C9.02531 74.6716 10.3398 74.7872 11.5432 74.373C12.2517 74.1332 12.6855 73.671 13.176 73.1391C13.5851 72.6759 14.1126 72.3329 14.702 72.1472C15.2402 71.9851 15.8115 71.9671 16.3588 72.0949C16.9518 72.2366 17.4663 72.5766 18.0331 72.7903C19.437 73.32 20.8017 72.8164 21.8045 71.7766C22.6329 70.9198 23.446 70.1111 24.5687 69.6511C25.0281 69.4435 25.5253 69.3327 26.0294 69.3256C26.5334 69.3184 27.0336 69.4151 27.4986 69.6097C28.5712 70.0958 29.3059 71.0724 30.313 71.661C31.5077 72.3586 32.929 72.193 34.2544 72.4044C35.5799 72.6159 36.5849 73.7255 37.7424 74.3664C38.1187 74.6097 38.5546 74.7447 39.0025 74.7566C39.2619 74.7566 39.5148 74.6803 39.7698 74.6498C40.1688 74.5997 40.5459 74.6106 40.8141 74.9441C40.8751 75.0313 40.862 75.3736 40.7487 75.3736Z" fill="#EBEBEB"/>
<path opacity="0.5" d="M101.102 29.9706C99.3581 29.9706 70.1286 30.1646 68.2931 30.1058C68.1601 30.1058 68.0903 29.9074 68.2211 29.842C69.3787 29.2687 70.6933 29.3842 71.8966 28.97C72.6051 28.7302 73.0389 28.268 73.5316 27.7361C73.9401 27.2722 74.4679 26.9292 75.0576 26.7442C75.5958 26.5822 76.1671 26.5641 76.7144 26.6919C77.3074 26.8336 77.824 27.1737 78.3887 27.3873C79.7926 27.9171 81.1573 27.4135 82.1601 26.3736C82.9885 25.5169 83.8016 24.7081 84.9243 24.2481C85.3837 24.0405 85.8809 23.9297 86.385 23.9226C86.889 23.9155 87.3892 24.0122 87.8542 24.2067C88.9268 24.6928 89.6615 25.6695 90.6686 26.2581C91.8633 26.9557 93.2846 26.79 94.61 27.0015C95.9355 27.2129 96.9405 28.3225 98.098 28.9635C98.4743 29.2068 98.9102 29.3418 99.3581 29.3537C99.6175 29.3537 99.8704 29.2774 100.128 29.2469C100.524 29.1967 100.904 29.2076 101.17 29.5412C101.229 29.6284 101.215 29.9706 101.102 29.9706Z" fill="#EBEBEB"/>
<path d="M62.8824 100.716C61.1384 100.716 31.9089 100.91 30.0734 100.851C29.9404 100.851 29.8706 100.653 30.0014 100.587C31.159 100.014 32.4735 100.13 33.6769 99.7154C34.3854 99.4756 34.8192 99.0135 35.3119 98.4815C35.7203 98.0177 36.2481 97.6746 36.8379 97.4897C37.3761 97.3276 37.9474 97.3096 38.4947 97.4373C39.0877 97.579 39.6043 97.9191 40.1689 98.1327C41.5729 98.6625 42.9375 98.1589 43.9403 97.119C44.7687 96.2623 45.5819 95.4557 46.7046 94.9935C47.1641 94.7865 47.6613 94.6759 48.1652 94.6688C48.6692 94.6617 49.1693 94.7581 49.6345 94.9521C50.7071 95.4383 51.4417 96.4149 52.4489 97.0035C53.6435 97.7011 55.0649 97.5354 56.3903 97.7469C57.7158 97.9584 58.7207 99.068 59.8783 99.7089C60.2545 99.9522 60.6905 100.087 61.1384 100.099C61.3978 100.099 61.6507 100.023 61.9079 99.9923C62.3047 99.9421 62.684 99.953 62.9521 100.287C63.0023 100.363 63.0023 100.716 62.8824 100.716Z" fill="#EBEBEB"/>
<path opacity="0.5" d="M75.646 39.3948C73.902 39.3948 44.6748 39.5888 42.837 39.5299C42.7041 39.5299 42.6343 39.3315 42.7651 39.2661C43.9227 38.6928 45.2372 38.8083 46.4406 38.3941C47.1491 38.1543 47.5829 37.6922 48.0756 37.1603C48.4842 36.6966 49.012 36.3536 49.6016 36.1684C50.139 36.0063 50.7096 35.9883 51.2562 36.116C51.8513 36.2577 52.3658 36.5978 52.9304 36.8115C54.3365 37.3412 55.7012 36.8376 56.704 35.7978C57.5302 34.941 58.3434 34.1322 59.4683 33.6723C59.9274 33.4651 60.4242 33.3545 60.9278 33.3474C61.4315 33.3403 61.9312 33.4368 62.396 33.6308C63.4686 34.117 64.2054 35.0936 65.2126 35.6822C66.405 36.3798 67.8286 36.2141 69.1518 36.4256C70.4751 36.637 71.4844 37.7467 72.6398 38.3876C73.0167 38.6312 73.4534 38.7662 73.902 38.7778C74.1593 38.7778 74.4143 38.7015 74.6694 38.671C75.0662 38.6209 75.4455 38.6318 75.7136 38.9653C75.7768 39.0525 75.7616 39.3948 75.646 39.3948Z" fill="#EBEBEB"/>
<path d="M41.7822 35.3814C41.7822 35.3814 41.8454 34.8102 41.985 33.6374C42.1179 32.5474 42.4733 29.6981 43.1229 28.5427C44.832 25.506 49.179 24.804 52.1045 22.2054C53.7046 20.7819 53.6828 20.0843 54.1842 20.1584C54.6856 20.2325 54.2976 23.8884 51.4854 25.7588C51.4854 25.7588 52.9918 26.245 52.9918 26.7486C52.9918 27.2521 51.723 27.6751 50.8423 27.6424C50.8423 27.6424 52.3116 29.0354 52.0784 29.6698C51.8451 30.3041 50.1709 30.0731 49.4842 29.7984C49.4842 29.7984 50.3213 30.7968 50.0619 31.2503C49.6629 31.95 48.0802 31.1718 48.0802 31.1718C48.0802 31.1718 48.5969 31.8628 48.3179 32.1441C47.9364 32.5256 46.6523 32.0024 46.6523 32.0024C46.6523 32.0024 46.4343 33.4477 44.7601 32.8744C44.7601 32.8744 44.4723 33.9644 43.2341 33.4019C42.9346 33.6685 42.7004 34.0005 42.5496 34.372C42.373 34.893 42.0002 35.4228 41.7822 35.3814Z" fill="#EBEBEB"/>
<path d="M42.3052 33.9339C42.3583 33.8167 42.44 33.7148 42.5428 33.6374C42.8371 33.3889 43.1358 33.0466 42.9788 32.5474L42.9461 32.6041C43.4431 32.6324 43.8377 32.2771 43.7113 31.5948C43.6781 31.4214 43.6292 31.2514 43.5652 31.0868L43.4846 31.1871C44.919 32.1768 45.1784 31.4051 44.3566 29.8224L44.2497 29.9641C45.7191 31.1086 46.3513 31.0127 45.5316 28.7215L45.4248 28.8567C45.5363 28.9209 45.6579 28.9659 45.7845 28.9897C46.5714 29.1444 46.8112 28.2877 46.9355 27.4811C46.9653 27.2143 47.0507 26.9568 47.1863 26.7251C47.3218 26.4934 47.5045 26.2927 47.7225 26.136C48.1277 25.886 48.5897 25.7427 49.0654 25.7197C49.2989 25.7001 49.5337 25.7001 49.7673 25.7197C49.535 25.6783 49.2991 25.6608 49.0632 25.6673C48.08 25.6804 47.0619 26.0597 46.8069 27.431C46.7197 27.867 46.6521 28.303 46.4014 28.5973C46.1507 28.8916 45.7823 28.8262 45.4945 28.667L45.2983 28.558L45.3877 28.8022C45.4793 29.0572 45.9044 30.3042 45.6558 30.4546C45.3114 30.5396 44.64 30.0186 44.3326 29.7875L44.0317 29.5477C44.217 29.9227 44.7795 30.9168 44.6487 31.3484C44.4743 31.6362 43.7483 31.1849 43.5347 31.0476L43.3821 30.956C43.5216 31.3026 43.7156 31.7234 43.6001 32.1158C43.5459 32.2529 43.4479 32.3683 43.3213 32.4439C43.1948 32.5196 43.0468 32.5514 42.9003 32.5343C43.0922 33.0292 42.8175 33.3431 42.5297 33.6243C42.4321 33.7101 42.3572 33.8187 42.3117 33.9404L42.3052 33.9339Z" fill="#C7C7C7"/>
<path d="M46.8851 28.9591C46.9713 29.1894 47.0441 29.4245 47.1031 29.6632C47.1621 29.8644 47.1718 30.0767 47.1315 30.2824C46.9353 30.7184 46.338 30.557 46.0197 30.4524L45.9325 30.4197C45.9866 30.6449 46.018 30.875 46.0262 31.1064C46.0524 31.9348 45.2131 31.4487 44.8948 31.2481L44.9297 31.3942C44.9973 31.6623 45.067 32.2095 44.7662 32.2509C44.4741 32.2273 44.1931 32.1282 43.9509 31.9631L43.8985 31.9326C43.9792 32.2204 43.9291 32.5866 43.698 32.7261C43.632 32.7711 43.558 32.8029 43.48 32.8199C43.8331 32.785 44.0381 32.4253 43.9596 31.9849L43.9225 32.0242C44.1798 32.1768 44.6092 32.4602 44.8883 32.3207C45.152 32.1245 45.091 31.6667 45.0234 31.3527L44.9515 31.4312C45.1574 31.5737 45.3929 31.6677 45.6404 31.7059C46.2377 31.7713 46.1657 31.0039 46.048 30.496L45.9848 30.5767C46.3467 30.69 46.9811 30.8361 47.1882 30.3216C47.2993 29.927 47.0334 29.3079 46.8895 28.9591H46.8851Z" fill="#C7C7C7"/>
<path d="M42.8896 30.1167C43.0619 28.9329 43.79 27.9018 44.6336 27.093C45.4163 26.3976 46.3558 25.9071 47.2496 25.397C48.0998 24.9392 49.3185 24.307 50.1447 23.823C51.0843 23.2693 52.0478 22.7177 52.7607 21.8806C52.464 22.3457 52.0945 22.7601 51.6663 23.108C50.7942 23.7901 49.8666 24.3982 48.8934 24.9261C47.9363 25.4667 46.9575 25.9703 46.0136 26.5284C45.5415 26.787 45.098 27.0947 44.6903 27.4462C43.8555 28.1525 43.2336 29.0771 42.894 30.1167H42.8896Z" fill="white"/>
<path d="M45.5011 32.8679C45.5011 32.8679 48.2109 30.2519 45.9371 27.1214C43.6634 23.9909 40.4043 25.9943 40.4043 25.9943C41.4629 28.6973 43.2221 31.0698 45.5011 32.8679Z" fill="#DBDBDB"/>
<path d="M45.499 32.8678C43.2245 31.0678 41.4693 28.6957 40.4131 25.9943C40.4131 25.9943 43.9512 28.5885 45.499 32.8678Z" fill="#DBDBDB"/>
<path d="M45.3723 27.5465C45.4015 27.5877 45.4387 27.6226 45.4815 27.6494C45.5243 27.6762 45.572 27.6943 45.6218 27.7026C45.6717 27.7109 45.7226 27.7093 45.7718 27.6978C45.821 27.6864 45.8675 27.6653 45.9085 27.6359L46.3445 27.3198C46.3859 27.2905 46.4212 27.2533 46.4482 27.2103C46.4752 27.1674 46.4935 27.1196 46.502 27.0695C46.5105 27.0195 46.509 26.9683 46.4977 26.9189C46.4864 26.8694 46.4655 26.8227 46.4361 26.7813C46.4066 26.7401 46.3693 26.7051 46.3263 26.6783C46.2833 26.6515 46.2354 26.6334 46.1854 26.6251C46.1354 26.6168 46.0842 26.6184 46.0349 26.6299C45.9855 26.6414 45.9389 26.6625 45.8976 26.692L45.4507 27.0081C45.3692 27.0692 45.3151 27.1602 45.3004 27.2611C45.2857 27.362 45.3115 27.4646 45.3723 27.5465Z" fill="#DBDBDB"/>
<path opacity="0.4" d="M45.3723 27.5465C45.4015 27.5877 45.4387 27.6226 45.4815 27.6494C45.5243 27.6762 45.572 27.6943 45.6218 27.7026C45.6717 27.7109 45.7226 27.7093 45.7718 27.6978C45.821 27.6864 45.8675 27.6653 45.9085 27.6359L46.3445 27.3198C46.3859 27.2905 46.4212 27.2533 46.4482 27.2103C46.4752 27.1674 46.4935 27.1196 46.502 27.0695C46.5105 27.0195 46.509 26.9683 46.4977 26.9189C46.4864 26.8694 46.4655 26.8227 46.4361 26.7813C46.4066 26.7401 46.3693 26.7051 46.3263 26.6783C46.2833 26.6515 46.2354 26.6334 46.1854 26.6251C46.1354 26.6168 46.0842 26.6184 46.0349 26.6299C45.9855 26.6414 45.9389 26.6625 45.8976 26.692L45.4507 27.0081C45.3692 27.0692 45.3151 27.1602 45.3004 27.2611C45.2857 27.362 45.3115 27.4646 45.3723 27.5465Z" fill="white"/>
<path opacity="0.2" d="M45.499 32.8678C43.2245 31.0678 41.4693 28.6957 40.4131 25.9943C40.4131 25.9943 43.9512 28.5885 45.499 32.8678Z" fill="black"/>
<path d="M42.0587 30.2061C42.088 30.2472 42.1251 30.2822 42.1679 30.309C42.2108 30.3358 42.2585 30.3538 42.3083 30.3621C42.3581 30.3705 42.4091 30.3688 42.4583 30.3574C42.5075 30.3459 42.5539 30.3249 42.595 30.2955L44.1384 29.2055L43.6915 28.5754L42.1503 29.6654C42.1086 29.6948 42.0731 29.7321 42.0459 29.7752C42.0187 29.8183 42.0003 29.8664 41.9917 29.9167C41.9832 29.9669 41.9848 30.0184 41.9963 30.0681C42.0078 30.1178 42.029 30.1647 42.0587 30.2061Z" fill="#DBDBDB"/>
<path opacity="0.3" d="M42.0587 30.2061C42.088 30.2472 42.1251 30.2822 42.1679 30.309C42.2108 30.3358 42.2585 30.3538 42.3083 30.3621C42.3581 30.3705 42.4091 30.3688 42.4583 30.3574C42.5075 30.3459 42.5539 30.3249 42.595 30.2955L44.1384 29.2055L43.6915 28.5754L42.1503 29.6654C42.1086 29.6948 42.0731 29.7321 42.0459 29.7752C42.0187 29.8183 42.0003 29.8664 41.9917 29.9167C41.9832 29.9669 41.9848 30.0184 41.9963 30.0681C42.0078 30.1178 42.029 30.1647 42.0587 30.2061Z" fill="black"/>
<path d="M45.499 32.8679C43.9512 28.5885 40.4131 25.9943 40.4131 25.9943C40.4131 25.9943 43.6831 23.9909 45.9459 27.1214C48.2088 30.2519 45.499 32.8679 45.499 32.8679Z" fill="#DBDBDB"/>
<path opacity="0.4" d="M45.499 32.8679C43.9512 28.5885 40.4131 25.9943 40.4131 25.9943C40.4131 25.9943 43.6831 23.9909 45.9459 27.1214C48.2088 30.2519 45.499 32.8679 45.499 32.8679Z" fill="white"/>
<g opacity="0.3">
<path d="M45.3703 26.4499C44.0798 26.0401 42.5647 26.6461 41.6861 27.1039C41.4224 26.8467 41.1847 26.6309 40.9907 26.4499C43.6067 25.1288 45.281 26.3649 45.366 26.4281L45.3703 26.4499Z" fill="white"/>
<path d="M45.5883 26.6767C44.3996 26.7186 43.2393 27.0517 42.2093 27.6468C42.1309 27.5618 42.0524 27.4811 41.9761 27.4026C43.0814 26.8073 44.3389 26.5546 45.5883 26.6767Z" fill="white"/>
</g>
<path opacity="0.1" d="M45.501 32.8679C44.8601 31.1695 43.921 29.5992 42.728 28.231C43.382 28.9766 45.15 30.847 45.8258 30.6596C46.4057 30.5048 46.7174 28.9156 46.3686 27.8256C47.8183 30.629 45.501 32.8679 45.501 32.8679Z" fill="black"/>
<path d="M24.7692 33.7203C24.5795 34.8846 24.6221 36.0749 24.8946 37.2226C25.1672 38.3703 25.6642 39.4528 26.3571 40.4075C27.05 41.3622 27.925 42.1703 28.9317 42.7852C29.9384 43.4001 31.0568 43.8097 32.2226 43.9902L35.2201 44.472L37.4786 26.7225L35.534 26.4107C35.3887 26.3773 35.2361 26.349 35.0762 26.3257C33.9134 26.1301 32.7234 26.1666 31.5748 26.4329C30.4261 26.6992 29.3416 27.1902 28.3835 27.8776C27.4254 28.5649 26.6128 29.435 25.9925 30.4378C25.3722 31.4405 24.9564 32.5561 24.7692 33.7203Z" fill="#DBDBDB"/>
<path opacity="0.2" d="M24.7692 33.7203C24.5795 34.8846 24.6221 36.0749 24.8946 37.2226C25.1672 38.3703 25.6642 39.4528 26.3571 40.4075C27.05 41.3622 27.925 42.1703 28.9317 42.7852C29.9384 43.4001 31.0568 43.8097 32.2226 43.9902L35.2201 44.472L37.4786 26.7225L35.534 26.4107C35.3887 26.3773 35.2361 26.349 35.0762 26.3257C33.9134 26.1301 32.7234 26.1666 31.5748 26.4329C30.4261 26.6992 29.3416 27.1902 28.3835 27.8776C27.4254 28.5649 26.6128 29.435 25.9925 30.4378C25.3722 31.4405 24.9564 32.5561 24.7692 33.7203Z" fill="black"/>
<g opacity="0.05">
<path d="M35.5624 41.7906H27.5988C26.9007 41.1611 26.3063 40.4254 25.8374 39.6106H35.8392L35.5624 41.7906Z" fill="black"/>
<path d="M35.9133 39.022L25.5278 39.0111C25.4231 38.7931 25.3294 38.5751 25.2422 38.3571L35.9983 38.368L35.9133 39.022Z" fill="black"/>
</g>
<path d="M44.1852 36.2767C44.6255 31.3431 41.2844 27.0136 36.7226 26.6065C32.1607 26.1994 28.1057 29.8688 27.6654 34.8023C27.2251 39.7359 30.5662 44.0654 35.1281 44.4725C39.6899 44.8797 43.7449 41.2103 44.1852 36.2767Z" fill="#DBDBDB"/>
<path opacity="0.1" d="M44.1454 36.5091C44.5655 31.8022 41.4695 27.6798 37.2302 27.3014C32.991 26.9231 29.2139 30.4321 28.7938 35.139C28.3737 39.8459 31.4698 43.9683 35.709 44.3467C39.9482 44.725 43.7253 41.216 44.1454 36.5091Z" fill="black"/>
<path d="M43.6611 36.4658C44.0547 32.0563 41.1539 28.1943 37.1821 27.8398C33.2103 27.4854 29.6715 30.7726 29.278 35.1821C28.8845 39.5916 31.7852 43.4536 35.757 43.8081C39.7288 44.1626 43.2676 40.8753 43.6611 36.4658Z" fill="white"/>
<path opacity="0.5" d="M43.6936 35.4315C40.0944 37.012 34.1801 39.6062 30.8796 41.0145C30.1596 40.0448 29.6623 38.9283 29.4233 37.7445L40.9446 29.4321C41.7954 30.1856 42.4793 31.1084 42.9527 32.1415C43.4261 33.1746 43.6784 34.2952 43.6936 35.4315Z" fill="#EBEBEB"/>
<path opacity="0.5" d="M43.5236 37.4132C43.3529 38.2812 43.05 39.1179 42.6255 39.894L32.9855 42.9155C32.6207 42.6994 32.2763 42.4505 31.9565 42.1721C34.9192 40.947 40.3299 38.7234 43.5236 37.4132Z" fill="#EBEBEB"/>
<path d="M37.714 28.7194L37.592 29.4518L37.5266 29.4388H37.459L37.5811 28.7041L37.714 28.7194Z" fill="#263238"/>
<path d="M34.5859 29.7352L34.4573 29.7897L34.2393 29.0943L34.3679 29.042L34.5859 29.7352Z" fill="#263238"/>
<path d="M32.0744 31.6536C32.0439 31.6907 32.0155 31.7299 31.9872 31.7691L31.4771 31.2961L31.5642 31.1805L32.0744 31.6536Z" fill="#263238"/>
<path d="M30.7381 34.76C30.7381 34.7862 30.7381 34.8102 30.7272 34.8342L30.0732 34.7121L30.0972 34.5638L30.7512 34.6859L30.7381 34.76Z" fill="#263238"/>
<path d="M30.989 38.1653L30.3568 38.4269L30.311 38.2852L30.9432 38.0258C30.9563 38.0715 30.9716 38.1195 30.989 38.1653Z" fill="#263238"/>
<path d="M32.7284 40.8685L32.2924 41.4418L32.1899 41.3459L32.6259 40.7726C32.6586 40.8075 32.7001 40.838 32.7284 40.8685Z" fill="#263238"/>
<path d="M35.4709 42.22L35.3488 42.9525L35.2158 42.9285L35.3379 42.1938L35.4033 42.2069L35.4709 42.22Z" fill="#263238"/>
<path d="M38.7038 42.5536L38.5774 42.6059L38.3594 41.9105L38.488 41.8582L38.7038 42.5536Z" fill="#263238"/>
<path d="M41.4616 40.3497L41.3744 40.4652L40.8643 39.9943L40.9536 39.8788L41.4616 40.3497Z" fill="#263238"/>
<path d="M42.8806 36.9336L42.8566 37.0818L42.2026 36.9598C42.2026 36.9358 42.2026 36.9096 42.2157 36.8856L42.2288 36.8115L42.8806 36.9336Z" fill="#263238"/>
<path d="M42.6279 33.354L41.9957 33.6156C41.9827 33.5676 41.9674 33.5219 41.9521 33.4739L42.5822 33.2145L42.6279 33.354Z" fill="#263238"/>
<path d="M40.7486 30.302L40.3126 30.8753L40.208 30.7794L40.644 30.2061L40.7486 30.302Z" fill="#263238"/>
<path d="M40.5544 30.5614L36.4168 36.4823L35.8979 35.9962L40.4127 30.4285L40.5544 30.5614Z" fill="#C7C7C7"/>
<path d="M34.806 30.786L36.9685 36.1532L36.3254 36.4257L34.6294 30.858L34.806 30.786Z" fill="#DBDBDB"/>
<path d="M36.7005 35.8653C36.6975 35.8978 36.688 35.9293 36.6726 35.958C36.6572 35.9867 36.6361 36.012 36.6106 36.0323C36.5852 36.0527 36.5559 36.0677 36.5245 36.0765C36.4931 36.0852 36.4603 36.0875 36.428 36.0833C36.364 36.0677 36.3086 36.0278 36.2736 35.972C36.2386 35.9163 36.2267 35.849 36.2405 35.7846C36.2434 35.7522 36.2529 35.7207 36.2683 35.692C36.2838 35.6632 36.3048 35.638 36.3303 35.6176C36.3557 35.5972 36.385 35.5822 36.4164 35.5735C36.4478 35.5647 36.4807 35.5624 36.513 35.5666C36.5767 35.5827 36.6317 35.6227 36.6666 35.6783C36.7016 35.734 36.7137 35.801 36.7005 35.8653Z" fill="#C7C7C7"/>
<path d="M36.6632 35.6408C36.7059 35.6995 36.7262 35.7717 36.7202 35.8441C36.7142 35.9166 36.6823 35.9844 36.6305 36.0354C36.6062 36.059 36.5772 36.0772 36.5453 36.0886C36.5135 36.1 36.4795 36.1044 36.4458 36.1015C36.4121 36.0986 36.3794 36.0885 36.3499 36.0718C36.3205 36.0551 36.2949 36.0323 36.2751 36.0048C36.2322 35.946 36.212 35.8736 36.2185 35.801C36.2249 35.7284 36.2574 35.6607 36.31 35.6103C36.334 35.5866 36.3629 35.5685 36.3946 35.5571C36.4263 35.5457 36.4601 35.5413 36.4936 35.5442C36.5272 35.5471 36.5597 35.5572 36.589 35.5739C36.6182 35.5906 36.6435 35.6134 36.6632 35.6408Z" fill="#DBDBDB"/>
<path d="M36.5524 35.7455L39.7112 40.0575L39.6545 40.112L36.3867 35.9003L36.5524 35.7455Z" fill="#DBDBDB"/>
<path d="M31.1371 27.649C31.0853 27.6769 31.0284 27.6941 30.9697 27.6994C30.9111 27.7048 30.852 27.6982 30.7959 27.68C30.7399 27.6619 30.6882 27.6326 30.6438 27.5939C30.5994 27.5552 30.5633 27.508 30.5376 27.4549L29.9272 26.2538L30.7229 25.8505L31.3333 27.0495C31.3612 27.1014 31.3783 27.1585 31.3835 27.2172C31.3886 27.276 31.3819 27.3352 31.3635 27.3912C31.3452 27.4472 31.3157 27.499 31.2767 27.5433C31.2378 27.5876 31.1903 27.6235 31.1371 27.649Z" fill="#DBDBDB"/>
<path opacity="0.3" d="M31.1371 27.649C31.0853 27.6769 31.0284 27.6941 30.9697 27.6994C30.9111 27.7048 30.852 27.6982 30.7959 27.68C30.7399 27.6619 30.6882 27.6326 30.6438 27.5939C30.5994 27.5552 30.5633 27.508 30.5376 27.4549L29.9272 26.2538L30.7229 25.8505L31.3333 27.0495C31.3612 27.1014 31.3783 27.1585 31.3835 27.2172C31.3886 27.276 31.3819 27.3352 31.3635 27.3912C31.3452 27.4472 31.3157 27.499 31.2767 27.5433C31.2378 27.5876 31.1903 27.6235 31.1371 27.649Z" fill="black"/>
<path d="M26.1338 28.6212C26.1338 28.6212 24.7625 24.4792 28.7672 22.4911C32.7719 20.5029 35.0456 24.3136 35.0456 24.3136C35.0456 24.3136 31.0954 27.5029 26.1338 28.6212Z" fill="#DBDBDB"/>
<path opacity="0.4" d="M26.1338 28.6212C26.1338 28.6212 24.7625 24.4792 28.7672 22.4911C32.7719 20.5029 35.0456 24.3136 35.0456 24.3136C35.0456 24.3136 31.0954 27.5029 26.1338 28.6212Z" fill="white"/>
<g opacity="0.3">
<path d="M27.9039 28.122C27.5834 28.2288 27.2499 28.3291 26.9185 28.4185C26.1163 24.5926 28.1698 22.842 28.2461 22.7766C27.2651 24.5882 27.6662 27.0799 27.9039 28.122Z" fill="white"/>
<path d="M28.7277 27.8342L28.3331 27.9803L28.3135 27.9039C27.8951 26.1496 27.9797 24.3128 28.5577 22.6044C28.1589 24.3328 28.2175 26.1353 28.7277 27.8342Z" fill="white"/>
</g>
<path opacity="0.1" d="M35.0458 24.3135C33.3884 25.5814 31.5814 26.6409 29.6655 27.4679C31.5905 26.4608 33.4173 24.9282 33.5263 24.0802C33.583 23.6638 33.4435 22.7722 31.3594 21.9395C33.7378 22.1204 35.0458 24.3135 35.0458 24.3135Z" fill="black"/>
<path d="M29.127 23.2366C29.0751 23.2644 29.018 23.2815 28.9593 23.2867C28.9005 23.2919 28.8414 23.2851 28.7853 23.2667C28.7293 23.2484 28.6775 23.2189 28.6332 23.18C28.5889 23.1411 28.553 23.0936 28.5275 23.0404L28.2398 22.4736C28.2119 22.4216 28.1949 22.3645 28.1897 22.3058C28.1845 22.2471 28.1913 22.1879 28.2096 22.1318C28.228 22.0758 28.2575 22.0241 28.2964 21.9797C28.3353 21.9354 28.3828 21.8995 28.436 21.8741C28.4879 21.8462 28.545 21.8291 28.6038 21.824C28.6625 21.8188 28.7217 21.8256 28.7777 21.8439C28.8338 21.8622 28.8855 21.8918 28.9298 21.9307C28.9741 21.9696 29.0101 22.0171 29.0355 22.0703L29.3232 22.6371C29.3511 22.689 29.3682 22.7461 29.3734 22.8048C29.3785 22.8636 29.3718 22.9228 29.3534 22.9788C29.3351 23.0348 29.3056 23.0866 29.2666 23.1309C29.2277 23.1752 29.1802 23.2111 29.127 23.2366Z" fill="#DBDBDB"/>
<path opacity="0.4" d="M29.127 23.2366C29.0751 23.2644 29.018 23.2815 28.9593 23.2867C28.9005 23.2919 28.8414 23.2851 28.7853 23.2667C28.7293 23.2484 28.6775 23.2189 28.6332 23.18C28.5889 23.1411 28.553 23.0936 28.5275 23.0404L28.2398 22.4736C28.2119 22.4216 28.1949 22.3645 28.1897 22.3058C28.1845 22.2471 28.1913 22.1879 28.2096 22.1318C28.228 22.0758 28.2575 22.0241 28.2964 21.9797C28.3353 21.9354 28.3828 21.8995 28.436 21.8741C28.4879 21.8462 28.545 21.8291 28.6038 21.824C28.6625 21.8188 28.7217 21.8256 28.7777 21.8439C28.8338 21.8622 28.8855 21.8918 28.9298 21.9307C28.9741 21.9696 29.0101 22.0171 29.0355 22.0703L29.3232 22.6371C29.3511 22.689 29.3682 22.7461 29.3734 22.8048C29.3785 22.8636 29.3718 22.9228 29.3534 22.9788C29.3351 23.0348 29.3056 23.0866 29.2666 23.1309C29.2277 23.1752 29.1802 23.2111 29.127 23.2366Z" fill="white"/>
<path d="M27.0321 33.79C27.0321 33.79 27.1498 33.1818 27.3721 31.9414C27.5901 30.7685 28.1024 27.7361 27.6621 26.2734C26.5067 22.454 21.1177 19.8009 18.227 15.8704C16.6444 13.7166 16.919 13.019 16.2411 12.8729C15.5631 12.7268 14.8001 16.6007 17.7998 19.7421C17.7998 19.7421 15.6786 19.5655 15.502 20.0756C15.3255 20.5857 16.8275 21.5776 17.9785 21.9352C17.9785 21.9352 15.5936 22.6938 15.6764 23.4415C15.7593 24.1893 18.009 24.6972 18.9944 24.7234C18.9944 24.7234 17.5643 25.3621 17.7431 25.9376C18.0156 26.8227 20.3373 26.7399 20.3373 26.7399C20.3373 26.7399 19.4282 27.2064 19.6833 27.6119C20.043 28.17 21.8894 28.2092 21.8894 28.2092C21.8894 28.2092 21.6714 29.7657 24.0411 29.9292C24.0411 29.9292 24.0411 31.1675 25.8483 31.1435C25.8483 31.1435 26.3628 31.8345 26.3999 32.4319C26.4369 33.0292 26.7443 33.7355 27.0321 33.79Z" fill="#EBEBEB"/>
<path d="M27.1674 32.0809C27.1287 31.93 27.0539 31.7909 26.9494 31.6754C26.6529 31.2939 26.387 30.8034 26.7554 30.3805L26.7772 30.4546C26.1232 30.2606 25.7351 29.7265 26.1363 29.0921C26.2393 28.9278 26.3615 28.7763 26.5003 28.6408L26.5723 28.7782C24.3705 29.1444 24.2985 28.2528 25.9052 27.0058L25.9946 27.1977C23.6947 27.7034 22.9077 27.3241 24.765 25.3687L24.8544 25.554C24.6833 25.569 24.511 25.5609 24.3421 25.53C23.2696 25.336 23.2521 24.3615 23.372 23.4895C23.4181 23.1809 23.3921 22.8657 23.296 22.5688C23.2 22.2719 23.0365 22.0013 22.8183 21.7782C22.3629 21.3327 21.8204 20.9861 21.2247 20.7601C20.928 20.6379 20.6236 20.5352 20.3135 20.4528C20.6326 20.5149 20.9467 20.6009 21.2531 20.71C22.524 21.1613 23.7099 21.9984 23.566 23.5004C23.5312 23.9713 23.4679 24.4422 23.6881 24.8607C23.9083 25.2793 24.4119 25.3687 24.8413 25.3338L25.1313 25.312L24.9307 25.53C24.7127 25.748 23.7426 26.8205 24.0108 27.08C24.4271 27.3219 25.4779 27.08 25.9553 26.9949L26.4306 26.8859C26.0578 27.1846 24.9852 27.9389 25.007 28.4337C25.1335 28.8043 26.2278 28.6692 26.5548 28.6256L26.8099 28.5885C26.509 28.8785 26.1123 29.2142 26.1166 29.6633C26.1384 30.0491 26.5526 30.2846 26.8775 30.3957C26.4611 30.8143 26.7052 31.2525 26.9821 31.6667C27.0778 31.7894 27.1415 31.934 27.1674 32.0874V32.0809Z" fill="#C7C7C7"/>
<path d="M22.9553 25.0089C22.7683 25.2025 22.5957 25.4094 22.4387 25.628C22.2932 25.8019 22.2056 26.0168 22.188 26.2428C22.2883 26.7769 23.121 26.875 23.5701 26.9099H23.6922C23.5447 27.1112 23.4245 27.3311 23.3347 27.5639C23.012 28.3923 24.2677 28.2724 24.7517 28.2179L24.6536 28.3487C24.4748 28.5906 24.1936 29.1139 24.5707 29.2904C24.9467 29.3944 25.3404 29.4182 25.7261 29.3602H25.8046C25.6932 29.4815 25.6302 29.6395 25.6273 29.8042C25.6245 29.9689 25.6822 30.1289 25.7893 30.254C25.8608 30.3284 25.9432 30.3916 26.0335 30.4415C25.9322 30.4052 25.8407 30.346 25.7661 30.2684C25.6916 30.1908 25.6361 30.0969 25.604 29.9943C25.5719 29.8916 25.564 29.7828 25.581 29.6766C25.5981 29.5703 25.6395 29.4695 25.7021 29.382L25.7348 29.4387C25.3512 29.4801 24.6972 29.5738 24.3811 29.3101C24.1086 28.9961 24.3462 28.5579 24.5424 28.2702L24.6078 28.3835C24.2795 28.4334 23.9448 28.4231 23.6202 28.353C22.8224 28.1546 23.1842 27.4113 23.5112 26.9469L23.5636 27.0559C23.0578 27.0123 22.1836 26.8772 22.0942 26.2624C22.0942 25.8155 22.6458 25.3076 22.9662 25.0176L22.9553 25.0089Z" fill="#C7C7C7"/>
<path opacity="0.1" d="M27.0319 33.79C26.7354 33.7355 26.4367 33.0336 26.3997 32.4362C26.3626 31.8389 25.8481 31.1479 25.8481 31.1479C24.0344 31.1718 24.0409 29.9336 24.0409 29.9336C21.6604 29.7701 21.8893 28.2136 21.8893 28.2136C22.3449 29.4409 24.2197 29.5674 24.2197 29.5674C24.6884 30.9931 25.9833 30.8754 25.9833 30.8754C26.1817 31.0098 26.3885 31.1314 26.6024 31.2394C26.8793 31.3702 27.1649 29.5739 27.3131 28.1765C27.4526 26.8554 26.7463 24.4444 26.2231 23.7533C26.8585 24.4969 27.3428 25.3574 27.6488 26.2865C28.0848 27.7449 27.5703 30.7773 27.3589 31.9545C27.1583 33.184 27.0319 33.79 27.0319 33.79Z" fill="black"/>
<path d="M18.0725 19.5437C16.7165 18.2575 15.7486 16.3696 15.8467 14.4665C15.8638 14.1446 15.9171 13.8258 16.0058 13.516C16.0179 13.4428 16.0496 13.3743 16.0974 13.3176C16.2304 13.2042 16.3524 13.3895 16.4048 13.4942C16.4784 13.6357 16.5439 13.7812 16.601 13.9302C16.5072 13.8059 16.4178 13.6751 16.3219 13.5574C16.2892 13.5182 16.2238 13.4397 16.1846 13.431C16.1846 13.431 16.2064 13.431 16.2042 13.431C16.1908 13.4727 16.1828 13.5159 16.1802 13.5596C15.8903 15.72 16.904 17.7822 18.0725 19.5415V19.5437Z" fill="white"/>
<path d="M15.9467 19.9905C16.1647 20.4026 16.6137 20.614 16.9843 20.8625C17.3977 21.1017 17.7959 21.3659 18.1768 21.6539C17.4273 21.5806 16.73 21.2374 16.2148 20.6881C16.06 20.4941 15.89 20.2412 15.9445 19.984L15.9467 19.9905Z" fill="white"/>
<path d="M17.8564 22.3319C17.5654 22.5598 17.2512 22.7563 16.919 22.9183C16.6181 23.0971 16.265 23.1952 16.047 23.4895C16.0362 23.3868 16.0504 23.283 16.0883 23.187C16.1263 23.091 16.1869 23.0055 16.265 22.938C16.4755 22.7378 16.7235 22.5812 16.9947 22.4772C17.2659 22.3731 17.5551 22.3238 17.8455 22.3319H17.8564Z" fill="white"/>
<path d="M24.0171 22.927C24.0849 23.2862 24.1149 23.6516 24.1065 24.017C24.1261 24.3658 24.0476 24.7321 24.2111 25.0504C24.0084 25.0046 23.8907 24.7779 23.8274 24.5969C23.7468 24.3181 23.7221 24.026 23.7546 23.7376C23.7872 23.4492 23.8764 23.17 24.0171 22.9161V22.927Z" fill="white"/>
<path d="M25.689 79.921C30.8425 76.6031 36.6587 73.0562 41.9648 69.9802C36.8048 73.2982 30.9951 76.8494 25.689 79.921Z" fill="#263238"/>
<path d="M12.4565 97.7579C22.2665 91.5972 33.3671 84.8196 43.3319 78.9009C33.5219 85.0637 22.4191 91.8392 12.4565 97.7579Z" fill="#263238"/>
<path d="M39.458 89.9272C43.4627 87.3112 47.5698 84.8021 51.727 82.4346C47.7224 85.0506 43.6153 87.5597 39.458 89.9272Z" fill="#263238"/>
<path d="M19.897 87.1782C23.9016 84.5622 28.0088 82.053 32.166 79.6855C28.1614 82.3015 24.0542 84.8107 19.897 87.1782Z" fill="#263238"/>
<path d="M29.5454 89.9274C31.812 88.3677 34.1619 86.9325 36.5846 85.6284C34.3167 87.1861 31.9669 88.6211 29.5454 89.9274Z" fill="#263238"/>
<path d="M50.6045 88.8917C52.8719 87.3305 55.2217 85.8926 57.6437 84.584C55.3765 86.1428 53.0266 87.5778 50.6045 88.8829V88.8917Z" fill="#263238"/>
<path d="M41.3721 73.6994C43.6408 72.1417 45.9913 70.7066 48.4135 69.4004C46.1458 70.9596 43.7952 72.3947 41.3721 73.6994Z" fill="#263238"/>
<path d="M85.9747 58.8752C85.9747 58.8752 85.506 57.5781 84.5795 54.9316C83.7075 52.429 81.4774 45.95 81.6583 42.7825C82.1314 34.457 90.7337 28.3661 94.2827 19.6984C96.2273 14.9526 95.4425 13.4745 96.6001 13.1061C97.7576 12.7377 100.775 21.0043 96.696 27.9868C96.696 27.9868 100.446 27.4462 100.982 28.5274C101.518 29.6087 99.227 31.8563 97.302 32.7109C97.302 32.7109 101.926 34.1606 102.098 35.7629C102.27 37.3652 98.4247 38.6383 96.648 38.7691C96.648 38.7691 99.4995 40.0335 99.421 41.2826C99.3033 43.2054 95.0806 43.2032 95.0806 43.2032C95.0806 43.2032 96.9183 44.1384 96.6066 45.0388C96.1924 46.2639 92.8788 46.4906 92.8788 46.4906C92.8788 46.4906 93.9579 49.8239 89.7352 50.358C89.7352 50.358 90.2715 53.0176 86.9906 53.1069C86.9906 53.1069 86.3541 54.6329 86.5415 55.9148C86.729 57.1966 86.4849 58.7313 85.9747 58.8752Z" fill="#EBEBEB"/>
<path d="M85.5692 55.2106C85.5615 54.9025 85.6312 54.5975 85.772 54.3233C86.1426 53.4797 86.426 52.4311 85.5714 51.5286V51.6834C86.6614 51.219 87.1432 50.0396 86.1513 48.7098C85.8998 48.3692 85.6158 48.0538 85.3033 47.7681L85.2335 48.0711C89.3603 48.688 89.1117 46.7631 85.6848 44.2103L85.6041 44.6267C89.9641 45.5401 91.2285 44.6659 87.0495 40.6068L86.9644 41.0123C87.272 41.0314 87.5806 40.9998 87.8778 40.9185C89.733 40.4215 89.345 38.3243 88.7629 36.4604C88.3509 35.1175 88.4141 33.7485 89.0376 32.7435C89.6433 31.7784 90.4851 30.9838 91.4836 30.4349C91.9658 30.1487 92.472 29.9051 92.9965 29.7068C92.4553 29.8639 91.931 30.0742 91.4313 30.3346C89.3319 31.4006 87.5421 33.2885 88.4403 36.504C88.7019 37.5134 89.0136 38.5227 88.7978 39.4383C88.5689 40.3103 87.7078 40.5828 86.9186 40.5436L86.3846 40.5152L86.8206 40.9512C87.2871 41.3872 89.5128 43.6326 89.1401 44.2212C88.4861 44.7684 86.4957 44.3564 85.5954 44.182L84.6929 43.988C85.4908 44.5984 87.7449 46.1396 87.9171 47.2056C87.843 48.0079 85.8112 47.8008 85.2052 47.7332L84.7278 47.6722C85.3927 48.2717 86.2537 48.9649 86.4347 49.9285C86.5589 50.759 85.9289 51.2975 85.3708 51.5635C86.3017 52.4355 86.0467 53.3903 85.7218 54.2994C85.597 54.5891 85.5439 54.9047 85.5671 55.2193L85.5692 55.2106Z" fill="#C7C7C7"/>
<path d="M90.1736 39.6956C90.5961 40.1019 90.9943 40.5328 91.366 40.9861C91.6581 41.3763 92.0069 41.7993 92.0789 42.2941C92.1225 43.4495 90.6619 43.7242 89.8684 43.831L89.6504 43.8528C90.0051 44.2778 90.3142 44.7388 90.5725 45.2284C91.5034 46.9833 89.1882 46.8198 88.2922 46.7282L88.5233 47.0029C88.9484 47.5087 89.6765 48.6118 89.0727 49.0194C88.4884 49.3312 87.708 49.2897 87.0169 49.257H86.873C87.3461 49.7868 87.6251 50.6239 87.2763 51.1733C87.1857 51.3398 87.0644 51.4878 86.9188 51.6093C87.6404 51.1602 87.7015 50.177 87.0671 49.3072L87.03 49.4314C87.7429 49.4903 88.9593 49.6494 89.428 49.0521C89.7855 48.3567 89.1751 47.4346 88.6977 46.8307L88.6258 47.077C89.2188 47.1635 89.8237 47.1158 90.3959 46.9375C91.7497 46.4514 90.7818 44.8796 89.997 43.9073L89.9468 44.1471C90.8428 44.012 92.3623 43.6566 92.2642 42.3312C92.0854 41.3676 90.8624 40.3169 90.1845 39.7152L90.1736 39.6956Z" fill="#C7C7C7"/>
<path d="M82.8075 46.3904C81.9355 43.6676 82.4063 40.681 83.383 38.0454C84.3313 35.728 85.8355 33.6854 87.2372 31.634C88.5823 29.757 90.5247 27.0887 91.8043 25.2052C93.2388 23.0252 94.7277 20.8212 95.397 18.2662C95.2684 19.5742 94.7997 20.8583 94.2612 22.0682C93.1581 24.4836 91.6997 26.7116 90.2173 28.9003C88.7349 31.089 87.1653 33.184 85.7178 35.3727C84.9801 36.4342 84.3547 37.5696 83.8517 38.7604C82.886 41.1584 82.3519 43.8158 82.8075 46.3904Z" fill="white"/>
<path d="M91.3157 49.5535C91.3157 49.5535 94.383 41.0733 86.2167 36.7329C78.0504 32.3925 73.1367 40.1424 73.1367 40.1424C73.1367 40.1424 79.8511 47.0094 91.3157 49.5535Z" fill="#5748AE"/>
<path d="M91.3138 49.5535C79.8514 47.0095 73.1392 40.1425 73.1392 40.1425C73.1392 40.1425 83.4767 41.9911 91.3138 49.5535Z" fill="#5748AE"/>
<path d="M85.4321 38.2502C85.5385 38.3084 85.6554 38.345 85.776 38.3579C85.8966 38.3708 86.0186 38.3597 86.1349 38.3252C86.2512 38.2908 86.3595 38.2337 86.4536 38.1572C86.5478 38.0807 86.6259 37.9864 86.6834 37.8796L87.3091 36.7264C87.4255 36.5112 87.4518 36.2587 87.3823 36.0242C87.3129 35.7896 87.1533 35.5922 86.9385 35.4751C86.7233 35.3587 86.4708 35.3324 86.2363 35.4018C86.0017 35.4713 85.8043 35.6309 85.6872 35.8457L85.0615 36.9989C84.9451 37.2141 84.9188 37.4666 84.9882 37.7011C85.0577 37.9357 85.2173 38.1331 85.4321 38.2502Z" fill="#5748AE"/>
<path opacity="0.4" d="M85.4321 38.2502C85.5385 38.3084 85.6554 38.345 85.776 38.3579C85.8966 38.3708 86.0186 38.3597 86.1349 38.3252C86.2512 38.2908 86.3595 38.2337 86.4536 38.1572C86.5478 38.0807 86.6259 37.9864 86.6834 37.8796L87.3091 36.7264C87.4255 36.5112 87.4518 36.2587 87.3823 36.0242C87.3129 35.7896 87.1533 35.5922 86.9385 35.4751C86.7233 35.3587 86.4708 35.3324 86.2363 35.4018C86.0017 35.4713 85.8043 35.6309 85.6872 35.8457L85.0615 36.9989C84.9451 37.2141 84.9188 37.4666 84.9882 37.7011C85.0577 37.9357 85.2173 38.1331 85.4321 38.2502Z" fill="white"/>
<path opacity="0.2" d="M91.3138 49.5535C79.8514 47.0095 73.1392 40.1425 73.1392 40.1425C73.1392 40.1425 83.4767 41.9911 91.3138 49.5535Z" fill="black"/>
<path d="M81.3302 47.2574L80.9696 47.0606C80.8012 46.9688 80.6761 46.8138 80.622 46.6297C80.5679 46.4457 80.5891 46.2477 80.6809 46.0793L82.9506 41.9183L84.5755 42.8046L82.3058 46.9656C82.2145 47.133 82.0608 47.2576 81.8781 47.3122C81.6954 47.3669 81.4985 47.3472 81.3302 47.2574Z" fill="#5748AE"/>
<path opacity="0.3" d="M81.3302 47.2574L80.9696 47.0606C80.8012 46.9688 80.6761 46.8138 80.622 46.6297C80.5679 46.4457 80.5891 46.2477 80.6809 46.0793L82.9506 41.9183L84.5755 42.8046L82.3058 46.9656C82.2145 47.133 82.0608 47.2576 81.8781 47.3122C81.6954 47.3669 81.4985 47.3472 81.3302 47.2574Z" fill="black"/>
<path d="M91.3138 49.5535C83.4767 41.9911 73.1392 40.1425 73.1392 40.1425C73.1392 40.1425 78.0529 32.3904 86.2192 36.7329C94.3854 41.0755 91.3138 49.5535 91.3138 49.5535Z" fill="#5748AE"/>
<path opacity="0.4" d="M91.3138 49.5535C83.4767 41.9911 73.1392 40.1425 73.1392 40.1425C73.1392 40.1425 78.0529 32.3904 86.2192 36.7329C94.3854 41.0755 91.3138 49.5535 91.3138 49.5535Z" fill="white"/>
<g opacity="0.3">
<path d="M84.2725 35.8958C81.0679 36.3732 78.454 39.2748 77.0501 41.1998C76.213 40.9229 75.4783 40.7093 74.8701 40.5458C79.0971 34.9497 84.0043 35.8413 84.2441 35.8893L84.2725 35.8958Z" fill="white"/>
<path d="M84.9833 36.1553C82.4718 37.4977 80.3286 39.4366 78.742 41.8015C78.4826 41.7012 78.2275 41.6096 77.979 41.5203C81.079 37.3368 84.9833 36.1553 84.9833 36.1553Z" fill="white"/>
</g>
<path opacity="0.1" d="M91.3139 49.5513C87.8259 46.1854 83.8321 43.9465 80.4858 42.5034C82.6985 43.4037 88.4407 45.5554 89.7007 44.4654C90.7907 43.5214 89.7748 39.7653 87.876 37.7837C93.9408 42.2919 91.3139 49.5513 91.3139 49.5513Z" fill="black"/>
<path d="M47.6569 73.2283C48.4775 75.9296 49.8242 78.442 51.6195 80.6208C53.4149 82.7995 55.6234 84.6017 58.118 85.9236C60.6126 87.2455 63.3441 88.0609 66.1551 88.323C68.9661 88.585 71.8011 88.2886 74.4971 87.4506L81.4513 85.336L67.6039 44.8098L63.1066 46.168C62.7491 46.2566 62.3901 46.3562 62.0297 46.4666C59.3238 47.2722 56.8039 48.605 54.6151 50.3883C52.4263 52.1716 50.6117 54.3701 49.2759 56.8574C47.9401 59.3447 47.1093 62.0716 46.8315 64.8812C46.5536 67.6907 46.8342 70.5275 47.6569 73.2283Z" fill="#5748AE"/>
<path opacity="0.2" d="M47.6569 73.2283C48.4775 75.9296 49.8242 78.442 51.6195 80.6208C53.4149 82.7995 55.6234 84.6017 58.118 85.9236C60.6126 87.2455 63.3441 88.0609 66.1551 88.323C68.9661 88.585 71.8011 88.2886 74.4971 87.4506L81.4513 85.336L67.6039 44.8098L63.1066 46.168C62.7491 46.2566 62.3901 46.3562 62.0297 46.4666C59.3238 47.2722 56.8039 48.605 54.6151 50.3883C52.4263 52.1716 50.6117 54.3701 49.2759 56.8574C47.9401 59.3447 47.1093 62.0716 46.8315 64.8812C46.5536 67.6907 46.8342 70.5275 47.6569 73.2283Z" fill="black"/>
<g opacity="0.05">
<path d="M79.3516 79.2059L62.2299 87.5793C60.0652 86.9607 58.0118 86.0043 56.1455 84.7453L77.6512 74.2268L79.3516 79.2059Z" fill="black"/>
<path d="M77.1936 72.8753L54.8573 83.7993C54.4082 83.4461 53.9722 83.0741 53.5493 82.6831L76.6791 71.3711L77.1936 72.8753Z" fill="black"/>
</g>
<path d="M81.252 85.417C91.4836 81.4854 96.3306 69.3268 92.0781 58.2602C87.8256 47.1935 76.0838 41.4094 65.8522 45.3411C55.6206 49.2727 50.7735 61.4313 55.0261 72.4979C59.2786 83.5646 71.0203 89.3487 81.252 85.417Z" fill="#5748AE"/>
<path opacity="0.1" d="M82.3612 84.5515C91.8719 80.8988 96.2939 69.3766 92.238 58.8161C88.1821 48.2556 77.1841 42.6557 67.6734 46.3085C58.1626 49.9612 53.7406 61.4834 57.7965 72.0439C61.8524 82.6044 72.8504 88.2042 82.3612 84.5515Z" fill="black"/>
<path d="M81.8971 83.3403C90.8065 79.9185 94.949 69.1248 91.1495 59.2319C87.35 49.339 77.0473 44.0932 68.1379 47.515C59.2284 50.9368 55.086 61.7305 58.8855 71.6234C62.685 81.5163 72.9876 86.7621 81.8971 83.3403Z" fill="white"/>
<path opacity="0.5" d="M90.1344 56.9678C84.0631 64.1618 74.083 75.9622 68.4783 82.4738C65.9138 81.1511 63.6721 79.2799 61.9121 76.9933L77.9155 46.9878C82.9491 48.2805 87.4748 51.8841 90.1344 56.9678Z" fill="#EBEBEB"/>
<path opacity="0.5" d="M91.8565 61.4062C92.4041 63.4518 92.6343 65.5693 92.5388 67.6847L75.0029 84.3333C73.9917 84.255 72.9898 84.0842 72.0098 83.8232C77.0892 78.068 86.3803 67.58 91.8565 61.4062Z" fill="#EBEBEB"/>
<path d="M70.2309 48.832L70.7388 50.5368L70.5819 50.5782L70.4271 50.624L69.917 48.9192L70.2309 48.832Z" fill="#263238"/>
<path d="M64.5585 54.3233C64.4844 54.4039 64.4103 54.4868 64.3405 54.5718L63.1284 53.3118L63.3464 53.0632L64.5585 54.3233Z" fill="#263238"/>
<path d="M61.1797 61.088C61.1557 61.2014 61.1339 61.306 61.1121 61.4303L59.5142 60.9529L59.5817 60.6106L61.1797 61.088Z" fill="#263238"/>
<path d="M61.5611 69.1844C61.5785 69.2433 61.596 69.3 61.6156 69.3566L60.07 69.7926L59.9653 69.4482L61.511 69.0122C61.5284 69.0689 61.5458 69.1277 61.5611 69.1844Z" fill="#263238"/>
<path d="M65.7053 76.2324L64.6153 77.4575L64.3711 77.2025L65.4611 75.9773L65.7053 76.2324Z" fill="#263238"/>
<path d="M72.2956 80.2087L71.9642 81.8982L71.6416 81.8023L71.973 80.1106C72.0798 80.1477 72.1866 80.1782 72.2956 80.2087Z" fill="#263238"/>
<path d="M79.6115 80.2239L80.1217 81.9286L79.8099 82.0158L79.2998 80.3111L79.4568 80.2675L79.6115 80.2239Z" fill="#263238"/>
<path d="M86.9147 77.5296L86.6967 77.7781L85.4824 76.5181C85.5565 76.4374 85.6307 76.3546 85.7004 76.2717L86.9147 77.5296Z" fill="#263238"/>
<path d="M90.5181 69.8908L90.4527 70.233L88.8613 69.7556C88.8853 69.6422 88.9071 69.5376 88.9267 69.4133L90.5181 69.8908Z" fill="#263238"/>
<path d="M89.9709 61.053L90.0734 61.3974L88.5278 61.8334C88.5103 61.7746 88.4951 61.7179 88.4776 61.6612L88.4253 61.489L89.9709 61.053Z" fill="#263238"/>
<path d="M85.6742 53.641L84.5842 54.8662C84.5036 54.779 84.4229 54.6962 84.3379 54.6111L85.4279 53.386L85.6742 53.641Z" fill="#263238"/>
<path d="M78.3996 49.05L78.0682 50.7439C77.9592 50.7068 77.8502 50.6763 77.7456 50.6458L78.077 48.9541L78.3996 49.05Z" fill="#263238"/>
<path d="M78.2556 49.8065L75.6004 66.8934L73.9741 66.3941L77.8131 49.6692L78.2556 49.8065Z" fill="#37474F"/>
<path d="M66.1326 56.3464L76.4419 65.6049L75.3431 66.8693L65.834 56.6887L66.1326 56.3464Z" fill="#455A64"/>
<path d="M75.5589 65.2712C75.5846 65.3439 75.5957 65.421 75.5914 65.498C75.5871 65.575 75.5675 65.6503 75.5339 65.7197C75.5002 65.7891 75.4531 65.851 75.3953 65.902C75.3374 65.953 75.27 65.9921 75.197 66.0168C75.0443 66.0507 74.8844 66.0243 74.7507 65.9431C74.617 65.8618 74.52 65.732 74.4798 65.5808C74.4538 65.5081 74.4425 65.431 74.4466 65.3539C74.4508 65.2769 74.4703 65.2014 74.504 65.1319C74.5377 65.0625 74.5849 65.0005 74.6429 64.9495C74.7009 64.8986 74.7685 64.8597 74.8417 64.8352C74.9944 64.8013 75.1543 64.8277 75.288 64.909C75.4217 64.9902 75.5187 65.12 75.5589 65.2712Z" fill="#C7C7C7"/>
<path d="M75.2471 64.8245C75.4008 64.9064 75.5198 65.041 75.5823 65.2036C75.6448 65.3662 75.6465 65.5458 75.5872 65.7096C75.5604 65.7861 75.5173 65.856 75.4609 65.9142C75.4044 65.9725 75.336 66.0178 75.2603 66.047C75.1847 66.0762 75.1036 66.0887 75.0226 66.0835C74.9417 66.0783 74.8628 66.0556 74.7915 66.017C74.6378 65.935 74.5188 65.8005 74.4564 65.6379C74.3939 65.4753 74.3921 65.2957 74.4514 65.1319C74.4782 65.0553 74.5214 64.9855 74.5778 64.9273C74.6342 64.869 74.7027 64.8237 74.7783 64.7945C74.854 64.7652 74.9351 64.7528 75.016 64.758C75.097 64.7632 75.1758 64.7859 75.2471 64.8245Z" fill="#5748AE"/>
<path d="M75.1164 65.1667L86.448 71.1072L86.3804 71.2838L74.9224 65.6769L75.1164 65.1667Z" fill="#5748AE"/>
<path d="M50.877 51.7432L52.1618 50.0363L55.0112 52.1812C55.1641 52.2962 55.265 52.4674 55.2918 52.6569C55.3185 52.8464 55.2689 53.0387 55.1538 53.1916L54.7369 53.7455C54.6218 53.8984 54.4506 53.9993 54.2612 54.026C54.0717 54.0528 53.8793 54.0031 53.7264 53.888L50.877 51.7432Z" fill="#5748AE"/>
<path opacity="0.3" d="M50.877 51.7432L52.1618 50.0363L55.0112 52.1812C55.1641 52.2962 55.265 52.4674 55.2918 52.6569C55.3185 52.8464 55.2689 53.0387 55.1538 53.1916L54.7369 53.7455C54.6218 53.8984 54.4506 53.9993 54.2612 54.026C54.0717 54.0528 53.8793 54.0031 53.7264 53.888L50.877 51.7432Z" fill="black"/>
<path d="M45.2174 60.8219C45.2174 60.8219 37.9079 53.3685 44.4195 44.873C50.9312 36.3776 59.8299 42.1742 59.8299 42.1742C59.8299 42.1742 54.7026 53.1919 45.2174 60.8219Z" fill="#5748AE"/>
<path opacity="0.4" d="M45.2174 60.8219C45.2174 60.8219 37.9079 53.3685 44.4195 44.873C50.9312 36.3776 59.8299 42.1742 59.8299 42.1742C59.8299 42.1742 54.7026 53.1919 45.2174 60.8219Z" fill="white"/>
<g opacity="0.3">
<path d="M48.4943 57.9118C47.9145 58.4786 47.3128 59.0411 46.6893 59.5883C40.9319 52.2068 43.5 46.2903 43.5981 46.0723C43.4019 50.9707 46.8855 55.9041 48.4943 57.9118Z" fill="white"/>
<path d="M49.966 56.4054C49.748 56.6495 49.5061 56.8915 49.2684 57.1378C49.2292 57.0899 49.19 57.0397 49.1485 56.9918C44.5248 51.3587 44.0757 45.3506 44.0757 45.3506C45.4818 51.169 48.4967 54.875 49.966 56.4054Z" fill="white"/>
</g>
<path opacity="0.1" d="M59.8324 42.1851C57.6018 46.6503 54.8298 50.8237 51.5789 54.6111C54.6549 50.4211 56.9679 45.2022 56.3117 43.262C55.9912 42.3094 54.7552 40.5392 49.3945 40.9469C54.7181 38.8475 59.8324 42.1851 59.8324 42.1851Z" fill="black"/>
<path d="M43.0978 43.8435L43.0113 43.9584C42.6804 44.398 42.7685 45.0226 43.2081 45.3535L44.537 46.3539C44.9766 46.6848 45.6012 46.5967 45.9321 46.1571L46.0186 46.0421C46.3495 45.6025 46.2614 44.9779 45.8218 44.647L44.4929 43.6467C44.0533 43.3158 43.4287 43.4039 43.0978 43.8435Z" fill="#5748AE"/>
<path opacity="0.4" d="M43.0978 43.8435L43.0113 43.9584C42.6804 44.398 42.7685 45.0226 43.2081 45.3535L44.537 46.3539C44.9766 46.6848 45.6012 46.5967 45.9321 46.1571L46.0186 46.0421C46.3495 45.6025 46.2614 44.9779 45.8218 44.647L44.4929 43.6467C44.0533 43.3158 43.4287 43.4039 43.0978 43.8435Z" fill="white"/>
<path d="M52.6143 70.9873C52.6143 70.9873 52.2241 69.5572 51.3957 66.66C50.6109 63.9175 48.5377 56.85 46.0503 54.1795C39.5103 47.1621 25.1441 47.1599 14.7891 41.7535C9.12114 38.793 8.96636 37.0076 7.35752 37.4044C5.74868 37.8011 8.19246 46.931 17.9501 50.5258C17.9501 50.5258 13.2065 52.3832 13.3721 53.6628C13.5378 54.9425 17.8019 55.4984 20.6533 55.0515C20.6533 55.0515 16.3282 59.1935 17.2918 60.7195C18.2553 62.2455 23.6269 60.9615 25.772 59.9783C25.772 59.9783 23.374 62.8602 24.3593 63.9023C25.8853 65.5155 30.7816 62.8908 30.7816 62.8908C30.7816 62.8908 29.3232 64.8528 30.3216 65.4566C31.682 66.2741 35.691 64.4167 35.691 64.4167C35.691 64.4167 36.8398 68.0007 42.1307 65.8447C42.1307 65.8447 43.4191 68.513 47.2951 66.5532C47.2951 66.5532 49.1285 67.4949 49.8348 68.7332C50.5411 69.9714 51.9167 71.1791 52.6143 70.9873Z" fill="#EBEBEB"/>
<path d="M51.0819 67.179C50.8879 66.8585 50.5216 66.7059 50.2099 66.525C49.1744 66.0148 48.0953 65.2671 48.431 63.946L48.5552 64.079C46.9442 64.3537 45.5469 63.6125 45.743 61.827C45.7919 61.3655 45.8944 60.9112 46.0482 60.4733L46.3491 60.6913C42.0022 63.7956 40.8991 61.9513 43.0486 57.5826L43.4431 57.8965C39.033 61.4085 36.9402 61.4237 38.8651 55.2652L39.2554 55.5683C38.9027 55.7793 38.5238 55.9427 38.1283 56.0544C35.6169 56.7673 34.5575 54.6876 33.8926 52.6885C33.6658 51.9774 33.2779 51.3284 32.7591 50.7918C32.2403 50.2552 31.6046 49.8457 30.9016 49.5951C29.4737 49.0762 27.9106 48.989 26.3999 49.0871C25.6341 49.1384 24.8725 49.2389 24.1196 49.388C24.8643 49.1901 25.6229 49.0495 26.389 48.9672C29.5936 48.601 33.0271 49.146 34.298 52.525C34.734 53.5757 35.0828 54.6548 35.9941 55.3241C36.8879 55.9476 38.0869 55.6511 38.972 55.1257L39.5715 54.7704L39.3535 55.4244C39.1355 56.1067 38.1588 59.4508 39.009 59.7321C40.1557 59.8105 42.1744 58.2061 43.0987 57.4954L44.0056 56.7629C43.5194 57.7941 42.0109 60.5474 42.5777 61.5894C43.2317 62.2434 45.4487 60.8046 46.1027 60.3708L46.6129 60.0198C46.275 60.9594 45.7736 62.1039 46.2553 63.0609C46.7088 63.8653 47.8293 63.9482 48.6664 63.837C48.2086 65.1733 49.1962 65.86 50.2273 66.453C50.5325 66.6514 50.8813 66.8301 51.0688 67.1615L51.0819 67.179Z" fill="#C7C7C7"/>
<path d="M34.5772 56.4185C34.3793 57.0313 34.227 57.6579 34.1216 58.2933C34.0627 58.8165 33.9624 59.4051 34.2306 59.8781C35.0088 60.918 36.9032 60.2531 37.9017 59.8541L38.1742 59.7364C38.0681 60.3239 38.0409 60.9229 38.0935 61.5175C38.2723 63.6364 40.8425 62.0559 41.817 61.4172L41.7472 61.8031C41.6164 62.5094 41.5663 63.9307 42.5603 63.9111C43.4629 63.8239 44.3371 63.3029 45.1175 62.8451L45.2788 62.747C45.1088 63.5078 45.3878 64.4147 46.1879 64.6828C46.4196 64.7682 46.6628 64.8182 46.9094 64.8311C45.7497 64.8878 44.9714 64.0594 45.0804 62.904L45.2134 62.989C44.4286 63.4838 43.1228 64.3711 42.1614 64.14C41.2436 63.752 41.2894 62.5617 41.4093 61.742L41.6709 61.9142C41.0196 62.3703 40.2893 62.7015 39.5171 62.8909C37.5965 63.3073 37.5856 61.3256 37.7992 59.9828L38.0303 60.1637C36.8945 60.5997 34.8737 61.2341 34.0344 60.0089C33.5482 59.0519 34.2131 57.3689 34.5707 56.425L34.5772 56.4185Z" fill="#C7C7C7"/>
<path opacity="0.1" d="M52.6142 70.9851C51.9166 71.1791 50.5345 69.9845 49.826 68.7419C49.1175 67.4993 47.2863 66.5619 47.2863 66.5619C43.4102 68.5239 42.1219 65.8534 42.1219 65.8534C36.831 68.0094 35.6821 64.4255 35.6821 64.4255C37.9559 66.5815 42.1197 64.8768 42.1197 64.8768C44.6289 67.447 47.2732 65.8076 47.2732 65.8076C47.8423 65.8894 48.4161 65.9331 48.991 65.9384C49.7257 65.9275 48.4438 61.7659 47.2885 58.6049C46.1985 55.6183 42.1393 51.182 40.2972 50.2424H40.3146C42.5557 51.2758 44.5155 52.5358 46.048 54.1795C48.5376 56.8478 50.6129 63.9198 51.3956 66.66C52.224 69.5572 52.6142 70.9851 52.6142 70.9851Z" fill="black"/>
<path d="M18.3253 49.8151C14.0547 48.4788 9.9846 45.442 8.19046 41.2455C7.89375 40.5449 7.67445 39.8139 7.53646 39.0655C7.49045 38.8949 7.49045 38.7152 7.53646 38.5445C7.69996 38.1587 8.15776 38.4268 8.3823 38.5969C8.68579 38.8207 8.97689 39.0608 9.2543 39.3163C8.92076 39.1462 8.6003 38.9587 8.2624 38.8061C8.12844 38.7317 7.9794 38.6885 7.8264 38.6797C7.8264 38.6797 7.87218 38.6557 7.86782 38.6579C7.88227 38.762 7.91011 38.8639 7.95066 38.9609C9.60964 43.9008 13.9522 47.2623 18.3253 49.8151Z" fill="white"/>
<path d="M14.2266 53.0131C15.1247 53.6671 16.3194 53.6497 17.3854 53.8088C18.3969 53.92 19.7986 54.0028 20.7818 54.2448C19.0937 54.8729 17.2353 54.8691 15.5498 54.2339C15.0157 53.9789 14.3835 53.6192 14.2287 53.0044L14.2266 53.0131Z" fill="white"/>
<path d="M20.7971 56.0259C20.4146 56.8267 19.9468 57.5839 19.4019 58.2844C18.9441 58.982 18.2727 59.5749 18.1332 60.4251C17.8083 60.0414 17.9043 59.4419 18.0416 58.9994C18.2823 58.3467 18.6497 57.7479 19.1226 57.2376C19.5955 56.7273 20.1646 56.3155 20.7971 56.0259Z" fill="white"/>
<path d="M34.6621 50.8223C35.1948 51.529 35.6494 52.2914 36.018 53.096C36.4257 53.8241 36.6459 54.6918 37.326 55.2062C36.8355 55.3196 36.3472 54.9577 36.018 54.6329C35.0788 53.5927 34.5911 52.222 34.6621 50.8223Z" fill="white"/>
</svg>
