<svg width="129" height="128" viewBox="0 0 129 128" fill="none" xmlns="http://www.w3.org/2000/svg">
<path d="M0.719086 8C0.719086 3.58172 4.30081 0 8.71909 0H120.532C124.95 0 128.532 3.58172 128.532 8V119.813C128.532 124.231 124.95 127.813 120.532 127.813H8.71908C4.3008 127.813 0.719086 124.231 0.719086 119.813V8Z" fill="#111827"/>
<path d="M99.5771 79.442C99.5771 93.8238 88.7609 104.668 66.2994 104.668C50.3264 104.668 39.1786 99.4815 29.8611 90.6008L40.5105 76.4557L42.1741 78.1071C46.0007 81.8784 54.3205 88.166 67.2149 88.166C75.8665 88.166 79.693 84.7081 79.693 81.3285C79.693 77.1639 72.3734 75.5125 63.8877 73.6276C50.6599 70.6413 34.5203 66.6334 33.7714 48.7154V48.0087V47.3013V46.5939C34.1877 33.7845 46.0836 23.3323 65.3008 23.3323C78.5287 23.3323 90.0099 27.1044 99.2437 35.5134L88.0958 49.3444L86.5151 47.9296C80.6086 42.8218 72.2888 39.8355 63.6372 39.8355C57.4819 39.8355 53.8213 42.0361 53.8213 45.8082C53.8213 49.2653 60.7263 50.8376 68.7127 52.6449C82.2723 55.7096 98.8274 59.8742 99.5771 77.9489V78.6571V79.442Z" fill="white"/>
</svg>
