<svg width="44" height="44" viewBox="0 0 44 44" fill="none" xmlns="http://www.w3.org/2000/svg">
<rect width="44" height="44" rx="8" fill="#5748AE"/>
<path d="M33 27.088C33 31.8538 29.5868 35.4471 22.4987 35.4471C17.4582 35.4471 13.9403 33.7286 11 30.7858L14.3606 26.0984L14.8856 26.6457C16.0931 27.8954 18.7186 29.9789 22.7876 29.9789C25.5177 29.9789 26.7253 28.833 26.7253 27.7131C26.7253 26.3331 24.4154 25.7858 21.7376 25.1613C17.5634 24.1717 12.4703 22.8435 12.234 16.9059V16.6718V16.4374V16.203C12.3653 11.9582 16.1193 8.49463 22.1836 8.49463C26.3578 8.49463 29.9809 9.74461 32.8948 12.5312L29.3769 17.1144L28.8781 16.6456C27.0142 14.953 24.3887 13.9634 21.6586 13.9634C19.7162 13.9634 18.561 14.6926 18.561 15.9426C18.561 17.0882 20.74 17.6092 23.2603 18.2081C27.5392 19.2237 32.7634 20.6037 33 26.5932V26.8279V27.088Z" fill="#FAFAFA"/>
</svg>
