<svg width="600" height="601" viewBox="0 0 600 601" fill="none" xmlns="http://www.w3.org/2000/svg">
<path fill-rule="evenodd" clip-rule="evenodd" d="M120.341 277.232C122.916 273.463 125.739 269.423 130.264 268.81C136.201 268.006 142.42 269.42 146.652 273.668C152.272 279.31 158.472 286.952 155.804 294.447C153.151 301.898 143.208 302.23 135.651 304.565C128.834 306.67 120.435 312.019 115.439 306.916C110.415 301.784 116.921 293.706 118.09 286.627C118.643 283.284 118.43 280.028 120.341 277.232Z" fill="#E5D6FC"/>
<path fill-rule="evenodd" clip-rule="evenodd" d="M464.426 448.688C476.011 453.286 479.218 469.565 477.215 481.847C475.307 493.548 465.044 501.089 454.886 507.181C445.065 513.071 433.791 518.291 423.006 514.359C412.328 510.466 402.458 499.751 403.512 488.451C404.456 478.321 418.901 477.62 427.003 471.487C429.806 469.365 431.581 466.758 434.584 464.929C444.758 458.73 453.324 444.282 464.426 448.688Z" fill="#E5D6FC"/>
<path fill-rule="evenodd" clip-rule="evenodd" d="M198.008 418.064C208.892 430.298 222.999 442.65 217.408 458.037C210.093 478.173 192.059 495.827 170.843 492.833C149.986 489.89 141.961 467.194 137.091 446.702C130.872 420.534 118.249 385.371 142.586 373.93C166.209 362.825 180.654 398.557 198.008 418.064Z" fill="#E5D6FC"/>
<path fill-rule="evenodd" clip-rule="evenodd" d="M162.74 175.613C199.177 139.501 263.054 182.464 316.106 188.897C350.505 193.068 387.023 184.64 414.867 206.185C442.753 227.762 453.653 263.54 456.547 297.567C459.233 329.141 445.485 356.545 429.93 383.26C410.994 415.781 397.224 460.31 358.891 465.286C320.321 470.293 291.618 430.081 260.122 405.302C228.962 380.789 194.825 360.195 179.57 324.213C159.015 275.73 126.892 211.141 162.74 175.613Z" fill="#E5D6FC"/>
<path d="M406.192 455.61C433.185 452.05 451.69 424.244 447.615 393.555C444.559 371.175 430.299 353.372 412.134 346.929C405.173 342.352 382.763 325.397 390.403 299.625C399.401 269.276 385.48 242.318 377.161 233.162C368.842 224.006 343.886 198.744 292.277 219.429C220.464 248.252 245.42 350.829 245.42 350.829C245.42 350.829 348.64 453.237 359.166 455.271C369.691 457.475 398.722 455.949 398.892 455.949C401.438 456.119 403.815 455.949 406.192 455.61Z" fill="#403233"/>
<path d="M302.802 217.563C302.633 216.885 302.972 216.377 303.481 216.207C303.991 216.037 315.195 212.307 330.135 212.138C350.168 211.968 367.484 218.75 379.877 231.466C407.55 259.781 402.287 292.674 400.589 303.525C400.419 304.542 400.25 305.22 400.25 305.898C400.25 306.238 400.25 306.407 400.08 306.916C399.571 310.815 398.552 319.801 400.929 329.466C403.815 341.165 410.775 350.32 421.81 356.254C422.489 356.594 422.999 357.611 422.659 358.289C422.32 358.967 421.641 359.137 420.792 358.798C408.738 352.355 401.099 342.521 398.043 329.635C395.496 319.462 396.685 310.137 397.194 306.068L397.364 305.22C397.364 304.542 397.533 303.864 397.703 302.847C399.401 292.335 404.494 260.629 378.01 233.501C349.489 204.339 305.179 219.089 304.67 219.089C303.991 219.259 303.142 218.92 302.802 218.072C302.802 217.903 302.802 217.733 302.802 217.563Z" fill="#403233"/>
<path d="M376.652 341.504C375.633 339.13 337.435 306.746 333.7 301.999C329.965 297.082 333.531 294.369 333.531 294.369C338.793 294.369 343.038 290.131 343.038 284.874C343.038 279.618 338.793 275.38 333.531 275.38C329.286 275.38 325.721 278.093 324.533 281.823L324.193 281.314C316.214 280.805 291.598 250.456 291.598 250.456C267.49 263.342 275.13 290.3 275.13 290.3L269.528 295.047L257.474 335.57L320.798 370.836C320.798 371.005 377.671 343.878 376.652 341.504Z" fill="#FEAA94"/>
<path d="M388.536 457.476L275.809 455.95H229.123L233.706 355.407L200.941 374.566C200.941 374.566 196.697 377.109 190.415 379.653C177.173 385.078 154.424 390.843 142.541 374.397C125.054 350.151 140.333 333.366 146.275 326.753C149.501 323.193 164.271 315.563 181.927 306.747C196.697 299.456 213.674 291.318 227.764 284.027C227.934 284.027 227.934 283.857 228.104 283.857C258.832 268.259 274.451 287.757 274.451 287.757C274.451 287.757 274.451 291.657 274.281 291.318C271.225 296.743 271.565 299.795 270.376 304.373C268.849 309.798 270.207 314.715 270.886 319.124C273.432 337.435 291.598 347.099 308.405 350.151C312.989 350.999 318.082 350.999 323.175 350.49C330.305 349.812 337.775 347.947 344.396 346.082C358.996 341.674 370.88 335.909 370.88 335.909C370.88 335.909 387.517 350.151 392.271 367.276C399.231 391.691 388.536 457.476 388.536 457.476Z" fill="#FDC759"/>
<path d="M271.225 461.545C271.565 462.053 300.765 483.417 303.481 485.112C324.702 497.998 359.505 504.78 378.689 483.925C386.159 475.956 388.536 464.766 388.536 453.915C387.687 399.32 296.011 446.285 296.011 446.285L281.751 447.303C281.581 447.303 270.037 459.51 271.225 461.545Z" fill="#FDC759"/>
<path d="M364.428 330.144C356.789 333.535 349.828 339.3 343.547 345.743C327.419 362.528 316.893 384.4 316.893 384.4C336.247 404.237 331.663 432.382 331.663 432.382L303.821 416.445L274.79 455.949H228.104L232.688 355.407C239.818 335.57 259.681 315.054 270.886 304.373C275.809 299.795 278.016 298.438 278.016 298.438L283.279 304.712C279.204 306.746 275.3 312.85 269.867 319.123C263.246 326.753 257.644 334.213 257.644 334.213C261.888 349.134 305.009 377.618 305.009 377.618C307.216 370.497 314.177 361.002 322.326 350.49C335.058 333.705 355.77 322.175 355.77 322.175L364.428 330.144Z" fill="#EFEAE1"/>
<path d="M331.833 433.23C331.324 433.23 330.984 432.89 330.984 432.382L328.098 383.043C328.098 382.534 328.438 382.195 328.947 382.195C329.456 382.195 329.796 382.534 329.796 383.043L332.682 432.382C332.682 432.89 332.342 433.23 331.833 433.23Z" fill="white"/>
<path d="M297.879 311.494C293.805 311.494 290.07 310.646 287.014 308.781C274.79 301.49 274.111 290.3 273.942 289.961C273.942 289.452 274.281 289.113 274.79 289.113C275.3 289.113 275.639 289.452 275.639 289.961C275.639 290.131 276.488 300.812 287.863 307.425C301.444 315.563 322.835 301.49 323.005 301.321C323.344 300.982 323.854 301.151 324.193 301.49C324.533 301.829 324.363 302.338 324.023 302.677C323.854 302.847 318.421 306.407 311.121 308.951C306.368 310.646 301.954 311.494 297.879 311.494Z" fill="#EE7772"/>
<path d="M301.953 329.466C301.784 329.466 301.784 329.466 301.614 329.466C301.104 329.297 300.935 328.788 301.104 328.449C301.104 328.279 305.179 316.072 299.067 312.003C298.728 311.664 298.558 311.155 298.897 310.816C299.237 310.477 299.746 310.307 300.086 310.646C307.216 315.394 302.972 328.449 302.802 328.958C302.632 329.127 302.293 329.466 301.953 329.466Z" fill="#EE7772"/>
<path d="M328.777 289.961C328.607 289.961 328.438 289.961 328.438 289.792C328.098 289.622 327.928 289.113 328.098 288.605C328.268 288.266 332.003 281.484 337.775 281.823C338.284 281.823 338.624 282.331 338.624 282.671C338.624 283.179 338.114 283.518 337.775 283.518C333.021 283.349 329.626 289.283 329.626 289.453C329.286 289.792 328.947 289.961 328.777 289.961Z" fill="#EE7772"/>
<path d="M289.56 294.708C289.391 294.708 289.391 294.708 289.221 294.708C288.033 294.369 283.958 292.843 283.788 290.639C283.788 289.961 283.958 289.113 285.316 288.265C288.881 286.061 292.107 277.753 292.107 277.583C292.277 277.075 292.786 276.905 293.295 277.075C293.805 277.244 293.974 277.753 293.805 278.262C293.635 278.601 290.409 287.417 286.335 289.791C285.826 290.13 285.656 290.3 285.656 290.469C285.656 291.147 288.033 292.334 289.9 293.012C290.409 293.182 290.579 293.691 290.409 294.03C290.24 294.369 289.9 294.708 289.56 294.708Z" fill="#EE7772"/>
<path d="M294.993 297.929C293.126 297.929 291.937 297.59 291.767 297.59C291.258 297.421 291.088 297.082 291.088 296.573C291.258 296.064 291.598 295.895 292.107 295.895C292.107 295.895 296.861 297.082 300.935 294.538C301.275 294.369 301.784 294.369 302.123 294.878C302.293 295.217 302.293 295.895 301.784 296.064C299.577 297.59 297.03 297.929 294.993 297.929Z" fill="#EE7772"/>
<path d="M312.14 271.819C311.97 271.819 311.8 271.819 311.63 271.65C304.67 268.089 299.237 270.633 299.067 270.633C298.558 270.972 297.879 270.633 297.54 270.124C297.2 269.615 297.54 268.937 298.049 268.598C298.388 268.428 304.5 265.546 312.479 269.615C312.988 269.954 313.328 270.633 312.988 271.141C312.988 271.65 312.649 271.819 312.14 271.819Z" fill="#403233"/>
<path d="M288.881 273.854C288.712 273.854 288.712 273.854 288.881 273.854C288.202 273.854 287.693 273.175 287.693 272.667C287.693 272.667 288.032 268.598 285.656 266.224C284.128 264.698 281.921 264.189 278.865 264.529C278.186 264.529 277.677 264.189 277.677 263.511C277.677 262.833 278.016 262.324 278.695 262.324C282.43 261.816 285.316 262.663 287.353 264.698C290.579 267.75 290.07 272.667 290.07 273.006C289.9 273.515 289.391 273.854 288.881 273.854Z" fill="#403233"/>
<path d="M306.028 286.231C307.341 286.231 308.405 285.016 308.405 283.518C308.405 282.02 307.341 280.805 306.028 280.805C304.715 280.805 303.651 282.02 303.651 283.518C303.651 285.016 304.715 286.231 306.028 286.231Z" fill="#403233"/>
<path d="M285.995 280.296C287.214 280.296 288.202 279.082 288.202 277.583C288.202 276.085 287.214 274.871 285.995 274.871C284.776 274.871 283.788 276.085 283.788 277.583C283.788 279.082 284.776 280.296 285.995 280.296Z" fill="#403233"/>
<g opacity="0.4">
<path d="M277.507 289.283C284.351 289.283 289.9 283.742 289.9 276.906C289.9 270.07 284.351 264.529 277.507 264.529C270.662 264.529 265.114 270.07 265.114 276.906C265.114 283.742 270.662 289.283 277.507 289.283Z" fill="#D3BCF8"/>
</g>
<g opacity="0.4">
<path d="M305.858 295.386C312.703 295.386 318.251 289.845 318.251 283.009C318.251 276.174 312.703 270.632 305.858 270.632C299.014 270.632 293.465 276.174 293.465 283.009C293.465 289.845 299.014 295.386 305.858 295.386Z" fill="#D3BCF8"/>
</g>
<path d="M289.672 279.361L289.516 280.021L293.647 280.993L293.803 280.332L289.672 279.361Z" fill="#60B2EF"/>
<path d="M327.138 277.377L318.039 281.559L318.323 282.175L327.422 277.993L327.138 277.377Z" fill="#60B2EF"/>
<path d="M277.507 289.961C270.207 289.961 264.435 284.027 264.435 276.906C264.435 269.785 270.376 263.851 277.507 263.851C284.807 263.851 290.579 269.785 290.579 276.906C290.579 284.027 284.637 289.961 277.507 289.961ZM277.507 265.377C271.056 265.377 265.963 270.633 265.963 276.906C265.963 283.349 271.225 288.435 277.507 288.435C283.788 288.435 289.051 283.179 289.051 276.906C289.051 270.633 283.958 265.377 277.507 265.377Z" fill="white"/>
<path d="M305.858 296.065C298.558 296.065 292.786 290.13 292.786 283.009C292.786 275.719 298.728 269.954 305.858 269.954C313.158 269.954 318.93 275.888 318.93 283.009C318.93 290.13 313.158 296.065 305.858 296.065ZM305.858 271.31C299.407 271.31 294.314 276.567 294.314 282.84C294.314 289.283 299.577 294.369 305.858 294.369C312.309 294.369 317.403 289.113 317.403 282.84C317.572 276.567 312.309 271.31 305.858 271.31Z" fill="white"/>
<path d="M289.789 278.866L289.438 280.352L293.57 281.323L293.92 279.837L289.789 278.866Z" fill="white"/>
<path d="M326.996 277.069L317.897 281.251L318.536 282.637L327.635 278.455L326.996 277.069Z" fill="white"/>
<path d="M313.417 277.145C313.821 276.3 312.776 274.961 311.084 274.154C309.392 273.347 307.692 273.378 307.288 274.223C306.884 275.068 307.929 276.407 309.621 277.214C311.314 278.021 313.013 277.99 313.417 277.145Z" fill="white"/>
<path d="M283.939 270.813C284.424 269.798 283.445 268.322 281.752 267.515C280.06 266.709 278.295 266.877 277.81 267.891C277.326 268.905 278.305 270.381 279.997 271.188C281.69 271.995 283.454 271.827 283.939 270.813Z" fill="white"/>
<path d="M251.702 301.151C248.137 302.508 246.609 306.068 245.59 307.425C245.42 312.341 238.46 326.753 238.46 326.753L232.518 355.916L199.753 375.075C199.753 375.075 195.508 377.618 189.227 380.161C150.52 372.023 163.762 331.331 163.762 331.331L186.001 325.397C181.248 320.48 180.739 307.425 180.739 307.425C182.097 289.113 210.618 285.383 210.618 285.383C210.618 285.383 205.185 263.003 204.506 260.968C203.827 258.934 200.092 251.134 207.053 248.422C214.013 245.709 218.937 254.017 219.616 257.069C219.955 258.764 223.69 275.38 226.916 284.535C229.292 291.148 231.499 296.913 232.009 297.76C233.367 299.964 239.648 297.591 242.874 292.674C246.1 287.757 255.946 284.705 259.511 287.926C263.246 290.809 255.267 299.795 251.702 301.151Z" fill="#FEAA94"/>
<path d="M232.009 298.269C231.669 298.269 231.499 298.099 231.33 297.93C230.651 296.743 227.765 288.944 226.067 284.535C222.841 275.549 219.106 258.933 218.767 256.899C218.427 255.203 216.05 251.134 212.995 249.269C211.127 248.252 209.26 248.082 207.392 248.93C202.639 250.795 203.488 255.373 205.185 259.612C205.355 259.951 205.355 260.12 205.525 260.29C206.204 262.324 214.692 292.674 215.032 294.03C215.202 294.539 214.862 294.878 214.353 295.047C213.843 295.217 213.504 294.878 213.334 294.369C213.164 294.03 204.506 262.663 203.827 260.629C203.827 260.459 203.657 260.29 203.657 259.951C202.639 257.238 199.922 249.778 206.883 247.065C209.26 246.217 211.637 246.387 213.844 247.574C217.748 249.778 220.125 254.356 220.634 256.221C220.974 258.255 224.709 274.532 227.934 283.518C230.99 292.165 232.518 296.065 233.027 296.573C233.197 296.912 233.197 297.421 232.688 297.76C232.348 298.269 232.179 298.269 232.009 298.269Z" fill="white"/>
<path d="M142.031 337.096C141.692 337.096 141.352 336.757 141.182 336.418C141.013 335.909 141.352 335.57 141.861 335.4L164.61 329.975C165.12 329.805 165.459 330.144 165.629 330.653C165.799 331.162 165.459 331.501 164.95 331.67L142.201 337.096H142.031Z" fill="white"/>
<path d="M193.301 327.601L240.327 326.414C242.704 326.414 244.741 327.94 245.251 330.314L262.907 416.614C263.586 419.496 261.379 422.379 258.323 422.379L210.448 424.074C208.071 424.244 206.034 422.548 205.525 420.175L188.718 333.366C188.208 330.314 190.415 327.601 193.301 327.601Z" fill="#403233"/>
<path d="M210.109 424.922C207.392 424.922 205.015 423.057 204.506 420.344L187.869 333.535C187.529 331.84 188.039 330.144 189.057 328.957C190.076 327.601 191.604 326.923 193.301 326.923L240.327 325.736C243.044 325.736 245.42 327.601 246.1 330.314L263.756 416.614C264.095 418.31 263.756 420.005 262.567 421.192C261.549 422.548 260.021 423.227 258.323 423.396L210.448 425.092C210.278 424.922 210.109 424.922 210.109 424.922ZM193.301 328.449C192.113 328.449 191.094 328.957 190.246 329.975C189.566 330.822 189.227 332.009 189.397 333.196L206.034 420.005C206.374 421.87 208.071 423.226 210.109 423.226L257.983 421.531C259.172 421.531 260.19 421.022 261.039 420.005C261.888 418.988 262.058 417.97 261.888 416.784L244.232 330.483C243.893 328.618 242.195 327.262 240.158 327.262L193.301 328.449Z" fill="white"/>
<path d="M194.999 340.656L197.715 353.033C198.395 356.085 201.111 358.12 204.167 358.12C208.071 357.95 211.127 354.22 210.278 350.32L207.732 337.943C207.053 334.891 204.336 332.687 201.111 332.857C197.036 333.026 194.15 336.756 194.999 340.656Z" fill="#C1B5B0"/>
<path d="M201.62 344.386C203.964 344.386 205.864 342.488 205.864 340.147C205.864 337.806 203.964 335.909 201.62 335.909C199.276 335.909 197.376 337.806 197.376 340.147C197.376 342.488 199.276 344.386 201.62 344.386Z" fill="#44342F"/>
<path d="M203.997 354.898C206.341 354.898 208.241 353.001 208.241 350.66C208.241 348.319 206.341 346.421 203.997 346.421C201.653 346.421 199.753 348.319 199.753 350.66C199.753 353.001 201.653 354.898 203.997 354.898Z" fill="#44342F"/>
<path d="M213.164 355.915C212.655 353.033 214.692 350.32 217.748 350.151C228.444 349.642 253.4 349.133 256.286 356.593C259.511 365.58 266.981 393.386 269.528 396.098C272.074 398.811 302.633 418.14 302.633 418.14L271.225 461.375L231.669 423.226L246.439 422.887C246.439 422.887 243.214 408.645 246.609 402.88L238.12 407.458C235.404 408.984 232.009 408.136 230.311 405.593C228.613 403.05 229.123 399.489 231.499 397.624L250.853 382.365L228.104 396.268C225.388 397.963 221.992 397.116 220.464 394.403C218.937 391.86 219.785 388.638 222.162 386.943L247.628 370.666L223.011 384.06C220.125 385.586 216.56 384.399 215.202 381.348C214.013 378.635 215.032 375.583 217.578 374.057L240.327 361.68C240.327 361.68 215.032 365.24 213.164 358.289C213.504 357.441 213.334 356.593 213.164 355.915Z" fill="#FEA795"/>
<path d="M246.439 423.735C246.1 423.735 245.76 423.396 245.59 423.057C245.42 422.548 243.044 411.528 244.911 404.746L238.63 408.137C235.574 409.832 231.669 408.985 229.632 405.933C227.595 403.05 228.274 398.981 230.99 396.777L238.799 390.673L228.613 396.947C227.085 397.794 225.388 398.133 223.69 397.794C221.992 397.455 220.634 396.268 219.785 394.912C218.088 392.03 218.937 388.13 221.823 386.265L227.085 382.874L223.52 384.739C221.992 385.587 220.125 385.756 218.427 385.248C216.73 384.739 215.371 383.383 214.523 381.687C213.164 378.635 214.353 374.905 217.409 373.379L236.253 363.037C228.613 363.715 214.183 364.393 212.655 358.459C212.485 357.611 212.146 356.763 212.146 355.916C211.806 354.22 212.316 352.525 213.334 351.338C214.353 349.982 215.881 349.303 217.578 349.134C218.088 349.134 218.427 349.473 218.427 349.982C218.427 350.49 218.088 350.829 217.578 350.829C216.39 350.829 215.371 351.507 214.692 352.355C214.013 353.203 213.674 354.39 213.843 355.577C214.013 356.255 214.183 357.103 214.353 357.95C215.541 362.528 230.99 362.02 240.497 360.663C240.837 360.663 241.346 360.833 241.516 361.172C241.686 361.511 241.516 362.02 241.176 362.189L218.427 374.566C216.22 375.753 215.371 378.466 216.39 380.67C216.899 381.857 217.918 382.874 219.276 383.213C220.464 383.722 221.823 383.552 223.011 382.874L247.627 369.48C247.967 369.31 248.476 369.48 248.816 369.819C249.155 370.158 248.986 370.666 248.476 371.006L223.011 387.282C220.974 388.639 220.295 391.351 221.483 393.556C222.162 394.573 223.181 395.421 224.369 395.76C225.558 396.099 226.916 395.929 227.934 395.251L250.683 381.348C251.023 381.179 251.532 381.179 251.872 381.518C252.211 381.857 252.041 382.365 251.702 382.704L232.348 397.964C230.311 399.659 229.802 402.711 231.33 404.746C232.858 406.95 235.744 407.628 237.951 406.272L246.439 401.694C246.779 401.524 247.288 401.524 247.458 401.863C247.797 402.203 247.797 402.542 247.627 402.881C244.402 408.306 247.458 422.209 247.458 422.379C247.627 422.888 247.288 423.227 246.779 423.396C246.609 423.735 246.609 423.735 246.439 423.735Z" fill="#EE7772"/>
<path d="M260.53 430.856C260.36 430.856 260.36 430.856 260.53 430.856C260.021 430.856 250.853 429.5 246.269 422.039C243.214 417.123 243.044 410.51 245.76 402.711C245.93 402.202 246.439 402.033 246.779 402.202C247.288 402.372 247.458 402.88 247.288 403.22C244.741 410.51 244.911 416.444 247.628 421.022C251.702 427.635 260.36 428.991 260.53 428.991C261.039 428.991 261.379 429.5 261.209 430.008C261.209 430.517 260.869 430.856 260.53 430.856Z" fill="#EE7772"/>
<path d="M246.779 403.728C246.609 403.728 246.269 403.559 246.1 403.389C245.76 403.05 245.93 402.542 246.269 402.202L257.814 392.877C258.153 392.538 258.662 392.708 259.002 393.047C259.341 393.386 259.172 393.894 258.832 394.234L247.288 403.559C247.118 403.559 246.948 403.728 246.779 403.728Z" fill="#EE7772"/>
<path d="M210.788 316.411C210.618 316.411 210.448 316.411 210.278 316.241C197.885 305.899 201.111 288.435 201.28 287.588C201.45 287.079 201.79 286.74 202.299 286.909C202.808 287.079 203.148 287.418 202.978 287.927C202.978 288.096 199.753 305.221 211.297 314.885C211.636 315.224 211.636 315.733 211.467 316.072C211.127 316.241 210.957 316.411 210.788 316.411Z" fill="#EE7772"/>
<path d="M198.225 320.65C197.885 320.65 197.715 320.48 197.546 320.31C184.134 303.016 189.567 293.352 189.906 293.013C190.076 292.674 190.755 292.504 191.094 292.674C191.434 292.843 191.604 293.522 191.434 293.861C191.434 294.03 186.341 303.016 199.074 319.293C199.413 319.632 199.243 320.141 198.904 320.48C198.564 320.48 198.394 320.65 198.225 320.65Z" fill="#EE7772"/>
<path d="M192.622 321.497C184.813 321.497 182.266 315.054 182.266 315.054C182.097 314.546 182.266 314.037 182.776 313.868C183.285 313.698 183.794 313.868 183.794 314.376C183.964 314.715 186.85 322.175 197.715 318.784C197.885 318.784 198.055 318.784 198.225 318.784C198.564 318.954 207.222 321.158 209.769 315.054C209.939 314.885 210.109 314.546 210.278 314.546C210.278 314.546 213.843 313.528 215.371 310.138C216.73 306.916 216.22 302.677 213.504 297.421C213.334 297.082 213.504 296.404 213.843 296.234C214.183 296.065 214.862 296.234 215.032 296.574C217.918 302.338 218.427 307.086 216.899 310.816C215.371 314.376 212.316 315.733 211.127 316.072C208.581 321.667 201.62 321.328 198.055 320.48C196.187 321.328 194.32 321.497 192.622 321.497Z" fill="#EE7772"/>
<path d="M306.877 382.365H306.707C306.368 382.196 306.198 381.857 306.198 381.518C306.537 380.5 306.877 379.313 307.216 378.296C307.386 377.957 307.726 377.788 308.065 377.957C308.405 378.127 308.575 378.466 308.405 378.805C308.065 379.822 307.726 380.839 307.386 382.026C307.386 382.196 307.216 382.365 306.877 382.365ZM304.161 380.67C303.991 380.67 303.821 380.67 303.821 380.5C302.972 379.992 302.123 379.313 300.935 378.635C300.595 378.466 300.595 377.957 300.765 377.618C300.935 377.279 301.444 377.279 301.784 377.448C302.802 378.127 303.821 378.805 304.67 379.314C305.009 379.483 305.009 379.992 304.84 380.331C304.5 380.67 304.33 380.67 304.161 380.67ZM298.388 376.94C298.219 376.94 298.049 376.94 298.049 376.77C297.2 376.092 296.181 375.583 295.163 374.905C294.823 374.736 294.823 374.227 294.993 373.888C295.163 373.549 295.672 373.549 296.012 373.718C297.03 374.397 297.879 375.075 298.728 375.583C299.067 375.753 299.067 376.262 298.898 376.601C298.898 376.77 298.728 376.94 298.388 376.94ZM309.254 375.923C309.084 375.923 309.084 375.923 308.914 375.923C308.575 375.753 308.405 375.414 308.575 375.075C309.084 374.057 309.423 373.04 309.933 372.023C310.102 371.684 310.442 371.514 310.782 371.684C311.121 371.853 311.291 372.192 311.121 372.532C310.612 373.549 310.272 374.566 309.763 375.583C309.763 375.753 309.423 375.923 309.254 375.923ZM292.786 373.04C292.616 373.04 292.446 373.04 292.446 372.871C291.598 372.192 290.579 371.514 289.73 370.836C289.391 370.667 289.391 370.158 289.56 369.819C289.73 369.48 290.239 369.48 290.579 369.649C291.598 370.327 292.446 371.006 293.295 371.684C293.635 371.853 293.635 372.362 293.465 372.701C293.295 372.871 293.126 373.04 292.786 373.04ZM312.14 369.819C311.97 369.819 311.97 369.819 311.8 369.819C311.461 369.649 311.291 369.31 311.461 368.971C311.97 367.954 312.479 366.936 313.158 365.919C313.328 365.58 313.837 365.41 314.007 365.75C314.347 365.919 314.516 366.428 314.177 366.597C313.668 367.615 312.989 368.462 312.479 369.48C312.479 369.649 312.309 369.819 312.14 369.819ZM287.353 368.971C287.184 368.971 287.014 368.971 287.014 368.801C286.165 368.123 285.146 367.445 284.298 366.767C283.958 366.597 283.958 366.089 284.128 365.75C284.298 365.41 284.807 365.41 285.146 365.58C285.995 366.258 287.014 366.936 287.863 367.615C288.202 367.784 288.202 368.293 288.032 368.632C287.693 368.971 287.523 368.971 287.353 368.971ZM281.921 364.902C281.751 364.902 281.581 364.902 281.581 364.732C280.732 364.054 279.884 363.376 278.865 362.698C278.525 362.528 278.525 362.019 278.695 361.68C278.865 361.341 279.374 361.341 279.714 361.511C280.563 362.189 281.412 362.867 282.43 363.545C282.77 363.715 282.77 364.224 282.6 364.563C282.43 364.732 282.091 364.902 281.921 364.902ZM315.535 364.054C315.365 364.054 315.365 364.054 315.196 363.885C314.856 363.715 314.856 363.206 315.026 362.867C315.705 361.85 316.214 361.002 316.893 359.985C317.063 359.646 317.572 359.646 317.912 359.815C318.251 359.985 318.251 360.494 318.082 360.833C317.403 361.68 316.893 362.698 316.214 363.715C315.875 363.885 315.705 364.054 315.535 364.054ZM276.658 360.663C276.488 360.663 276.318 360.663 276.149 360.494C275.3 359.815 274.451 358.968 273.602 358.289C273.263 358.12 273.263 357.611 273.602 357.272C273.772 356.933 274.281 356.933 274.621 357.272C275.47 357.95 276.318 358.798 277.167 359.476C277.507 359.646 277.507 360.154 277.337 360.494C276.998 360.494 276.828 360.663 276.658 360.663ZM319.27 358.459C319.1 358.459 318.93 358.459 318.93 358.289C318.591 358.12 318.591 357.611 318.761 357.272C319.44 356.424 320.119 355.407 320.798 354.559C320.968 354.22 321.477 354.22 321.816 354.39C322.156 354.559 322.156 355.068 321.986 355.407C321.307 356.255 320.628 357.103 319.949 358.12C319.779 358.289 319.609 358.459 319.27 358.459ZM271.565 356.255C271.395 356.255 271.225 356.255 271.056 356.085C270.207 355.238 269.358 354.559 268.509 353.712C268.17 353.373 268.17 353.033 268.509 352.694C268.849 352.355 269.188 352.355 269.528 352.694C270.377 353.542 271.225 354.22 272.074 355.068C272.414 355.238 272.414 355.746 272.074 356.085C271.904 356.085 271.735 356.255 271.565 356.255ZM323.514 353.033C323.344 353.033 323.175 353.033 323.005 352.864C322.665 352.694 322.665 352.186 322.835 351.847C323.514 350.999 324.363 350.151 325.042 349.303C325.212 348.964 325.721 348.964 326.061 349.303C326.4 349.473 326.4 349.982 326.061 350.321C325.382 351.168 324.533 352.016 323.854 352.864C323.854 353.033 323.684 353.033 323.514 353.033ZM266.642 351.507C266.472 351.507 266.302 351.507 266.132 351.338C265.283 350.49 264.435 349.642 263.756 348.795C263.586 348.456 263.586 348.116 263.756 347.777C264.095 347.608 264.435 347.608 264.774 347.777C265.453 348.625 266.302 349.473 267.151 350.151C267.49 350.49 267.49 350.829 267.151 351.168C266.981 351.507 266.811 351.507 266.642 351.507ZM328.098 347.947C327.928 347.947 327.758 347.947 327.589 347.777C327.249 347.438 327.249 347.099 327.589 346.76C328.437 345.912 329.117 345.065 329.965 344.217C330.305 343.878 330.644 343.878 330.984 344.217C331.324 344.556 331.324 344.895 330.984 345.234C330.135 346.082 329.456 346.76 328.607 347.608C328.437 347.947 328.268 347.947 328.098 347.947ZM261.888 346.591C261.718 346.591 261.549 346.591 261.379 346.421C260.53 345.573 259.851 344.556 259.342 343.708C259.172 343.369 259.172 343.03 259.511 342.691C259.851 342.521 260.19 342.521 260.53 342.86C261.209 343.708 261.888 344.556 262.567 345.573C262.737 345.912 262.737 346.251 262.397 346.591C262.228 346.421 262.058 346.591 261.888 346.591ZM332.851 343.2C332.682 343.2 332.512 343.2 332.342 343.03C332.003 342.691 332.003 342.352 332.342 342.013C333.191 341.165 334.04 340.487 334.889 339.639C335.228 339.469 335.568 339.469 335.907 339.639C336.247 339.978 336.077 340.317 335.907 340.656C335.058 341.335 334.21 342.182 333.531 343.03C333.191 343.03 333.021 343.2 332.851 343.2ZM257.983 340.995C257.814 340.995 257.474 340.826 257.474 340.656C256.795 339.469 256.286 338.452 255.946 337.435C255.776 337.096 255.946 336.757 256.286 336.587C256.625 336.418 256.965 336.587 257.135 336.926C257.474 337.774 257.983 338.791 258.493 339.809C258.662 340.148 258.493 340.487 258.323 340.656C258.323 340.995 258.153 340.995 257.983 340.995ZM337.775 338.452C337.605 338.452 337.435 338.452 337.265 338.283C337.096 337.944 337.096 337.604 337.265 337.265C338.114 336.418 338.963 335.739 339.812 335.061C340.152 334.892 340.491 334.892 340.831 335.061C341 335.4 341 335.739 340.831 336.079C339.982 336.757 339.133 337.604 338.284 338.283C338.114 338.452 337.945 338.452 337.775 338.452ZM255.946 334.553C255.607 334.553 255.267 334.213 255.267 333.874V333.705L255.437 333.535C255.437 333.535 256.116 332.518 257.474 330.822C257.644 330.483 258.153 330.483 258.493 330.653C258.832 330.822 258.832 331.331 258.662 331.67C257.474 333.196 256.795 334.213 256.625 334.383C256.455 334.553 256.286 334.553 255.946 334.553ZM342.868 334.044C342.698 334.044 342.528 333.874 342.359 333.874C342.189 333.535 342.189 333.196 342.528 332.857C343.377 332.179 344.396 331.331 345.245 330.653C345.584 330.483 345.924 330.483 346.263 330.822C346.433 331.162 346.433 331.501 346.093 331.84C345.245 332.518 344.396 333.196 343.377 333.874C343.207 334.044 343.038 334.044 342.868 334.044ZM348.3 329.975C348.131 329.975 347.961 329.805 347.791 329.636C347.621 329.297 347.621 328.957 347.961 328.618C348.98 327.94 349.828 327.262 350.677 326.584C351.017 326.414 351.356 326.414 351.696 326.753C351.866 327.092 351.866 327.432 351.526 327.771C350.677 328.449 349.828 328.957 348.81 329.805C348.64 329.975 348.47 329.975 348.3 329.975ZM260.021 329.127C259.851 329.127 259.681 329.127 259.681 328.957C259.342 328.788 259.342 328.279 259.511 327.94C260.19 327.092 260.869 326.245 261.549 325.227C261.718 324.888 262.228 324.888 262.567 325.058C262.907 325.227 262.907 325.736 262.737 326.075C262.058 327.092 261.379 327.94 260.7 328.788C260.36 329.127 260.19 329.127 260.021 329.127ZM353.903 326.075C353.733 326.075 353.394 325.906 353.394 325.736C353.224 325.397 353.224 325.058 353.563 324.719C355.431 323.532 356.449 322.854 356.449 322.854C356.789 322.684 357.128 322.684 357.298 323.023C357.468 323.362 357.468 323.701 357.128 323.871C357.128 323.871 356.11 324.549 354.242 325.736C354.073 325.906 354.073 326.075 353.903 326.075ZM264.095 323.701C263.925 323.701 263.756 323.701 263.756 323.532C263.416 323.362 263.416 322.854 263.586 322.515C264.265 321.667 264.944 320.819 265.623 319.802C265.793 319.463 266.302 319.463 266.642 319.632C266.981 319.802 266.981 320.31 266.811 320.65C266.132 321.497 265.453 322.515 264.774 323.362C264.604 323.701 264.435 323.701 264.095 323.701ZM268.339 318.445C268.17 318.445 268 318.445 267.83 318.276C267.49 318.106 267.49 317.598 267.66 317.259C268.339 316.411 269.188 315.563 269.867 314.546C270.037 314.207 270.546 314.207 270.886 314.376C271.225 314.546 271.225 315.054 271.056 315.394C270.377 316.241 269.697 317.089 268.849 317.937C268.849 318.276 268.679 318.445 268.339 318.445ZM272.753 313.189C272.584 313.189 272.414 313.189 272.244 313.02C271.904 312.85 271.904 312.342 272.244 312.003C273.093 311.155 273.772 310.307 274.451 309.459C274.621 309.12 275.13 309.12 275.47 309.459C275.809 309.798 275.809 310.138 275.47 310.477C274.791 311.324 273.942 312.172 273.263 313.02C273.093 313.189 272.923 313.189 272.753 313.189ZM277.337 308.272C277.167 308.272 276.998 308.272 276.828 308.103C276.488 307.764 276.488 307.425 276.828 307.086C277.846 306.068 278.695 305.221 279.544 304.712C279.884 304.542 280.223 304.542 280.563 304.882C280.732 305.221 280.732 305.56 280.393 305.899C279.714 306.407 278.865 307.086 277.846 308.103C277.677 308.103 277.507 308.272 277.337 308.272Z" fill="#CCC6BA"/>
<path d="M329.965 411.527C329.626 411.527 329.286 411.358 329.286 411.018C329.116 410.171 328.947 409.323 328.777 408.475C328.607 408.136 328.947 407.797 329.286 407.627C329.626 407.458 329.965 407.797 330.135 408.136C330.305 408.984 330.644 410.001 330.644 410.849C330.644 411.018 330.475 411.358 329.965 411.527ZM328.268 405.593C327.928 405.593 327.758 405.423 327.589 405.254C327.249 404.236 326.74 403.219 326.23 402.202C326.061 401.863 326.23 401.524 326.57 401.354C326.909 401.185 327.249 401.354 327.419 401.693C327.928 402.711 328.437 403.728 328.947 404.745C329.116 405.084 328.947 405.423 328.607 405.593C328.437 405.593 328.437 405.593 328.268 405.593ZM325.212 399.659C325.042 399.659 324.702 399.489 324.702 399.32C324.023 398.302 323.514 397.455 322.835 396.607C322.665 396.268 322.665 395.929 323.005 395.589C323.344 395.42 323.684 395.42 324.023 395.759C324.703 396.607 325.382 397.624 325.891 398.641C326.061 398.98 326.061 399.32 325.721 399.659C325.382 399.659 325.382 399.659 325.212 399.659ZM321.307 394.064C321.137 394.064 320.968 393.894 320.798 393.724C320.119 392.707 319.27 391.859 318.591 391.181C318.421 390.842 318.421 390.503 318.591 390.164C318.93 389.994 319.27 389.994 319.609 390.164C320.288 391.012 320.968 391.859 321.816 392.877C321.986 393.216 321.986 393.555 321.647 393.894C321.477 394.064 321.477 394.064 321.307 394.064ZM316.723 388.977C316.554 388.977 316.384 388.977 316.214 388.808C315.365 387.96 314.856 387.451 314.856 387.451L314.516 387.112L314.686 386.773C314.856 386.264 315.026 385.925 315.195 385.417C315.365 385.077 315.705 384.908 316.044 385.077C316.384 385.247 316.554 385.586 316.384 385.925C316.214 386.264 316.214 386.434 316.044 386.773C316.214 386.942 316.723 387.451 317.233 387.96C317.572 388.299 317.402 388.638 317.233 388.977C317.063 388.977 316.893 388.977 316.723 388.977ZM317.063 383.212C316.893 383.212 316.893 383.212 316.723 383.212C316.384 383.043 316.214 382.704 316.384 382.365C316.893 381.347 317.233 380.33 317.742 379.313C317.912 378.974 318.251 378.804 318.591 378.974C318.93 379.143 319.1 379.482 318.93 379.821C318.421 380.839 318.082 381.856 317.572 382.873C317.742 383.043 317.402 383.212 317.063 383.212ZM319.949 376.939C319.779 376.939 319.779 376.939 319.609 376.939C319.27 376.77 319.1 376.43 319.27 376.091C319.779 375.074 320.288 374.057 320.798 373.039C320.968 372.7 321.307 372.531 321.647 372.7C321.986 372.87 322.156 373.209 321.986 373.548C321.477 374.565 320.968 375.583 320.458 376.6C320.458 376.939 320.288 376.939 319.949 376.939ZM323.175 371.005C323.005 371.005 323.005 371.005 322.835 370.835C322.496 370.666 322.326 370.157 322.665 369.988C323.175 368.97 323.854 367.953 324.363 367.105C324.533 366.766 325.042 366.766 325.382 366.936C325.721 367.105 325.721 367.614 325.551 367.953C325.042 368.97 324.363 369.818 323.854 370.835C323.684 370.835 323.344 371.005 323.175 371.005ZM326.74 365.24C326.57 365.24 326.4 365.24 326.4 365.071C326.061 364.901 326.061 364.393 326.23 364.053C326.91 363.036 327.419 362.188 328.098 361.171C328.268 360.832 328.777 360.832 329.116 361.002C329.456 361.171 329.456 361.68 329.286 362.019C328.607 362.867 328.098 363.884 327.419 364.901C327.249 365.071 326.909 365.24 326.74 365.24ZM330.644 359.645C330.475 359.645 330.305 359.645 330.305 359.476C329.965 359.306 329.965 358.797 330.135 358.458C330.814 357.611 331.493 356.593 332.172 355.745C332.342 355.406 332.851 355.406 333.191 355.576C333.53 355.746 333.53 356.254 333.361 356.593C332.682 357.441 332.003 358.289 331.323 359.306C330.984 359.645 330.814 359.645 330.644 359.645ZM334.719 354.389C334.549 354.389 334.379 354.389 334.21 354.22C333.87 354.05 333.87 353.541 334.04 353.202C334.719 352.355 335.568 351.507 336.247 350.659C336.417 350.32 336.926 350.32 337.265 350.659C337.605 350.829 337.605 351.337 337.265 351.676C336.586 352.524 335.737 353.372 335.058 354.22C335.228 354.22 335.058 354.389 334.719 354.389ZM339.303 349.303C339.133 349.303 338.963 349.303 338.793 349.133C338.454 348.794 338.454 348.455 338.793 348.116C339.642 347.268 340.321 346.42 341.17 345.573C341.51 345.233 341.849 345.233 342.189 345.573C342.528 345.912 342.528 346.251 342.189 346.59C341.34 347.438 340.661 348.116 339.812 348.964C339.642 349.133 339.472 349.303 339.303 349.303ZM344.056 344.386C343.886 344.386 343.717 344.386 343.547 344.216C343.207 343.877 343.377 343.538 343.547 343.199C344.396 342.351 345.245 341.673 346.093 340.825C346.433 340.656 346.772 340.656 347.112 340.825C347.282 341.164 347.282 341.503 347.112 341.842C346.263 342.521 345.414 343.368 344.565 344.216C344.396 344.386 344.226 344.386 344.056 344.386ZM349.149 339.808C348.979 339.808 348.81 339.808 348.64 339.638C348.47 339.299 348.47 338.96 348.64 338.621C349.489 337.773 350.507 337.095 351.356 336.417C351.696 336.247 352.035 336.247 352.375 336.586C352.545 336.926 352.545 337.265 352.205 337.604C351.356 338.282 350.507 338.96 349.659 339.808C349.319 339.808 349.319 339.808 349.149 339.808ZM354.412 335.569C354.242 335.569 354.073 335.4 353.903 335.23C353.733 334.891 353.733 334.552 354.073 334.213C355.091 333.535 355.94 332.856 356.789 332.178C357.128 332.009 357.468 332.009 357.807 332.348C357.977 332.687 357.977 333.026 357.638 333.365C356.789 333.874 355.94 334.552 354.921 335.4C354.752 335.569 354.582 335.569 354.412 335.569ZM360.014 331.839C359.845 331.839 359.505 331.67 359.505 331.5C359.335 331.161 359.335 330.822 359.675 330.483C361.542 329.296 362.561 328.787 362.731 328.787C363.07 328.618 363.41 328.787 363.58 329.126C363.749 329.465 363.58 329.805 363.24 329.974C363.24 329.974 362.221 330.483 360.354 331.67C360.184 331.67 360.184 331.839 360.014 331.839Z" fill="#CCC6BA"/>
<path d="M248.137 333.704C247.967 333.704 247.797 333.704 247.627 333.535C247.288 333.365 247.288 332.857 247.627 332.518L249.834 329.974C250.004 329.635 250.514 329.635 250.853 329.974C251.193 330.144 251.193 330.653 250.853 330.992L248.646 333.535C248.476 333.535 248.307 333.704 248.137 333.704ZM252.551 328.618C252.381 328.618 252.211 328.618 252.041 328.448C251.702 328.279 251.702 327.77 252.041 327.431L254.248 324.888C254.418 324.549 254.928 324.549 255.267 324.888C255.607 325.057 255.607 325.566 255.267 325.905L253.06 328.448C253.06 328.448 252.721 328.618 252.551 328.618ZM257.135 323.362C256.965 323.362 256.795 323.362 256.625 323.192C256.286 323.023 256.286 322.514 256.625 322.175L258.832 319.632C259.002 319.293 259.511 319.293 259.851 319.632C260.19 319.801 260.19 320.31 259.851 320.649L257.644 323.192C257.474 323.362 257.304 323.362 257.135 323.362ZM261.549 318.276C261.379 318.276 261.209 318.276 261.039 318.106C260.7 317.936 260.7 317.428 261.039 317.089L263.246 314.545C263.416 314.206 263.925 314.206 264.265 314.545C264.604 314.715 264.604 315.224 264.265 315.563L262.058 318.106C261.888 318.276 261.718 318.276 261.549 318.276ZM265.963 313.189C265.793 313.189 265.623 313.189 265.453 313.02C265.114 312.85 265.114 312.341 265.453 312.002L267.66 309.459C267.83 309.12 268.339 309.12 268.679 309.459C269.018 309.629 269.018 310.137 268.679 310.476L266.472 313.02C266.302 313.189 266.132 313.189 265.963 313.189ZM270.546 308.103C270.376 308.103 270.207 308.103 270.037 307.933C269.697 307.764 269.697 307.255 270.037 306.916L272.244 304.373C272.414 304.033 272.923 304.033 273.263 304.373C273.602 304.542 273.602 305.051 273.263 305.39L271.056 307.933C270.886 308.103 270.716 308.103 270.546 308.103ZM274.96 303.016C274.79 303.016 274.621 303.016 274.451 302.847C274.111 302.677 274.111 302.168 274.451 301.829L276.658 299.286C276.828 298.947 277.337 298.947 277.677 299.286C278.016 299.456 278.016 299.964 277.677 300.303L275.47 302.847C275.3 302.847 275.13 303.016 274.96 303.016Z" fill="#CCC6BA"/>
<circle cx="366.325" cy="128.126" r="14.9007" stroke="#694EA5" stroke-width="2.98013"/>
<circle cx="402.583" cy="95.8408" r="7.45033" stroke="#694EA5" stroke-width="2.98013"/>
<circle cx="141.06" cy="426.033" r="4.4702" stroke="#694EA5" stroke-width="2.98013"/>
<circle cx="467.152" cy="378.954" r="7.45033" stroke="#694EA5" stroke-width="2.98013"/>
<circle cx="459.205" cy="344.185" r="15.3974" stroke="#694EA5" stroke-width="2.98013"/>
<path d="M161.309 91.9979L167.078 99.1797L167.53 99.7424L168.205 99.4864L176.818 96.2187L171.771 103.925L171.375 104.529L171.827 105.091L177.597 112.273L168.708 109.854L168.011 109.665L167.616 110.268L162.569 117.975L162.122 108.773L162.087 108.052L161.391 107.863L152.502 105.444L161.115 102.176L161.79 101.92L161.755 101.199L161.309 91.9979Z" stroke="#694EA5" stroke-width="1.98676"/>
<path d="M144.772 291.191L143.332 295.856L143.119 296.545L143.709 296.961L147.7 299.772L142.819 299.844L142.098 299.854L141.885 300.544L140.445 305.209L138.868 300.588L138.635 299.905L137.913 299.916L133.032 299.988L136.939 297.061L137.516 296.628L137.283 295.945L135.707 291.325L139.698 294.136L140.288 294.551L140.865 294.118L144.772 291.191Z" stroke="#694EA5" stroke-width="1.98676"/>
<path d="M136.358 436.804L137.866 441.447L138.089 442.133H138.811L143.693 442.133L139.743 445.003L139.159 445.427L139.382 446.113L140.891 450.756L136.942 447.887L136.358 447.462L135.774 447.887L131.824 450.756L133.333 446.113L133.556 445.427L132.972 445.003L129.023 442.133L133.904 442.133H134.626L134.849 441.447L136.358 436.804Z" stroke="#694EA5" stroke-width="1.98676"/>
<path d="M334.04 75.2146L335.548 79.8574L335.771 80.5439H336.493L341.375 80.5439L337.425 83.4133L336.841 83.8375L337.064 84.5239L338.573 89.1667L334.624 86.2973L334.04 85.8731L333.456 86.2973L329.506 89.1667L331.015 84.5239L331.238 83.8375L330.654 83.4133L326.705 80.5439L331.586 80.5439H332.308L332.531 79.8574L334.04 75.2146Z" stroke="#694EA5" stroke-width="1.98676"/>
<path fill-rule="evenodd" clip-rule="evenodd" d="M506.736 185.344C521.601 191.139 528.336 205.999 536.466 219.685C543.799 232.03 550.5 243.944 550.058 258.277C549.302 282.783 556.157 317.346 533.183 326.128C510.228 334.902 489.991 306.442 475.115 286.923C466.504 275.624 477.393 259.902 472.548 246.564C463.566 221.841 423.71 203.692 436.534 180.727C448.525 159.256 483.755 176.385 506.736 185.344Z" fill="#E5D6FC"/>
<path fill-rule="evenodd" clip-rule="evenodd" d="M464.676 135.822C464.504 141.848 469.378 149.767 464.413 153.218C459.229 156.821 453.151 147.374 446.882 148.189C438.555 149.273 432.578 161.747 424.901 158.357C417.757 155.203 418.124 143.907 420.175 136.398C421.887 130.128 429.184 128.033 434.289 123.986C438.307 120.801 441.452 116.698 446.46 115.562C452.893 114.104 461.049 112.026 465.449 116.92C469.84 121.803 464.863 129.269 464.676 135.822Z" fill="#E5D6FC"/>
</svg>
