<svg width="280" height="221" viewBox="0 0 280 221" fill="none" xmlns="http://www.w3.org/2000/svg">
<g clip-path="url(#clip0_1298_1013)">
<path d="M281.296 185.361H0V185.502H281.296V185.361Z" fill="#EBEBEB"/>
<path d="M253.11 194.414H234.477V194.555H253.11V194.414Z" fill="#EBEBEB"/>
<path d="M186.342 195.945H181.453V196.085H186.342V195.945Z" fill="#EBEBEB"/>
<path d="M233.915 189.193H223.119V189.334H233.915V189.193Z" fill="#EBEBEB"/>
<path d="M53.8119 190.138H29.5135V190.279H53.8119V190.138Z" fill="#EBEBEB"/>
<path d="M62.3859 190.138H58.8247V190.279H62.3859V190.138Z" fill="#EBEBEB"/>
<path d="M126.668 192.513H73.9641V192.653H126.668V192.513Z" fill="#EBEBEB"/>
<path d="M133.334 160.267H24.7035C23.8525 160.266 23.0368 159.927 22.4356 159.324C21.8344 158.722 21.4967 157.906 21.4967 157.055V4.33498C21.5041 3.48877 21.8451 2.67966 22.4455 2.08338C23.0459 1.48711 23.8573 1.15184 24.7035 1.15039H133.334C134.186 1.15039 135.004 1.48887 135.606 2.09137C136.208 2.69388 136.547 3.51104 136.547 4.36311V157.055C136.547 157.907 136.208 158.724 135.606 159.326C135.004 159.929 134.186 160.267 133.334 160.267ZM24.7035 1.26292C23.8898 1.26441 23.1099 1.58873 22.5351 2.16469C21.9602 2.74065 21.6374 3.52119 21.6374 4.33498V157.055C21.6374 157.868 21.9602 158.649 22.5351 159.225C23.1099 159.801 23.8898 160.125 24.7035 160.127H133.334C134.149 160.125 134.929 159.801 135.505 159.225C136.081 158.649 136.405 157.869 136.406 157.055V4.33498C136.405 3.52067 136.081 2.74015 135.505 2.16435C134.929 1.58855 134.149 1.26441 133.334 1.26292H24.7035Z" fill="#EBEBEB"/>
<path d="M255.029 160.267H146.392C145.541 160.266 144.724 159.927 144.122 159.325C143.52 158.722 143.181 157.906 143.18 157.055V4.33498C143.189 3.48826 143.531 2.67915 144.132 2.08303C144.734 1.48692 145.546 1.15182 146.392 1.15039H255.029C255.874 1.15332 256.684 1.48924 257.283 2.08536C257.882 2.68147 258.223 3.48974 258.23 4.33498V157.055C258.23 157.905 257.893 158.72 257.293 159.322C256.693 159.924 255.879 160.264 255.029 160.267ZM146.392 1.26292C145.578 1.26441 144.798 1.58855 144.222 2.16435C143.646 2.74015 143.322 3.52067 143.32 4.33498V157.055C143.322 157.869 143.646 158.649 144.222 159.225C144.798 159.801 145.578 160.125 146.392 160.127H255.029C255.843 160.125 256.623 159.801 257.199 159.225C257.775 158.649 258.099 157.869 258.101 157.055V4.33498C258.099 3.52067 257.775 2.74015 257.199 2.16435C256.623 1.58855 255.843 1.26441 255.029 1.26292H146.392Z" fill="#EBEBEB"/>
<path d="M42.5658 133.705H82.6224C83.5474 133.705 84.4633 133.887 85.3179 134.241C86.1725 134.595 86.9489 135.114 87.603 135.768C88.2571 136.422 88.7759 137.199 89.1299 138.053C89.4839 138.908 89.666 139.824 89.666 140.749V176.758C89.666 178.627 88.9239 180.418 87.603 181.74C86.2821 183.061 84.4905 183.803 82.6224 183.803H42.5658V133.727V133.705Z" fill="#F0F0F0"/>
<path d="M42.8977 133.705H42.2338C38.3437 133.705 35.1902 136.858 35.1902 140.749V176.736C35.1902 180.626 38.3437 183.78 42.2338 183.78H42.8977C46.7878 183.78 49.9414 180.626 49.9414 176.736V140.749C49.9414 136.858 46.7878 133.705 42.8977 133.705Z" fill="#F5F5F5"/>
<path d="M47.9273 183.78H100.209V152.176H47.9273L47.9273 183.78Z" fill="#F0F0F0"/>
<path d="M43.6347 185.361H137.863C138.246 185.36 138.612 185.207 138.882 184.936C139.152 184.665 139.304 184.298 139.304 183.915V183.78H82.6449L42.1945 183.915C42.1945 184.298 42.346 184.665 42.616 184.936C42.8859 185.207 43.2522 185.36 43.6347 185.361Z" fill="#E0E0E0"/>
<path d="M84.9065 112.932H133.548C134.806 112.908 136.055 113.153 137.211 113.65C138.367 114.148 139.404 114.886 140.252 115.815C141.1 116.745 141.74 117.845 142.13 119.042C142.519 120.239 142.649 121.505 142.51 122.756L139.304 159.328H71.0161L74.2173 122.756C74.4893 120.094 75.7274 117.624 77.6971 115.814C79.6669 114.004 82.2318 112.978 84.9065 112.932Z" fill="#E0E0E0"/>
<path d="M77.2214 112.932H126.814C128.011 112.912 129.198 113.147 130.297 113.621C131.396 114.095 132.382 114.798 133.188 115.683C133.995 116.567 134.604 117.613 134.976 118.751C135.347 119.889 135.472 121.093 135.343 122.283L132.097 159.322H63.8036L67.0497 122.283C67.3081 119.75 68.4859 117.399 70.3603 115.676C72.2348 113.953 74.6758 112.976 77.2214 112.932Z" fill="#F5F5F5"/>
<path d="M52.1186 149.29H93.531C94.7068 149.29 95.8344 149.757 96.6658 150.589C97.4972 151.42 97.9642 152.548 97.9642 153.724V157.724C97.965 158.307 97.8508 158.884 97.6284 159.423C97.4059 159.961 97.0795 160.451 96.6678 160.863C96.256 161.275 95.767 161.602 95.2288 161.825C94.6906 162.049 94.1136 162.163 93.531 162.163H52.1186C50.4116 162.163 48.7746 161.485 47.5676 160.278C46.3606 159.071 45.6825 157.434 45.6825 155.727C45.6825 154.02 46.3606 152.382 47.5676 151.175C48.7746 149.968 50.4116 149.29 52.1186 149.29Z" fill="#E0E0E0"/>
<path d="M100.44 133.705H140.496C142.364 133.705 144.156 134.447 145.477 135.768C146.798 137.089 147.54 138.881 147.54 140.749V176.758C147.54 178.627 146.798 180.418 145.477 181.74C144.156 183.061 142.364 183.803 140.496 183.803H100.44V133.727V133.705Z" fill="#F0F0F0"/>
<path d="M100.772 133.705H100.108C96.2176 133.705 93.0641 136.858 93.0641 140.749V176.736C93.0641 180.626 96.2176 183.78 100.108 183.78H100.772C104.662 183.78 107.815 180.626 107.815 176.736V140.749C107.815 136.858 104.662 133.705 100.772 133.705Z" fill="#F5F5F5"/>
<path d="M210.978 106.18H172.468V185.361H210.978V106.18Z" fill="#F0F0F0"/>
<path d="M178.229 179.195V112.346H177.34V179.195H178.229Z" fill="#E6E6E6"/>
<path d="M205.301 112.346H177.34V113.472H205.301V112.346Z" fill="#E6E6E6"/>
<path d="M250.376 106.18H211.867V185.361H250.376V106.18Z" fill="#F0F0F0"/>
<path d="M250.382 185.361H255.479V106.18H250.382V185.361Z" fill="#E0E0E0"/>
<path d="M217.628 179.195V112.346H216.739V179.195H217.628Z" fill="#E6E6E6"/>
<path d="M211.872 185.361V107.08H210.983V185.361H211.872Z" fill="#E6E6E6"/>
<path d="M244.7 112.346H216.739V113.472H244.7V112.346Z" fill="#E6E6E6"/>
<path d="M209.29 123.695H207.377V141.193H209.29V123.695Z" fill="#E0E0E0"/>
<path d="M215.467 123.695H213.555V141.193H215.467V123.695Z" fill="#E0E0E0"/>
<path d="M239.726 23.6113H43.3702V93.6554H239.726V23.6113Z" fill="#E0E0E0"/>
<path d="M237.926 23.6113H41.5699V93.6554H237.926V23.6113Z" fill="#F0F0F0"/>
<path d="M232.036 87.7644V29.5022L47.4603 29.5022V87.7644L232.036 87.7644Z" fill="#FAFAFA"/>
<path d="M77.424 87.7644L89.6547 29.5022H116.654L104.423 87.7644H77.424Z" fill="white"/>
<path d="M115.815 87.7644L128.046 29.5022H141.548L129.312 87.7644H115.815Z" fill="white"/>
<path d="M198.246 87.7644L210.477 29.5022H223.979L211.743 87.7644H198.246Z" fill="white"/>
<path d="M140.648 210.771C200.892 210.771 249.729 207.919 249.729 204.401C249.729 200.884 200.892 198.032 140.648 198.032C80.4044 198.032 31.5671 200.884 31.5671 204.401C31.5671 207.919 80.4044 210.771 140.648 210.771Z" fill="#F5F5F5"/>
<path d="M93.3904 35.2693C94.8081 32.0229 82.251 29.0802 78.4535 39.0841C75.0105 48.1596 69.2945 50.4777 71.9837 56.7625C74.8923 63.5649 91.3482 64.3807 98.4931 56.8413C104.288 50.7253 97.998 48.1484 98.8081 42.3981C99.6183 36.6478 97.9192 34.7742 93.3904 35.2693Z" fill="#263238"/>
<path d="M70.5153 54.7482C69.8627 51.2035 71.1792 49.7406 72.8445 47.8895C75.0949 45.6058 76.6365 42.7196 77.2833 39.5792C77.6187 37.8642 78.4762 36.2948 79.7381 35.0861C81.0001 33.8774 82.6049 33.0885 84.3326 32.8274C88.0457 32.141 91.9782 33.3563 93.019 34.898C93.1848 35.1152 93.2792 35.3784 93.2893 35.6514C93.2993 35.9245 93.2246 36.1939 93.0753 36.4227L92.6027 36.1189C92.6937 35.9829 92.738 35.8209 92.7289 35.6575C92.7198 35.4941 92.6577 35.3381 92.5521 35.213C91.6294 33.8402 87.8826 32.743 84.4395 33.3844C81.981 33.8402 78.8136 35.3031 77.8347 39.703C77.1681 42.9374 75.5795 45.9096 73.2608 48.2608C71.6405 50.0613 70.4478 51.3667 71.0723 54.6413L70.5153 54.7482Z" fill="#263238"/>
<path d="M62.7797 52.0531L62.4309 50.9278C62.1901 50.1631 61.7537 49.4746 61.165 48.9304L60.0398 47.9064C59.684 47.5773 59.2243 47.3831 58.7403 47.3574C58.2564 47.3317 57.7787 47.4762 57.39 47.7658L56.1861 48.666C55.966 48.8305 55.7808 49.037 55.6412 49.2736C55.5015 49.5102 55.4102 49.7721 55.3725 50.0443C55.3348 50.3164 55.3515 50.5933 55.4217 50.859C55.4918 51.1246 55.6139 51.3737 55.781 51.5918L56.5574 52.6045C56.5574 52.6045 58.3802 55.6878 61.0188 56.7569L61.6264 56.2392C62.2076 55.7313 62.6269 55.0637 62.8319 54.3195C63.037 53.5752 63.0188 52.7871 62.7797 52.0531Z" fill="#FFC3BD"/>
<path d="M84.6477 71.5882L84.2876 71.8639L83.9951 72.0777L83.4325 72.4716C83.0555 72.7191 82.673 72.9498 82.3073 73.1749C81.5418 73.6149 80.753 74.0131 79.9444 74.3677C78.2816 75.1012 76.5333 75.6229 74.7404 75.9206C72.8474 76.2388 70.9155 76.2502 69.0189 75.9544C68.0483 75.8017 67.0949 75.5548 66.1721 75.2173C65.9415 75.1441 65.7108 75.0485 65.4858 74.9528L65.1482 74.8122L64.9794 74.739L64.7938 74.6603L64.5575 74.5477C64.0665 74.2962 63.6137 73.976 63.2129 73.5969C62.9247 73.3287 62.6594 73.037 62.4196 72.7248C61.7831 71.8615 61.2682 70.9149 60.8894 69.9115C60.5518 69.0788 60.293 68.2798 60.0624 67.4978C59.6427 65.9844 59.3028 64.45 59.0441 62.9009C58.5302 59.9073 58.2424 56.8792 58.1833 53.8423C58.1137 53.2738 58.2634 52.7001 58.602 52.2382C58.9406 51.7763 59.4425 51.4608 60.0055 51.3561C60.5686 51.2513 61.1503 51.3652 61.6323 51.6745C62.1143 51.9839 62.4603 52.4653 62.5997 53.0208V53.0827C63.5786 55.7778 64.5181 58.5404 65.5083 61.1623C66.0202 62.4677 66.5153 63.7674 67.0779 64.949C67.348 65.5397 67.6405 66.1024 67.9162 66.5919C68.1039 66.9506 68.3448 67.2787 68.6307 67.5653C68.6307 67.5653 68.6307 67.5653 68.5913 67.4865C68.4617 67.352 68.3093 67.2415 68.1412 67.1602L68.0343 67.1039C68.0006 67.1039 67.9331 67.0645 67.9724 67.0758H68.0625L68.2369 67.1208C68.353 67.1569 68.4714 67.1851 68.5913 67.2052C69.0662 67.2999 69.5477 67.3583 70.0315 67.3796C71.0444 67.4106 72.0569 67.3046 73.0414 67.0645C74.1218 66.792 75.1732 66.4151 76.1807 65.9392C76.7039 65.7029 77.2215 65.4272 77.7278 65.1515C77.981 65.0109 78.2285 64.8589 78.4648 64.7127L79.0274 64.3526L79.4662 64.0769C80.4547 63.4484 81.6483 63.2274 82.7963 63.4603C83.9443 63.6932 84.9575 64.3619 85.6229 65.326C86.2884 66.2901 86.5545 67.4746 86.3653 68.6307C86.1761 69.7868 85.5464 70.8247 84.6083 71.5263L84.6477 71.5882Z" fill="#FFC3BD"/>
<path d="M94.5155 201.948C98.0767 200.772 101.075 198.364 100.473 194.139C100.209 192.327 106.021 191.618 106.021 191.618C105.362 197.374 106.082 198.37 106.774 199.669C107.466 200.969 107.427 202.561 106.212 202.702C104.772 202.877 104.451 202.702 102.662 202.955C100.569 203.231 99.2132 204.323 95.0331 204.323C92.7771 204.323 93.3903 202.319 94.5155 201.948Z" fill="#5748AE"/>
<path d="M105.345 140.468C105.756 111.638 103.095 95.9229 103.095 95.9229L81.7672 96.9863C81.7672 96.9863 84.9234 123.363 90.5268 142.791C92.0233 153.217 95.3932 170.851 97.728 182.694C101.192 182.398 104.617 181.749 107.95 180.759C108.766 170.356 108.912 155.316 105.345 140.468Z" fill="#5748AE"/>
<path d="M105.807 194.442C105.807 194.442 106.639 188.996 107.202 180.759C104.372 181.744 101.435 182.394 98.4536 182.694C99.6688 189.885 100.535 194.465 100.535 194.465C102.24 195.078 104.107 195.07 105.807 194.442Z" fill="#FFC3BD"/>
<path d="M96.5633 179.245C96.749 180.236 97.2666 182.717 97.7785 183.589C97.8081 183.639 97.8489 183.682 97.8976 183.714C97.9464 183.747 98.0019 183.767 98.0598 183.775C102.037 184.275 106.009 183.476 107.624 182.756C107.669 182.738 107.71 182.711 107.744 182.676C107.778 182.641 107.804 182.599 107.821 182.554C108.271 181.361 108.434 178.851 108.485 177.794C108.487 177.736 108.477 177.679 108.455 177.627C108.432 177.574 108.398 177.527 108.354 177.49C108.311 177.452 108.26 177.425 108.204 177.411C108.149 177.396 108.091 177.394 108.035 177.405C104.348 178.089 100.625 178.555 96.884 178.801C96.8328 178.807 96.7834 178.823 96.7389 178.849C96.6944 178.876 96.6559 178.911 96.6257 178.952C96.5956 178.994 96.5744 179.042 96.5637 179.092C96.553 179.143 96.5528 179.195 96.5633 179.245Z" fill="#263238"/>
<path d="M82.0485 63.0867C78.8867 63.6493 74.0653 66.3219 74.0653 66.3219C74.0653 66.3219 71.528 72.3985 74.566 76.7759C77.559 77.4848 79.0667 76.9053 79.0667 76.9053L82.0485 63.0867Z" fill="#263238"/>
<path opacity="0.2" d="M74.566 76.7759C77.559 77.4848 79.0668 76.9053 79.0668 76.9053L78.9599 68.7075C76.9289 71.442 75.2355 74.154 74.566 76.7759Z" fill="black"/>
<path opacity="0.2" d="M105.233 123.459C102.848 117.624 100.282 112.819 99.2976 108.43C97.6098 120.364 98.9375 131.341 105.357 139.207C105.43 133.401 105.368 128.146 105.233 123.459Z" fill="black"/>
<path d="M137.835 169.213L129.323 175.267C122.375 166.214 111.956 152.384 109.435 146.364C103.033 131.088 90.161 97.4138 90.161 97.4138L106.87 93.5315C106.87 93.5315 117.413 103.322 124.215 140.265C129.908 148.356 134.701 160.262 137.835 169.213Z" fill="#5748AE"/>
<path d="M137.346 197.908C139.467 193.762 139.495 189.193 137.205 185.592C136.221 184.05 141.222 181.006 141.222 181.006C142.988 186.526 144.429 186.847 145.655 187.702C146.882 188.557 147.005 190.397 145.97 191.021C144.841 191.686 143.878 192.6 143.157 193.694C141.875 195.382 141.154 197.7 139.315 199.146C138.139 200.063 136.412 199.726 137.346 197.908Z" fill="#5748AE"/>
<path d="M142.15 183.538C142.15 183.538 140.682 178.373 137.801 170.637C135.626 172.697 133.219 174.499 130.628 176.004C134.696 182.058 137.672 186.408 137.672 186.408C139.401 185.884 140.951 184.89 142.15 183.538Z" fill="#FFC3BD"/>
<path d="M127.483 173.641C128.046 174.463 129.554 176.516 130.381 177.096C130.429 177.13 130.485 177.153 130.543 177.163C130.602 177.172 130.662 177.169 130.718 177.152C134.544 175.971 137.835 173.602 139.039 172.268C139.073 172.233 139.098 172.19 139.114 172.143C139.13 172.097 139.135 172.047 139.129 171.998C139.05 170.732 138.161 168.375 137.773 167.39C137.752 167.338 137.719 167.291 137.678 167.253C137.636 167.215 137.586 167.187 137.532 167.171C137.478 167.155 137.422 167.151 137.366 167.16C137.31 167.169 137.257 167.19 137.211 167.222C134.141 169.364 130.947 171.323 127.647 173.09C127.597 173.112 127.552 173.145 127.516 173.186C127.48 173.227 127.453 173.275 127.437 173.328C127.422 173.38 127.418 173.436 127.426 173.49C127.434 173.544 127.454 173.596 127.483 173.641Z" fill="#263238"/>
<path d="M77.2214 71.4815C77.9865 76.4609 75.0217 80.3207 79.5843 82.6163C78.8248 86.4029 79.95 93.9649 81.7559 96.9638C84.2932 98.3423 96.704 96.3055 106.848 93.526C106.701 89.1936 103.14 80.6695 104.13 66.4795C104.184 65.7033 104.073 64.9245 103.806 64.1936C103.539 63.4628 103.122 62.7962 102.581 62.2371C102.04 61.678 101.387 61.2388 100.666 60.948C99.944 60.6572 99.1693 60.5214 98.3918 60.5492C97.5141 60.5492 96.5802 60.6336 95.6351 60.718C92.3121 60.9313 89.0087 61.3826 85.7503 62.0684C84.6983 62.3159 83.6125 62.5972 82.5829 62.8898C80.7932 63.4183 79.2592 64.5844 78.2712 66.1677C77.2832 67.7509 76.9097 69.6414 77.2214 71.4815Z" fill="#263238"/>
<path d="M84.3889 67.6948C84.3889 67.6948 87.5676 66.5358 89.2328 69.3828C92.0064 67.8242 95.9052 61.2356 95.6295 60.7349C90.9881 62.0121 84.3889 67.6948 84.3889 67.6948Z" fill="white"/>
<path d="M84.3888 67.6946C84.3888 67.6946 81.9753 67.4077 81.2946 69.5457C81.2946 65.3259 84.1413 62.6702 85.3846 62.175C84.9514 63.2778 84.3888 67.6946 84.3888 67.6946Z" fill="white"/>
<path d="M94.4143 49.5662C94.0598 52.8577 94.0036 58.1465 95.6351 60.7404C95.6351 60.7404 89.4466 64.9771 84.3832 67.6947C82.7911 64.0093 85.379 62.1751 85.379 62.1751C87.7925 61.2524 87.77 58.1634 87.4437 55.8003L94.4143 49.5662Z" fill="#FFC3BD"/>
<path opacity="0.2" d="M87.455 55.8003L91.3931 52.2556C91.5254 52.9172 91.4827 53.6018 91.2693 54.2418C90.5872 56.0858 89.2763 57.63 87.5675 58.6023C87.6295 57.6669 87.5918 56.7277 87.455 55.8003Z" fill="black"/>
<path d="M95.6858 43.4503C95.1232 48.7955 95.0388 51.063 92.2821 53.7074C88.1302 57.6853 81.8122 55.8623 80.7715 50.4722C79.8319 45.6165 80.8615 37.6944 86.0823 35.7646C91.3032 33.8347 96.2034 38.1108 95.6858 43.4503Z" fill="#FFC3BD"/>
<path d="M94.5155 47.3607C93.6906 46.5709 93.2084 45.489 93.1727 44.3474C93.1369 43.2059 93.5504 42.0959 94.3243 41.256C95.7307 39.8325 97.6998 42.7808 97.6998 42.7808L94.5155 47.3607Z" fill="#263238"/>
<path d="M87.995 44.9301C87.995 45.369 87.7306 45.7122 87.4324 45.7009C87.1343 45.6897 86.9317 45.324 86.9486 44.8907C86.9655 44.4575 87.213 44.1086 87.5112 44.1199C87.8094 44.1311 88.0119 44.4744 87.995 44.9301Z" fill="#263238"/>
<path d="M82.628 44.8005C82.628 45.2337 82.3692 45.5769 82.0654 45.5657C81.7616 45.5544 81.5647 45.1943 81.5816 44.7555C81.5985 44.3166 81.8404 43.979 82.1442 43.9903C82.448 44.0015 82.6449 44.3616 82.628 44.8005Z" fill="#263238"/>
<path d="M82.2678 44.0185L81.2327 43.6753C81.2327 43.6753 81.739 44.5136 82.2678 44.0185Z" fill="#263238"/>
<path d="M83.95 44.9695C83.5153 45.9505 82.9473 46.8669 82.2622 47.6927C82.4784 47.8593 82.7283 47.9768 82.9945 48.0371C83.2607 48.0973 83.5369 48.0988 83.8037 48.0415L83.95 44.9695Z" fill="#ED847E"/>
<path d="M86.2736 49.7518C86.0296 49.7863 85.7828 49.7976 85.5366 49.7856C85.5033 49.7841 85.4718 49.7699 85.4487 49.7457C85.4257 49.7216 85.4128 49.6895 85.4128 49.6562C85.4136 49.6392 85.4176 49.6225 85.4248 49.6071C85.432 49.5916 85.4421 49.5778 85.4547 49.5663C85.4672 49.5548 85.4819 49.5459 85.4979 49.54C85.5139 49.5342 85.5309 49.5316 85.5479 49.5324C86.0896 49.5647 86.6313 49.4696 87.1296 49.2546C87.6279 49.0396 88.0689 48.7108 88.4171 48.2946C88.4262 48.2807 88.4379 48.2688 88.4517 48.2595C88.4654 48.2503 88.4809 48.2439 88.4971 48.2408C88.5134 48.2376 88.5301 48.2378 88.5463 48.2412C88.5625 48.2447 88.5779 48.2513 88.5915 48.2608C88.6055 48.2704 88.6176 48.2827 88.6269 48.2969C88.6362 48.3112 88.6426 48.3271 88.6457 48.3438C88.6488 48.3605 88.6486 48.3777 88.6451 48.3944C88.6416 48.411 88.6349 48.4268 88.6252 48.4408C88.0419 49.1674 87.1983 49.6377 86.2736 49.7518Z" fill="#263238"/>
<path d="M96.5746 47.929C96.3659 48.371 96.0652 48.7633 95.6926 49.0796C95.32 49.3959 94.8842 49.629 94.4143 49.7633C93.216 50.0615 92.659 48.7449 93.0303 47.4283C93.3622 46.2411 94.3918 44.6601 95.5732 44.947C96.7547 45.234 97.1541 46.7756 96.5746 47.929Z" fill="#FFC3BD"/>
<path d="M92.9177 35.849C89.1305 38.212 84.8781 39.73 80.4507 40.2995C80.4507 36.4566 87.9669 32.1411 92.9177 35.849Z" fill="#263238"/>
<path d="M90.0148 36.3158C89.1428 39.6917 97.8911 45.8808 96.2033 51.8336C99.0613 47.3831 97.0022 37.3679 97.0022 37.3679C97.0022 37.3679 89.6322 32.7036 90.0148 36.3158Z" fill="#263238"/>
<path d="M89.1147 42.0605C89.0806 42.0557 89.0479 42.0437 89.0188 42.0253C88.9897 42.0068 88.9648 41.9824 88.9459 41.9536C88.7722 41.6823 88.537 41.4559 88.2594 41.2926C87.9818 41.1294 87.6696 41.0339 87.3481 41.014C87.3147 41.0155 87.2813 41.0102 87.25 40.9984C87.2186 40.9867 87.19 40.9687 87.1658 40.9456C87.1416 40.9224 87.1224 40.8946 87.1092 40.8638C87.0961 40.833 87.0893 40.7999 87.0894 40.7664C87.0878 40.7322 87.0933 40.6981 87.1053 40.666C87.1173 40.634 87.1357 40.6048 87.1594 40.58C87.1831 40.5553 87.2115 40.5357 87.243 40.5222C87.2744 40.5088 87.3083 40.5019 87.3425 40.502C87.7487 40.5196 88.1447 40.6346 88.4972 40.8373C88.8497 41.04 89.1483 41.3244 89.3679 41.6666C89.387 41.6943 89.4004 41.7254 89.4073 41.7583C89.4143 41.7911 89.4146 41.825 89.4083 41.858C89.402 41.891 89.3893 41.9224 89.3707 41.9504C89.3522 41.9784 89.3283 42.0024 89.3003 42.0211C89.2735 42.0396 89.2433 42.0525 89.2114 42.0593C89.1796 42.0661 89.1467 42.0665 89.1147 42.0605Z" fill="#263238"/>
<path d="M80.2538 41.8749C80.1882 41.8703 80.1263 41.8424 80.0794 41.7961C80.0556 41.7726 80.0367 41.7445 80.0238 41.7136C80.0109 41.6827 80.0043 41.6496 80.0043 41.6161C80.0043 41.5826 80.0109 41.5494 80.0238 41.5185C80.0367 41.4876 80.0556 41.4596 80.0794 41.436C80.3601 41.1412 80.7073 40.9178 81.0919 40.7847C81.4766 40.6515 81.8876 40.6125 82.2904 40.6708C82.3565 40.6857 82.414 40.7258 82.4508 40.7826C82.4877 40.8394 82.5007 40.9083 82.4873 40.9746C82.4807 41.0077 82.4675 41.0391 82.4485 41.067C82.4295 41.0949 82.4052 41.1187 82.3769 41.137C82.3486 41.1554 82.3169 41.1679 82.2837 41.1738C82.2505 41.1797 82.2164 41.179 82.1835 41.1716C81.8642 41.1308 81.5397 41.1662 81.2366 41.2747C80.9335 41.3832 80.6604 41.5619 80.4395 41.7961C80.3904 41.8459 80.3237 41.8742 80.2538 41.8749Z" fill="#263238"/>
<path d="M87.635 44.1479L86.5999 43.8103C86.5999 43.8103 87.1006 44.6486 87.635 44.1479Z" fill="#263238"/>
<path opacity="0.2" d="M103.995 69.2309C103.894 72.2349 103.994 75.2424 104.293 78.2332C101.48 75.2624 97.9473 69.6528 97.7167 66.8396L103.995 69.2309Z" fill="black"/>
<path d="M122.364 58.6641L122.977 55.0913L128.53 57.235C128.53 57.235 127.242 60.5602 124.873 62.0288L124.215 61.6124C123.699 61.2983 123.263 60.8684 122.942 60.3567C122.62 59.845 122.423 59.2655 122.364 58.6641Z" fill="#FFC3BD"/>
<path d="M126.443 53.0997L128.271 54.0956C128.67 54.3124 128.968 54.6783 129.099 55.1137C129.229 55.549 129.183 56.0183 128.969 56.4193L128.535 57.2351L122.983 55.0915L124.305 53.5104C124.56 53.207 124.912 53.0006 125.301 52.9258C125.69 52.851 126.093 52.9124 126.443 53.0997Z" fill="#FFC3BD"/>
<path d="M103.005 62.7435L103.714 63.4749L104.485 64.257C105.008 64.769 105.531 65.2923 106.071 65.7874C107.14 66.7945 108.243 67.7285 109.351 68.6006C110.397 69.4204 111.507 70.1543 112.67 70.7949C113.56 71.2955 114.529 71.6417 115.534 71.819L114.021 72.1003C113.649 72.2803 113.672 72.3591 113.751 72.2972C113.902 72.1955 114.042 72.0765 114.167 71.9428C114.579 71.5144 114.955 71.0534 115.292 70.5643C116.057 69.4784 116.834 68.2462 117.542 66.9689C118.251 65.6917 119.005 64.3808 119.731 63.0304L121.897 59.0244V58.9906C122.151 58.5132 122.566 58.1417 123.069 57.9425C123.572 57.7433 124.129 57.7293 124.641 57.9032C125.153 58.077 125.586 58.4273 125.864 58.8914C126.141 59.3555 126.245 59.9032 126.156 60.4366C125.897 62.057 125.543 63.5874 125.149 65.146C124.755 66.7045 124.333 68.2462 123.77 69.7934C123.219 71.3888 122.565 72.9469 121.813 74.4578C121.376 75.3084 120.882 76.128 120.333 76.9109C119.987 77.3939 119.599 77.8457 119.174 78.2613C118.545 78.8887 117.802 79.3908 116.985 79.741C116.585 79.9118 116.155 80.0054 115.72 80.0167H115.472C113.249 80.0297 111.049 79.5674 109.019 78.6608C108.123 78.2777 107.248 77.8476 106.397 77.3723C105.584 76.8922 104.798 76.3952 104.04 75.8813C102.568 74.8503 101.166 73.7225 99.8433 72.5054C99.1963 71.909 98.5549 71.307 97.9417 70.6712C97.6379 70.3561 97.3285 70.041 97.0303 69.709C96.7321 69.3771 96.4677 69.0732 96.102 68.6513C95.2933 67.7559 94.8734 66.576 94.9346 65.371C94.9958 64.166 95.5331 63.0346 96.4283 62.2258C97.3236 61.417 98.5034 60.997 99.7083 61.0582C100.913 61.1194 102.044 61.6568 102.853 62.5522L103.005 62.7435Z" fill="#FFC3BD"/>
<path d="M98.6393 60.5771C102.763 60.7009 106.864 65.641 106.864 65.641C106.864 65.641 105.278 72.1958 100.76 75.0203C98.2174 73.0398 96.0626 71.4531 96.0626 71.4531C92.4677 66.1811 93.666 62.6815 98.6393 60.5771Z" fill="#263238"/>
<path d="M80.9346 96.598C81.2384 98.3591 81.6041 99.7432 81.7222 100.165C81.7336 100.21 81.754 100.252 81.782 100.289C81.81 100.326 81.8452 100.356 81.8854 100.379C82.4874 100.711 85.2328 102.067 90.2736 101.769C95.8996 101.465 104.153 98.3929 108.434 95.1239C108.497 95.0756 108.541 95.0082 108.562 94.9319C108.582 94.8557 108.577 94.7749 108.547 94.7019C108.216 93.9687 107.83 93.2615 107.393 92.5864C107.351 92.5216 107.288 92.4723 107.215 92.446C107.142 92.4196 107.063 92.4175 106.988 92.4401C105.143 93.0027 93.5254 96.328 81.289 96.1817C81.2371 96.1818 81.1858 96.1933 81.1387 96.2151C81.0916 96.237 81.0497 96.2688 81.0161 96.3083C80.9824 96.3479 80.9577 96.3943 80.9436 96.4443C80.9296 96.4943 80.9265 96.5467 80.9346 96.598Z" fill="#5748AE"/>
<path opacity="0.3" d="M80.9346 96.598C81.2384 98.3591 81.6041 99.7432 81.7222 100.165C81.7336 100.21 81.754 100.252 81.782 100.289C81.81 100.326 81.8452 100.356 81.8854 100.379C82.4874 100.711 85.2328 102.067 90.2736 101.769C95.8996 101.465 104.153 98.3929 108.434 95.1239C108.497 95.0756 108.541 95.0082 108.562 94.9319C108.582 94.8557 108.577 94.7749 108.547 94.7019C108.216 93.9687 107.83 93.2615 107.393 92.5864C107.351 92.5216 107.288 92.4723 107.215 92.446C107.142 92.4196 107.063 92.4175 106.988 92.4401C105.143 93.0027 93.5254 96.328 81.289 96.1817C81.2371 96.1818 81.1858 96.1933 81.1387 96.2151C81.0916 96.237 81.0497 96.2688 81.0161 96.3083C80.9824 96.3479 80.9577 96.3943 80.9436 96.4443C80.9296 96.4943 80.9265 96.5467 80.9346 96.598Z" fill="white"/>
<path d="M193.684 187.618H119.613C118.243 187.63 116.885 187.359 115.625 186.822C114.365 186.284 113.229 185.491 112.29 184.494C111.351 183.496 110.629 182.315 110.169 181.024C109.708 179.734 109.52 178.362 109.615 176.995L118.617 23.0263C118.822 20.1684 120.092 17.4915 122.175 15.5246C124.259 13.5578 127.004 12.444 129.869 12.4035H203.957C205.327 12.3908 206.684 12.6619 207.945 13.1995C209.205 13.7371 210.34 14.5298 211.279 15.5275C212.218 16.5253 212.94 17.7066 213.401 18.9971C213.861 20.2876 214.049 21.6594 213.954 23.0263L204.924 176.995C204.719 179.851 203.451 182.526 201.37 184.493C199.289 186.459 196.546 187.574 193.684 187.618Z" fill="#5748AE"/>
<path opacity="0.8" d="M193.684 187.618H119.613C118.243 187.63 116.885 187.359 115.625 186.822C114.365 186.284 113.229 185.491 112.29 184.494C111.351 183.496 110.629 182.315 110.169 181.024C109.708 179.734 109.52 178.362 109.615 176.995L118.617 23.0263C118.822 20.1684 120.092 17.4915 122.175 15.5246C124.259 13.5578 127.004 12.444 129.869 12.4035H203.957C205.327 12.3908 206.684 12.6619 207.945 13.1995C209.205 13.7371 210.34 14.5298 211.279 15.5275C212.218 16.5253 212.94 17.7066 213.401 18.9971C213.861 20.2876 214.049 21.6594 213.954 23.0263L204.924 176.995C204.719 179.851 203.451 182.526 201.37 184.493C199.289 186.459 196.546 187.574 193.684 187.618Z" fill="white"/>
<path d="M193.245 184.534H121.233C120.271 184.544 119.316 184.354 118.431 183.976C117.545 183.599 116.747 183.042 116.087 182.341C115.427 181.641 114.92 180.811 114.596 179.904C114.272 178.998 114.139 178.034 114.206 177.074L123.208 23.7745C123.352 21.7714 124.24 19.8947 125.698 18.5131C127.155 17.1316 129.076 16.3451 131.084 16.3081H203.096C204.059 16.2996 205.013 16.4903 205.898 16.8684C206.784 17.2464 207.582 17.8035 208.242 18.5047C208.902 19.2059 209.409 20.036 209.733 20.9429C210.057 21.8498 210.189 22.8138 210.123 23.7745L201.121 177.074C200.977 179.076 200.089 180.952 198.631 182.333C197.173 183.713 195.252 184.499 193.245 184.534Z" fill="#5748AE"/>
<path d="M192.469 183.713H120.457C119.494 183.722 118.54 183.531 117.654 183.153C116.769 182.775 115.971 182.218 115.311 181.516C114.651 180.815 114.143 179.985 113.819 179.078C113.496 178.171 113.363 177.207 113.43 176.247L122.431 22.9476C122.576 20.9445 123.464 19.0678 124.921 17.6862C126.379 16.3047 128.3 15.5182 130.308 15.4812H202.32C203.282 15.4727 204.237 15.6634 205.122 16.0414C206.008 16.4195 206.805 16.9766 207.465 17.6778C208.125 18.379 208.633 19.2091 208.957 20.116C209.28 21.0229 209.413 21.9869 209.346 22.9476L200.345 176.247C200.201 178.25 199.312 180.126 197.855 181.508C196.398 182.89 194.476 183.676 192.469 183.713Z" fill="white"/>
<path opacity="0.1" d="M190.364 178.013H123.208C122.613 178.019 122.023 177.901 121.476 177.667C120.929 177.434 120.435 177.089 120.028 176.656C119.62 176.223 119.306 175.71 119.106 175.15C118.906 174.589 118.823 173.993 118.865 173.4L122.645 109.455C122.734 108.214 123.285 107.051 124.189 106.197C125.093 105.343 126.285 104.859 127.528 104.841H194.657C195.252 104.836 195.842 104.954 196.389 105.187C196.936 105.421 197.429 105.765 197.837 106.198C198.245 106.631 198.559 107.144 198.759 107.705C198.959 108.265 199.041 108.861 199 109.455L195.248 173.4C195.159 174.64 194.608 175.803 193.704 176.657C192.8 177.511 191.608 177.995 190.364 178.013Z" fill="#5748AE"/>
<path opacity="0.1" d="M175.45 26.8523H155.878C155.665 26.8543 155.454 26.8124 155.258 26.729C155.063 26.6456 154.886 26.5226 154.74 26.3678C154.595 26.2129 154.482 26.0296 154.411 25.8292C154.339 25.6289 154.31 25.4159 154.325 25.2037C154.356 24.7588 154.553 24.3417 154.877 24.0353C155.201 23.7289 155.628 23.5555 156.074 23.5495H175.641C175.856 23.5442 176.07 23.584 176.269 23.6664C176.468 23.7487 176.647 23.8717 176.796 24.0275C176.944 24.1833 177.058 24.3685 177.131 24.5711C177.203 24.7736 177.232 24.9891 177.217 25.2037C177.185 25.651 176.986 26.0698 176.658 26.3758C176.33 26.6817 175.898 26.852 175.45 26.8523Z" fill="#5748AE"/>
<path opacity="0.1" d="M183.237 88.5683C195.289 76.8631 196.112 58.1594 185.075 46.7924C174.037 35.4255 155.319 35.6997 143.267 47.4049C131.214 59.1102 130.392 77.8139 141.429 89.1808C152.466 100.548 171.184 100.274 183.237 88.5683Z" fill="#5748AE"/>
<path d="M142.561 87.5562C140.098 84.9341 138.204 81.8314 136.997 78.4426C135.79 75.0539 135.295 71.4522 135.545 67.8635H136.108C135.864 71.3751 136.348 74.8992 137.529 78.2152C138.71 81.5311 140.563 84.5675 142.972 87.1342L142.561 87.5562Z" fill="#5748AE"/>
<path d="M190.955 68.1057L190.393 68.0719C190.546 65.5934 190.357 63.1055 189.83 60.6787L190.393 60.5549C190.931 63.0334 191.12 65.5748 190.955 68.1057Z" fill="#5748AE"/>
<path d="M188.198 55.7836C186.822 52.7285 184.852 49.9771 182.404 47.6891C179.956 45.401 177.078 43.6217 173.937 42.4544L174.134 41.9255C177.346 43.1168 180.29 44.9358 182.793 47.2764C185.295 49.617 187.307 52.4324 188.71 55.5585L188.198 55.7836Z" fill="#5748AE"/>
<path d="M180.666 85.9204C191.169 75.7197 191.887 59.4212 182.269 49.5166C172.652 39.612 156.341 39.8521 145.838 50.0528C135.335 60.2534 134.617 76.5519 144.234 86.4565C153.851 96.3611 170.162 96.1211 180.666 85.9204Z" fill="#5748AE"/>
<path d="M160.39 71.4816C161.627 71.2059 162.207 70.1481 162.471 68.944C162.499 68.8146 162.522 68.6908 162.544 68.5671V68.4545C162.612 67.9527 162.649 67.4473 162.657 66.941C161.459 66.8224 160.346 66.2672 159.53 65.3811C158.715 64.4951 158.254 63.34 158.235 62.136C158.173 59.7484 158.702 57.3825 159.776 55.2492C159.5 55.2854 159.238 55.3941 159.017 55.5643C158.995 55.5805 158.971 55.592 158.945 55.5978C158.918 55.6036 158.891 55.6037 158.865 55.598C158.816 55.5896 158.772 55.5636 158.741 55.5249C158.711 55.4826 158.699 55.4305 158.706 55.3792C158.713 55.3279 158.74 55.2814 158.781 55.2492C159.13 54.9847 159.557 54.8424 159.996 54.8441C160.08 54.709 160.159 54.5684 160.243 54.439C159.883 54.439 159.534 54.439 159.197 54.439C159.568 51.8395 164.57 49.6565 167.979 51.6257C169.498 51.9296 172.007 54.1014 172.007 54.1014C172.057 55.4847 172.018 56.8699 171.889 58.2481C171.664 60.6 171.107 63.3626 169.751 64.9042C170.088 64.1156 170.213 63.2522 170.111 62.4004C169.786 62.7218 169.383 62.9526 168.941 63.07C168.781 63.4148 168.592 63.746 168.378 64.0602C167.85 66.474 167.473 69.6867 168.277 71.5378C169.003 71.5828 169.706 71.6504 170.376 71.7235L170.539 71.7516C170.98 71.4921 171.405 71.2046 171.81 70.8908C176.874 66.9522 171.501 62.3273 172.767 58.0905C174.032 53.8538 172.964 52.2446 169.504 52.1096C170.938 49.8196 161.824 46.1624 157.819 53.2687C154.19 59.711 153.02 62.9293 154.325 67.965C154.815 69.6109 155.927 71.0012 157.425 71.8417C157.68 71.7719 157.939 71.7193 158.201 71.6841C158.916 71.6166 159.658 71.5378 160.39 71.4816Z" fill="#263238"/>
<path d="M152.519 81.3841C152.312 81.0188 152.125 80.6432 151.956 80.2588C151.574 81.3841 151.197 82.5094 150.831 83.6347C150.482 84.6474 150.15 85.6602 149.802 86.628L149.278 87.9952L149.053 88.5578C148.975 88.7098 149.053 88.6197 149.053 88.6647C148.813 88.9441 148.548 89.2003 148.26 89.4299C148.198 89.4918 148.119 89.5481 148.052 89.6044C149.609 90.6545 151.283 91.5175 153.042 92.1757C153.081 89.6044 153.397 86.9318 153.734 86.2172C151.709 84.8106 152.013 83.2971 152.519 81.3841Z" fill="#FFC3BD"/>
<path d="M154.488 73.7939L154.347 73.9909C154.392 73.9234 154.443 73.8615 154.494 73.7996L154.488 73.7939Z" fill="#263238"/>
<path d="M153.188 77.5636C153.18 76.325 153.555 75.1143 154.263 74.0977C153.184 75.7947 152.297 77.6063 151.619 79.4991C151.619 79.4991 151.72 79.7973 151.934 80.2643C152.102 80.6487 152.29 81.0243 152.496 81.3896C152.897 80.151 153.13 78.8642 153.188 77.5636Z" fill="#263238"/>
<path d="M172.8 85.7277C172.133 84.7476 171.541 83.7188 171.028 82.65C170.859 82.74 170.685 82.8301 170.505 82.9088C168.817 81.1252 167.377 79.6849 167.377 79.6849C165.273 75.2962 166.572 72.798 170.561 71.7796C171.18 71.9071 171.771 72.1453 172.305 72.483C171.779 72.113 171.174 71.8703 170.539 71.774L170.376 71.7459C169.706 71.6727 169.003 71.6052 168.277 71.5602C168.435 71.9709 164.823 77.1867 162.555 78.0138C161.627 75.6732 159.022 75.5156 159.022 75.5156C159.022 75.5156 156.592 75.0149 155.838 76.5453C156.333 73.3832 159.377 71.7178 160.39 71.4814C159.658 71.5433 158.916 71.6221 158.201 71.7121C157.939 71.7473 157.68 71.7999 157.425 71.8697C156.267 72.1873 155.24 72.8652 154.494 73.8052C154.443 73.8671 154.392 73.929 154.347 73.9965L154.263 74.1034C153.555 75.12 153.18 76.3307 153.188 77.5693C153.137 78.867 152.912 80.1519 152.519 81.3897C152.013 83.2802 151.709 84.8162 153.695 86.2228C153.357 86.9374 153.042 89.5987 153.003 92.1813C155.799 93.2179 158.758 93.7439 161.74 93.7342C165.558 93.7284 169.33 92.9014 172.8 91.3092C172.704 89.2149 172.721 87.1169 172.851 85.0244C172.834 85.2494 172.812 85.497 172.8 85.7277Z" fill="#263238"/>
<path d="M159.022 75.5157C159.022 75.5157 161.627 75.6733 162.556 78.0139C164.806 77.1587 168.435 71.971 168.277 71.5603C168.277 71.5603 163.152 74.0472 159.022 75.5157Z" fill="white"/>
<path d="M160.401 71.4814C159.388 71.7234 156.344 73.3888 155.849 76.5453C156.603 75.0149 159.034 75.5156 159.034 75.5156C158.246 72.5561 160.401 71.4814 160.401 71.4814Z" fill="white"/>
<path d="M168.378 64.0828C167.889 64.7922 167.271 65.403 166.556 65.8832C166.255 66.0997 165.934 66.2881 165.599 66.4459C164.862 67.6289 163.763 68.5425 162.465 69.0509V68.9553C162.201 70.1594 161.622 71.2059 160.384 71.4928C160.384 71.4928 158.229 72.5731 159.006 75.5326C163.141 74.0641 168.26 71.5941 168.26 71.5941C167.473 69.7149 167.849 66.4965 168.378 64.0828Z" fill="#FFC3BD"/>
<path d="M162.482 68.9383C162.511 68.8088 162.533 68.6851 162.556 68.5613C162.533 68.6682 162.511 68.8088 162.482 68.9383Z" fill="#263238"/>
<path opacity="0.2" d="M162.482 68.9383C162.511 68.8088 162.533 68.6851 162.556 68.5613C162.533 68.6682 162.511 68.8088 162.482 68.9383Z" fill="black"/>
<path d="M162.685 66.9353C162.677 67.4416 162.64 67.947 162.572 68.4488C162.642 67.9473 162.68 67.4417 162.685 66.9353Z" fill="#263238"/>
<path opacity="0.2" d="M162.685 66.9353C162.677 67.4416 162.64 67.947 162.572 68.4488C162.642 67.9473 162.68 67.4417 162.685 66.9353Z" fill="black"/>
<path d="M165.599 66.4177C164.693 66.8519 163.684 67.0271 162.685 66.9241C162.68 67.4305 162.642 67.9361 162.572 68.4376V68.5502C162.572 68.6739 162.527 68.7977 162.499 68.9271V69.0228C163.784 68.5081 164.871 67.5951 165.599 66.4177Z" fill="#FFC3BD"/>
<path opacity="0.2" d="M165.599 66.4177C164.693 66.8519 163.684 67.0271 162.685 66.9241C162.68 67.4305 162.642 67.9361 162.572 68.4376V68.5502C162.572 68.6739 162.527 68.7977 162.499 68.9271V69.0228C163.784 68.5081 164.871 67.5951 165.599 66.4177Z" fill="black"/>
<path d="M165.599 66.4177C165.934 66.2599 166.255 66.0716 166.556 65.8551C167.271 65.3749 167.889 64.764 168.378 64.0546C168.592 63.7403 168.781 63.4091 168.941 63.0643C168.834 63.0643 168.727 63.1206 168.626 63.1319C167.686 63.2163 167.422 62.1585 167.849 61.2132C167.994 60.8936 168.184 60.5962 168.412 60.3299C168.167 59.5266 168.227 58.6609 168.581 57.8992C167.726 56.1438 166.82 54.5233 166.736 53.3474C164.63 53.9982 162.446 54.356 160.243 54.4108C160.159 54.5402 160.08 54.6809 159.996 54.8159C160.186 54.8152 160.376 54.8436 160.558 54.9003C160.582 54.9091 160.604 54.9224 160.622 54.9397C160.641 54.9569 160.656 54.9776 160.666 55.0006C160.677 55.0236 160.682 55.0485 160.683 55.0738C160.684 55.0991 160.68 55.1243 160.671 55.1479C160.653 55.1959 160.617 55.2351 160.571 55.2572C160.525 55.2792 160.472 55.2824 160.423 55.266C160.221 55.2047 160.008 55.1893 159.799 55.221C158.739 57.3561 158.223 59.7198 158.297 62.1022C158.316 63.3063 158.777 64.4613 159.592 65.3474C160.408 66.2334 161.52 66.7886 162.719 66.9072C163.705 67.0092 164.701 66.84 165.599 66.4177ZM164.345 55.3673C164.651 55.4276 164.938 55.5615 165.181 55.7576C165.424 55.9536 165.616 56.2059 165.74 56.4926C165.762 56.5398 165.764 56.5936 165.748 56.6428C165.731 56.6921 165.696 56.733 165.65 56.7571C165.603 56.7764 165.55 56.7764 165.503 56.7571C165.478 56.7501 165.455 56.7373 165.435 56.7197C165.416 56.7022 165.401 56.6803 165.391 56.6558C165.289 56.4286 165.133 56.2295 164.937 56.0757C164.741 55.9218 164.511 55.8178 164.266 55.7724C164.215 55.7641 164.169 55.7368 164.138 55.696C164.107 55.6553 164.092 55.6042 164.097 55.553C164.099 55.5242 164.108 55.4962 164.122 55.4711C164.137 55.446 164.156 55.4244 164.18 55.4077C164.203 55.3911 164.23 55.3798 164.259 55.3748C164.287 55.3698 164.317 55.371 164.345 55.3786V55.3673ZM164.148 58.1468C164.241 58.2173 164.311 58.3155 164.346 58.4275C164.382 58.5395 164.381 58.6597 164.345 58.7713C164.283 59.0977 164.058 59.334 163.844 59.2834C163.63 59.2327 163.506 58.9458 163.568 58.6194C163.599 58.454 163.684 58.3036 163.81 58.1918C163.635 58.099 163.497 57.9477 163.422 57.7642L164.148 58.1468ZM159.534 57.9105C159.565 57.7477 159.648 57.5994 159.771 57.4885C159.598 57.3911 159.463 57.2385 159.388 57.0553L160.125 57.4322C160.216 57.5053 160.283 57.6036 160.318 57.7147C160.353 57.8259 160.354 57.9449 160.322 58.0568C160.254 58.3831 160.035 58.6194 159.821 58.5744C159.607 58.5294 159.472 58.2481 159.534 57.9217V57.9105ZM160.84 60.645C160.631 60.6573 160.422 60.6239 160.228 60.5471C160.033 60.4704 159.858 60.352 159.714 60.2005C160.317 59.6546 160.843 59.0301 161.278 58.3437L160.84 60.645ZM161.925 62.1529C161.9 62.1462 161.879 62.1303 161.865 62.1083C161.852 62.0863 161.847 62.06 161.852 62.0347C161.858 62.0102 161.872 61.9888 161.894 61.9751C161.915 61.9614 161.94 61.9565 161.965 61.9616C162.371 62.049 162.792 62.0396 163.193 61.934C163.595 61.8284 163.966 61.6297 164.277 61.3539C164.286 61.3447 164.296 61.3373 164.308 61.3321C164.32 61.327 164.333 61.3242 164.345 61.3239C164.358 61.3237 164.371 61.3259 164.383 61.3306C164.395 61.3352 164.406 61.3422 164.415 61.3511C164.424 61.3599 164.431 61.3705 164.437 61.3823C164.442 61.394 164.445 61.4066 164.445 61.4194C164.445 61.4322 164.443 61.4449 164.438 61.4569C164.433 61.4688 164.427 61.4797 164.418 61.4889C163.895 61.9705 163.204 62.2289 162.494 62.2091C162.303 62.2074 162.114 62.1924 161.925 62.1641V62.1529Z" fill="#FFC3BD"/>
<path d="M169.34 59.6658C169.104 59.1032 168.834 58.5011 168.558 57.9385C168.204 58.7001 168.144 59.5658 168.39 60.3691C168.639 60.0551 168.967 59.8125 169.34 59.6658Z" fill="#263238"/>
<path d="M163.799 58.2086C163.673 58.3204 163.588 58.4708 163.557 58.6362C163.495 58.9625 163.619 59.2607 163.833 59.3001C164.046 59.3395 164.271 59.1144 164.333 58.7881C164.37 58.6765 164.37 58.5562 164.335 58.4442C164.3 58.3322 164.23 58.2341 164.136 58.1636C164.089 58.1998 164.033 58.223 163.974 58.2309C163.914 58.2388 163.854 58.2311 163.799 58.2086Z" fill="#263238"/>
<path d="M160.339 58.0735C160.371 57.9616 160.37 57.8426 160.335 57.7315C160.3 57.6203 160.233 57.5221 160.142 57.449C160.093 57.4847 160.036 57.508 159.977 57.5168C159.917 57.5257 159.856 57.5197 159.799 57.4996C159.676 57.6105 159.593 57.7588 159.562 57.9216C159.501 58.2479 159.624 58.5461 159.838 58.5911C160.052 58.6362 160.243 58.3999 160.339 58.0735Z" fill="#263238"/>
<path d="M160.114 57.449L159.377 57.072C159.452 57.2553 159.587 57.4078 159.759 57.5053C159.818 57.5266 159.882 57.5326 159.944 57.5228C160.006 57.513 160.064 57.4876 160.114 57.449Z" fill="#263238"/>
<path d="M159.72 60.2286C159.864 60.3801 160.039 60.4985 160.233 60.5752C160.428 60.652 160.637 60.6854 160.845 60.6731L161.29 58.3718C160.852 59.0586 160.324 59.6831 159.72 60.2286Z" fill="#ED847E"/>
<path d="M164.406 61.3538C164.388 61.3356 164.362 61.3254 164.336 61.3254C164.31 61.3254 164.285 61.3356 164.266 61.3538C163.956 61.6279 163.587 61.8257 163.188 61.9312C162.788 62.0367 162.369 62.0471 161.965 61.9615C161.94 61.9565 161.915 61.9613 161.894 61.975C161.872 61.9887 161.858 62.0101 161.852 62.0346C161.847 62.06 161.852 62.0863 161.865 62.1082C161.879 62.1302 161.9 62.1461 161.925 62.1528C162.111 62.1846 162.299 62.2034 162.488 62.2091C163.199 62.2289 163.889 61.9705 164.412 61.4889C164.428 61.4696 164.436 61.4452 164.435 61.4203C164.434 61.3954 164.424 61.3717 164.406 61.3538Z" fill="#263238"/>
<path d="M169.34 59.6658C168.967 59.8124 168.639 60.055 168.39 60.3691C168.161 60.6354 167.972 60.9328 167.827 61.2524C167.399 62.1977 167.664 63.2555 168.603 63.1711C168.705 63.1711 168.811 63.1261 168.918 63.1036C169.36 62.9862 169.764 62.7554 170.089 62.434C169.971 61.4806 169.719 60.5487 169.34 59.6658Z" fill="#FFC3BD"/>
<path d="M166.842 52.5315C166.876 51.7213 167.338 51.5243 167.968 51.6481C164.558 49.6563 159.557 51.8394 159.186 54.4614C159.523 54.4614 159.872 54.4614 160.232 54.4614C162.435 54.4065 164.619 54.0487 166.724 53.398C166.692 53.1038 166.732 52.8062 166.842 52.5315Z" fill="#263238"/>
<path d="M166.843 52.5316C166.736 52.7993 166.695 53.0888 166.724 53.3756C166.809 54.5684 167.715 56.1888 168.57 57.9274C168.845 58.49 169.132 59.0527 169.352 59.6547C169.73 60.5376 169.982 61.4695 170.1 62.4229C170.201 63.2747 170.077 64.1381 169.74 64.9267C171.096 63.3851 171.653 60.6225 171.878 58.2706C172.007 56.8924 172.046 55.5072 171.996 54.1239C171.996 54.1239 169.487 51.9521 167.968 51.6482C167.338 51.5244 166.876 51.7214 166.843 52.5316Z" fill="#263238"/>
<path d="M164.277 55.7667C164.522 55.8121 164.752 55.9161 164.948 56.07C165.144 56.2238 165.3 56.4229 165.402 56.6501C165.412 56.6746 165.427 56.6965 165.446 56.714C165.466 56.7316 165.489 56.7444 165.515 56.7514C165.562 56.7707 165.614 56.7707 165.661 56.7514C165.707 56.7273 165.742 56.6864 165.759 56.6371C165.776 56.5879 165.773 56.5341 165.751 56.4869C165.627 56.2002 165.436 55.9479 165.192 55.7519C164.949 55.5558 164.662 55.4219 164.356 55.3616C164.304 55.3552 164.252 55.3693 164.211 55.4009C164.17 55.4325 164.143 55.4791 164.136 55.5304C164.126 55.5803 164.134 55.6323 164.16 55.6761C164.187 55.7199 164.228 55.7523 164.277 55.7667Z" fill="#263238"/>
<path d="M160.39 55.2941C160.438 55.3105 160.491 55.3073 160.537 55.2853C160.583 55.2632 160.619 55.224 160.637 55.176C160.646 55.1523 160.65 55.1272 160.65 55.1019C160.649 55.0766 160.643 55.0517 160.632 55.0287C160.622 55.0057 160.607 54.985 160.589 54.9678C160.57 54.9505 160.548 54.9372 160.525 54.9284C160.342 54.8717 160.153 54.8432 159.962 54.844C159.523 54.8424 159.097 54.9847 158.747 55.2491C158.706 55.2813 158.68 55.3278 158.672 55.3791C158.665 55.4304 158.677 55.4825 158.707 55.5248C158.738 55.5635 158.782 55.5895 158.831 55.598C158.857 55.6037 158.885 55.6036 158.911 55.5978C158.937 55.5919 158.962 55.5805 158.983 55.5642C159.204 55.394 159.466 55.2853 159.743 55.2491C159.959 55.2139 160.18 55.2293 160.39 55.2941Z" fill="#263238"/>
<path d="M163.799 58.2086C163.854 58.2311 163.914 58.2388 163.974 58.2309C164.033 58.223 164.089 58.1998 164.136 58.1636L163.399 57.7866C163.479 57.9699 163.62 58.1193 163.799 58.2086Z" fill="#263238"/>
<path d="M172.8 85.7278C172.8 85.4971 172.834 85.2495 172.845 85.0132C172.53 84.5125 172.21 84.0061 171.878 83.5053L171.231 82.5432L171.028 82.6501C171.541 83.7189 172.133 84.7477 172.8 85.7278Z" fill="#263238"/>
<path opacity="0.2" d="M172.8 85.7278C172.8 85.4971 172.834 85.2495 172.845 85.0132C172.53 84.5125 172.21 84.0061 171.878 83.5053L171.231 82.5432L171.028 82.6501C171.541 83.7189 172.133 84.7477 172.8 85.7278Z" fill="black"/>
<path d="M174.471 90.3865V90.4765C176.715 89.2639 178.782 87.7494 180.615 85.9753C180.307 85.0677 179.947 84.179 179.535 83.314C178.989 82.1374 178.382 80.9899 177.717 79.8762C177.155 78.9085 176.558 77.9857 175.945 77.063C175.383 78.2389 173.785 81.069 171.248 82.5263L171.895 83.4884C172.226 83.9892 172.547 84.4956 172.862 84.9963C173.138 85.4352 173.425 85.8797 173.655 86.3185C174.089 87.0781 174.494 87.8433 174.781 88.5691L174.724 88.9517C174.657 89.4187 174.572 89.897 174.471 90.3865Z" fill="#FFC3BD"/>
<path d="M167.377 79.685C167.377 79.685 168.817 81.1254 170.505 82.909C170.685 82.8302 170.859 82.7402 171.028 82.6501L171.231 82.5432C173.768 81.086 175.354 78.2559 175.928 77.0799C176.091 76.748 176.176 76.5454 176.176 76.5454C176.176 76.5454 174.544 73.8447 172.305 72.4831C171.771 72.1455 171.18 71.9072 170.561 71.7798C166.572 72.7982 165.273 75.2963 167.377 79.685Z" fill="#263238"/>
<path d="M194.353 23.2457H202.28C202.497 23.242 202.704 23.1574 202.861 23.0085C203.018 22.8595 203.114 22.6571 203.13 22.4411C203.137 22.3382 203.122 22.2349 203.087 22.1378C203.053 22.0407 202.998 21.9518 202.927 21.8768C202.857 21.8018 202.771 21.7422 202.676 21.7018C202.581 21.6614 202.479 21.6411 202.376 21.6421H194.443C194.228 21.6457 194.021 21.7295 193.864 21.8773C193.707 22.025 193.61 22.2261 193.594 22.4411C193.586 22.5449 193.6 22.6493 193.635 22.7475C193.669 22.8456 193.724 22.9354 193.796 23.0112C193.867 23.0869 193.954 23.1469 194.05 23.1873C194.146 23.2276 194.249 23.2475 194.353 23.2457Z" fill="#5748AE"/>
<path d="M194.19 26.0081H202.117C202.333 26.0045 202.541 25.9198 202.698 25.7709C202.855 25.622 202.951 25.4196 202.966 25.2036C202.974 25.1002 202.961 24.9963 202.926 24.8985C202.892 24.8008 202.837 24.7112 202.766 24.6356C202.695 24.5599 202.61 24.4998 202.514 24.4591C202.419 24.4184 202.316 24.3979 202.213 24.399H194.286C194.068 24.4012 193.859 24.4852 193.701 24.6343C193.543 24.7834 193.446 24.9866 193.431 25.2036C193.424 25.307 193.439 25.4107 193.475 25.5081C193.51 25.6055 193.565 25.6946 193.636 25.77C193.708 25.8454 193.793 25.9054 193.889 25.9463C193.984 25.9873 194.086 26.0083 194.19 26.0081Z" fill="#5748AE"/>
<path d="M130.06 26.0081H137.987C138.204 26.0046 138.412 25.9201 138.57 25.7713C138.728 25.6225 138.825 25.4201 138.842 25.2035C138.849 25.0999 138.835 24.9959 138.8 24.8981C138.764 24.8003 138.71 24.7109 138.638 24.6353C138.567 24.5598 138.481 24.4998 138.385 24.4591C138.29 24.4184 138.187 24.398 138.083 24.399H130.156C129.939 24.4013 129.731 24.4855 129.573 24.6347C129.416 24.7839 129.32 24.9871 129.306 25.2035C129.299 25.3067 129.314 25.4102 129.348 25.5076C129.383 25.605 129.438 25.6943 129.508 25.7697C129.579 25.8452 129.665 25.9053 129.759 25.9463C129.854 25.9873 129.957 26.0084 130.06 26.0081Z" fill="#5748AE"/>
<path d="M194.027 28.7652H201.971C202.188 28.7629 202.397 28.6789 202.555 28.5298C202.714 28.3808 202.81 28.1776 202.826 27.9606C202.832 27.8571 202.817 27.7535 202.782 27.6561C202.746 27.5587 202.691 27.4695 202.62 27.3942C202.549 27.3188 202.463 27.2588 202.368 27.2178C202.273 27.1769 202.17 27.1558 202.066 27.156H194.123C193.905 27.1596 193.697 27.244 193.539 27.3928C193.381 27.5416 193.284 27.7441 193.267 27.9606C193.26 28.0643 193.275 28.1682 193.31 28.266C193.345 28.3638 193.4 28.4533 193.471 28.5288C193.543 28.6044 193.629 28.6644 193.725 28.705C193.82 28.7457 193.923 28.7662 194.027 28.7652Z" fill="#5748AE"/>
<path d="M183.608 129.71H135.652C134.757 129.718 133.869 129.541 133.045 129.19C132.221 128.839 131.479 128.321 130.865 127.668C130.251 127.016 129.779 126.244 129.477 125.401C129.176 124.557 129.053 123.66 129.115 122.767C129.25 120.899 130.08 119.15 131.441 117.865C132.803 116.58 134.596 115.851 136.468 115.824H184.423C185.319 115.815 186.207 115.992 187.031 116.344C187.854 116.695 188.597 117.213 189.211 117.865C189.825 118.517 190.297 119.289 190.598 120.133C190.9 120.977 191.023 121.873 190.961 122.767C190.826 124.634 189.996 126.383 188.635 127.669C187.273 128.954 185.48 129.682 183.608 129.71Z" fill="white"/>
<path d="M182.516 148.373H134.555C133.66 148.38 132.772 148.201 131.949 147.849C131.125 147.497 130.383 146.978 129.77 146.326C129.156 145.674 128.684 144.902 128.382 144.058C128.081 143.215 127.957 142.318 128.018 141.424C128.157 139.56 128.989 137.815 130.35 136.533C131.71 135.251 133.502 134.525 135.371 134.498H183.332C184.228 134.49 185.115 134.667 185.939 135.018C186.763 135.369 187.505 135.887 188.119 136.54C188.733 137.192 189.206 137.964 189.507 138.807C189.808 139.651 189.931 140.548 189.869 141.441C189.73 143.306 188.899 145.052 187.538 146.334C186.177 147.617 184.386 148.344 182.516 148.373Z" fill="white"/>
<path d="M181.419 167.03H133.464C132.568 167.039 131.681 166.862 130.857 166.51C130.033 166.159 129.291 165.641 128.677 164.989C128.063 164.337 127.59 163.565 127.289 162.721C126.988 161.878 126.864 160.981 126.927 160.087C127.061 158.219 127.891 156.47 129.252 155.183C130.613 153.897 132.407 153.168 134.28 153.139H182.235C183.131 153.131 184.019 153.309 184.843 153.661C185.666 154.013 186.409 154.531 187.022 155.184C187.636 155.836 188.109 156.609 188.41 157.453C188.711 158.297 188.834 159.194 188.772 160.087C188.637 161.955 187.807 163.704 186.446 164.989C185.085 166.275 183.291 167.003 181.419 167.03Z" fill="white"/>
<path d="M139.378 125.255C140.838 123.837 140.939 121.573 139.603 120.197C138.268 118.822 136.001 118.856 134.541 120.274C133.081 121.692 132.981 123.957 134.316 125.332C135.652 126.708 137.918 126.673 139.378 125.255Z" fill="#5748AE"/>
<path d="M136.536 138.043L137.008 139.826C137.035 139.924 137.094 140.011 137.176 140.072C137.257 140.133 137.357 140.165 137.458 140.164H139.332C139.437 140.165 139.54 140.2 139.623 140.265C139.707 140.33 139.767 140.42 139.794 140.522C139.822 140.624 139.815 140.732 139.775 140.83C139.735 140.928 139.665 141.01 139.574 141.064L137.993 142.189C137.903 142.249 137.834 142.336 137.796 142.436C137.757 142.537 137.751 142.648 137.779 142.752L138.252 144.536C138.28 144.638 138.275 144.747 138.24 144.847C138.204 144.947 138.138 145.033 138.052 145.094C137.965 145.156 137.862 145.189 137.756 145.19C137.649 145.191 137.546 145.159 137.458 145.098L136.007 143.973C135.924 143.915 135.826 143.884 135.725 143.884C135.625 143.884 135.527 143.915 135.444 143.973L133.863 145.098C133.78 145.164 133.678 145.2 133.572 145.201C133.466 145.202 133.363 145.167 133.279 145.102C133.196 145.037 133.136 144.946 133.111 144.843C133.085 144.741 133.094 144.632 133.138 144.536L133.818 142.752C133.86 142.655 133.868 142.547 133.842 142.446C133.815 142.344 133.756 142.253 133.672 142.189L132.221 141.064C132.141 140.995 132.084 140.904 132.058 140.802C132.032 140.699 132.038 140.592 132.076 140.493C132.113 140.395 132.18 140.31 132.268 140.251C132.355 140.192 132.458 140.162 132.564 140.164H134.437C134.543 140.164 134.647 140.132 134.734 140.071C134.822 140.011 134.889 139.926 134.927 139.826L135.585 138.043C135.615 137.94 135.677 137.849 135.763 137.785C135.849 137.721 135.953 137.686 136.06 137.686C136.167 137.686 136.272 137.721 136.357 137.785C136.443 137.849 136.506 137.94 136.536 138.043Z" fill="#5748AE"/>
<path d="M137.835 158.197L137.537 163.204C137.523 163.414 137.43 163.611 137.276 163.755C137.123 163.899 136.92 163.98 136.71 163.981H132.327C132.231 163.975 132.136 163.95 132.049 163.907C131.962 163.864 131.884 163.804 131.821 163.731C131.757 163.657 131.709 163.572 131.679 163.479C131.649 163.387 131.638 163.29 131.647 163.193L132.012 156.959C132.025 156.749 132.117 156.551 132.269 156.406C132.422 156.261 132.623 156.179 132.834 156.177H135.984L137.835 158.197Z" fill="#5748AE"/>
<path d="M135.956 156.188L137.852 158.197H136.62C136.52 158.198 136.42 158.178 136.328 158.139C136.236 158.099 136.153 158.042 136.084 157.969C136.016 157.896 135.963 157.809 135.929 157.715C135.895 157.621 135.882 157.52 135.889 157.42L135.956 156.188ZM135.455 154.81L135.377 156.154L135.303 157.386C135.294 157.566 135.32 157.746 135.381 157.915C135.442 158.084 135.536 158.239 135.658 158.371C135.782 158.502 135.931 158.606 136.096 158.676C136.262 158.747 136.44 158.783 136.62 158.782H139.197L138.274 157.797L136.384 155.789L135.455 154.81Z" fill="white"/>
<path opacity="0.2" d="M181.999 122.03H146.111C145.966 122.031 145.822 122.002 145.688 121.945C145.555 121.888 145.434 121.804 145.334 121.698C145.235 121.593 145.158 121.468 145.108 121.331C145.059 121.195 145.038 121.049 145.048 120.904C145.071 120.601 145.207 120.318 145.429 120.11C145.651 119.902 145.942 119.784 146.246 119.779H182.128C182.273 119.778 182.417 119.807 182.551 119.864C182.684 119.921 182.805 120.005 182.905 120.11C183.004 120.216 183.081 120.341 183.131 120.477C183.18 120.614 183.201 120.759 183.191 120.904C183.169 121.207 183.034 121.49 182.813 121.699C182.593 121.907 182.302 122.025 181.999 122.03Z" fill="#5748AE"/>
<path opacity="0.2" d="M175.197 125.766H145.897C145.752 125.767 145.608 125.738 145.474 125.681C145.34 125.624 145.219 125.54 145.119 125.435C145.019 125.329 144.941 125.204 144.891 125.068C144.841 124.931 144.82 124.786 144.828 124.641C144.852 124.337 144.988 124.054 145.21 123.846C145.431 123.638 145.723 123.52 146.027 123.515H175.326C175.472 123.513 175.617 123.542 175.751 123.598C175.885 123.655 176.006 123.739 176.107 123.844C176.207 123.95 176.284 124.075 176.334 124.212C176.384 124.349 176.405 124.495 176.395 124.641C176.37 124.943 176.234 125.226 176.013 125.434C175.791 125.642 175.501 125.76 175.197 125.766Z" fill="#5748AE"/>
<path opacity="0.2" d="M180.817 142.161H170.916C170.611 142.165 170.319 142.282 170.097 142.491C169.876 142.699 169.74 142.983 169.717 143.287C169.708 143.432 169.729 143.577 169.778 143.714C169.827 143.85 169.904 143.975 170.004 144.081C170.104 144.186 170.224 144.27 170.358 144.327C170.492 144.384 170.635 144.413 170.781 144.412H180.682C180.987 144.409 181.279 144.291 181.501 144.083C181.722 143.874 181.858 143.59 181.881 143.287C181.89 143.142 181.869 142.996 181.82 142.86C181.771 142.723 181.694 142.598 181.594 142.493C181.494 142.387 181.374 142.303 181.24 142.246C181.106 142.189 180.963 142.16 180.817 142.161Z" fill="#5748AE"/>
<path opacity="0.2" d="M165.127 142.161H144.935C144.631 142.165 144.339 142.282 144.117 142.491C143.895 142.699 143.759 142.983 143.737 143.287C143.727 143.432 143.747 143.578 143.796 143.715C143.845 143.852 143.922 143.977 144.022 144.083C144.122 144.188 144.242 144.272 144.376 144.329C144.51 144.386 144.655 144.414 144.8 144.412H164.997C165.301 144.407 165.592 144.289 165.814 144.081C166.036 143.873 166.172 143.59 166.196 143.287C166.205 143.141 166.184 142.996 166.134 142.859C166.085 142.722 166.007 142.596 165.907 142.491C165.806 142.385 165.685 142.301 165.551 142.245C165.417 142.188 165.272 142.16 165.127 142.161Z" fill="#5748AE"/>
<path opacity="0.2" d="M174.454 138.437H145.149C144.844 138.44 144.552 138.557 144.331 138.766C144.109 138.974 143.973 139.258 143.951 139.562C143.941 139.707 143.962 139.852 144.011 139.989C144.061 140.125 144.138 140.25 144.237 140.356C144.337 140.461 144.458 140.545 144.591 140.602C144.725 140.659 144.869 140.688 145.014 140.687H174.314C174.618 140.682 174.909 140.565 175.131 140.356C175.352 140.148 175.488 139.865 175.512 139.562C175.521 139.417 175.501 139.272 175.452 139.136C175.403 139 175.326 138.875 175.227 138.77C175.128 138.664 175.008 138.58 174.875 138.523C174.742 138.466 174.599 138.436 174.454 138.437Z" fill="#5748AE"/>
<path opacity="0.2" d="M179.72 160.819H143.838C143.534 160.825 143.244 160.943 143.023 161.151C142.801 161.359 142.665 161.641 142.64 161.944C142.63 162.089 142.651 162.235 142.701 162.372C142.751 162.509 142.828 162.634 142.928 162.74C143.029 162.846 143.15 162.93 143.284 162.986C143.418 163.043 143.563 163.071 143.709 163.069H179.591C179.894 163.064 180.185 162.946 180.406 162.738C180.626 162.53 180.761 162.247 180.784 161.944C180.793 161.799 180.772 161.654 180.723 161.517C180.673 161.38 180.596 161.255 180.497 161.15C180.397 161.044 180.277 160.96 180.143 160.903C180.009 160.846 179.865 160.818 179.72 160.819Z" fill="#5748AE"/>
<path opacity="0.2" d="M173.357 157.088H144.057C143.753 157.093 143.462 157.211 143.241 157.419C143.019 157.627 142.883 157.911 142.859 158.214C142.85 158.359 142.87 158.504 142.92 158.641C142.969 158.777 143.046 158.902 143.146 159.008C143.246 159.113 143.366 159.197 143.5 159.254C143.633 159.311 143.777 159.34 143.922 159.339H173.228C173.531 159.334 173.822 159.216 174.043 159.008C174.263 158.8 174.398 158.516 174.421 158.214C174.43 158.069 174.409 157.923 174.36 157.787C174.31 157.65 174.234 157.525 174.134 157.42C174.034 157.314 173.914 157.23 173.78 157.173C173.646 157.116 173.502 157.087 173.357 157.088Z" fill="#5748AE"/>
</g>
<defs>
<clipPath id="clip0_1298_1013">
<rect width="280" height="219.074" fill="white" transform="translate(0 0.962891)"/>
</clipPath>
</defs>
</svg>
