<svg width="500" height="375" viewBox="0 0 500 375" fill="none" xmlns="http://www.w3.org/2000/svg">
<path opacity="0.45" d="M258.185 318.865C363.679 318.865 449.198 313.582 449.198 307.065C449.198 300.548 363.679 295.265 258.185 295.265C152.692 295.265 67.1726 300.548 67.1726 307.065C67.1726 313.582 152.692 318.865 258.185 318.865Z" fill="#E6E6E6"/>
<path opacity="0.58" d="M413.32 287.821C413.32 287.821 401.22 284.521 398.595 273.259C398.595 273.259 417.345 269.509 417.857 288.809L413.32 287.821Z" fill="#5748AE"/>
<path opacity="0.73" d="M414.805 286.616C414.805 286.616 406.355 273.253 413.792 260.766C413.792 260.766 428.042 269.816 421.705 286.641L414.805 286.616Z" fill="#5748AE"/>
<path d="M416.978 286.668C416.978 286.668 421.453 272.518 435.003 269.881C435.003 269.881 437.503 279.043 426.253 286.706L416.978 286.668Z" fill="#5748AE"/>
<path d="M408.208 286.348L410.658 303.123L426.095 303.185L428.37 286.435L408.208 286.348Z" fill="#24285B"/>
<path d="M227.849 224.604L214.099 296.28H281.186L267.436 224.604H227.849Z" fill="#C9C9C9"/>
<path d="M289.937 289.185H204.938V303.647H289.937V289.185Z" fill="#E6E6E6"/>
<path d="M382.189 72.7393H120.314V243.164H382.189V72.7393Z" fill="#E6E6E6"/>
<path opacity="0.56" d="M382.189 72.7393H120.314V223.577H382.189V72.7393Z" fill="white"/>
<path d="M140.424 81.9351C143.469 81.9351 145.937 79.4671 145.937 76.4226C145.937 73.3782 143.469 70.9102 140.424 70.9102C137.38 70.9102 134.912 73.3782 134.912 76.4226C134.912 79.4671 137.38 81.9351 140.424 81.9351Z" fill="#24285B"/>
<path d="M156.812 81.9351C159.857 81.9351 162.325 79.4671 162.325 76.4226C162.325 73.3782 159.857 70.9102 156.812 70.9102C153.768 70.9102 151.3 73.3782 151.3 76.4226C151.3 79.4671 153.768 81.9351 156.812 81.9351Z" fill="#5748AE"/>
<path d="M172.248 81.9351C175.292 81.9351 177.76 79.4671 177.76 76.4226C177.76 73.3782 175.292 70.9102 172.248 70.9102C169.204 70.9102 166.735 73.3782 166.735 76.4226C166.735 79.4671 169.204 81.9351 172.248 81.9351Z" fill="#FFD200"/>
<path d="M110.928 306.299L122.415 254.911H160.715L149.54 306.299H110.928Z" fill="#FFD200"/>
<path d="M160.712 254.911L172.199 306.299H149.537L160.712 254.911Z" fill="#FFD200"/>
<path opacity="0.09" d="M160.712 254.911L172.199 306.299H149.537L160.712 254.911Z" fill="black"/>
<path opacity="0.03" d="M120.888 98.0593V120.834H382.763V79.3468L272.338 55.0469L150.1 75.1094L131.35 80.3468L121.063 95.8468L120.888 98.0593Z" fill="black"/>
<path opacity="0.5" d="M127.197 263.893L122.41 285.28H146.822L150.972 263.893H127.197Z" fill="white"/>
<path d="M381.824 57.5049H251.099H249.987H119.261L96.7114 97.0675H249.987H251.099H404.374L381.824 57.5049Z" fill="#5748AE"/>
<path d="M130.789 97.0625H164.864V97.2C164.864 101.662 163.091 105.942 159.936 109.097C156.781 112.252 152.501 114.025 148.039 114.025H147.614C143.152 114.025 138.872 112.252 135.717 109.097C132.562 105.942 130.789 101.662 130.789 97.2V97.0625Z" fill="#5748AE"/>
<path d="M199.428 97.0625H233.503V97.2C233.503 101.662 231.73 105.942 228.575 109.097C225.42 112.252 221.14 114.025 216.678 114.025H216.253C211.791 114.025 207.511 112.252 204.356 109.097C201.201 105.942 199.428 101.662 199.428 97.2V97.0625Z" fill="#5748AE"/>
<path d="M267.577 97.0625H301.652V97.2C301.652 101.662 299.879 105.942 296.724 109.097C293.568 112.252 289.289 114.025 284.827 114.025H284.402C279.939 114.025 275.66 112.252 272.505 109.097C269.349 105.942 267.577 101.662 267.577 97.2V97.0625Z" fill="#5748AE"/>
<path d="M336.247 97.0625H370.322V97.2C370.322 101.662 368.549 105.942 365.394 109.097C362.238 112.252 357.959 114.025 353.497 114.025H353.072C350.862 114.025 348.674 113.59 346.633 112.744C344.592 111.899 342.737 110.659 341.175 109.097C339.612 107.535 338.373 105.68 337.527 103.639C336.682 101.597 336.247 99.4095 336.247 97.2V97.0625Z" fill="#5748AE"/>
<path d="M233.5 97.0741V97.2116C233.5 99.4211 233.936 101.609 234.781 103.65C235.627 105.692 236.866 107.546 238.428 109.109C239.991 110.671 241.846 111.91 243.887 112.756C245.928 113.601 248.116 114.037 250.325 114.037H250.75C252.96 114.038 255.149 113.604 257.191 112.759C259.233 111.914 261.088 110.675 262.651 109.112C264.214 107.55 265.453 105.694 266.298 103.652C267.143 101.61 267.577 99.4215 267.575 97.2116V57.499H233.5V97.0741Z" fill="#5748AE"/>
<path d="M165.35 97.0741V97.2116C165.35 101.674 167.122 105.953 170.278 109.109C173.433 112.264 177.713 114.037 182.175 114.037H182.6C184.81 114.038 186.998 113.604 189.04 112.759C191.082 111.914 192.938 110.675 194.501 109.112C196.063 107.55 197.303 105.694 198.147 103.652C198.992 101.61 199.426 99.4215 199.425 97.2116V97.0741L203.475 57.499H173.475L165.35 97.0741Z" fill="#5748AE"/>
<path d="M96.7124 97.0741V97.2116C96.7124 101.674 98.485 105.953 101.64 109.109C104.796 112.264 109.075 114.037 113.537 114.037H113.962C118.425 114.037 122.704 112.264 125.859 109.109C129.015 105.953 130.787 101.674 130.787 97.2116V97.0741L145.937 57.499H119.262L96.7124 97.0741Z" fill="#5748AE"/>
<path d="M327.612 57.499H297.612L301.65 97.0741H302.15V97.2116C302.148 99.4215 302.582 101.61 303.427 103.652C304.272 105.694 305.511 107.55 307.074 109.112C308.637 110.675 310.492 111.914 312.534 112.759C314.576 113.604 316.765 114.038 318.975 114.037H319.4C321.611 114.04 323.802 113.607 325.846 112.763C327.89 111.919 329.748 110.68 331.313 109.117C332.878 107.555 334.119 105.699 334.967 103.656C335.814 101.613 336.25 99.4232 336.25 97.2116V97.0741H335.75L327.612 57.499Z" fill="#5748AE"/>
<path d="M381.824 57.499H355.149L370.299 97.074V97.2115C370.297 99.4215 370.732 101.61 371.577 103.652C372.421 105.694 373.661 107.55 375.223 109.112C376.786 110.675 378.641 111.914 380.684 112.759C382.726 113.604 384.914 114.038 387.124 114.037H387.499C389.713 114.043 391.906 113.613 393.953 112.77C396 111.928 397.861 110.689 399.429 109.126C400.996 107.563 402.24 105.706 403.089 103.662C403.937 101.617 404.374 99.4252 404.374 97.2115V97.074L381.824 57.499Z" fill="#5748AE"/>
<path d="M203.471 159.771L250.534 127.221L292.522 159.771" stroke="#5748AE" stroke-width="2.5" stroke-miterlimit="10"/>
<g opacity="0.75">
<path d="M233.5 97.0741V97.2116C233.5 99.4211 233.935 101.609 234.78 103.65C235.626 105.692 236.865 107.546 238.428 109.109C239.99 110.671 241.845 111.91 243.886 112.756C245.927 113.601 248.115 114.037 250.325 114.037H250.75C252.96 114.038 255.148 113.604 257.19 112.759C259.232 111.914 261.088 110.675 262.65 109.112C264.213 107.55 265.452 105.694 266.297 103.652C267.142 101.61 267.576 99.4215 267.575 97.2116V57.499H233.5V97.0741Z" fill="white"/>
<path d="M165.35 97.0741V97.2116C165.35 101.674 167.123 105.953 170.278 109.109C173.433 112.264 177.713 114.037 182.175 114.037H182.6C184.81 114.038 186.999 113.604 189.041 112.759C191.083 111.914 192.938 110.675 194.501 109.112C196.063 107.55 197.303 105.694 198.148 103.652C198.993 101.61 199.427 99.4215 199.425 97.2116V97.0741L203.475 57.499H173.475L165.35 97.0741Z" fill="white"/>
<path d="M96.7123 97.0741V97.2116C96.7123 101.674 98.4849 105.953 101.64 109.109C104.795 112.264 109.075 114.037 113.537 114.037H113.962C118.425 114.037 122.704 112.264 125.859 109.109C129.015 105.953 130.787 101.674 130.787 97.2116V97.0741L145.937 57.499H119.262L96.7123 97.0741Z" fill="white"/>
<path d="M327.613 57.499H297.613L301.65 97.0741H302.15V97.2116C302.149 99.4215 302.583 101.61 303.428 103.652C304.273 105.694 305.512 107.55 307.075 109.112C308.637 110.675 310.493 111.914 312.535 112.759C314.577 113.604 316.765 114.038 318.975 114.037H319.4C321.612 114.04 323.802 113.607 325.847 112.763C327.891 111.919 329.749 110.68 331.314 109.117C332.879 107.555 334.12 105.699 334.967 103.656C335.814 101.613 336.25 99.4232 336.25 97.2116V97.0741H335.75L327.613 57.499Z" fill="white"/>
<path d="M381.825 57.499H355.15L370.3 97.074V97.2115C370.298 99.4215 370.733 101.61 371.578 103.652C372.422 105.694 373.662 107.55 375.224 109.112C376.787 110.675 378.642 111.914 380.685 112.759C382.727 113.604 384.915 114.038 387.125 114.037H387.5C389.714 114.043 391.907 113.613 393.954 112.77C396.001 111.928 397.862 110.689 399.429 109.126C400.997 107.563 402.241 105.706 403.09 103.662C403.938 101.617 404.375 99.4252 404.375 97.2115V97.074L381.825 57.499Z" fill="white"/>
</g>
<path d="M382.199 42.8623H119.263V57.4998H382.199V42.8623Z" fill="#5748AE"/>
<path d="M314.851 156.013H188.789V216.8H314.851V156.013Z" fill="#24285B"/>
<path d="M250.538 133.659C254.08 133.659 256.95 130.788 256.95 127.246C256.95 123.705 254.08 120.834 250.538 120.834C246.996 120.834 244.125 123.705 244.125 127.246C244.125 130.788 246.996 133.659 250.538 133.659Z" fill="#FFD200"/>
<path d="M219.623 184.098H215.71C215.646 183.626 215.498 183.169 215.273 182.748C215.056 182.36 214.767 182.017 214.423 181.736C214.051 181.442 213.627 181.222 213.173 181.086C212.701 180.932 212.207 180.856 211.71 180.861C210.826 180.84 209.955 181.084 209.21 181.561C208.483 182.069 207.919 182.777 207.585 183.598C207.17 184.626 206.97 185.728 206.998 186.836C206.966 187.96 207.166 189.079 207.585 190.123C207.904 190.938 208.466 191.635 209.196 192.118C209.925 192.601 210.786 192.847 211.66 192.823C212.151 192.826 212.64 192.754 213.11 192.611C213.534 192.482 213.932 192.279 214.285 192.011C214.636 191.748 214.929 191.416 215.148 191.036C215.387 190.653 215.552 190.229 215.635 189.786H219.548C219.447 190.635 219.188 191.457 218.785 192.211C218.381 193 217.834 193.708 217.173 194.298C216.466 194.927 215.647 195.419 214.76 195.748C213.746 196.112 212.675 196.29 211.598 196.273C210.068 196.3 208.558 195.92 207.223 195.173C205.929 194.408 204.877 193.295 204.185 191.961C203.405 190.381 203.023 188.634 203.073 186.873C203.021 185.111 203.408 183.363 204.198 181.786C204.895 180.451 205.957 179.341 207.26 178.586C208.582 177.838 210.079 177.454 211.598 177.473C212.603 177.465 213.603 177.617 214.56 177.923C215.432 178.194 216.249 178.618 216.973 179.173C217.7 179.741 218.304 180.452 218.748 181.261C219.22 182.141 219.518 183.105 219.623 184.098Z" fill="white"/>
<path d="M222.406 196.004V177.704H226.256V192.817H234.106V196.004H222.406Z" fill="white"/>
<path d="M252.769 186.795C252.822 188.562 252.436 190.314 251.644 191.895C250.945 193.233 249.879 194.344 248.569 195.095C247.224 195.817 245.721 196.195 244.194 196.195C242.667 196.195 241.164 195.817 239.819 195.095C238.516 194.334 237.454 193.221 236.757 191.883C236.015 190.289 235.631 188.553 235.631 186.795C235.631 185.037 236.015 183.301 236.757 181.707C237.451 180.37 238.514 179.26 239.819 178.507C241.162 177.778 242.666 177.396 244.194 177.396C245.722 177.396 247.226 177.778 248.569 178.507C249.879 179.259 250.945 180.369 251.644 181.707C252.434 183.284 252.821 185.032 252.769 186.795ZM248.844 186.795C248.878 185.68 248.682 184.569 248.269 183.533C247.943 182.713 247.382 182.009 246.657 181.507C245.918 181.058 245.071 180.821 244.207 180.821C243.343 180.821 242.495 181.058 241.757 181.507C241.028 182.008 240.463 182.713 240.132 183.533C239.365 185.644 239.365 187.958 240.132 190.07C240.46 190.888 241.026 191.59 241.757 192.083C242.298 192.451 242.916 192.692 243.563 192.789C244.21 192.886 244.871 192.836 245.497 192.643C246.122 192.449 246.696 192.118 247.176 191.672C247.656 191.227 248.03 190.679 248.269 190.07C248.683 189.029 248.879 187.915 248.844 186.795Z" fill="white"/>
<path d="M265.561 182.909C265.539 182.579 265.444 182.258 265.285 181.969C265.125 181.679 264.904 181.428 264.636 181.234C263.987 180.801 263.215 180.591 262.436 180.634C261.891 180.619 261.348 180.708 260.836 180.896C260.443 181.042 260.097 181.292 259.836 181.621C259.612 181.93 259.493 182.302 259.499 182.684C259.477 182.981 259.547 183.277 259.699 183.534C259.862 183.791 260.079 184.008 260.336 184.171C260.625 184.358 260.936 184.509 261.261 184.621C261.627 184.759 262.003 184.868 262.386 184.946L264.036 185.346C264.792 185.508 265.529 185.747 266.236 186.059C266.865 186.335 267.446 186.706 267.961 187.159C268.445 187.585 268.833 188.109 269.099 188.696C269.382 189.333 269.527 190.024 269.524 190.721C269.537 191.757 269.237 192.772 268.661 193.634C268.051 194.485 267.209 195.144 266.236 195.534C265.02 196.013 263.719 196.243 262.411 196.209C261.096 196.239 259.788 196.01 258.561 195.534C257.546 195.122 256.675 194.417 256.061 193.509C255.419 192.529 255.084 191.38 255.099 190.209H258.849C258.873 190.759 259.06 191.29 259.386 191.734C259.71 192.151 260.142 192.472 260.636 192.659C261.213 192.867 261.823 192.968 262.436 192.959C263.019 192.972 263.6 192.879 264.149 192.684C264.588 192.521 264.976 192.245 265.274 191.884C265.538 191.549 265.679 191.135 265.674 190.709C265.689 190.329 265.559 189.959 265.311 189.671C265.019 189.358 264.66 189.115 264.261 188.959C263.709 188.738 263.141 188.558 262.561 188.421L260.574 187.921C259.233 187.643 257.981 187.042 256.924 186.171C256.477 185.766 256.125 185.266 255.893 184.709C255.662 184.151 255.557 183.549 255.586 182.946C255.565 181.906 255.876 180.886 256.474 180.034C257.117 179.174 257.981 178.505 258.974 178.096C260.103 177.615 261.321 177.376 262.549 177.396C263.773 177.372 264.988 177.611 266.111 178.096C267.063 178.511 267.881 179.181 268.474 180.034C269.051 180.881 269.361 181.883 269.361 182.909H265.561Z" fill="white"/>
<path d="M272.118 196.004V177.704H284.443V180.904H275.981V185.254H283.756V188.454H275.931V192.817H284.431V196.004H272.118Z" fill="white"/>
<path d="M294.015 195.947H287.503V177.647H294.04C295.691 177.607 297.325 177.985 298.79 178.747C300.106 179.463 301.177 180.556 301.865 181.885C302.573 183.424 302.94 185.097 302.94 186.791C302.94 188.485 302.573 190.159 301.865 191.697C301.169 193.037 300.084 194.135 298.753 194.847C297.291 195.607 295.662 195.985 294.015 195.947ZM291.39 192.635H293.89C294.888 192.668 295.879 192.458 296.778 192.022C297.568 191.609 298.194 190.939 298.553 190.122C298.979 189.063 299.18 187.926 299.14 186.785C299.18 185.652 298.98 184.523 298.553 183.472C298.194 182.656 297.568 181.986 296.778 181.572C295.881 181.147 294.895 180.941 293.903 180.972H291.403L291.39 192.635Z" fill="white"/>
</svg>
