<svg width="326" height="325" viewBox="0 0 326 325" fill="none" xmlns="http://www.w3.org/2000/svg">
<path d="M23.9002 58.6235L87.6652 41.9315C87.9099 41.8658 88.1704 41.8967 88.393 42.0176C88.6156 42.1386 88.7832 42.3404 88.8612 42.5815L101.484 84.9095C101.521 85.0379 101.532 85.1726 101.516 85.3054C101.5 85.4382 101.457 85.5663 101.391 85.6822C101.324 85.7981 101.235 85.8994 101.128 85.9799C101.021 86.0605 100.899 86.1186 100.769 86.1509L34.5212 102.355C34.3948 102.387 34.2634 102.394 34.1345 102.374C34.0056 102.355 33.8819 102.31 33.7706 102.242C33.6592 102.174 33.5625 102.085 33.486 101.98C33.4096 101.874 33.3549 101.754 33.3252 101.627L23.2047 59.8C23.1467 59.552 23.1866 59.2912 23.3162 59.072C23.4458 58.8528 23.655 58.6921 23.9002 58.6235Z" fill="#EBEBEB"/>
<path d="M22.9775 58.8705L47.6775 25.779C48.1877 25.0928 48.9201 24.6049 49.75 24.3986C50.5798 24.1923 51.4555 24.2805 52.2275 24.648L88.6275 41.6845" fill="#EBEBEB"/>
<path d="M26.9104 60.4694L23.1729 46.1824L81.2699 31.4209L85.1308 46.0979L62.1989 76.1084L26.9104 60.4694Z" fill="#FAFAFA"/>
<path d="M26.9103 60.4501L27.5603 60.7296L29.4388 61.5551L36.5888 64.7076L62.2508 76.0501H62.1858L85.1113 46.0331V46.0851C84.5653 44.0051 83.9803 41.7886 83.3953 39.5851C82.6673 36.8291 81.9523 34.0991 81.2503 31.4406L81.3218 31.4861L23.1793 46.2151V46.1761C24.3493 50.6871 25.2788 54.2621 25.9158 56.7061C26.2343 57.9281 26.4748 58.8641 26.6373 59.5011C26.7218 59.8196 26.7803 60.0601 26.8258 60.2226L26.8843 60.4696C26.8843 60.4696 26.8843 60.3916 26.8193 60.2291L26.6243 59.5141C26.4553 58.8641 26.2083 57.9411 25.8833 56.7256C25.2333 54.2816 24.3038 50.7066 23.1143 46.1891L81.2113 31.4016H81.2633V31.4601C81.9588 34.1186 82.6803 36.8421 83.4018 39.5981C83.9933 41.8341 84.5718 44.0506 85.1178 46.0981L62.2508 76.1411H62.2118L36.5498 64.7726L29.3998 61.5941L27.5278 60.7621L26.9103 60.4501Z" fill="#E0E0E0"/>
<path d="M68.9127 44.395C68.9127 44.395 62.4127 46.163 54.3722 48.295C46.3317 50.427 39.8122 52.0975 39.8057 52.065C39.7992 52.0325 46.3057 50.297 54.3397 48.165C62.3737 46.033 68.8997 44.3625 68.9127 44.395Z" fill="#E0E0E0"/>
<path d="M75.692 49.7899C75.692 49.8224 66.9105 52.1364 56.0685 54.9899C45.2265 57.8434 36.432 60.0794 36.419 60.0469C36.406 60.0144 45.194 57.7004 56.0425 54.8469C66.891 51.9934 75.679 49.7574 75.692 49.7899Z" fill="#E0E0E0"/>
<path d="M77.3889 56.4786C77.3889 56.4786 69.0169 58.7211 58.6754 61.4121C48.3339 64.1031 39.9359 66.3001 39.9229 66.2351C39.9099 66.1701 48.2949 63.9926 58.6429 61.3016C68.9909 58.6106 77.3824 56.4461 77.3889 56.4786Z" fill="#E0E0E0"/>
<path d="M71.5197 64.2136H71.4612L71.2922 64.2591L70.6422 64.4476L68.2242 65.0976L60.2097 67.2751C57.0897 68.1201 54.2557 68.8611 52.2017 69.3876L49.7707 70.0376L49.1207 70.2001L48.9452 70.2391H48.8867C48.8867 70.2391 48.8867 70.2391 48.9452 70.2391L49.1142 70.1936L49.7642 70.0116L52.1887 69.3616L60.1902 67.2101C63.3102 66.3651 66.1442 65.6241 68.1917 65.0976L70.6292 64.4801L71.2792 64.3176L71.4482 64.2786L71.5197 64.2136Z" fill="#E0E0E0"/>
<path d="M65.5393 71.7404C65.5393 71.7404 63.6738 72.2734 61.3598 72.8649C59.0458 73.4564 57.1608 73.9049 57.1543 73.8724C57.1478 73.8399 59.0133 73.3394 61.3338 72.7479C63.6543 72.1564 65.5328 71.7079 65.5393 71.7404Z" fill="#E0E0E0"/>
<path d="M101.341 85.8001C101.274 85.807 101.207 85.807 101.14 85.8001L100.561 85.6636L98.3251 85.1046L90.1286 82.9921L77.9866 79.8136L70.8366 77.9221L67.0406 76.9211L66.0786 76.6676C65.7536 76.5831 65.4286 76.4921 65.1101 76.4206C64.4682 76.2929 63.8106 76.2644 63.1601 76.3361C61.8478 76.4864 60.6168 77.0484 59.6436 77.9416L56.7771 80.6001L51.4146 85.7156L42.3146 94.3671L36.1591 100.178L34.4756 101.745L34.0271 102.148L33.8711 102.278C33.8711 102.278 33.9101 102.219 34.0011 102.122L34.4236 101.693L36.0616 100.1L42.1391 94.2111L51.2001 85.5011L56.5496 80.3661L59.3901 77.6556C60.4169 76.7121 61.7162 76.1181 63.1016 75.9591C63.7932 75.8782 64.4933 75.9089 65.1751 76.0501C65.5196 76.1281 65.8251 76.2126 66.1631 76.2971L67.1251 76.5571C68.4251 76.8951 69.5886 77.5711 70.8301 77.8961C73.3131 78.5461 75.7961 78.8646 78.0776 79.4691L90.2066 82.7191L98.3706 84.9356L100.587 85.5856L101.166 85.7546C101.283 85.8001 101.348 85.8001 101.341 85.8001Z" fill="#E0E0E0"/>
<path d="M43.6734 162.37C45.8165 161.814 47.7497 160.642 49.2341 159C50.7185 157.357 51.6891 155.315 52.0259 153.127C53.0594 146.959 49.2179 141.174 43.4329 140.192C37.6479 139.211 32.1294 143.442 31.0829 149.591C30.6789 151.787 30.9343 154.054 31.8169 156.105C32.6996 158.156 34.1699 159.899 36.0424 161.116C19.5324 160.901 17.4004 178.542 17.4004 178.542L55.4904 184.977C55.4904 184.977 59.2539 167.408 43.6734 162.37Z" fill="#EBEBEB"/>
<path d="M286.917 25.7867L223.521 50.1731L239.956 92.9005L303.353 68.5141L286.917 25.7867Z" fill="#EBEBEB"/>
<path d="M287.312 26.2209C287.219 26.5002 287.094 26.7683 286.942 27.0204L285.772 29.2499L281.365 37.3814L266.59 64.1809L266.467 64.4019L266.226 64.3239L265.641 64.1354L236.099 54.6909L227.168 51.7659L224.75 50.9339C224.464 50.8503 224.185 50.7415 223.918 50.6089C224.214 50.652 224.505 50.7216 224.789 50.8169L227.246 51.5319L236.235 54.2749L265.83 63.5504L266.415 63.7324L266.051 63.8819L281.001 37.1669L285.551 29.1264C286.077 28.2229 286.5 27.5014 286.851 26.9554C286.986 26.6995 287.141 26.454 287.312 26.2209Z" fill="#E0E0E0"/>
<path d="M240.351 93.3401C240.195 93.2816 242.704 85.5921 245.967 76.1606C249.23 66.7291 252.005 59.1306 252.168 59.1826C252.33 59.2346 249.815 66.9306 246.552 76.3621C243.289 85.7936 240.52 93.3921 240.351 93.3401Z" fill="#E0E0E0"/>
<path d="M273.039 50.544C273.123 50.401 280.072 54.3985 288.554 59.4815C297.037 64.5645 303.842 68.8025 303.751 68.952C303.66 69.1015 296.718 65.0975 288.236 60.0145C279.753 54.9315 272.948 50.7 273.039 50.544Z" fill="#E0E0E0"/>
<path d="M269.146 123.429L265.655 153.099L309.675 158.278L313.166 128.608L269.146 123.429Z" fill="#EBEBEB"/>
<path d="M313.28 128.999C313.138 129.129 312.984 129.244 312.819 129.344L311.467 130.273L306.455 133.634L289.75 144.619L289.614 144.71L289.497 144.593L289.217 144.307L275.028 129.877C273.247 128.044 271.778 126.542 270.764 125.47L269.613 124.261C269.475 124.124 269.349 123.977 269.236 123.819C269.394 123.932 269.54 124.06 269.672 124.202L270.874 125.359L275.229 129.675L289.529 144.027L289.809 144.307H289.555L306.299 133.426L311.382 130.176L312.78 129.311C312.935 129.19 313.103 129.085 313.28 128.999Z" fill="#E0E0E0"/>
<path d="M265.772 153.485C265.694 153.407 269.483 149.728 274.222 145.275C278.96 140.823 282.886 137.274 282.964 137.352C283.042 137.43 279.253 141.109 274.514 145.568C269.776 150.027 265.843 153.569 265.772 153.485Z" fill="#E0E0E0"/>
<path d="M297.641 138.703C297.738 138.645 300.533 143.071 303.887 148.583C307.241 154.095 309.9 158.6 309.783 158.665C309.666 158.73 306.897 154.303 303.543 148.791C300.189 143.279 297.55 138.762 297.641 138.703Z" fill="#E0E0E0"/>
<path d="M299.948 244.835C303.25 243.132 307.131 242.885 310.79 243.535C312.74 243.86 314.807 244.452 316.146 245.927C317.485 247.403 317.739 250.003 316.205 251.277C315.288 252.031 314.014 252.148 312.825 252.128C309.958 252.096 306.78 251.595 304.492 253.318C303.192 254.299 302.314 255.918 300.754 256.418C299.973 256.599 299.154 256.521 298.421 256.195C297.688 255.869 297.081 255.313 296.692 254.611C295.946 253.177 295.781 251.51 296.23 249.957C296.413 248.875 296.843 247.849 297.488 246.96C298.133 246.071 298.975 245.344 299.948 244.835Z" fill="#EBEBEB"/>
<path d="M292.396 230.249C294.411 233.129 298.33 232.199 300.15 230.418C301.97 228.637 302.75 226.115 303.433 223.684C305.032 218.133 306.637 212.309 305.454 206.661C305.167 204.946 304.413 203.343 303.277 202.026C302.701 201.381 301.965 200.898 301.144 200.625C300.323 200.352 299.444 200.3 298.597 200.473C296.647 200.993 295.392 202.93 294.502 204.769C291.887 210.206 290.517 216.157 290.491 222.189C290.491 224.991 290.816 227.935 292.396 230.249Z" fill="#EBEBEB"/>
<path d="M286.858 234.384C289.049 231.784 289.458 227.994 288.49 224.744C287.521 221.494 285.318 218.719 282.776 216.457C279.794 213.799 276.321 211.75 272.552 210.425C271.092 209.834 269.523 209.565 267.95 209.638C267.165 209.683 266.403 209.921 265.731 210.328C265.059 210.736 264.498 211.303 264.095 211.978C263.016 214.026 264.05 216.528 265.161 218.55C267.131 222.137 269.378 225.564 271.882 228.8C273.897 231.4 276.198 233.955 279.266 235.125C282.334 236.295 285.526 236.145 287.151 234" fill="#EBEBEB"/>
<path d="M292.259 273.695C292.364 273.269 292.425 272.834 292.441 272.395C292.532 271.446 292.649 270.25 292.792 268.827C292.967 267.068 293.234 265.319 293.591 263.588C294.059 261.479 294.696 259.412 295.496 257.406C296.279 255.401 297.342 253.517 298.655 251.81C299.722 250.421 301.085 249.289 302.646 248.495C303.703 247.968 304.837 247.615 306.006 247.448C306.445 247.429 306.881 247.366 307.306 247.26C306.875 247.211 306.438 247.211 306.006 247.26C304.793 247.348 303.606 247.656 302.503 248.17C300.858 248.943 299.416 250.09 298.291 251.517C296.932 253.249 295.837 255.172 295.041 257.224C294.229 259.258 293.596 261.359 293.149 263.503C292.81 265.256 292.578 267.027 292.454 268.807C292.343 270.328 292.298 271.557 292.278 272.402C292.226 272.831 292.219 273.265 292.259 273.695Z" fill="#E0E0E0"/>
<path d="M292.506 270.946C292.544 270.745 292.555 270.539 292.538 270.335V268.6C292.538 267.092 292.538 264.914 292.61 262.223C292.746 256.835 293.208 251.037 294.105 242.866C294.956 235.183 296.094 226.239 297.296 220.428C297.55 219.128 297.81 217.919 298.057 216.873C298.304 215.826 298.486 214.923 298.707 214.201C298.928 213.48 299.006 212.96 299.11 212.511C299.169 212.317 299.204 212.116 299.214 211.913C299.128 212.097 299.058 212.289 299.006 212.485C298.876 212.921 298.707 213.473 298.499 214.149C298.291 214.825 298.05 215.761 297.784 216.801C297.517 217.841 297.205 219.05 296.9 220.35C295.413 227.219 294.296 234.162 293.552 241.15C292.649 249.34 292.252 256.796 292.213 262.197C292.181 264.895 292.213 267.079 292.304 268.587C292.35 269.295 292.382 269.887 292.415 270.322C292.417 270.533 292.448 270.743 292.506 270.946Z" fill="#E0E0E0"/>
<path d="M292.539 256.562C292.589 255.958 292.589 255.352 292.539 254.748C292.438 253.102 292.254 251.462 291.987 249.834C291.588 247.423 291.054 245.036 290.388 242.684C289.61 239.795 288.61 236.97 287.398 234.234C285.317 229.175 282.338 224.535 278.603 220.539C277.955 219.857 277.265 219.216 276.536 218.621C276.218 218.348 275.938 218.082 275.652 217.867L274.846 217.315C274.364 216.95 273.853 216.624 273.319 216.34C273.234 216.457 275.483 217.783 278.324 220.805C281.939 224.833 284.839 229.449 286.897 234.455C288.089 237.182 289.096 239.985 289.913 242.847C290.693 245.479 291.213 247.897 291.61 249.938C292.006 251.979 292.201 253.643 292.331 254.8C292.36 255.391 292.43 255.98 292.539 256.562Z" fill="#E0E0E0"/>
<path d="M278.642 281.931L280.085 301.671H305.441L306.884 281.931H278.642Z" fill="#E0E0E0"/>
<path d="M309.907 274.15H276.191V281.931H309.907V274.15Z" fill="#E0E0E0"/>
<path d="M276.191 300.917V303.075H277.777H309.354V300.917H276.191Z" fill="#EBEBEB"/>
<path d="M279.331 306.871L277.777 303.075H308.145L306.332 306.871H279.331Z" fill="#E0E0E0"/>
<path d="M306.417 288.386C306.381 288.45 306.34 288.511 306.293 288.568L305.916 289.068L304.441 290.96L304.376 291.044L304.311 290.953C303.381 289.653 302.14 287.957 300.684 285.935H300.892L297.317 290.992L297.206 291.155L297.076 291.005C295.776 289.432 294.327 287.755 292.838 285.961H293.085L292.851 286.26L289.062 291.005L288.938 291.168L288.821 290.999L285.246 285.942H285.454L281.047 290.96L280.969 291.044L280.911 290.947L279.533 288.626L279.182 288.015C279.138 287.945 279.101 287.871 279.071 287.794C279.071 287.794 279.13 287.853 279.221 287.989L279.611 288.581L281.06 290.856H280.917L285.253 285.779L285.363 285.649L285.461 285.792L289.068 290.823H288.828L292.604 286.065L292.838 285.773L292.962 285.623L293.085 285.773L297.31 290.823H297.07L300.684 285.792L300.788 285.643L300.892 285.792L304.441 290.869H304.311L305.851 289.029L306.261 288.548C306.358 288.431 306.41 288.379 306.417 288.386Z" fill="#F5F5F5"/>
<path d="M307.235 281.801C307.235 281.886 300.885 281.957 293.046 281.957C285.207 281.957 278.856 281.886 278.856 281.801C278.856 281.717 285.207 281.645 293.046 281.645C300.885 281.645 307.235 281.717 307.235 281.801Z" fill="#F5F5F5"/>
<path d="M308.523 303.283C308.523 303.374 301.613 303.446 293.098 303.446C284.583 303.446 277.674 303.374 277.674 303.283C277.674 303.192 284.577 303.127 293.098 303.127C301.62 303.127 308.523 303.199 308.523 303.283Z" fill="#F5F5F5"/>
<path d="M193.082 306L91.6815 306.052C87.7608 306.054 83.9998 304.499 81.2256 301.728C78.4513 298.958 76.891 295.199 76.8875 291.278L76.7705 62.8615C76.7688 60.6484 77.2031 58.4567 78.0486 56.4115C78.8942 54.3664 80.1343 52.5078 81.6983 50.942C83.2622 49.3763 85.1194 48.134 87.1636 47.2861C89.2078 46.4382 91.399 46.0013 93.612 46.0005L193.14 45.9485C197.105 45.9485 200.908 47.5236 203.711 50.3272C206.515 53.1309 208.09 56.9335 208.09 60.8985L208.214 290.881C208.21 294.892 206.614 298.738 203.777 301.573C200.939 304.408 197.093 306 193.082 306Z" fill="#455A64"/>
<path d="M78.9481 286L78.8311 66.0466C78.8397 61.285 80.7368 56.7213 84.1062 53.3568C87.4755 49.9923 92.042 48.1018 96.8036 48.1001L188.025 48.0481C190.386 48.0464 192.725 48.51 194.907 49.4123C197.09 50.3147 199.073 51.6381 200.744 53.3071C202.415 54.9761 203.74 56.9579 204.645 59.1393C205.55 61.3207 206.016 63.659 206.017 66.0206L206.134 285.974C206.135 288.336 205.672 290.674 204.769 292.857C203.867 295.039 202.544 297.022 200.875 298.693C199.206 300.364 197.224 301.69 195.042 302.594C192.861 303.499 190.523 303.965 188.161 303.966L96.9401 304.018C94.5749 304.019 92.2328 303.553 90.0478 302.648C87.8628 301.742 85.8779 300.415 84.2067 298.741C82.5354 297.067 81.2107 295.081 80.3084 292.894C79.406 290.708 78.9438 288.365 78.9481 286Z" fill="#263238"/>
<path d="M132.989 56.2444C132.601 56.2444 132.229 56.0903 131.955 55.8161C131.68 55.5418 131.526 55.1698 131.526 54.7819C131.526 54.394 131.68 54.022 131.955 53.7478C132.229 53.4735 132.601 53.3194 132.989 53.3194H151.767C151.967 53.3061 152.168 53.3339 152.356 53.4012C152.545 53.4685 152.718 53.5738 152.864 53.7106C153.01 53.8474 153.127 54.0128 153.206 54.1965C153.286 54.3803 153.327 54.5784 153.327 54.7787C153.327 54.9789 153.286 55.1771 153.206 55.3608C153.127 55.5445 153.01 55.7099 152.864 55.8467C152.718 55.9835 152.545 56.0888 152.356 56.1561C152.168 56.2234 151.967 56.2513 151.767 56.2379L132.989 56.2444Z" fill="#455A64"/>
<path d="M122.921 56.2509C122.632 56.2522 122.348 56.1675 122.107 56.0076C121.865 55.8477 121.677 55.6197 121.565 55.3526C121.454 55.0855 121.424 54.7912 121.479 54.5071C121.535 54.223 121.674 53.9618 121.878 53.7566C122.082 53.5514 122.343 53.4115 122.627 53.3545C122.911 53.2975 123.205 53.3261 123.473 53.4366C123.74 53.5471 123.969 53.7346 124.13 53.9752C124.291 54.2159 124.377 54.4989 124.377 54.7884C124.377 55.1752 124.224 55.5462 123.951 55.8203C123.678 56.0944 123.308 56.2492 122.921 56.2509Z" fill="#455A64"/>
<path d="M128.296 56.2446C128.007 56.2459 127.723 56.1612 127.482 56.0013C127.241 55.8413 127.052 55.6134 126.94 55.3463C126.829 55.0791 126.799 54.7849 126.854 54.5008C126.91 54.2166 127.049 53.9554 127.253 53.7502C127.457 53.5451 127.718 53.4051 128.002 53.3482C128.286 53.2912 128.58 53.3198 128.848 53.4303C129.115 53.5408 129.344 53.7282 129.505 53.9689C129.666 54.2095 129.752 54.4925 129.752 54.7821C129.752 55.1688 129.599 55.5398 129.326 55.8139C129.053 56.088 128.683 56.2428 128.296 56.2446Z" fill="#455A64"/>
<path d="M161.92 56.225C161.631 56.225 161.348 56.1391 161.107 55.9781C160.867 55.8171 160.679 55.5883 160.569 55.3207C160.458 55.0531 160.43 54.7587 160.487 54.4748C160.544 54.191 160.683 53.9304 160.889 53.7261C161.094 53.5218 161.355 53.3831 161.639 53.3274C161.923 53.2717 162.218 53.3016 162.485 53.4132C162.752 53.5249 162.98 53.7134 163.14 53.9548C163.3 54.1961 163.384 54.4795 163.383 54.769C163.383 54.9608 163.345 55.1507 163.272 55.3277C163.198 55.5048 163.09 55.6656 162.954 55.8009C162.818 55.9362 162.657 56.0433 162.48 56.1161C162.302 56.1889 162.112 56.2259 161.92 56.225Z" fill="#455A64"/>
<path d="M156.546 56.2314C156.256 56.2314 155.973 56.1456 155.733 55.9849C155.492 55.8242 155.305 55.5958 155.194 55.3286C155.084 55.0613 155.055 54.7673 155.111 54.4836C155.168 54.1999 155.307 53.9393 155.511 53.7348C155.716 53.5302 155.976 53.3909 156.26 53.3345C156.544 53.2781 156.838 53.307 157.105 53.4177C157.372 53.5284 157.601 53.7159 157.762 53.9564C157.922 54.1969 158.008 54.4796 158.008 54.7689C158.009 54.9612 157.972 55.1518 157.898 55.3296C157.825 55.5074 157.718 55.669 157.582 55.805C157.446 55.9409 157.284 56.0486 157.106 56.1218C156.928 56.195 156.738 56.2323 156.546 56.2314Z" fill="#455A64"/>
<path d="M188.999 51.0315H171.319C170.486 51.0312 169.674 51.3007 169.006 51.7998C168.339 52.2989 167.85 53.0008 167.614 53.8005L166.171 58.7535C165.911 59.6493 165.366 60.4361 164.619 60.9954C163.872 61.5546 162.964 61.856 162.031 61.854H122.862C121.929 61.8546 121.022 61.5536 120.274 60.996C119.527 60.4384 118.98 59.6541 118.715 58.76L117.265 53.807C117.03 53.0074 116.542 52.3058 115.874 51.8076C115.206 51.3094 114.394 51.0416 113.56 51.0445H95.8674C92.1432 51.0376 88.5686 52.51 85.9297 55.138C83.2908 57.7659 81.8035 61.3343 81.7949 65.0585L81.9119 286.462C81.9179 288.305 82.287 290.13 82.998 291.831C83.7091 293.532 84.7483 295.076 86.0563 296.376C87.3643 297.676 88.9154 298.705 90.6211 299.405C92.3268 300.105 94.1537 300.462 95.9974 300.456L189.11 300.411C192.834 300.417 196.409 298.945 199.048 296.317C201.687 293.689 203.174 290.121 203.182 286.397L203.065 65C203.047 61.2843 201.555 57.7276 198.919 55.1092C196.282 52.4909 192.715 51.0246 188.999 51.0315Z" fill="#FAFAFA"/>
<path d="M208.104 102.459C208.332 102.461 208.551 102.553 208.713 102.715C208.875 102.876 208.966 103.095 208.968 103.324V131.488C208.968 131.717 208.878 131.936 208.717 132.097C208.556 132.259 208.338 132.351 208.11 132.353L208.104 102.459Z" fill="#455A64"/>
<path d="M76.7899 120.952C76.5537 120.952 76.3272 121.046 76.1602 121.213C75.9932 121.38 75.8994 121.606 75.8994 121.842V138.983C75.9011 139.22 75.9964 139.446 76.1644 139.613C76.3325 139.78 76.5596 139.873 76.7964 139.873L76.7899 120.952Z" fill="#455A64"/>
<path d="M76.7772 96.2C76.6597 96.1999 76.5434 96.2232 76.435 96.2684C76.3265 96.3135 76.228 96.3797 76.1453 96.4631C76.0625 96.5464 75.997 96.6454 75.9526 96.7542C75.9083 96.863 75.8859 96.9795 75.8867 97.097V114.231C75.8884 114.468 75.9835 114.695 76.1513 114.863C76.3192 115.031 76.5464 115.126 76.7837 115.128L76.7772 96.2Z" fill="#455A64"/>
<path d="M76.7706 77.6685C76.5654 77.6685 76.3687 77.7499 76.2236 77.895C76.0786 78.0401 75.9971 78.2368 75.9971 78.442V85.7025C75.9971 85.8037 76.0171 85.904 76.0561 85.9975C76.095 86.091 76.1521 86.1758 76.224 86.2471C76.2959 86.3184 76.3812 86.3748 76.4751 86.413C76.5689 86.4511 76.6693 86.4703 76.7706 86.4695V77.6685Z" fill="#455A64"/>
<path d="M174.518 58.24H173.614V59.5075H174.518V58.24Z" fill="white"/>
<path d="M175.987 57.6746H175.083V59.5011H175.987V57.6746Z" fill="white"/>
<path d="M177.456 57.252H176.553V59.501H177.456V57.252Z" fill="white"/>
<path d="M178.925 56.4331H178.021V59.5011H178.925V56.4331Z" fill="white"/>
<path d="M192.25 59.5594H187.7C187.658 59.5603 187.616 59.5527 187.576 59.537C187.537 59.5214 187.501 59.4981 187.471 59.4684C187.44 59.4388 187.416 59.4034 187.4 59.3643C187.383 59.3252 187.375 59.2833 187.375 59.2409V56.9854C187.375 56.9003 187.408 56.8186 187.468 56.7579C187.527 56.6971 187.608 56.6621 187.693 56.6604H192.243C192.265 56.6619 192.286 56.6713 192.302 56.6868C192.317 56.7024 192.326 56.723 192.328 56.7449V57.4859H192.815C192.826 57.4859 192.837 57.4881 192.847 57.4924C192.857 57.4967 192.866 57.5031 192.873 57.511C192.88 57.5189 192.886 57.5283 192.89 57.5386C192.893 57.5488 192.894 57.5596 192.893 57.5704V58.6494C192.893 58.6718 192.885 58.6933 192.869 58.7092C192.853 58.725 192.831 58.7339 192.809 58.7339H192.321V59.4749C192.322 59.4852 192.321 59.4955 192.318 59.5053C192.315 59.5151 192.31 59.5242 192.303 59.532C192.297 59.5399 192.289 59.5463 192.279 59.551C192.27 59.5557 192.26 59.5586 192.25 59.5594ZM192.165 56.8229H187.7C187.659 56.8229 187.619 56.8393 187.59 56.8686C187.56 56.8978 187.544 56.9375 187.544 56.9789V59.2344C187.544 59.2758 187.56 59.3155 187.59 59.3447C187.619 59.374 187.659 59.3904 187.7 59.3904H192.146V58.6494C192.146 58.6287 192.154 58.6089 192.169 58.5942C192.183 58.5796 192.203 58.5714 192.224 58.5714H192.711V57.6484H192.25C192.229 57.6484 192.209 57.6402 192.195 57.6256C192.18 57.6109 192.172 57.5911 192.172 57.5704L192.165 56.8229Z" fill="white"/>
<path d="M187.921 59.0266V57.2001L191.788 57.1936V58.0191V58.2011V59.0266H187.921Z" fill="white"/>
<path d="M183.241 59.3906C183.241 59.325 183.222 59.2609 183.185 59.2064C183.149 59.1519 183.097 59.1094 183.036 59.0843C182.976 59.0592 182.909 59.0527 182.845 59.0655C182.781 59.0782 182.722 59.1098 182.675 59.1562C182.629 59.2025 182.597 59.2616 182.584 59.3259C182.572 59.3902 182.578 59.4569 182.603 59.5174C182.628 59.578 182.671 59.6298 182.725 59.6662C182.78 59.7026 182.844 59.7221 182.91 59.7221C182.998 59.7221 183.082 59.6872 183.144 59.625C183.206 59.5628 183.241 59.4785 183.241 59.3906Z" fill="white"/>
<path d="M181.778 58.5975L182.201 59.0135C182.389 58.827 182.644 58.7223 182.909 58.7223C183.175 58.7223 183.429 58.827 183.618 59.0135L184.04 58.591C183.739 58.2924 183.333 58.1243 182.909 58.123C182.699 58.1235 182.49 58.1656 182.296 58.247C182.102 58.3285 181.926 58.4476 181.778 58.5975Z" fill="white"/>
<path d="M182.909 57.2C182.237 57.2006 181.592 57.4669 181.115 57.941L181.538 58.3635C181.903 58.0022 182.396 57.7996 182.909 57.7996C183.423 57.7996 183.916 58.0022 184.281 58.3635L184.703 57.941C184.468 57.7051 184.188 57.5181 183.88 57.391C183.572 57.2638 183.242 57.1989 182.909 57.2Z" fill="white"/>
<path d="M180.426 57.2456L180.848 57.6681C181.117 57.3951 181.438 57.1786 181.792 57.0313C182.146 56.884 182.526 56.8088 182.909 56.8101C183.681 56.8107 184.422 57.1168 184.969 57.6616L185.392 57.2391C185.066 56.9128 184.679 56.654 184.253 56.4774C183.827 56.3008 183.37 56.21 182.909 56.21C182.448 56.21 181.991 56.3008 181.565 56.4774C181.139 56.654 180.752 56.9128 180.426 57.2391V57.2456Z" fill="white"/>
<path d="M106.756 112.905C106.742 114.562 106.236 116.178 105.304 117.547C104.372 118.917 103.054 119.98 101.518 120.601C99.9812 121.222 98.2952 121.373 96.6728 121.036C95.0504 120.699 93.5644 119.889 92.4027 118.707C91.241 117.525 90.4558 116.025 90.1464 114.398C89.837 112.77 90.0172 111.086 90.6644 109.561C91.3115 108.035 92.3965 106.736 93.7821 105.827C95.1677 104.918 96.7917 104.441 98.4487 104.455C99.549 104.464 100.637 104.69 101.65 105.12C102.663 105.55 103.581 106.175 104.352 106.959C105.124 107.744 105.733 108.673 106.145 109.693C106.558 110.713 106.765 111.805 106.756 112.905Z" fill="#4C1D95"/>
<path d="M148.634 106.451C148.634 106.542 140.834 106.555 131.279 106.451C121.724 106.347 113.918 106.236 113.918 106.139C113.918 106.041 121.718 106.035 131.279 106.139C140.841 106.243 148.641 106.36 148.634 106.451Z" fill="#263238"/>
<path d="M176.968 114.4C176.968 114.491 162.798 114.452 145.319 114.309C127.841 114.166 113.671 113.971 113.671 113.88C113.671 113.789 127.841 113.828 145.326 113.971C162.811 114.114 176.968 114.303 176.968 114.4Z" fill="#E0E0E0"/>
<path d="M176.916 120.647C176.916 120.738 162.746 120.699 145.268 120.556C127.789 120.413 113.6 120.25 113.6 120.127C113.6 120.003 127.763 120.075 145.248 120.218C162.733 120.361 176.916 120.549 176.916 120.647Z" fill="#E0E0E0"/>
<path d="M195.598 105.248C195.598 105.346 192.53 105.391 188.753 105.365C184.977 105.339 181.915 105.229 181.915 105.138C181.915 105.047 184.977 104.995 188.76 105.027C192.543 105.06 195.598 105.157 195.598 105.248Z" fill="#263238"/>
<path d="M190.3 113.965L190.865 115.135C190.912 115.235 190.983 115.322 191.071 115.389C191.16 115.456 191.263 115.5 191.372 115.518L192.672 115.713C192.806 115.719 192.934 115.765 193.04 115.846C193.146 115.927 193.224 116.038 193.264 116.165C193.305 116.292 193.305 116.429 193.266 116.556C193.226 116.683 193.148 116.795 193.043 116.876L192.1 117.78C192.021 117.857 191.961 117.953 191.926 118.058C191.891 118.163 191.882 118.275 191.899 118.385L192.113 119.685C192.133 119.811 192.117 119.939 192.067 120.057C192.018 120.174 191.937 120.276 191.833 120.35C191.729 120.424 191.607 120.468 191.48 120.477C191.352 120.485 191.225 120.459 191.112 120.399L189.968 119.782C189.868 119.729 189.757 119.701 189.643 119.701C189.53 119.701 189.418 119.729 189.318 119.782L188.161 120.38C188.05 120.454 187.919 120.491 187.785 120.488C187.652 120.484 187.523 120.44 187.416 120.36C187.308 120.28 187.228 120.17 187.186 120.043C187.144 119.917 187.142 119.78 187.18 119.652L187.407 118.352C187.43 118.244 187.425 118.131 187.392 118.025C187.359 117.919 187.299 117.824 187.219 117.747L186.296 116.831C186.205 116.741 186.14 116.628 186.111 116.503C186.081 116.379 186.087 116.249 186.127 116.127C186.168 116.006 186.242 115.899 186.341 115.817C186.439 115.736 186.559 115.684 186.686 115.667L187.986 115.492C188.096 115.479 188.201 115.438 188.291 115.374C188.381 115.309 188.452 115.222 188.499 115.122L189.084 113.965C189.143 113.854 189.231 113.762 189.338 113.698C189.445 113.634 189.567 113.6 189.692 113.6C189.817 113.6 189.939 113.634 190.046 113.698C190.153 113.762 190.241 113.854 190.3 113.965Z" fill="#4C1D95"/>
<path d="M157.904 106.074C157.901 106.385 157.806 106.688 157.631 106.945C157.456 107.203 157.209 107.402 156.921 107.519C156.632 107.635 156.316 107.664 156.011 107.601C155.707 107.538 155.428 107.385 155.209 107.164C154.991 106.942 154.844 106.66 154.786 106.355C154.727 106.049 154.761 105.733 154.883 105.447C155.004 105.16 155.208 104.916 155.468 104.745C155.728 104.575 156.033 104.485 156.344 104.488C156.55 104.489 156.755 104.532 156.945 104.612C157.135 104.693 157.307 104.81 157.452 104.957C157.597 105.105 157.712 105.279 157.789 105.471C157.866 105.662 157.905 105.867 157.904 106.074Z" fill="#4C1D95"/>
<path d="M202.585 90.8961C202.585 90.9871 175.512 90.8441 142.135 90.5711C108.757 90.2981 81.6846 89.9991 81.6846 89.9211C81.6846 89.8431 108.751 89.9731 142.135 90.2461C175.519 90.5191 202.591 90.8051 202.585 90.8961Z" fill="#E0E0E0"/>
<path d="M202.234 134.199C202.234 134.297 175.155 134.147 141.784 133.874C108.413 133.601 81.334 133.302 81.334 133.224C81.334 133.146 108.406 133.276 141.784 133.549C175.161 133.822 202.234 134.108 202.234 134.199Z" fill="#E0E0E0"/>
<path d="M103.594 205.221C106.866 201.949 106.866 196.644 103.594 193.372C100.322 190.1 95.0168 190.1 91.7448 193.372C88.4728 196.644 88.4728 201.949 91.7448 205.221C95.0168 208.493 100.322 208.493 103.594 205.221Z" fill="#4C1D95"/>
<path d="M147.926 192.913C147.926 193.004 140.159 193.017 130.571 192.913C120.984 192.809 113.21 192.699 113.21 192.601C113.21 192.504 121.01 192.497 130.571 192.601C140.133 192.705 147.933 192.822 147.926 192.913Z" fill="#263238"/>
<path d="M176.26 200.85C176.26 200.941 162.09 200.902 144.611 200.759C127.133 200.616 112.963 200.421 112.963 200.33C112.963 200.239 127.133 200.278 144.618 200.421C162.103 200.564 176.26 200.765 176.26 200.85Z" fill="#E0E0E0"/>
<path d="M176.208 207.109C176.208 207.2 162.038 207.161 144.559 207.018C127.081 206.875 112.91 206.68 112.917 206.589C112.923 206.498 127.08 206.537 144.565 206.68C162.05 206.823 176.208 207.012 176.208 207.109Z" fill="#E0E0E0"/>
<path d="M194.889 191.711C194.889 191.808 191.827 191.854 188.044 191.828C184.261 191.802 181.206 191.691 181.206 191.6C181.206 191.509 184.268 191.457 188.051 191.49C191.834 191.522 194.889 191.62 194.889 191.711Z" fill="#263238"/>
<path d="M189.585 200.428L190.151 201.598C190.198 201.698 190.268 201.785 190.357 201.852C190.445 201.919 190.548 201.963 190.658 201.981L191.958 202.176C192.091 202.182 192.219 202.228 192.325 202.309C192.431 202.39 192.509 202.501 192.55 202.628C192.59 202.755 192.59 202.892 192.551 203.019C192.511 203.146 192.433 203.258 192.328 203.34L191.386 204.243C191.306 204.32 191.247 204.416 191.211 204.521C191.176 204.626 191.167 204.738 191.184 204.848L191.399 206.148C191.418 206.274 191.402 206.403 191.352 206.52C191.303 206.638 191.222 206.739 191.118 206.813C191.014 206.887 190.892 206.931 190.765 206.94C190.638 206.949 190.51 206.922 190.398 206.863L189.254 206.213C189.154 206.159 189.042 206.131 188.929 206.131C188.815 206.131 188.704 206.159 188.604 206.213L187.447 206.811C187.335 206.884 187.204 206.922 187.07 206.918C186.937 206.915 186.808 206.87 186.701 206.791C186.593 206.711 186.513 206.6 186.471 206.474C186.429 206.347 186.427 206.21 186.465 206.083L186.699 204.783C186.721 204.674 186.715 204.561 186.68 204.455C186.646 204.349 186.586 204.254 186.504 204.178L185.581 203.262C185.49 203.172 185.426 203.058 185.396 202.934C185.366 202.81 185.372 202.679 185.412 202.558C185.453 202.437 185.527 202.329 185.626 202.248C185.725 202.167 185.844 202.115 185.971 202.098L187.271 201.923C187.381 201.91 187.486 201.869 187.576 201.804C187.666 201.739 187.738 201.652 187.785 201.552L188.37 200.395C188.431 200.286 188.521 200.197 188.63 200.135C188.739 200.074 188.862 200.043 188.987 200.047C189.112 200.05 189.233 200.087 189.339 200.154C189.444 200.221 189.529 200.316 189.585 200.428Z" fill="#4C1D95"/>
<path d="M157.17 192.85C157.339 191.998 156.785 191.17 155.933 191C155.081 190.831 154.253 191.385 154.084 192.237C153.915 193.089 154.468 193.917 155.32 194.086C156.172 194.255 157 193.702 157.17 192.85Z" fill="#4C1D95"/>
<path d="M201.877 177.359C201.877 177.45 174.804 177.307 141.427 177.034C108.049 176.761 80.9766 176.462 80.9766 176.384C80.9766 176.306 108.043 176.436 141.427 176.709C174.811 176.982 201.883 177.268 201.877 177.359Z" fill="#E0E0E0"/>
<path d="M201.525 220.662C201.525 220.76 174.875 220.584 141.992 220.272C109.108 219.96 82.458 219.622 82.458 219.544C82.458 219.466 109.108 219.622 141.998 219.934C174.888 220.246 201.525 220.571 201.525 220.662Z" fill="#E0E0E0"/>
<path d="M105.377 281.593C105.363 283.25 104.858 284.865 103.925 286.235C102.993 287.605 101.676 288.667 100.14 289.289C98.6042 289.91 96.9186 290.062 95.2963 289.725C93.6741 289.388 92.188 288.578 91.0261 287.397C89.8641 286.216 89.0784 284.717 88.7682 283.09C88.4581 281.462 88.6374 279.779 89.2836 278.254C89.9297 276.728 91.0137 275.428 92.3984 274.519C93.7832 273.609 95.4065 273.13 97.0633 273.143C99.286 273.162 101.41 274.063 102.969 275.647C104.528 277.232 105.394 279.37 105.377 281.593Z" fill="#E0E0E0"/>
<path d="M147.257 275.145C147.257 275.236 139.457 275.249 129.895 275.145C120.334 275.041 112.54 274.93 112.54 274.833C112.54 274.735 120.34 274.729 129.902 274.833C139.463 274.937 147.257 275.054 147.257 275.145Z" fill="#263238"/>
<path d="M175.583 283.095C175.583 283.186 161.413 283.147 143.941 283.004C126.469 282.861 112.293 282.666 112.293 282.575C112.293 282.484 126.463 282.523 143.941 282.666C161.42 282.809 175.583 282.997 175.583 283.095Z" fill="#E0E0E0"/>
<path d="M175.532 289.334C175.532 289.432 161.362 289.393 143.89 289.25C126.418 289.107 112.241 288.912 112.241 288.821C112.241 288.73 126.411 288.762 143.89 288.905C161.368 289.048 175.538 289.25 175.532 289.334Z" fill="#E0E0E0"/>
<path d="M194.2 273.942C194.2 274.033 191.139 274.085 187.362 274.053C183.586 274.02 180.518 273.923 180.518 273.832C180.518 273.741 183.586 273.689 187.362 273.715C191.139 273.741 194.2 273.851 194.2 273.942Z" fill="#263238"/>
<path d="M156.499 274.768C156.497 275.079 156.402 275.382 156.227 275.64C156.052 275.897 155.805 276.096 155.516 276.213C155.228 276.33 154.912 276.358 154.607 276.295C154.302 276.232 154.023 276.08 153.805 275.858C153.587 275.636 153.439 275.355 153.381 275.049C153.323 274.743 153.357 274.427 153.478 274.141C153.6 273.855 153.803 273.611 154.063 273.44C154.324 273.269 154.628 273.179 154.939 273.182C155.146 273.184 155.35 273.226 155.54 273.307C155.731 273.387 155.903 273.505 156.048 273.652C156.193 273.799 156.307 273.973 156.385 274.165C156.462 274.356 156.501 274.561 156.499 274.768Z" fill="#4C1D95"/>
<path d="M202.905 134.209L82.3662 133.22L82.011 176.522L202.549 177.511L202.905 134.209Z" fill="#F5F5F5"/>
<path d="M104.197 161.147C107.469 157.875 107.469 152.57 104.197 149.298C100.925 146.026 95.6203 146.026 92.3483 149.298C89.0763 152.57 89.0763 157.875 92.3483 161.147C95.6203 164.419 100.925 164.419 104.197 161.147Z" fill="#455A64"/>
<path d="M148.531 148.85C148.531 148.947 140.731 148.96 131.176 148.882C121.621 148.804 113.814 148.661 113.814 148.57C113.814 148.479 121.614 148.46 131.176 148.57C140.737 148.681 148.531 148.746 148.531 148.85Z" fill="#263238"/>
<path d="M176.864 156.786C176.864 156.884 162.694 156.838 145.216 156.695C127.737 156.552 113.567 156.364 113.567 156.266C113.567 156.169 127.737 156.214 145.216 156.357C162.694 156.5 176.864 156.695 176.864 156.786Z" fill="#E0E0E0"/>
<path d="M176.813 163.033C176.813 163.124 162.643 163.085 145.164 162.942C127.686 162.799 113.516 162.611 113.516 162.513C113.516 162.416 127.686 162.461 145.171 162.604C162.656 162.747 176.813 162.942 176.813 163.033Z" fill="#E0E0E0"/>
<path d="M195.5 147.641C195.5 147.732 192.432 147.784 188.655 147.752C186.374 147.791 184.091 147.715 181.817 147.524C181.817 147.433 184.879 147.381 188.662 147.414C190.944 147.374 193.226 147.45 195.5 147.641Z" fill="#263238"/>
<path d="M190.189 156.357C190.189 156.357 190.137 156.286 190.02 156.182C189.937 156.113 189.839 156.065 189.733 156.044C189.628 156.022 189.519 156.027 189.415 156.058C189.27 156.098 189.146 156.194 189.071 156.325C188.986 156.468 188.902 156.663 188.811 156.851L188.512 157.501C188.459 157.638 188.372 157.758 188.257 157.849C188.143 157.941 188.007 158 187.862 158.021L187.023 158.151L186.581 158.216C186.457 158.238 186.344 158.302 186.263 158.398C186.177 158.497 186.13 158.623 186.13 158.753C186.13 158.883 186.177 159.009 186.263 159.107L187.004 159.835L187.199 160.023C187.277 160.098 187.341 160.186 187.387 160.283C187.478 160.488 187.494 160.718 187.433 160.933C187.368 161.302 187.303 161.679 187.238 162.064C187.217 162.14 187.214 162.218 187.228 162.295C187.242 162.372 187.274 162.444 187.32 162.507C187.367 162.569 187.427 162.621 187.496 162.657C187.565 162.693 187.641 162.712 187.719 162.714C187.868 162.714 188.005 162.636 188.2 162.539L188.752 162.259C188.941 162.146 189.141 162.054 189.35 161.986C189.469 161.963 189.591 161.964 189.709 161.988C189.828 162.013 189.94 162.061 190.039 162.129L191.079 162.688C191.145 162.72 191.216 162.739 191.289 162.742C191.361 162.745 191.434 162.733 191.501 162.707C191.569 162.68 191.631 162.64 191.682 162.589C191.734 162.538 191.774 162.477 191.801 162.409C191.846 162.258 191.846 162.098 191.801 161.947C191.801 161.765 191.749 161.59 191.716 161.414L191.638 160.888C191.599 160.682 191.639 160.468 191.749 160.29C191.859 160.148 191.983 160.017 192.119 159.9L192.477 159.568L192.815 159.25C192.907 159.167 192.97 159.058 192.997 158.938C193.018 158.823 193.003 158.705 192.954 158.599C192.905 158.493 192.825 158.405 192.724 158.346C192.491 158.271 192.252 158.219 192.009 158.19L191.359 158.073C191.248 158.064 191.141 158.031 191.043 157.977C190.946 157.923 190.861 157.85 190.793 157.761C190.707 157.611 190.631 157.455 190.566 157.293C190.423 157.015 190.307 156.723 190.221 156.422C190.401 156.679 190.557 156.951 190.689 157.235C190.759 157.383 190.837 157.526 190.923 157.664C190.982 157.731 191.054 157.785 191.135 157.823C191.215 157.861 191.302 157.882 191.391 157.885L192.041 157.976C192.312 157.996 192.578 158.05 192.834 158.138C192.946 158.2 193.042 158.287 193.114 158.393C193.186 158.498 193.232 158.619 193.249 158.746C193.265 158.872 193.251 159.001 193.209 159.121C193.166 159.242 193.096 159.35 193.003 159.438L192.665 159.763L192.321 160.108C192.203 160.207 192.096 160.318 192.002 160.439C191.935 160.558 191.912 160.696 191.937 160.829C191.97 161.005 191.996 161.18 192.028 161.356C192.061 161.531 192.087 161.707 192.119 161.889C192.185 162.101 192.185 162.327 192.119 162.539C192.078 162.65 192.014 162.751 191.931 162.836C191.848 162.921 191.748 162.987 191.637 163.031C191.527 163.074 191.409 163.094 191.29 163.089C191.172 163.084 191.056 163.054 190.949 163L189.903 162.441C189.837 162.391 189.761 162.356 189.681 162.337C189.6 162.317 189.516 162.316 189.435 162.331C189.258 162.398 189.086 162.479 188.921 162.571L188.375 162.851L188.096 162.994C187.98 163.047 187.853 163.071 187.725 163.065C187.603 163.059 187.483 163.027 187.374 162.97C187.264 162.914 187.169 162.834 187.093 162.738C187.017 162.641 186.963 162.529 186.934 162.409C186.905 162.29 186.903 162.166 186.926 162.045C186.997 161.661 187.069 161.284 187.134 160.92C187.187 160.776 187.187 160.617 187.134 160.472C187.052 160.332 186.943 160.208 186.815 160.108L186.042 159.25C185.912 159.098 185.84 158.904 185.84 158.704C185.84 158.504 185.912 158.31 186.042 158.158C186.169 158.017 186.342 157.926 186.529 157.898L186.978 157.839L187.823 157.735C187.933 157.723 188.038 157.681 188.127 157.613C188.215 157.546 188.283 157.455 188.323 157.352L188.642 156.741C188.746 156.552 188.83 156.383 188.934 156.208C189.04 156.053 189.2 155.944 189.383 155.902C189.505 155.873 189.633 155.877 189.753 155.913C189.873 155.95 189.981 156.018 190.065 156.11C190.176 156.26 190.195 156.351 190.189 156.357Z" fill="#263238"/>
<path d="M157.799 148.466C157.797 148.778 157.702 149.081 157.527 149.338C157.352 149.595 157.105 149.795 156.816 149.912C156.528 150.028 156.211 150.057 155.907 149.994C155.602 149.93 155.323 149.778 155.105 149.556C154.887 149.335 154.739 149.053 154.681 148.747C154.623 148.442 154.657 148.126 154.778 147.839C154.899 147.553 155.103 147.309 155.363 147.138C155.623 146.968 155.928 146.878 156.239 146.88C156.656 146.886 157.054 147.055 157.346 147.352C157.638 147.649 157.801 148.05 157.799 148.466Z" fill="#4C1D95"/>
<path d="M202.996 220.533L82.458 219.544L82.1028 262.846L202.641 263.835L202.996 220.533Z" fill="#F5F5F5"/>
<path d="M104.288 247.468C107.56 244.196 107.56 238.891 104.288 235.619C101.016 232.347 95.7112 232.347 92.4391 235.619C89.1671 238.891 89.1671 244.196 92.4391 247.468C95.7111 250.74 101.016 250.74 104.288 247.468Z" fill="#455A64"/>
<path d="M148.622 235.163C148.622 235.254 140.822 235.267 131.267 235.163C121.712 235.059 113.905 234.949 113.905 234.851C113.905 234.754 121.705 234.747 131.267 234.851C140.828 234.955 148.622 235.072 148.622 235.163Z" fill="#263238"/>
<path d="M176.955 243.1C176.955 243.191 162.785 243.152 145.307 243.009C127.828 242.866 113.658 242.671 113.658 242.58C113.658 242.489 127.828 242.528 145.307 242.671C162.785 242.814 176.955 243.015 176.955 243.1Z" fill="#E0E0E0"/>
<path d="M176.903 249.36C176.903 249.451 162.733 249.412 145.255 249.269C127.776 249.126 113.6 248.95 113.6 248.84C113.6 248.729 127.77 248.788 145.255 248.931C162.74 249.074 176.903 249.262 176.903 249.36Z" fill="#E0E0E0"/>
<path d="M195.584 233.961C195.584 234.058 192.516 234.104 188.739 234.078C184.963 234.052 181.901 233.941 181.901 233.85C181.901 233.759 184.963 233.707 188.746 233.74C192.529 233.772 195.584 233.87 195.584 233.961Z" fill="#263238"/>
<path d="M190.299 242.678C190.299 242.678 190.247 242.606 190.13 242.509C190.048 242.438 189.95 242.39 189.844 242.367C189.739 242.344 189.629 242.348 189.526 242.379C189.382 242.421 189.259 242.516 189.181 242.645C189.097 242.795 189.012 242.99 188.921 243.178C188.83 243.367 188.726 243.581 188.622 243.796C188.571 243.934 188.484 244.055 188.37 244.148C188.255 244.241 188.118 244.301 187.972 244.322L187.134 244.446L186.692 244.517C186.596 244.531 186.505 244.571 186.43 244.633C186.356 244.695 186.299 244.776 186.267 244.868C186.235 244.96 186.228 245.058 186.248 245.154C186.268 245.249 186.314 245.336 186.38 245.408L187.121 246.129L187.316 246.318C187.396 246.393 187.46 246.483 187.504 246.584C187.599 246.788 187.615 247.019 187.55 247.234C187.485 247.607 187.42 247.984 187.355 248.365C187.338 248.438 187.338 248.514 187.355 248.587C187.371 248.66 187.404 248.728 187.45 248.787C187.496 248.846 187.554 248.894 187.621 248.928C187.688 248.962 187.761 248.98 187.836 248.983C188.009 248.973 188.176 248.914 188.317 248.814L188.869 248.528C189.059 248.417 189.259 248.325 189.467 248.255C189.708 248.212 189.955 248.266 190.156 248.404L191.196 248.963C191.262 248.995 191.333 249.013 191.405 249.016C191.478 249.019 191.55 249.007 191.618 248.981C191.686 248.955 191.748 248.915 191.799 248.864C191.851 248.812 191.891 248.751 191.918 248.684C191.963 248.533 191.963 248.373 191.918 248.222C191.918 248.04 191.866 247.858 191.833 247.683L191.755 247.163C191.715 246.956 191.755 246.743 191.866 246.565C191.976 246.423 192.1 246.292 192.236 246.175L192.594 245.843L192.932 245.518C193.026 245.437 193.09 245.327 193.114 245.206C193.134 245.092 193.119 244.975 193.07 244.87C193.021 244.765 192.941 244.678 192.841 244.621C192.609 244.543 192.369 244.49 192.126 244.465L191.476 244.348C191.365 244.337 191.257 244.303 191.16 244.248C191.062 244.193 190.977 244.119 190.91 244.03C190.824 243.881 190.748 243.727 190.683 243.568C190.538 243.288 190.422 242.994 190.338 242.691C190.516 242.95 190.673 243.224 190.806 243.51C190.875 243.655 190.954 243.796 191.04 243.932C191.098 244 191.17 244.055 191.251 244.095C191.331 244.134 191.419 244.156 191.508 244.16L192.158 244.251C192.41 244.273 192.659 244.323 192.899 244.4C193.048 244.479 193.169 244.604 193.244 244.755C193.318 244.907 193.343 245.078 193.315 245.245C193.287 245.424 193.2 245.588 193.068 245.713L192.73 246.038L192.386 246.376C192.269 246.478 192.163 246.592 192.067 246.714C191.999 246.832 191.976 246.97 192.002 247.104C192.035 247.28 192.061 247.449 192.093 247.624C192.126 247.8 192.152 247.982 192.184 248.164C192.247 248.376 192.247 248.601 192.184 248.814C192.141 248.924 192.075 249.024 191.991 249.107C191.907 249.191 191.806 249.256 191.696 249.299C191.585 249.341 191.467 249.361 191.349 249.356C191.23 249.35 191.114 249.321 191.008 249.269C190.663 249.087 190.312 248.905 189.961 248.71C189.825 248.614 189.658 248.575 189.493 248.599C189.316 248.669 189.145 248.751 188.98 248.846L188.434 249.126L188.154 249.269C188.037 249.316 187.911 249.338 187.784 249.334C187.662 249.327 187.542 249.295 187.434 249.239C187.325 249.183 187.23 249.104 187.154 249.008C187.078 248.912 187.024 248.801 186.995 248.682C186.965 248.563 186.962 248.44 186.984 248.32C187.056 247.936 187.127 247.559 187.192 247.189C187.246 247.044 187.246 246.885 187.192 246.74C187.106 246.603 186.999 246.48 186.874 246.376L186.133 245.629C186.002 245.477 185.931 245.283 185.931 245.083C185.931 244.882 186.002 244.689 186.133 244.537C186.262 244.396 186.433 244.303 186.62 244.27L187.069 244.212L187.914 244.108C188.024 244.098 188.13 244.057 188.218 243.991C188.307 243.924 188.375 243.834 188.414 243.731L188.733 243.12C188.837 242.925 188.921 242.756 189.025 242.587C189.129 242.428 189.289 242.316 189.474 242.275C189.591 242.252 189.712 242.26 189.825 242.296C189.939 242.332 190.041 242.396 190.124 242.483C190.299 242.587 190.299 242.678 190.299 242.678Z" fill="#263238"/>
<path d="M157.891 234.786C157.888 235.098 157.794 235.401 157.619 235.658C157.444 235.915 157.196 236.115 156.908 236.232C156.62 236.348 156.303 236.377 155.998 236.314C155.694 236.25 155.415 236.098 155.197 235.876C154.979 235.655 154.831 235.373 154.773 235.068C154.715 234.762 154.748 234.446 154.87 234.16C154.991 233.873 155.195 233.629 155.455 233.458C155.715 233.288 156.02 233.198 156.331 233.2C156.538 233.202 156.742 233.245 156.932 233.325C157.122 233.406 157.295 233.523 157.44 233.67C157.584 233.818 157.699 233.992 157.776 234.184C157.854 234.375 157.893 234.58 157.891 234.786Z" fill="#4C1D95"/>
<path d="M147.529 74.8417L137.428 74.7588C136.621 74.7522 135.96 75.4016 135.954 76.2093L135.892 83.801C135.885 84.6087 136.534 85.2688 137.342 85.2755L147.443 85.3583C148.25 85.365 148.91 84.7156 148.917 83.9079L148.979 76.3161C148.986 75.5084 148.337 74.8483 147.529 74.8417Z" fill="#4C1D95"/>
<path d="M148.277 75.244C148.169 75.4436 148.033 75.6273 147.874 75.79C147.601 76.128 147.224 76.609 146.685 77.2005L144.891 79.261L143.818 80.47C143.632 80.6966 143.435 80.9136 143.227 81.12C142.963 81.3376 142.625 81.4427 142.284 81.4125C141.947 81.3774 141.637 81.2118 141.42 80.951L140.841 80.301L139.756 79.105L137.936 77.0705C137.416 76.4855 137.006 76.011 136.727 75.673C136.567 75.5118 136.43 75.3305 136.317 75.1335C136.317 75.1335 136.512 75.2765 136.824 75.5885C137.136 75.9005 137.572 76.3425 138.124 76.8885L139.996 78.8775L141.101 80.0605L141.68 80.7105C141.759 80.8087 141.856 80.8902 141.967 80.9502C142.077 81.0103 142.199 81.0478 142.324 81.0605C142.449 81.0732 142.576 81.0609 142.696 81.0242C142.817 80.9876 142.928 80.9274 143.025 80.847C143.201 80.691 143.402 80.4375 143.584 80.2425L144.67 79.0465L146.522 77.0315C147.049 76.466 147.484 76.0045 147.822 75.7315C147.953 75.5507 148.106 75.3869 148.277 75.244Z" fill="white"/>
<path d="M140.451 80.0085C139.821 80.8508 139.123 81.64 138.364 82.368C137.681 83.1763 136.894 83.8909 136.024 84.4936C136.656 83.6506 137.356 82.8614 138.117 82.134C138.799 81.3269 139.584 80.6124 140.451 80.0085Z" fill="white"/>
<path d="M148.908 84.7406C148.024 84.0353 147.216 83.2402 146.496 82.3681C145.69 81.5734 144.963 80.7027 144.325 79.7681C145.21 80.4741 146.02 81.2691 146.743 82.1406C147.548 82.9342 148.273 83.8051 148.908 84.7406Z" fill="white"/>
<path d="M100.451 79.0659C100.451 79.1244 98.2276 79.1699 95.4846 79.1699C92.7416 79.1699 90.5186 79.1244 90.5186 79.0659C90.5186 79.0074 92.7416 78.9619 95.4846 78.9619C98.2276 78.9619 100.451 79.0074 100.451 79.0659Z" fill="#263238"/>
<path d="M100.451 81.6074C100.451 81.6659 98.2276 81.7114 95.4846 81.7114C92.7416 81.7114 90.5186 81.6659 90.5186 81.6074C90.5186 81.5489 92.7416 81.5034 95.4846 81.5034C98.2276 81.5034 100.451 81.5489 100.451 81.6074Z" fill="#263238"/>
<path d="M100.451 84.1489C100.451 84.2074 98.2276 84.2594 95.4846 84.2594C92.7416 84.2594 90.5186 84.2074 90.5186 84.1554C90.5186 84.1034 92.7416 84.0449 95.4846 84.0449C98.2276 84.0449 100.451 84.0969 100.451 84.1489Z" fill="#263238"/>
<path d="M193.667 80.6844C193.634 80.6844 193.667 80.4374 193.524 80.0344C193.363 79.459 193.016 78.9535 192.536 78.5979C192.151 78.3063 191.694 78.1273 191.213 78.081C190.733 78.0347 190.25 78.1229 189.817 78.3357C189.384 78.5485 189.019 78.8776 188.762 79.2861C188.506 79.6946 188.368 80.1664 188.364 80.6487C188.36 81.1311 188.491 81.605 188.741 82.0174C188.991 82.4299 189.351 82.7646 189.78 82.9841C190.21 83.2037 190.692 83.2994 191.173 83.2606C191.654 83.2218 192.114 83.05 192.503 82.7644C192.986 82.4118 193.342 81.9124 193.517 81.3409C193.634 80.9314 193.634 80.6909 193.667 80.6909C193.675 80.7491 193.675 80.8082 193.667 80.8664C193.67 81.0369 193.653 81.2072 193.615 81.3734C193.473 81.9962 193.119 82.5502 192.614 82.9399C192.187 83.2592 191.679 83.4529 191.148 83.4992C190.618 83.5455 190.084 83.4425 189.609 83.2019C189.133 82.9613 188.734 82.5925 188.457 82.1373C188.18 81.6821 188.036 81.1585 188.04 80.6255C188.045 80.0926 188.198 79.5715 188.483 79.1211C188.768 78.6707 189.173 78.3089 189.653 78.0764C190.132 77.844 190.667 77.7501 191.197 77.8055C191.727 77.8609 192.231 78.0633 192.653 78.3899C193.152 78.7883 193.495 79.3498 193.621 79.9759C193.658 80.1422 193.674 80.3126 193.667 80.4829C193.682 80.5492 193.682 80.6181 193.667 80.6844Z" fill="#263238"/>
<path d="M195.129 85.4035C194.63 85.0697 194.19 84.6544 193.829 84.175C193.385 83.7612 193.014 83.2756 192.73 82.7385C193.23 83.0724 193.669 83.4876 194.03 83.967C194.476 84.3794 194.848 84.8653 195.129 85.4035Z" fill="#263238"/>
<path d="M187.577 216.45L187.486 251.381L172.049 248.209L159.049 245.492C159.049 245.492 176.846 280.592 196.203 280.592C215.56 280.592 218.062 251.387 218.062 251.387L219.213 216.45H187.577Z" fill="#9B7564"/>
<path d="M267.767 126.341C266.35 127.147 264.4 126.1 263.75 124.592C263.1 123.084 263.399 121.342 263.893 119.756C264.387 118.17 265.076 116.649 265.193 115.005C265.251 113.503 264.825 112.023 263.977 110.783C263.13 109.542 261.907 108.607 260.487 108.115C263.282 105.898 263.51 101.147 260.942 98.67C259.74 97.513 258.141 96.8825 256.743 95.9725C255.948 95.4475 255.208 94.8443 254.533 94.172C255.78 94.4794 257.078 94.5193 258.342 94.289C259.355 94.0668 260.296 93.593 261.077 92.9114C261.859 92.2298 262.456 91.3623 262.814 90.389C263.144 89.4033 263.193 88.345 262.954 87.3332C262.715 86.3215 262.198 85.3966 261.462 84.6625C260.703 83.9517 259.745 83.4889 258.716 83.3356C257.688 83.1824 256.637 83.3459 255.703 83.8045C253.896 84.76 252.908 86.723 252.031 88.569L251.212 90.2785C248.67 86.9115 246.278 83.434 242.359 82.251C238.803 81.1785 234.981 82.3745 231.276 82.108C228.579 81.9065 225.992 80.938 223.301 80.639C220.61 80.34 217.548 80.9185 215.962 83.109C215.026 84.409 214.734 86.06 213.791 87.3405C211.841 89.9795 207.642 90.337 206.043 93.1905C204.743 95.5175 205.744 98.4555 205.185 101.062C204.581 103.896 202.241 105.97 200.33 108.147C198.419 110.325 196.748 113.315 197.821 116.006C198.77 118.378 201.532 119.652 202.429 122.038C203.079 123.78 202.611 125.71 202.579 127.569C202.546 129.428 203.287 131.638 205.101 132.061L225.725 137.508C232.83 140.394 240.155 143.358 247.825 143.319C255.495 143.28 263.679 139.627 266.675 132.581C265.56 132.538 264.503 132.074 263.718 131.281C264.719 130.812 265.603 130.126 266.304 129.271C267.005 128.416 267.505 127.414 267.767 126.341Z" fill="#263238"/>
<path d="M250.861 132.808C252.564 127.608 254.241 122.311 255.014 116.864C255.788 111.417 255.625 105.736 253.714 100.614C253.428 99.8336 250.952 94.5881 250.12 94.6726C249.528 94.7311 251.049 99.6191 250.77 100.139C247.91 105.053 247.13 110.962 247.592 116.636C248.084 122.143 249.189 127.579 250.887 132.841" fill="#263238"/>
<path d="M232.648 178.529C241.176 178.347 250.848 159.679 250.848 159.679L251.401 111.8C251.843 98.0135 244.192 86.2615 230.399 86.1965L229.099 86.2615C222.913 86.5998 217.079 89.2507 212.756 93.6886C208.432 98.1265 205.934 104.027 205.758 110.221C205.439 122.174 205.231 135.389 205.654 141.772C206.525 154.98 219.856 156.325 219.856 156.325C219.856 156.325 219.934 159.393 219.973 163.28C220.064 172.003 229.197 178.802 232.616 178.51L232.648 178.529Z" fill="#9B7564"/>
<path d="M219.889 156.345C219.889 156.345 228.248 156.39 236.828 150.332C236.828 150.332 233.149 160.173 219.895 159.692L219.889 156.345Z" fill="#7F6358"/>
<path d="M211.497 120.614C211.519 121.111 211.736 121.58 212.101 121.918C212.466 122.256 212.95 122.437 213.447 122.421C213.688 122.427 213.927 122.385 214.151 122.297C214.375 122.21 214.579 122.078 214.752 121.91C214.925 121.743 215.062 121.542 215.156 121.321C215.25 121.099 215.299 120.861 215.3 120.621C215.279 120.122 215.063 119.652 214.698 119.313C214.333 118.973 213.848 118.791 213.35 118.807C213.108 118.801 212.869 118.843 212.644 118.931C212.42 119.019 212.215 119.152 212.042 119.32C211.87 119.488 211.732 119.69 211.639 119.912C211.545 120.134 211.497 120.373 211.497 120.614Z" fill="#263238"/>
<path d="M208.91 115.577C209.157 115.811 210.528 114.673 212.563 114.569C214.597 114.465 216.138 115.408 216.346 115.141C216.443 115.031 216.183 114.595 215.507 114.16C214.597 113.595 213.534 113.33 212.465 113.399C211.409 113.451 210.396 113.838 209.573 114.504C208.975 115.05 208.786 115.473 208.91 115.577Z" fill="#263238"/>
<path d="M229.795 120.127C229.817 120.624 230.034 121.092 230.399 121.43C230.764 121.769 231.248 121.949 231.745 121.934C231.986 121.94 232.226 121.897 232.45 121.809C232.675 121.721 232.88 121.589 233.052 121.421C233.225 121.252 233.362 121.051 233.456 120.829C233.549 120.606 233.597 120.368 233.597 120.127C233.575 119.635 233.363 119.172 233.005 118.834C232.647 118.497 232.172 118.312 231.68 118.32C231.436 118.31 231.193 118.35 230.965 118.436C230.738 118.522 230.529 118.654 230.353 118.822C230.177 118.991 230.037 119.194 229.941 119.418C229.845 119.642 229.796 119.883 229.795 120.127Z" fill="#263238"/>
<path d="M228.852 115.33C229.099 115.564 230.477 114.433 232.505 114.329C234.533 114.225 236.08 115.161 236.288 114.901C236.392 114.784 236.132 114.355 235.45 113.913C234.538 113.352 233.476 113.087 232.408 113.152C231.351 113.206 230.339 113.593 229.515 114.257C228.924 114.771 228.735 115.226 228.852 115.33Z" fill="#263238"/>
<path d="M222.404 131.333C222.404 131.216 221.104 131.066 219.069 130.917C218.549 130.917 218.055 130.813 217.945 130.462C217.871 129.929 217.964 129.386 218.211 128.908C218.645 127.608 219.078 126.263 219.511 124.872C221.344 119.139 222.638 114.426 222.404 114.355C222.17 114.283 220.499 118.905 218.673 124.618C218.237 126.029 217.815 127.381 217.418 128.668C217.123 129.312 217.065 130.039 217.256 130.722C217.341 130.9 217.467 131.057 217.622 131.18C217.778 131.302 217.959 131.388 218.153 131.43C218.443 131.494 218.74 131.521 219.037 131.508C221.123 131.508 222.397 131.45 222.404 131.333Z" fill="#263238"/>
<path d="M228.456 132.418C228.124 132.418 228.241 134.621 226.434 136.285C224.627 137.949 222.274 137.839 222.274 138.144C222.274 138.287 222.82 138.547 223.808 138.521C225.102 138.469 226.335 137.963 227.292 137.091C228.213 136.252 228.771 135.086 228.846 133.841C228.885 132.931 228.605 132.398 228.456 132.418Z" fill="#263238"/>
<path d="M228.521 107.081C228.755 107.627 230.77 107.256 233.168 107.412C235.567 107.568 237.53 108.121 237.816 107.607C237.946 107.36 237.582 106.86 236.776 106.366C235.703 105.767 234.509 105.421 233.282 105.352C232.056 105.283 230.83 105.494 229.697 105.969C228.839 106.366 228.423 106.827 228.521 107.081Z" fill="#263238"/>
<path d="M209.385 108.778C209.768 109.22 211.146 108.667 212.823 108.557C214.5 108.446 215.95 108.7 216.249 108.199C216.385 107.959 216.132 107.504 215.488 107.101C214.623 106.623 213.636 106.413 212.651 106.496C211.667 106.579 210.729 106.953 209.957 107.569C209.385 108.076 209.216 108.55 209.385 108.778Z" fill="#263238"/>
<path d="M250.848 121.667C251.069 121.557 259.785 118.495 259.987 127.517C260.188 136.539 251.049 134.895 251.03 134.667C251.01 134.44 250.848 121.667 250.848 121.667Z" fill="#9B7564"/>
<path d="M253.721 131.183C253.76 131.183 253.884 131.287 254.15 131.404C254.528 131.556 254.95 131.556 255.327 131.404C256.276 131.033 257.049 129.493 257.062 127.861C257.065 127.085 256.896 126.317 256.568 125.612C256.477 125.332 256.32 125.079 256.109 124.873C255.899 124.667 255.641 124.515 255.359 124.429C255.177 124.386 254.984 124.407 254.816 124.49C254.647 124.574 254.513 124.713 254.436 124.884C254.319 125.138 254.384 125.32 254.332 125.333C254.28 125.346 254.137 125.183 254.202 124.813C254.248 124.587 254.37 124.383 254.547 124.234C254.667 124.138 254.806 124.066 254.954 124.024C255.103 123.981 255.258 123.969 255.411 123.987C255.784 124.053 256.134 124.213 256.428 124.452C256.721 124.691 256.949 125.001 257.088 125.352C257.493 126.129 257.701 126.993 257.693 127.868C257.693 129.694 256.776 131.417 255.476 131.826C255.235 131.903 254.979 131.924 254.728 131.888C254.477 131.852 254.237 131.76 254.027 131.618C253.741 131.397 253.689 131.196 253.721 131.183Z" fill="#7F6358"/>
<path d="M211.458 95.1665C209.983 94.38 214.318 89.5765 217.9 87.893C223.308 85.358 231.602 83.733 236.633 85.0915C242.697 86.723 247.754 89.6415 250.861 95.1275C253.968 100.613 255.19 106.977 255.093 113.256C255.06 115.173 254.891 117.156 253.884 118.807C252.649 120.822 250.237 122.115 250.38 124.878C250.421 125.377 250.362 125.88 250.206 126.356C250.051 126.833 249.803 127.274 249.477 127.653C247.839 129.434 245.791 127.803 244.842 126.158C242.801 122.635 242.528 118.404 242.301 114.348C242.138 111.462 241.982 108.498 242.762 105.729C243.185 104.214 243.88 102.778 244.218 101.244C244.556 99.71 244.491 97.994 243.516 96.7265C243.293 96.4592 243.044 96.2133 242.775 95.992C241.497 94.9078 239.954 94.1825 238.304 93.8901C236.654 93.5978 234.955 93.7489 233.383 94.328C228.306 96.2 219.635 99.008 217.341 97.305C214.039 94.8545 213.233 93.2425 213.233 93.2425L211.458 95.1665Z" fill="#263238"/>
<path d="M236.145 83.8501C231.153 82.2511 225.485 82.4137 220.864 84.8902C218.407 86.1902 216.197 88.2831 215.482 90.9676C214.767 93.6521 215.95 96.9477 218.537 97.9617L218.719 98.0722C222.619 99.3202 225.102 98.7741 228.937 97.3896C232.187 96.2261 235.021 94.1916 238.251 93.0411C241.715 91.8227 245.463 91.6666 249.015 92.5926C245.505 88.7056 241.144 85.4686 236.145 83.8501Z" fill="#263238"/>
<path d="M253.35 92.8202C253.272 92.8852 252.544 92.0207 251.075 91.0002C250.22 90.4032 249.297 89.9101 248.326 89.5312C247.163 89.0414 245.906 88.8193 244.647 88.8812C242.34 89.1377 240.153 90.0387 238.335 91.4812C236.931 92.5927 236.281 93.5286 236.197 93.4636C236.112 93.3986 236.294 93.1842 236.593 92.7682C237.019 92.1784 237.51 91.6378 238.056 91.1562C239.884 89.5409 242.169 88.5346 244.595 88.2766C245.944 88.1992 247.294 88.4396 248.534 88.9787C249.535 89.398 250.475 89.9512 251.329 90.6231C252.791 91.7996 253.415 92.7812 253.35 92.8202Z" fill="#455A64"/>
<path d="M254.267 96.0245C254.191 96.9249 253.958 97.805 253.578 98.6245C251.951 102.683 248.964 106.049 245.128 108.147C244.366 108.621 243.525 108.956 242.645 109.135C242.534 108.959 246.447 107.478 249.73 103.721C253.012 99.9635 254.078 95.94 254.267 96.0245Z" fill="#455A64"/>
<path d="M257.952 97.5C258.023 97.8378 258.034 98.1854 257.985 98.527C257.937 99.4641 257.807 100.395 257.595 101.309C256.9 104.355 255.462 107.182 253.409 109.538C251.356 111.894 248.752 113.705 245.83 114.81C244.952 115.143 244.048 115.4 243.126 115.576C242.792 115.673 242.444 115.708 242.099 115.681C242.099 115.576 243.522 115.33 245.667 114.381C248.466 113.202 250.958 111.399 252.953 109.11C254.948 106.821 256.393 104.106 257.179 101.172C257.79 98.9495 257.842 97.5 257.952 97.5Z" fill="#455A64"/>
<path d="M225.778 83.0376C225.778 83.1416 224.835 83.3626 223.379 83.9411C219.558 85.4592 216.31 88.1372 214.091 91.5981C213.68 92.3469 213.231 93.0737 212.745 93.7756C212.918 92.9224 213.249 92.109 213.72 91.3771C214.759 89.5433 216.125 87.9153 217.75 86.5736C219.375 85.2329 221.236 84.2058 223.236 83.5446C224.046 83.2248 224.907 83.0531 225.778 83.0376Z" fill="#455A64"/>
<path d="M260.793 84.1751C260.942 84.1751 260.546 86.7751 258.498 89.2126C256.451 91.6501 253.948 92.4951 253.948 92.3456C253.948 92.1961 256.139 91.1366 258.05 88.8226C259.961 86.5086 260.611 84.1166 260.793 84.1751Z" fill="#455A64"/>
<path d="M164.599 245.784L169.968 242.489C170.88 241.935 171.925 241.641 172.991 241.637H183.391L194.129 251.42L197.333 253.019L196.138 269.919L189.156 269.061C189.156 269.061 174.252 269.711 172.809 268.742C171.366 267.774 169.279 264.732 169.279 264.732C169.279 264.732 161.109 262.086 160.309 261.371C157.274 258.648 158.496 257.998 158.496 257.998L157.098 257.348C156.838 257.842 154.804 254.527 155.018 252.863C155.142 251.894 154.856 251.901 154.856 251.901C154.179 251.512 153.595 250.979 153.146 250.34C152.696 249.701 152.393 248.972 152.256 248.202C152.106 247.214 156.156 247.923 156.156 247.923L166.25 248.059L164.599 245.784Z" fill="#9B7564"/>
<path d="M173.576 247.832L164.079 234.904C163.736 234.433 163.286 234.051 162.766 233.788C162.246 233.524 161.672 233.388 161.089 233.389H142.317C141.955 233.389 141.608 233.533 141.352 233.789C141.096 234.045 140.952 234.392 140.952 234.754C140.955 235.081 141.073 235.396 141.284 235.645L152.041 248.125L173.576 247.832Z" fill="#455A64"/>
<path d="M168.974 253.129C168.283 253.315 167.571 253.409 166.855 253.409C163.416 253.609 159.966 253.312 156.611 252.525C155.906 252.397 155.22 252.179 154.57 251.875C155.28 251.923 155.984 252.03 156.676 252.193C157.976 252.421 159.751 252.7 161.74 252.843C163.729 252.986 165.536 253.051 166.842 253.045C167.554 253.01 168.268 253.038 168.974 253.129Z" fill="#7F6358"/>
<path d="M171.672 258.791C170.98 258.975 170.268 259.069 169.553 259.071C167.835 259.173 166.112 259.149 164.398 258.999C162.682 258.853 160.979 258.581 159.302 258.187C158.598 258.06 157.914 257.841 157.268 257.537C157.977 257.585 158.681 257.692 159.374 257.855C160.674 258.083 162.448 258.362 164.437 258.505C166.426 258.648 168.233 258.713 169.54 258.707C170.251 258.672 170.965 258.7 171.672 258.791Z" fill="#7F6358"/>
<path d="M152.282 248.203C152.361 248.603 152.465 248.998 152.594 249.386C153.021 250.455 153.846 251.317 154.895 251.791L154.967 251.823V251.901C154.944 253.045 155.196 254.177 155.701 255.203C156.326 256.465 157.359 257.477 158.633 258.076L158.808 258.154L158.724 258.317C158.626 258.519 158.576 258.742 158.576 258.967C158.576 259.192 158.626 259.414 158.724 259.617C158.945 260.055 159.26 260.439 159.647 260.741C160.506 261.402 161.451 261.945 162.455 262.353C164.68 263.277 166.984 263.999 169.338 264.511H169.429L169.475 264.589C170.077 265.463 170.787 266.258 171.587 266.955C172.357 267.718 173.304 268.279 174.343 268.587C175.144 268.784 175.969 268.867 176.794 268.834L179.264 268.899L184.028 269.029L192.608 269.269H192.641L202.865 271.356L205.706 271.967L206.447 272.142C206.535 272.153 206.621 272.179 206.7 272.22C206.614 272.23 206.527 272.23 206.44 272.22L205.686 272.103L202.82 271.596L192.563 269.646H192.595L184.015 269.464L179.257 269.354L176.781 269.295C175.919 269.322 175.057 269.23 174.22 269.022C173.113 268.697 172.103 268.103 171.282 267.293C170.453 266.569 169.722 265.741 169.104 264.83L169.241 264.927C166.861 264.404 164.535 263.662 162.292 262.711C161.256 262.281 160.283 261.713 159.4 261.021C158.966 260.67 158.617 260.225 158.379 259.721C158.267 259.47 158.212 259.198 158.218 258.923C158.225 258.649 158.293 258.379 158.418 258.135L158.509 258.375C157.168 257.731 156.086 256.649 155.441 255.307C154.933 254.232 154.695 253.05 154.746 251.862L154.817 251.973C154.274 251.719 153.788 251.358 153.388 250.911C152.988 250.464 152.682 249.941 152.49 249.373C152.35 248.999 152.279 248.602 152.282 248.203Z" fill="#7F6358"/>
<path d="M174.746 263.764C174.798 263.868 173.536 264.511 171.827 264.739C170.117 264.966 168.739 264.68 168.759 264.57C168.778 264.459 170.13 264.511 171.768 264.284C173.406 264.056 174.7 263.64 174.746 263.764Z" fill="#7F6358"/>
<path d="M179.568 247.813C179.568 247.936 177.508 248.112 174.947 248.209C172.386 248.307 170.312 248.274 170.312 248.144C170.312 248.014 172.373 247.845 174.934 247.748C177.495 247.65 179.568 247.683 179.568 247.813Z" fill="#7F6358"/>
<path d="M197.132 251.635C197.132 251.635 196.937 251.823 196.482 251.895C195.829 251.965 195.171 251.819 194.61 251.479C193.825 250.966 193.091 250.378 192.419 249.724L189.858 247.481L185.178 243.458C184.499 242.937 183.864 242.361 183.28 241.735C184.026 242.158 184.729 242.652 185.38 243.211C186.634 244.173 188.337 245.551 190.164 247.111C191.074 247.904 191.932 248.671 192.699 249.379C193.339 250.033 194.033 250.633 194.772 251.173C195.273 251.508 195.86 251.689 196.462 251.693C196.891 251.7 197.119 251.596 197.132 251.635Z" fill="#7F6358"/>
<path d="M171.574 248.112C171.48 248.028 171.395 247.934 171.32 247.832L170.67 247L168.2 243.887L164.638 239.246L162.545 236.503C162.176 236.053 161.691 235.713 161.141 235.521C160.86 235.423 160.567 235.364 160.27 235.346C159.978 235.346 159.62 235.346 159.334 235.346L146.334 235.294L142.389 235.242H141.316C141.19 235.245 141.064 235.234 140.939 235.209C141.063 235.18 141.19 235.169 141.316 235.177L142.389 235.144L146.334 235.086L159.334 235.04C159.659 235.04 159.984 235.04 160.296 235.04C160.622 235.062 160.944 235.128 161.252 235.235C161.857 235.451 162.392 235.829 162.799 236.327L164.885 239.09L168.389 243.776C169.357 245.076 170.15 246.162 170.729 246.955C170.982 247.306 171.184 247.605 171.379 247.826C171.456 247.912 171.521 248.008 171.574 248.112Z" fill="#263238"/>
<path d="M151.157 237.179C151.278 237.086 151.423 237.03 151.575 237.02C151.727 237.009 151.878 237.043 152.011 237.119C152.143 237.194 152.251 237.306 152.319 237.442C152.388 237.578 152.415 237.731 152.397 237.882C152.379 238.033 152.317 238.176 152.219 238.292C152.12 238.408 151.99 238.492 151.843 238.535C151.697 238.577 151.541 238.575 151.396 238.529C151.251 238.483 151.123 238.395 151.027 238.277C150.906 238.118 150.85 237.919 150.869 237.72C150.888 237.522 150.982 237.337 151.131 237.205" fill="#F5F5F5"/>
<path d="M251.777 155.916L278.219 171.457L283.081 257.257L289.399 305.799H194.369C194.369 305.799 195.416 246.721 195.741 228.852C195.975 216.327 195.637 192.049 199.875 177.119C201.682 170.755 219.375 162.533 219.375 162.533C229.066 171.093 239.902 168.539 251.777 155.916Z" fill="#4C1D95"/>
<path d="M286.604 284.349C286.604 284.44 266.09 284.518 240.779 284.518C215.468 284.518 194.954 284.44 194.954 284.349C194.954 284.258 215.468 284.18 240.779 284.18C266.09 284.18 286.604 284.251 286.604 284.349Z" fill="white"/>
<g opacity="0.3">
<path d="M194.896 269.75C202.254 275.919 213.687 279.26 223.099 281.164C232.511 283.069 242.125 283.764 251.563 285.493C258.16 286.722 265.083 288.457 271.446 286.312C274.614 285.187 277.392 283.176 279.45 280.517C281.508 277.859 282.76 274.665 283.055 271.317C283.102 271.092 283.101 270.86 283.052 270.636C283.003 270.412 282.906 270.201 282.769 270.017C282.579 269.872 282.362 269.769 282.13 269.713C281.899 269.657 281.658 269.65 281.424 269.692C253.012 270.953 222.924 270.777 194.896 269.731" fill="black"/>
</g>
<path d="M189.865 251.966H256.269L256.594 216.976L287.235 213.024C287.235 213.024 287.372 248.56 287.372 260.214C287.372 274.202 275.282 283.926 265.129 282.431C254.976 280.936 189.865 268.781 189.865 268.781V251.966Z" fill="#9B7564"/>
<path d="M289.36 220.292L253.649 224.003V182.104C253.649 182.104 257.159 167.947 269.496 168.539C281.833 169.13 289.1 182.475 289.36 194.714C289.62 206.954 289.36 220.292 289.36 220.292Z" fill="#4C1D95"/>
<path d="M203.652 172.205C203.652 172.205 192.205 179.738 189.137 188.052C185.92 196.768 181.402 225.004 181.402 225.004H197.451L203.652 172.205Z" fill="#4C1D95"/>
<path d="M253.35 183.768C253.393 184.276 253.393 184.787 253.35 185.296C253.318 186.355 253.272 187.759 253.22 189.462C253.116 192.972 253.006 197.828 253.019 203.19C253.032 208.553 253.175 213.408 253.311 216.918C253.376 218.621 253.428 220.025 253.467 221.085C253.507 221.593 253.507 222.104 253.467 222.612C253.365 222.111 253.304 221.602 253.285 221.091C253.194 220.116 253.084 218.693 252.98 216.938C252.765 213.421 252.577 208.566 252.557 203.19C252.538 197.815 252.7 192.959 252.895 189.443C252.986 187.688 253.084 186.271 253.168 185.289C253.19 184.778 253.25 184.27 253.35 183.768Z" fill="#263238"/>
<path d="M271.33 169.214C271.33 169.305 270.134 168.987 268.197 169.019C265.675 169.046 263.207 169.756 261.057 171.075C258.907 172.393 257.156 174.271 255.99 176.507C255.086 178.217 254.833 179.413 254.748 179.393C254.753 179.106 254.802 178.821 254.891 178.548C255.087 177.795 255.359 177.063 255.704 176.364C256.825 174.018 258.601 172.046 260.818 170.685C263.034 169.324 265.596 168.633 268.197 168.694C268.977 168.708 269.754 168.797 270.517 168.961C270.799 169.003 271.073 169.089 271.33 169.214Z" fill="#263238"/>
<path d="M196.3 191.938C196.33 192.095 196.346 192.254 196.345 192.413C196.345 192.777 196.345 193.225 196.384 193.771C196.384 194.948 196.423 196.651 196.423 198.757C196.423 202.969 196.358 208.786 196.235 215.208C196.111 221.63 195.988 227.383 195.903 231.653C195.864 233.707 195.832 235.397 195.806 236.639C195.806 237.185 195.767 237.633 195.754 237.997C195.762 238.155 195.747 238.313 195.708 238.465C195.674 238.312 195.659 238.155 195.663 237.997C195.663 237.633 195.663 237.185 195.624 236.639C195.624 235.462 195.585 233.759 195.585 231.653C195.585 227.441 195.65 221.624 195.773 215.195C195.897 208.767 196.014 203.021 196.098 198.757C196.144 196.696 196.176 195.013 196.202 193.771C196.202 193.225 196.241 192.777 196.248 192.413C196.243 192.253 196.261 192.093 196.3 191.938Z" fill="#263238"/>
<path d="M195.89 205.972C194.083 206.125 192.269 206.166 190.456 206.095C188.642 206.134 186.827 206.061 185.022 205.874C186.83 205.722 188.644 205.68 190.456 205.751C192.271 205.708 194.086 205.782 195.89 205.972Z" fill="white"/>
<path d="M252.74 196.3C252.74 196.391 240.39 196.469 225.212 196.469C210.035 196.469 197.672 196.391 197.672 196.3C197.672 196.209 210.022 196.131 225.212 196.131C240.403 196.131 252.74 196.19 252.74 196.3Z" fill="white"/>
<path d="M288.587 190.567C288.466 190.581 288.344 190.581 288.223 190.567L287.196 190.483L283.426 190.158C280.235 189.891 275.828 189.599 270.953 189.462C266.078 189.326 261.658 189.384 258.46 189.462L254.67 189.579H253.643C253.523 189.597 253.4 189.597 253.279 189.579C253.396 189.548 253.516 189.531 253.637 189.527L254.664 189.436C255.561 189.365 256.848 189.287 258.453 189.209C261.651 189.059 266.071 188.975 270.959 189.105C275.847 189.235 280.261 189.573 283.446 189.898C285.038 190.06 286.325 190.21 287.209 190.333L288.23 190.476C288.352 190.491 288.473 190.521 288.587 190.567Z" fill="white"/>
<path d="M288.925 215.391C288.925 215.488 280.859 215.391 270.92 215.157C260.982 214.923 252.909 214.669 252.915 214.578C252.922 214.487 260.975 214.578 270.927 214.819C280.878 215.059 288.925 215.3 288.925 215.391Z" fill="white"/>
<path d="M256.484 175.429C256.484 175.526 243.757 175.598 228.059 175.598C212.362 175.598 199.635 175.526 199.635 175.429C199.635 175.331 212.362 175.26 228.059 175.26C243.757 175.26 256.484 175.338 256.484 175.429Z" fill="white"/>
<path d="M252.922 222.658C252.922 222.749 240.156 222.827 224.406 222.827C208.657 222.827 195.891 222.749 195.891 222.658C195.891 222.567 208.657 222.489 224.406 222.489C240.156 222.489 252.922 222.56 252.922 222.658Z" fill="white"/>
<path d="M257.016 243.51C257.016 243.601 243.132 243.679 226.011 243.679C208.89 243.679 195 243.601 195 243.51C195 243.419 208.884 243.341 226.011 243.341C243.139 243.341 257.016 243.412 257.016 243.51Z" fill="white"/>
<path d="M288.404 303.635C288.404 303.726 267.468 303.804 241.65 303.804C215.832 303.804 194.896 303.726 194.896 303.635C194.896 303.544 215.826 303.466 241.65 303.466C267.475 303.466 288.404 303.55 288.404 303.635Z" fill="white"/>
<g opacity="0.3">
<path d="M253.214 224.399C252.798 216.118 253.097 208.37 252.674 200.096C249.855 212.239 248.523 224.681 248.709 237.146C248.755 240.103 248.898 243.113 249.854 245.914C250.809 248.716 253.455 251.114 256.159 252.31L256.419 224.042C255.203 224.133 254.436 224.341 253.214 224.399Z" fill="black"/>
</g>
<path d="M69.2184 275.262L64.5319 306.053H37.3034L30.9854 275.704L69.2184 275.262Z" fill="#4C1D95"/>
<path d="M34.7939 294.996C34.7939 295.087 41.7684 295.159 50.3939 295.159C59.0194 295.159 65.9939 295.087 65.9939 294.996C65.9939 294.905 59.0194 294.84 50.3939 294.84C41.7684 294.84 34.7939 294.912 34.7939 294.996Z" fill="#FAFAFA"/>
<path d="M34.6904 293.482C34.6904 293.573 41.7104 293.644 50.3749 293.644C59.0394 293.644 66.0594 293.573 66.0594 293.482C66.0594 293.391 59.0394 293.326 50.3749 293.326C41.7104 293.326 34.6904 293.397 34.6904 293.482Z" fill="#FAFAFA"/>
<path d="M34.7422 291.772C34.7422 291.863 41.7622 291.935 50.4267 291.935C59.0912 291.935 66.1112 291.863 66.1112 291.772C66.1112 291.681 59.0912 291.61 50.4267 291.61C41.7622 291.61 34.7422 291.681 34.7422 291.772Z" fill="#FAFAFA"/>
<path d="M61.4053 304.298C61.7827 303.021 62.0609 301.717 62.2373 300.398C62.5158 299.103 62.6896 297.788 62.7573 296.465C62.3742 297.74 62.096 299.045 61.9253 300.365C61.643 301.659 61.469 302.975 61.4053 304.298Z" fill="#FAFAFA"/>
<path d="M59.5524 303.973C59.7374 302.719 59.8503 301.456 59.8904 300.19C60.0277 298.929 60.0863 297.661 60.0659 296.394C59.769 297.629 59.6034 298.893 59.5719 300.164C59.4269 301.429 59.4203 302.706 59.5524 303.973Z" fill="#FAFAFA"/>
<path d="M56.1729 303.973C56.8091 301.422 57.1171 298.801 57.0893 296.173C56.8417 297.462 56.6659 298.764 56.5629 300.073C56.3629 301.365 56.2327 302.667 56.1729 303.973Z" fill="#FAFAFA"/>
<path d="M53.7998 304.135C54.2176 301.522 54.3028 298.866 54.0533 296.231C53.9124 297.544 53.8473 298.863 53.8583 300.183C53.7604 301.498 53.7409 302.818 53.7998 304.135Z" fill="#FAFAFA"/>
<path d="M49.6073 303.973C49.8133 302.735 49.9112 301.483 49.8998 300.229C49.9936 298.98 49.9806 297.725 49.8608 296.478C49.663 297.716 49.5673 298.968 49.5748 300.222C49.4849 301.471 49.4958 302.725 49.6073 303.973Z" fill="#FAFAFA"/>
<path d="M46.5466 304.135C46.701 302.841 46.7445 301.536 46.6766 300.235C46.7191 298.943 46.6539 297.649 46.4816 296.368C46.3357 297.662 46.2944 298.966 46.3581 300.268C46.3155 301.56 46.3785 302.853 46.5466 304.135Z" fill="#FAFAFA"/>
<path d="M43.6729 303.719C43.7053 302.367 43.627 301.015 43.4389 299.676C43.3604 298.327 43.1779 296.986 42.8929 295.666C42.8604 297.017 42.9387 298.37 43.1269 299.709C43.2053 301.057 43.3879 302.398 43.6729 303.719Z" fill="#FAFAFA"/>
<path d="M39.968 303.316C39.9632 302.155 39.8103 301 39.513 299.878C39.3173 298.734 38.9765 297.62 38.499 296.562C38.6715 297.703 38.9059 298.834 39.201 299.949C39.391 301.085 39.6471 302.21 39.968 303.316Z" fill="#FAFAFA"/>
<path d="M42.5938 214.5C42.5859 214.552 42.5859 214.604 42.5938 214.656C42.5938 214.773 42.6653 214.916 42.7173 215.092C42.8473 215.495 43.0163 216.047 43.2373 216.749C43.4583 217.451 43.7509 218.354 44.0369 219.388C44.3228 220.421 44.6868 221.585 45.0183 222.898C45.3498 224.211 45.7398 225.634 46.0778 227.188C46.4158 228.741 46.7733 230.392 47.1308 232.147C47.7808 235.657 48.3788 239.538 48.7948 243.633C49.2108 247.728 49.3798 251.661 49.4448 255.236C49.4448 257.017 49.4448 258.713 49.3993 260.306C49.3538 261.898 49.2823 263.367 49.2043 264.719C49.1263 266.071 49.0223 267.28 48.9378 268.353C48.8533 269.425 48.7623 270.342 48.6713 271.096C48.5803 271.85 48.5348 272.396 48.4958 272.825C48.4958 273.007 48.4828 273.156 48.4568 273.273C48.4568 273.377 48.4568 273.429 48.4568 273.429C48.4787 273.382 48.4919 273.331 48.4958 273.279C48.4958 273.162 48.5348 273.013 48.5673 272.831C48.6193 272.415 48.7038 271.836 48.8013 271.108C48.8988 270.38 49.0223 269.438 49.1198 268.372C49.2173 267.306 49.3603 266.084 49.4383 264.732C49.5163 263.38 49.6268 261.905 49.6658 260.312C49.7048 258.72 49.7373 257.023 49.7503 255.229C49.7113 251.654 49.5358 247.715 49.1003 243.607C48.6648 239.499 48.0733 235.605 47.4039 232.089C47.0399 230.334 46.7148 228.67 46.3248 227.123C45.9348 225.576 45.5838 224.139 45.2263 222.839C44.8688 221.539 44.5048 220.363 44.1928 219.336C43.8808 218.309 43.5949 217.425 43.3414 216.736C43.0879 216.047 42.9058 215.495 42.7693 215.092C42.7043 214.923 42.6523 214.78 42.6133 214.669C42.6105 214.612 42.604 214.556 42.5938 214.5Z" fill="#263238"/>
<path d="M47.5086 233.565C46.7589 231.344 45.2608 229.453 43.2706 228.215C42.6206 227.799 41.7496 227.461 41.0346 227.806C40.0856 228.267 40.0076 229.6 40.2936 230.62C40.7874 232.349 41.8912 233.841 43.4006 234.819C44.7271 235.802 46.3884 236.22 48.0221 235.983" fill="#263238"/>
<path d="M49.1591 246.441C48.4571 243.783 46.3381 240.006 44.1346 238.355C43.797 238.08 43.4082 237.874 42.9906 237.751C42.7814 237.688 42.5599 237.679 42.3463 237.724C42.1327 237.77 41.934 237.868 41.7686 238.011C41.5807 238.26 41.4575 238.552 41.4098 238.86C41.3622 239.169 41.3917 239.484 41.4956 239.779C41.9473 241.717 42.9295 243.492 44.3323 244.904C45.7351 246.316 47.5031 247.309 49.4386 247.774" fill="#263238"/>
<path d="M49.6143 257.771C48.5211 255.234 46.7709 253.035 44.5443 251.401C44.3089 251.178 44.0309 251.006 43.7269 250.894C43.423 250.783 43.0996 250.734 42.7763 250.751C41.8143 250.92 41.3788 252.096 41.4763 253.071C41.6518 255.073 43.1858 256.685 44.7653 257.927C46.2151 258.932 47.7908 259.743 49.4518 260.338" fill="#263238"/>
<path d="M49.3609 265.922C48.3043 263.984 46.8301 262.305 45.0449 261.008C44.6621 260.717 44.2171 260.519 43.7449 260.429C43.5049 260.378 43.2555 260.397 43.0254 260.482C42.7954 260.567 42.5941 260.715 42.4449 260.91C42.0094 261.56 42.4449 262.405 42.8869 263.023C44.4088 265.141 46.5643 266.72 49.0424 267.534" fill="#263238"/>
<path d="M49.5752 262.6C51.4344 260.322 53.5016 258.222 55.7502 256.328C55.9001 256.154 56.091 256.021 56.3057 255.94C56.5203 255.86 56.7517 255.834 56.9787 255.866C57.1428 255.934 57.2836 256.048 57.384 256.195C57.4844 256.341 57.5401 256.514 57.5442 256.692C57.5442 257.049 57.4643 257.402 57.3102 257.725C56.5725 259.363 55.4754 260.813 54.1003 261.969C52.7252 263.125 51.1075 263.956 49.3672 264.401" fill="#263238"/>
<path d="M49.374 252.012L54.223 246.103C54.6495 245.511 55.183 245.004 55.796 244.608C56.108 244.42 56.4653 244.321 56.8295 244.321C57.1938 244.321 57.5511 244.42 57.863 244.608C58.1422 244.84 58.351 245.146 58.4658 245.491C58.5807 245.835 58.597 246.205 58.513 246.558C58.3397 247.269 58.0161 247.933 57.564 248.508C56.6225 249.94 55.4314 251.19 54.0475 252.2C52.624 253.182 51.3305 253.819 49.621 253.565" fill="#263238"/>
<path d="M48.7041 240.071C49.6505 237.242 51.3332 234.716 53.5791 232.752C53.9372 232.392 54.3866 232.136 54.8791 232.011C55.3732 231.972 55.8654 232.107 56.2711 232.391C56.6768 232.676 56.9707 233.093 57.1021 233.571C57.2578 234.106 57.2989 234.668 57.2228 235.221C57.1466 235.773 56.9549 236.303 56.6601 236.776C56.0701 237.723 55.2966 238.543 54.3851 239.187C52.752 240.433 50.9338 241.416 48.9966 242.099" fill="#263238"/>
<path d="M46.7676 229.45C47.2356 226.025 49.0166 223.171 51.0836 220.402C51.5191 219.817 52.1301 219.2 52.8451 219.31C53.0729 219.358 53.2852 219.462 53.4623 219.613C53.6395 219.764 53.7759 219.957 53.8591 220.175C54.0197 220.613 54.084 221.081 54.0476 221.546C53.9589 223.622 53.2606 225.625 52.0398 227.306C50.819 228.987 49.1299 230.271 47.1836 230.997" fill="#263238"/>
<path d="M45.4086 223.99C45.6326 222.236 45.6914 220.464 45.5841 218.699C45.474 216.922 44.8658 215.213 43.8291 213.766C43.3958 213.145 42.7967 212.658 42.1001 212.362C41.746 212.22 41.3616 212.172 40.9837 212.222C40.6058 212.272 40.2471 212.419 39.9421 212.648C39.6841 212.889 39.4836 213.186 39.3554 213.516C39.2271 213.845 39.1744 214.199 39.2011 214.552C39.2661 215.254 39.4507 215.94 39.7471 216.58C41.0471 219.687 43.1921 223.126 45.4411 223.99" fill="#263238"/>
<path d="M66.5209 228.072C66.5055 228.217 66.5055 228.363 66.5209 228.508C66.5209 228.826 66.5209 229.236 66.5209 229.749C66.5209 230.263 66.5209 230.952 66.4884 231.699C66.4559 232.447 66.4884 233.337 66.3974 234.299C66.3129 236.249 66.1244 238.511 65.8319 241.046C65.5394 243.581 65.0454 246.35 64.4539 249.243C63.8624 252.135 63.1539 254.833 62.3934 257.277C61.6329 259.721 60.8919 261.879 60.1964 263.679C59.8714 264.583 59.5464 265.389 59.2409 266.097C58.9354 266.806 58.6949 267.397 58.4739 267.911L57.9929 269.055C57.9295 269.186 57.8773 269.323 57.8369 269.464C57.9205 269.343 57.9923 269.215 58.0514 269.081C58.1879 268.795 58.3634 268.431 58.5909 267.963C58.8184 267.495 59.1044 266.877 59.4034 266.169C59.7024 265.46 60.0534 264.667 60.4109 263.764C61.1324 261.97 61.9059 259.799 62.6729 257.361C63.4399 254.924 64.1484 252.194 64.7659 249.308C65.3834 246.422 65.7864 243.64 66.0659 241.098C66.3454 238.557 66.5079 236.262 66.5599 234.325C66.6119 233.363 66.5989 232.486 66.6054 231.725C66.6119 230.965 66.6054 230.295 66.6054 229.775C66.6054 229.255 66.6054 228.852 66.5599 228.534C66.5657 228.379 66.5526 228.224 66.5209 228.072Z" fill="#263238"/>
<path d="M65.76 242.112C65.7271 240.441 65.1161 238.833 64.031 237.562C63.8715 237.328 63.6572 237.136 63.4069 237.004C63.1566 236.871 62.8778 236.802 62.5945 236.802C61.847 236.912 61.509 237.803 61.483 238.557C61.4432 239.837 61.8681 241.088 62.679 242.08C63.3707 243.032 64.4099 243.675 65.5715 243.867" fill="#263238"/>
<path d="M64.116 251.238C64.207 249.288 63.5765 246.246 62.4325 244.654C62.2613 244.396 62.0403 244.175 61.7825 244.004C61.6519 243.918 61.5023 243.867 61.347 243.853C61.1917 243.84 61.0354 243.864 60.892 243.926C60.7083 244.051 60.5598 244.221 60.4608 244.421C60.3618 244.62 60.3155 244.841 60.3265 245.063C60.217 246.479 60.5038 247.898 61.1547 249.161C61.8055 250.424 62.7949 251.481 64.012 252.213" fill="#263238"/>
<path d="M61.9833 259.051C61.7876 257.088 61.0719 255.212 59.9098 253.617C59.7935 253.418 59.6387 253.245 59.4546 253.106C59.2705 252.968 59.0606 252.868 58.8373 252.811C58.1483 252.72 57.5958 253.429 57.4463 254.111C57.1343 255.509 57.8298 256.932 58.6358 258.122C59.4082 259.117 60.3061 260.009 61.3073 260.774" fill="#263238"/>
<path d="M60.0593 264.55C59.7544 263.006 59.1131 261.548 58.1808 260.28C57.9781 260.01 57.7185 259.788 57.4203 259.63C57.2687 259.551 57.0985 259.514 56.9279 259.525C56.7573 259.535 56.5927 259.591 56.4518 259.688C56.0228 260.026 56.1203 260.696 56.3023 261.216C56.8882 262.992 58.027 264.534 59.5523 265.616" fill="#263238"/>
<path d="M60.95 262.334C62.705 261.182 64.5634 260.196 66.501 259.389C66.6399 259.302 66.7986 259.251 66.9623 259.242C67.126 259.233 67.2893 259.266 67.437 259.337C67.5285 259.415 67.5964 259.518 67.6332 259.633C67.6699 259.747 67.674 259.87 67.645 259.987C67.5688 260.23 67.4376 260.453 67.2615 260.637C66.4078 261.595 65.349 262.348 64.1639 262.84C62.9788 263.331 61.698 263.549 60.417 263.478" fill="#263238"/>
<path d="M63.0625 255.073C64.5879 254.085 66.1045 253.093 67.6125 252.096C68.033 251.793 68.5072 251.572 69.01 251.446C69.2599 251.36 69.5306 251.354 69.7837 251.431C70.0368 251.507 70.2592 251.662 70.4192 251.872C70.5792 252.083 70.6686 252.338 70.6747 252.603C70.6808 252.867 70.6032 253.126 70.453 253.344C70.18 253.787 69.8168 254.168 69.387 254.462C68.4348 255.25 67.3466 255.858 66.176 256.256C65.6539 256.478 65.0924 256.593 64.525 256.593C63.9577 256.593 63.3961 256.478 62.874 256.256" fill="#263238"/>
<path d="M65.175 246.805C66.4316 245.084 68.1199 243.726 70.0695 242.866C70.3873 242.705 70.7405 242.627 71.0965 242.639C71.4412 242.718 71.7472 242.916 71.962 243.197C72.1767 243.478 72.2867 243.826 72.273 244.179C72.262 244.577 72.1678 244.968 71.9965 245.328C71.8252 245.687 71.5807 246.006 71.2785 246.266C70.6737 246.784 69.9708 247.175 69.2115 247.416C67.8317 247.915 66.3815 248.191 64.915 248.235" fill="#263238"/>
<path d="M66.1506 239.142C67.2036 236.912 69.0301 235.352 71.0321 233.909C71.2189 233.728 71.4498 233.599 71.7019 233.536C71.9539 233.472 72.2183 233.475 72.4686 233.545C72.6138 233.626 72.7363 233.743 72.8249 233.883C72.9134 234.024 72.9653 234.185 72.9756 234.351C72.9911 234.685 72.9334 235.017 72.8066 235.326C72.2992 236.72 71.3924 237.934 70.1995 238.816C69.0065 239.698 67.5802 240.209 66.0986 240.286" fill="#263238"/>
<path d="M66.3975 235.151C66.9272 234.003 67.3472 232.809 67.652 231.582C67.961 230.349 67.9159 229.053 67.522 227.845C67.3485 227.337 67.038 226.887 66.625 226.545C66.4141 226.372 66.1623 226.256 65.8937 226.208C65.625 226.16 65.3487 226.182 65.091 226.272C64.8638 226.381 64.6641 226.54 64.5066 226.737C64.3491 226.934 64.2378 227.164 64.181 227.409C64.0683 227.899 64.0462 228.406 64.116 228.904C64.324 231.296 65.052 234.104 66.3975 235.183" fill="#263238"/>
<path d="M32.0964 227.773C32.0866 227.918 32.0866 228.064 32.0964 228.209C32.0964 228.527 32.0639 228.937 32.0509 229.45C32.0379 229.964 32.0119 230.653 32.0509 231.4C32.0899 232.148 32.0509 233.045 32.0964 234C32.1549 235.95 32.3174 238.232 32.5904 240.773C32.8634 243.315 33.3184 246.097 33.8904 248.983C34.4624 251.869 35.2294 254.592 35.9769 257.036C36.7244 259.48 37.5174 261.645 38.2454 263.439C38.5899 264.342 38.9474 265.135 39.2529 265.844C39.5584 266.552 39.8249 267.144 40.0654 267.638L40.6049 268.756C40.6606 268.89 40.7303 269.019 40.8129 269.139C40.7733 268.999 40.7234 268.862 40.6634 268.73L40.1499 267.612C39.9289 267.118 39.6689 266.513 39.3894 265.798C39.1099 265.083 38.7394 264.284 38.4274 263.38C37.7319 261.58 36.9844 259.409 36.2304 256.978C35.4764 254.547 34.7809 251.823 34.1699 248.95C33.5589 246.077 33.1429 243.302 32.8244 240.773C32.5059 238.245 32.3499 235.95 32.2654 234C32.2004 233.038 32.1939 232.167 32.1679 231.4C32.1419 230.633 32.1679 229.97 32.1679 229.45C32.1679 228.93 32.1679 228.527 32.1679 228.209C32.1625 228.061 32.1385 227.915 32.0964 227.773Z" fill="#455A64"/>
<path d="M32.8574 241.8C32.8901 240.128 33.5037 238.519 34.5929 237.25C34.7507 237.016 34.9636 236.824 35.213 236.691C35.4623 236.559 35.7405 236.489 36.0229 236.49C36.7704 236.6 37.1084 237.491 37.1344 238.245C37.1846 239.535 36.7616 240.799 35.9449 241.8C35.2512 242.754 34.2097 243.396 33.0459 243.588" fill="#455A64"/>
<path d="M34.5018 250.939C34.4108 248.989 35.0413 245.947 36.1853 244.355C36.3569 244.097 36.5778 243.876 36.8353 243.705C36.9647 243.619 37.1132 243.568 37.2675 243.554C37.4218 243.541 37.577 243.565 37.7193 243.627C37.903 243.752 38.0515 243.922 38.1505 244.122C38.2495 244.321 38.2957 244.542 38.2848 244.764C38.3958 246.181 38.1096 247.6 37.4586 248.863C36.8076 250.126 35.8175 251.183 34.5993 251.914" fill="#455A64"/>
<path d="M36.6338 258.752C36.8348 256.789 37.5525 254.914 38.7138 253.318C38.8291 253.12 38.9828 252.946 39.1658 252.808C39.3488 252.67 39.5575 252.569 39.7798 252.512C40.4753 252.421 41.0213 253.13 41.1773 253.812C41.4893 255.21 40.7938 256.64 39.9813 257.823C39.2107 258.82 38.3126 259.711 37.3098 260.475" fill="#455A64"/>
<path d="M38.5645 264.245C38.8671 262.708 39.5089 261.258 40.443 260C40.6432 259.73 40.9007 259.508 41.197 259.35C41.3485 259.271 41.5187 259.235 41.6893 259.245C41.8599 259.255 42.0245 259.312 42.1655 259.409C42.5945 259.747 42.5035 260.423 42.3214 260.936C41.7327 262.711 40.5944 264.252 39.0715 265.337" fill="#455A64"/>
<path d="M37.7059 262.035C35.9486 260.883 34.0881 259.897 32.1484 259.09C32.0096 259.003 31.8509 258.952 31.6872 258.943C31.5234 258.934 31.3601 258.967 31.2124 259.038C31.1161 259.12 31.0458 259.228 31.01 259.349C30.9742 259.471 30.9745 259.6 31.0109 259.721C31.0848 259.964 31.2138 260.186 31.3879 260.371C32.2419 261.328 33.3008 262.081 34.4858 262.573C35.6708 263.064 36.9514 263.283 38.2324 263.211" fill="#455A64"/>
<path d="M35.5548 254.8L31.0048 251.823C30.5859 251.521 30.1141 251.301 29.6138 251.173C29.362 251.108 29.097 251.113 28.8481 251.189C28.5991 251.264 28.376 251.408 28.2033 251.602C28.0599 251.819 27.9807 252.072 27.9749 252.332C27.9692 252.592 28.0371 252.848 28.1708 253.071C28.4401 253.498 28.794 253.865 29.2108 254.15C30.164 254.937 31.2519 255.545 32.4218 255.944C32.945 256.166 33.5076 256.281 34.0761 256.281C34.6445 256.281 35.2071 256.166 35.7303 255.944" fill="#455A64"/>
<path d="M33.4426 246.506C32.189 244.782 30.4999 243.423 28.5481 242.567C28.2327 242.406 27.8816 242.328 27.5276 242.34C27.1824 242.419 26.8756 242.617 26.6598 242.898C26.4439 243.179 26.3325 243.526 26.3446 243.88C26.3557 244.278 26.4499 244.669 26.6212 245.028C26.7924 245.388 27.037 245.707 27.3391 245.967C27.944 246.485 28.6469 246.876 29.4061 247.117C30.786 247.616 32.2362 247.892 33.7026 247.936" fill="#455A64"/>
<path d="M32.4737 238.843C31.4142 236.613 29.5877 235.053 27.5857 233.61C27.3993 233.429 27.1684 233.299 26.9162 233.236C26.6641 233.172 26.3996 233.175 26.1492 233.246C26.0057 233.328 25.8848 233.445 25.7974 233.586C25.7101 233.727 25.659 233.887 25.6487 234.052C25.631 234.385 25.6865 234.718 25.8112 235.027C26.3194 236.421 27.2264 237.634 28.4192 238.516C29.612 239.398 31.0379 239.909 32.5192 239.987" fill="#455A64"/>
<path d="M32.2265 234.852C31.6947 233.704 31.2725 232.51 30.9655 231.283C30.6586 230.049 30.7059 228.754 31.102 227.546C31.2629 227.019 31.5748 226.551 31.999 226.2C32.2086 226.027 32.4593 225.911 32.7269 225.863C32.9945 225.815 33.2699 225.837 33.5265 225.927C33.7546 226.036 33.9554 226.195 34.114 226.392C34.2726 226.589 34.385 226.818 34.443 227.065C34.5492 227.556 34.5712 228.061 34.508 228.56C34.2935 230.958 33.572 233.76 32.2265 234.839" fill="#455A64"/>
<path d="M72.3384 269.165V274.95C72.3384 275.248 72.2797 275.543 72.1657 275.818C72.0517 276.093 71.8846 276.343 71.674 276.554C71.4633 276.765 71.2133 276.932 70.938 277.046C70.6628 277.16 70.3678 277.219 70.0699 277.219H30.6474C30.3495 277.219 30.0545 277.16 29.7793 277.046C29.5041 276.932 29.254 276.765 29.0433 276.554C28.8327 276.343 28.6656 276.093 28.5516 275.818C28.4376 275.543 28.3789 275.248 28.3789 274.95V269.165H72.3384Z" fill="#4C1D95"/>
<g opacity="0.4">
<path d="M68.9189 277.193L68.5939 279.026L32.2199 281.619L31.2969 277.193H68.9189Z" fill="black"/>
</g>
<path d="M306.702 305.929C306.702 306.02 242.352 306.098 163.006 306.098C83.6609 306.098 19.2979 306.02 19.2979 305.929C19.2979 305.838 83.6479 305.76 163.006 305.76C242.365 305.76 306.702 305.832 306.702 305.929Z" fill="#263238"/>
</svg>
