<svg width="334" height="295" viewBox="0 0 334 295" fill="none" xmlns="http://www.w3.org/2000/svg">
<path d="M303.913 132.51H272.183V191.685H303.913V132.51Z" fill="#E0E0E0"/>
<path d="M302.357 132.51H265.083V191.685H302.357V132.51Z" fill="#EBEBEB"/>
<path d="M296.672 137.77H270.747V186.431H296.672V137.77Z" fill="white"/>
<path d="M265.083 132.51C265.543 132.51 270.747 137.764 270.747 137.764H296.672L302.357 132.51H265.083Z" fill="#E0E0E0"/>
<path d="M302.357 191.685C301.896 191.685 296.692 186.432 296.692 186.432H270.767L265.083 191.685H302.357Z" fill="#E0E0E0"/>
<path d="M288.837 150.444H279.611V164.87H288.837V150.444Z" fill="#E0E0E0"/>
<path d="M296.539 208.978H175.798C173.64 208.978 171.883 207.24 171.883 205.106V31.1303C171.883 28.9959 173.64 27.258 175.798 27.258H296.539C298.696 27.258 300.453 28.9959 300.453 31.1303V205.099C300.453 207.234 298.696 208.971 296.539 208.971V208.978ZM175.798 27.4232C173.733 27.4232 172.05 29.0884 172.05 31.1303V205.099C172.05 207.141 173.733 208.806 175.798 208.806H296.539C298.603 208.806 300.286 207.141 300.286 205.099V31.1303C300.286 29.0884 298.603 27.4232 296.539 27.4232H175.798Z" fill="#E0E0E0"/>
<path d="M157.307 208.978H36.573C34.4153 208.978 32.6585 207.24 32.6585 205.106V31.1303C32.6585 28.9959 34.4153 27.258 36.573 27.258H157.307C159.465 27.258 161.222 28.9959 161.222 31.1303V205.099C161.222 207.234 159.465 208.971 157.307 208.971V208.978ZM36.573 27.4232C34.5089 27.4232 32.8255 29.0884 32.8255 31.1303V205.099C32.8255 207.141 34.5089 208.806 36.573 208.806H157.307C159.371 208.806 161.055 207.141 161.055 205.099V31.1303C161.055 29.0884 159.371 27.4232 157.307 27.4232H36.573Z" fill="#E0E0E0"/>
<path d="M334 249.326H0V249.492H334V249.326Z" fill="#E0E0E0"/>
<path d="M45.2436 258.756H34.5156V258.921H45.2436V258.756Z" fill="#E0E0E0"/>
<path d="M149.552 256.965H113.794V257.131H149.552V256.965Z" fill="#E0E0E0"/>
<path d="M70.1266 264.895H45.9116V265.06H70.1266V264.895Z" fill="#E0E0E0"/>
<path d="M281.589 256.879H252.738V257.045H281.589V256.879Z" fill="#E0E0E0"/>
<path d="M291.769 256.879H287.541V257.045H291.769V256.879Z" fill="#E0E0E0"/>
<path d="M247.227 260.996H211.228V261.161H247.227V260.996Z" fill="#E0E0E0"/>
<path d="M45.6845 64.1835H22.4849V71.8025H45.6845V64.1835Z" fill="#E6E6E6"/>
<path d="M57.281 71.7959H34.0814V79.4149H57.281V71.7959Z" fill="#F5F5F5"/>
<path d="M274.929 88.1771H251.729V95.7961H274.929V88.1771Z" fill="#E6E6E6"/>
<path d="M286.532 95.7961H263.332V103.415H286.532V95.7961Z" fill="#F5F5F5"/>
<path d="M46.5129 229H23.3132V236.619H46.5129V229Z" fill="#E6E6E6"/>
<path d="M58.116 236.619H34.9164V244.238H58.116V236.619Z" fill="#F5F5F5"/>
<path d="M120.14 23.617H96.9402V31.236H120.14V23.617Z" fill="#F5F5F5"/>
<path d="M45.6845 136.627H22.4849V144.246H45.6845V136.627Z" fill="#F5F5F5"/>
<path d="M311.194 219.313H287.995V226.932H311.194V219.313Z" fill="#F5F5F5"/>
<path d="M320.233 226.932H297.033V234.551H320.233V226.932Z" fill="#EBEBEB"/>
<path d="M230.24 19.4738H207.04V27.0928H230.24V19.4738Z" fill="#F5F5F5"/>
<path d="M239.278 27.0928H216.078V34.7118H239.278V27.0928Z" fill="#EBEBEB"/>
<path d="M306.532 290.593C306.532 292.834 244.06 294.644 167 294.644C89.9395 294.644 27.4681 292.827 27.4681 290.593C27.4681 288.36 89.9395 286.543 167 286.543C244.06 286.543 306.532 288.36 306.532 290.593Z" fill="#F5F5F5"/>
<path d="M303.325 63.5095H271.662V122.559H303.325V63.5095Z" fill="#5748AE"/>
<path opacity="0.3" d="M303.325 63.5095H271.662V122.559H303.325V63.5095Z" fill="black"/>
<path d="M301.776 63.5095H264.581V122.559H301.776V63.5095Z" fill="#5748AE"/>
<path d="M296.104 68.7562H270.233V117.318H296.104V68.7562Z" fill="white"/>
<path opacity="0.3" d="M264.581 63.5095C265.042 63.5095 270.233 68.7562 270.233 68.7562H296.104L301.776 63.5095H264.581Z" fill="black"/>
<path opacity="0.3" d="M301.776 122.559C301.315 122.559 296.124 117.312 296.124 117.312H270.253L264.581 122.559H301.776Z" fill="black"/>
<path d="M288.282 81.3973H279.077V95.7896H288.282V81.3973Z" fill="#5748AE"/>
<path d="M239.431 47.2208H79.6924V288.869H239.431V47.2208Z" fill="#5748AE"/>
<path opacity="0.8" d="M239.431 47.2208H79.6924V288.869H239.431V47.2208Z" fill="white"/>
<path opacity="0.5" d="M95.0096 53.1217C95.0096 53.8949 94.3817 54.5226 93.6002 54.5226C92.8186 54.5226 92.1907 53.8949 92.1907 53.1217C92.1907 52.3486 92.8186 51.7208 93.6002 51.7208C94.3817 51.7208 95.0096 52.3486 95.0096 53.1217Z" fill="black"/>
<path opacity="0.5" d="M109.739 53.1217C109.739 53.8949 109.111 54.5226 108.33 54.5226C107.548 54.5226 106.92 53.8949 106.92 53.1217C106.92 52.3486 107.548 51.7208 108.33 51.7208C109.111 51.7208 109.739 52.3486 109.739 53.1217Z" fill="black"/>
<path opacity="0.5" d="M124.468 53.1217C124.468 53.8949 123.841 54.5226 123.059 54.5226C122.277 54.5226 121.649 53.8949 121.649 53.1217C121.649 52.3486 122.277 51.7208 123.059 51.7208C123.841 51.7208 124.468 52.3486 124.468 53.1217Z" fill="black"/>
<path opacity="0.5" d="M139.205 53.1217C139.205 53.8949 138.577 54.5226 137.795 54.5226C137.013 54.5226 136.386 53.8949 136.386 53.1217C136.386 52.3486 137.013 51.7208 137.795 51.7208C138.577 51.7208 139.205 52.3486 139.205 53.1217Z" fill="black"/>
<path opacity="0.5" d="M153.934 53.1217C153.934 53.8949 153.306 54.5226 152.524 54.5226C151.743 54.5226 151.115 53.8949 151.115 53.1217C151.115 52.3486 151.743 51.7208 152.524 51.7208C153.306 51.7208 153.934 52.3486 153.934 53.1217Z" fill="black"/>
<path opacity="0.5" d="M168.663 53.1217C168.663 53.8949 168.035 54.5226 167.254 54.5226C166.472 54.5226 165.844 53.8949 165.844 53.1217C165.844 52.3486 166.472 51.7208 167.254 51.7208C168.035 51.7208 168.663 52.3486 168.663 53.1217Z" fill="black"/>
<path opacity="0.5" d="M183.399 53.1217C183.399 53.8949 182.771 54.5226 181.99 54.5226C181.208 54.5226 180.58 53.8949 180.58 53.1217C180.58 52.3486 181.208 51.7208 181.99 51.7208C182.771 51.7208 183.399 52.3486 183.399 53.1217Z" fill="black"/>
<path opacity="0.5" d="M198.129 53.1217C198.129 53.8949 197.501 54.5226 196.719 54.5226C195.938 54.5226 195.31 53.8949 195.31 53.1217C195.31 52.3486 195.938 51.7208 196.719 51.7208C197.501 51.7208 198.129 52.3486 198.129 53.1217Z" fill="black"/>
<path opacity="0.5" d="M212.858 53.1217C212.858 53.8949 212.23 54.5226 211.449 54.5226C210.667 54.5226 210.039 53.8949 210.039 53.1217C210.039 52.3486 210.667 51.7208 211.449 51.7208C212.23 51.7208 212.858 52.3486 212.858 53.1217Z" fill="black"/>
<path opacity="0.5" d="M227.594 53.1217C227.594 53.8949 226.966 54.5226 226.185 54.5226C225.403 54.5226 224.775 53.8949 224.775 53.1217C224.775 52.3486 225.403 51.7208 226.185 51.7208C226.966 51.7208 227.594 52.3486 227.594 53.1217Z" fill="black"/>
<path d="M93.7204 53.7825C89.993 53.7825 86.9536 50.7693 86.9536 47.0622C86.9536 43.3551 89.9863 40.3419 93.7204 40.3419C97.4545 40.3419 100.487 43.3551 100.487 47.0622H99.1512C99.1512 44.0886 96.713 41.6635 93.7204 41.6635C90.7278 41.6635 88.2896 44.082 88.2896 47.0622C88.2896 50.0424 90.7278 52.4609 93.7204 52.4609V53.7825Z" fill="#263238"/>
<path d="M108.563 53.7825C104.836 53.7825 101.797 50.7693 101.797 47.0622C101.797 43.3551 104.829 40.3419 108.563 40.3419C112.297 40.3419 115.33 43.3551 115.33 47.0622H113.994C113.994 44.0886 111.556 41.6635 108.563 41.6635C105.571 41.6635 103.133 44.082 103.133 47.0622C103.133 50.0424 105.571 52.4609 108.563 52.4609V53.7825Z" fill="#263238"/>
<path d="M123.4 53.7825C119.672 53.7825 116.633 50.7693 116.633 47.0622C116.633 43.3551 119.666 40.3419 123.4 40.3419C127.134 40.3419 130.166 43.3551 130.166 47.0622H128.83C128.83 44.0886 126.392 41.6635 123.4 41.6635C120.407 41.6635 117.969 44.082 117.969 47.0622C117.969 50.0424 120.407 52.4609 123.4 52.4609V53.7825Z" fill="#263238"/>
<path d="M138.243 53.7825C134.515 53.7825 131.476 50.7693 131.476 47.0622C131.476 43.3551 134.508 40.3419 138.243 40.3419C141.977 40.3419 145.009 43.3551 145.009 47.0622H143.673C143.673 44.0886 141.235 41.6635 138.243 41.6635C135.25 41.6635 132.812 44.082 132.812 47.0622C132.812 50.0424 135.25 52.4609 138.243 52.4609V53.7825Z" fill="#263238"/>
<path d="M153.079 53.7825C149.351 53.7825 146.312 50.7693 146.312 47.0622C146.312 43.3551 149.345 40.3419 153.079 40.3419C156.813 40.3419 159.846 43.3551 159.846 47.0622H158.51C158.51 44.0886 156.071 41.6635 153.079 41.6635C150.086 41.6635 147.648 44.082 147.648 47.0622C147.648 50.0424 150.086 52.4609 153.079 52.4609V53.7825Z" fill="#263238"/>
<path d="M167.922 53.7825C164.194 53.7825 161.155 50.7693 161.155 47.0622C161.155 43.3551 164.188 40.3419 167.922 40.3419C171.656 40.3419 174.689 43.3551 174.689 47.0622H173.353C173.353 44.0886 170.914 41.6635 167.922 41.6635C164.929 41.6635 162.491 44.082 162.491 47.0622C162.491 50.0424 164.929 52.4609 167.922 52.4609V53.7825Z" fill="#263238"/>
<path d="M182.758 53.7825C179.031 53.7825 175.991 50.7693 175.991 47.0622C175.991 43.3551 179.024 40.3419 182.758 40.3419C186.492 40.3419 189.525 43.3551 189.525 47.0622H188.189C188.189 44.0886 185.751 41.6635 182.758 41.6635C179.765 41.6635 177.327 44.082 177.327 47.0622C177.327 50.0424 179.765 52.4609 182.758 52.4609V53.7825Z" fill="#263238"/>
<path d="M197.601 53.7825C193.874 53.7825 190.834 50.7693 190.834 47.0622C190.834 43.3551 193.867 40.3419 197.601 40.3419C201.335 40.3419 204.368 43.3551 204.368 47.0622H203.032C203.032 44.0886 200.594 41.6635 197.601 41.6635C194.608 41.6635 192.17 44.082 192.17 47.0622C192.17 50.0424 194.608 52.4609 197.601 52.4609V53.7825Z" fill="#263238"/>
<path d="M212.437 53.7825C208.71 53.7825 205.671 50.7693 205.671 47.0622C205.671 43.3551 208.703 40.3419 212.437 40.3419C216.171 40.3419 219.204 43.3551 219.204 47.0622H217.868C217.868 44.0886 215.43 41.6635 212.437 41.6635C209.445 41.6635 207.007 44.082 207.007 47.0622C207.007 50.0424 209.445 52.4609 212.437 52.4609V53.7825Z" fill="#263238"/>
<path d="M227.28 53.7825C223.553 53.7825 220.513 50.7693 220.513 47.0622C220.513 43.3551 223.546 40.3419 227.28 40.3419C231.014 40.3419 234.047 43.3551 234.047 47.0622H232.711C232.711 44.0886 230.273 41.6635 227.28 41.6635C224.288 41.6635 221.849 44.082 221.849 47.0622C221.849 50.0424 224.288 52.4609 227.28 52.4609V53.7825Z" fill="#263238"/>
<path d="M253.052 288.869H239.431V47.2208H246.238L253.052 288.869Z" fill="#5748AE"/>
<path d="M218.322 96.4834H132.992C132.625 96.4834 132.324 96.186 132.324 95.8226C132.324 95.4592 132.625 95.1618 132.992 95.1618H218.322C218.69 95.1618 218.99 95.4592 218.99 95.8226C218.99 96.186 218.69 96.4834 218.322 96.4834Z" fill="#263238"/>
<path d="M218.115 101.79H132.785C132.418 101.79 132.117 101.492 132.117 101.129C132.117 100.765 132.418 100.468 132.785 100.468H218.115C218.483 100.468 218.783 100.765 218.783 101.129C218.783 101.492 218.483 101.79 218.115 101.79Z" fill="#263238"/>
<path d="M173.834 107.182H132.785C132.418 107.182 132.117 106.884 132.117 106.521C132.117 106.158 132.418 105.86 132.785 105.86H173.834C174.201 105.86 174.502 106.158 174.502 106.521C174.502 106.884 174.201 107.182 173.834 107.182Z" fill="#263238"/>
<path d="M124.996 107.083H110.394V92.5781H124.996V107.083ZM111.062 106.422H124.328V93.2389H111.062V106.422Z" fill="#263238"/>
<path d="M119.485 105.325L111.857 99.6817L113.841 97.0385L118.957 100.825L125.985 92.4922L128.523 94.6133L119.485 105.325Z" fill="#5748AE"/>
<path d="M219.091 123.926H133.76C133.393 123.926 133.092 123.629 133.092 123.266C133.092 122.902 133.393 122.605 133.76 122.605H219.091C219.458 122.605 219.759 122.902 219.759 123.266C219.759 123.629 219.458 123.926 219.091 123.926Z" fill="#263238"/>
<path d="M218.884 129.233H133.553C133.186 129.233 132.885 128.935 132.885 128.572C132.885 128.208 133.186 127.911 133.553 127.911H218.884C219.251 127.911 219.552 128.208 219.552 128.572C219.552 128.935 219.251 129.233 218.884 129.233Z" fill="#263238"/>
<path d="M174.602 134.625H133.553C133.186 134.625 132.885 134.327 132.885 133.964C132.885 133.601 133.186 133.303 133.553 133.303H174.602C174.969 133.303 175.27 133.601 175.27 133.964C175.27 134.327 174.969 134.625 174.602 134.625Z" fill="#263238"/>
<path d="M124.996 135.867H110.394V121.363H124.996V135.867ZM111.062 135.206H124.328V122.023H111.062V135.206Z" fill="#263238"/>
<path d="M119.485 134.109L111.857 128.466L113.841 125.823L118.957 129.609L125.985 121.277L128.523 123.398L119.485 134.109Z" fill="#5748AE"/>
<path d="M218.423 151.786H133.092C132.725 151.786 132.424 151.488 132.424 151.125C132.424 150.762 132.725 150.464 133.092 150.464H218.423C218.79 150.464 219.091 150.762 219.091 151.125C219.091 151.488 218.79 151.786 218.423 151.786Z" fill="#263238"/>
<path d="M218.216 157.099H132.885C132.518 157.099 132.217 156.801 132.217 156.438C132.217 156.074 132.518 155.777 132.885 155.777H218.216C218.583 155.777 218.884 156.074 218.884 156.438C218.884 156.801 218.583 157.099 218.216 157.099Z" fill="#263238"/>
<path d="M173.934 162.491H132.885C132.518 162.491 132.217 162.193 132.217 161.83C132.217 161.466 132.518 161.169 132.885 161.169H173.934C174.301 161.169 174.602 161.466 174.602 161.83C174.602 162.193 174.301 162.491 173.934 162.491Z" fill="#263238"/>
<path d="M124.996 164.652H110.394V150.147H124.996V164.652ZM111.062 163.991H124.328V150.808H111.062V163.991Z" fill="#263238"/>
<path d="M119.485 162.894L111.857 157.251L113.841 154.607L118.957 158.387L125.985 150.061L128.523 152.176L119.485 162.894Z" fill="#5748AE"/>
<path d="M218.423 180.365H133.092C132.725 180.365 132.424 180.068 132.424 179.705C132.424 179.341 132.725 179.044 133.092 179.044H218.423C218.79 179.044 219.091 179.341 219.091 179.705C219.091 180.068 218.79 180.365 218.423 180.365Z" fill="#263238"/>
<path d="M218.216 185.678H132.885C132.518 185.678 132.217 185.381 132.217 185.017C132.217 184.654 132.518 184.357 132.885 184.357H218.216C218.583 184.357 218.884 184.654 218.884 185.017C218.884 185.381 218.583 185.678 218.216 185.678Z" fill="#263238"/>
<path d="M173.934 191.064H132.885C132.518 191.064 132.217 190.766 132.217 190.403C132.217 190.04 132.518 189.742 132.885 189.742H173.934C174.301 189.742 174.602 190.04 174.602 190.403C174.602 190.766 174.301 191.064 173.934 191.064Z" fill="#263238"/>
<path d="M124.996 193.225H110.394V178.72H124.996V193.225ZM111.062 192.564H124.328V179.381H111.062V192.564Z" fill="#263238"/>
<path d="M218.423 209.15H133.092C132.725 209.15 132.424 208.852 132.424 208.489C132.424 208.126 132.725 207.828 133.092 207.828H218.423C218.79 207.828 219.091 208.126 219.091 208.489C219.091 208.852 218.79 209.15 218.423 209.15Z" fill="#263238"/>
<path d="M218.216 214.456H132.885C132.518 214.456 132.217 214.159 132.217 213.795C132.217 213.432 132.518 213.134 132.885 213.134H218.216C218.583 213.134 218.884 213.432 218.884 213.795C218.884 214.159 218.583 214.456 218.216 214.456Z" fill="#263238"/>
<path d="M173.934 219.848H132.885C132.518 219.848 132.217 219.551 132.217 219.187C132.217 218.824 132.518 218.526 132.885 218.526H173.934C174.301 218.526 174.602 218.824 174.602 219.187C174.602 219.551 174.301 219.848 173.934 219.848Z" fill="#263238"/>
<path d="M124.996 222.009H110.394V207.504H124.996V222.009ZM111.062 221.348H124.328V208.165H111.062V221.348Z" fill="#263238"/>
<path d="M218.423 237.934H133.092C132.725 237.934 132.424 237.637 132.424 237.273C132.424 236.91 132.725 236.613 133.092 236.613H218.423C218.79 236.613 219.091 236.91 219.091 237.273C219.091 237.637 218.79 237.934 218.423 237.934Z" fill="#263238"/>
<path d="M218.216 243.24H132.885C132.518 243.24 132.217 242.943 132.217 242.58C132.217 242.216 132.518 241.919 132.885 241.919H218.216C218.583 241.919 218.884 242.216 218.884 242.58C218.884 242.943 218.583 243.24 218.216 243.24Z" fill="#263238"/>
<path d="M173.934 248.633H132.885C132.518 248.633 132.217 248.335 132.217 247.972C132.217 247.608 132.518 247.311 132.885 247.311H173.934C174.301 247.311 174.602 247.608 174.602 247.972C174.602 248.335 174.301 248.633 173.934 248.633Z" fill="#263238"/>
<path d="M124.996 250.793H110.394V236.289H124.996V250.793ZM111.062 250.133H124.328V236.95H111.062V250.133Z" fill="#263238"/>
<path d="M97.4812 47.2208H96.8132V289.034H97.4812V47.2208Z" fill="#5748AE"/>
<path opacity="0.6" d="M253.052 288.869H239.431V47.2208H246.238L253.052 288.869Z" fill="white"/>
<path opacity="0.1" d="M239.652 72.2519H79.6924V72.9127H239.652V72.2519Z" fill="black"/>
<path opacity="0.1" d="M239.652 85.1177H79.6924V85.7785H239.652V85.1177Z" fill="black"/>
<path opacity="0.1" d="M239.652 97.9768H79.6924V98.6376H239.652V97.9768Z" fill="black"/>
<path opacity="0.1" d="M239.652 110.843H79.6924V111.503H239.652V110.843Z" fill="black"/>
<path opacity="0.1" d="M239.652 123.702H79.6924V124.363H239.652V123.702Z" fill="black"/>
<path opacity="0.1" d="M239.652 136.568H79.6924V137.228H239.652V136.568Z" fill="black"/>
<path opacity="0.1" d="M239.652 149.427H79.6924V150.088H239.652V149.427Z" fill="black"/>
<path opacity="0.1" d="M239.652 162.292H79.6924V162.953H239.652V162.292Z" fill="black"/>
<path opacity="0.1" d="M239.652 175.152H79.6924V175.812H239.652V175.152Z" fill="black"/>
<path opacity="0.1" d="M239.652 188.017H79.6924V188.678H239.652V188.017Z" fill="black"/>
<path opacity="0.1" d="M239.652 200.877H79.6924V201.537H239.652V200.877Z" fill="black"/>
<path opacity="0.1" d="M239.652 213.736H79.6924V214.397H239.652V213.736Z" fill="black"/>
<path opacity="0.1" d="M239.652 226.602H79.6924V227.262H239.652V226.602Z" fill="black"/>
<path opacity="0.1" d="M239.652 239.461H79.6924V240.121H239.652V239.461Z" fill="black"/>
<path opacity="0.1" d="M239.652 252.327H79.6924V252.987H239.652V252.327Z" fill="black"/>
<path opacity="0.1" d="M239.652 265.186H79.6924V265.846H239.652V265.186Z" fill="black"/>
<path opacity="0.1" d="M239.652 278.052H79.6924V278.712H239.652V278.052Z" fill="black"/>
<path d="M218.115 71.3862H117.127V76.0911H218.115V71.3862Z" fill="#5748AE"/>
<path d="M272.457 264.829C272.45 264.551 271.482 236.989 266.853 232.635C262.35 228.399 257.18 232.476 256.96 232.654L256.492 232.113C256.552 232.066 262.384 227.454 267.354 232.132C272.19 236.685 273.139 263.666 273.179 264.809L272.457 264.829Z" fill="#263238"/>
<path d="M272.858 270.247C272.825 269.917 269.692 237.161 282.05 223.43L282.597 223.892C270.446 237.392 273.546 269.851 273.579 270.181L272.858 270.247Z" fill="#263238"/>
<path d="M272.397 266.778L271.676 266.732C271.702 266.362 274.094 229.489 265.029 221.421L265.517 220.905C274.835 229.205 272.497 265.245 272.397 266.778Z" fill="#263238"/>
<path d="M273.579 266.758H272.858C272.865 265.734 273.159 241.853 280.166 237.961C281.722 237.095 283.252 236.95 284.702 237.531C288.937 239.229 291.041 246.531 291.128 246.842L290.426 247.027C290.406 246.954 288.329 239.745 284.421 238.179C283.185 237.683 281.876 237.815 280.527 238.569C273.873 242.256 273.586 266.514 273.579 266.758Z" fill="#263238"/>
<path d="M270.847 266.778L270.126 266.738C270.139 266.547 271.181 247.859 265.971 241.278C264.708 239.685 263.339 238.925 261.889 239.018C258.476 239.249 255.61 244.086 255.583 244.132L254.956 243.789C255.082 243.577 258.035 238.575 261.843 238.317C263.546 238.199 265.129 239.051 266.552 240.848C271.923 247.641 270.901 265.998 270.854 266.778H270.847Z" fill="#263238"/>
<path d="M271.99 269.316C271.849 267.505 268.583 224.831 274.328 217.311L274.909 217.727C269.324 225.035 272.678 268.82 272.711 269.263L271.99 269.316Z" fill="#263238"/>
<path d="M287.3 239.89C287.3 239.89 283.633 241.199 284.882 244.02C288.389 251.97 296.746 252.815 296.746 252.815C296.746 252.815 300.667 246.809 297.454 242.137C293.025 235.701 287.4 237.809 287.307 239.884L287.3 239.89Z" fill="#5748AE"/>
<path d="M271.281 236.335C271.281 236.335 274.949 236.183 275.156 239.249C275.363 242.309 267.207 250.78 267.207 250.78C267.207 250.78 261.388 248.745 262.638 241.106C263.887 233.467 270.366 234.458 271.281 236.342V236.335Z" fill="#5748AE"/>
<path d="M273.058 218.494C273.058 218.494 271.515 218.308 270.941 216.967C269.211 212.963 275.149 208.648 283.092 210.927C283.092 210.927 283.299 217.694 279.03 220.364C274.755 223.033 273.058 218.494 273.058 218.494Z" fill="#5748AE"/>
<path d="M265.069 223C265.069 223 264.662 224.91 262.805 225.491C257.274 227.229 252.137 219.339 256.024 209.639C256.024 209.639 265.082 210.095 268.189 215.725C271.302 221.355 265.062 223 265.062 223H265.069Z" fill="#5748AE"/>
<path d="M259.451 239.474C259.451 239.474 260.727 237.776 258.797 237.61C256.866 237.445 248.503 241.073 250.7 249.373C250.7 249.373 261.455 245.976 261.829 242.5C262.203 239.025 259.451 239.474 259.451 239.474Z" fill="#5748AE"/>
<path d="M282.384 221.467C282.384 221.467 282.865 219.927 284.688 219.28C286.512 218.639 293.279 219.042 293.372 227.613C293.372 227.613 282.958 229.284 281.669 226.02C280.38 222.756 282.384 221.461 282.384 221.461V221.467Z" fill="#5748AE"/>
<path d="M276.766 228.591C276.766 228.591 277.467 227.414 278.803 228.042C280.139 228.67 284.087 232.602 280.326 237.34C280.326 237.34 273.339 233.276 273.907 230.421C274.434 227.791 276.766 228.591 276.766 228.591Z" fill="#5748AE"/>
<path d="M259.645 230.659C259.645 230.659 260.654 229.377 259.177 229.218C257.701 229.06 251.075 230.771 252.618 237.174C252.618 237.174 260.687 236.586 261.034 233.93C261.382 231.273 259.645 230.659 259.645 230.659Z" fill="#5748AE"/>
<path d="M284.428 288.657H261.282L258.783 264.122H286.926L284.428 288.657Z" fill="#263238"/>
<path d="M288.155 261.419H257.547V266.831H288.155V261.419Z" fill="#263238"/>
<path opacity="0.3" d="M259.064 266.831H286.645L286.398 269.316H259.311L259.064 266.831Z" fill="black"/>
<path d="M67.3277 180.755L53.9343 240.016L43.0259 284.983L37.2544 283.159C37.2544 283.159 34.2484 267.67 38.1361 250.397C39.0312 246.412 41.2356 242.137 41.6966 238.919C42.1107 236.097 40.4808 229.661 40.7881 223.08C41.1555 215.124 39.9664 206.897 42.6451 199.311C42.6451 199.311 40.6678 190.786 45.8582 180.088L67.3277 180.762V180.755Z" fill="#EEC1BB"/>
<path d="M53.0192 287.468C47.9624 286.305 45.4507 285.287 44.6224 283.225C44.0145 281.719 46.0987 276.571 46.259 274.562C46.2924 274.179 46.0052 273.855 45.6378 273.849L35.9317 273.954C35.9317 274.12 36.1388 278.071 36.3526 280.952C36.4327 282.036 36.2257 283.159 36.2056 283.239L35.2504 289.371C35.1101 289.88 35.3973 290.415 35.885 290.56C35.9718 290.587 36.0653 290.6 36.1522 290.6H50.8549C53.587 290.6 54.1481 287.739 53.0259 287.474L53.0192 287.468Z" fill="#5748AE"/>
<path d="M74.8494 180.015L55.7246 184.621C53.5269 195.689 62.104 203.811 62.104 203.811C61.603 211.39 63.6404 221.117 65.611 228.379C67.2476 234.359 68.4032 236.018 68.8107 238.674C69.2783 241.694 68.2763 246.161 68.5235 249.987C69.619 266.6 73.8207 284.983 73.8207 284.983L79.5187 284.567L83.4065 235.787L74.8494 180.015Z" fill="#EEC1BB"/>
<path d="M89.011 287.468C83.9543 286.305 81.4426 285.287 80.6143 283.225C80.0064 281.719 81.4092 276.406 81.5695 274.397C81.6029 274.014 81.3157 273.69 80.9483 273.683L71.2021 273.849C71.2021 274.014 72.1307 278.071 72.3444 280.952C72.4246 282.036 72.2175 283.159 72.1975 283.239L71.2422 289.371C71.102 289.88 71.3892 290.415 71.8768 290.56C71.9637 290.587 72.0572 290.6 72.144 290.6H86.8467C89.5788 290.6 90.1399 287.739 89.0177 287.474L89.011 287.468Z" fill="#5748AE"/>
<path d="M77.341 183.299C76.1587 179.156 74.8761 172.76 73.9409 169.119H48.9043C48.9043 169.119 40.9016 174.484 40.2604 190.674C39.9932 197.315 37.575 205.74 37.261 213.154L59.6056 217.43L63.9944 197.526L77.341 183.299Z" fill="#5748AE"/>
<path d="M77.3411 183.299L83.2061 213.042L63.0058 217.436L60.8615 205.43L61.0419 194.388L77.3411 183.299Z" fill="#5748AE"/>
<path opacity="0.3" d="M61.5629 209.355L64.9095 194.176L69.9596 189.887L66.5528 197.064L63.0057 217.436L61.5629 209.355Z" fill="black"/>
<path d="M77.9222 148.396L80.2068 161.215L91.9836 156.676L94.9495 160.799C94.9495 160.799 81.9035 174.253 74.6958 172.284C70.6076 171.167 71.4426 151.013 71.4426 151.013L77.9222 148.389V148.396Z" fill="#EEC1BB"/>
<path d="M71.5295 135.49C71.5295 135.49 72.8855 135.933 74.2015 137.526C75.5174 139.118 81.9035 148.845 81.9035 148.845L71.8835 153.491L71.5295 135.49Z" fill="#263238"/>
<path opacity="0.3" d="M75.5575 151.786C75.5575 151.786 75.7245 148.839 75.5575 146.671C75.3905 144.504 74.3885 142.396 74.3885 142.396C74.3885 142.396 76.3925 144.966 76.9536 147.087C77.5147 149.209 77.9155 150.682 77.9155 150.682L75.5508 151.779L75.5575 151.786Z" fill="black"/>
<path d="M68.7305 134.559L71.5295 135.49C71.5295 135.49 75.5575 144.015 75.5575 147.543C75.5575 151.072 73.8541 170.05 73.8541 170.05L48.744 169.581L47.3746 160.885L45.5109 149.09C45.5109 149.09 49.1581 142.343 47.6551 136.105L49.1581 135.299L68.7305 134.565V134.559Z" fill="#263238"/>
<path d="M92.0771 160.925C94.2414 162.933 98.6102 159.61 98.6102 159.61L101.289 158.209C102.191 157.74 102.618 156.695 102.304 155.731L101.469 153.325V153.306C101.068 152.222 99.866 151.654 98.7638 152.037L96.0183 153.015C95.4639 153.213 94.9562 153.517 94.5153 153.907L90.5541 157.422L92.0838 160.925H92.0771Z" fill="#EEC1BB"/>
<path d="M96.4726 152.83C97.0204 152.513 99.7525 151.74 101.142 151.218C102.525 150.695 104.335 150.213 104.903 150.048C105.471 149.883 105.838 150.834 105.404 151.455C104.97 152.077 102.291 152.936 101.336 153.358C100.38 153.781 98.8106 154.528 98.8707 155.037C98.8707 155.037 95.9248 153.14 96.4793 152.83H96.4726Z" fill="#EEC1BB"/>
<path d="M47.6886 112.547C47.0406 114.84 46.72 117.213 46.7333 119.592C46.6999 122.314 47.6886 124.819 46.9738 127.495C46.1388 130.62 45.1502 136.191 48.9377 137.929C49.9264 138.319 51.0018 138.418 52.0506 138.22C55.7446 137.757 59.1848 136.158 62.8521 135.55C67.4079 134.823 72.7853 136.885 77.0872 135.087C78.7105 134.407 80.2469 131.275 80.3604 129.385C80.5074 127.244 78.4967 125.711 77.448 124.078C76.6731 122.849 74.6357 121.283 74.315 119.869C74.2683 116.988 75.7779 115.072 74.4954 110.182C73.7339 107.843 71.5028 104.691 68.9777 103.732C63.4801 101.611 58.0225 104.981 58.0225 104.981C53.1528 104.552 49.0914 108.028 47.6886 112.554V112.547Z" fill="#263238"/>
<path d="M63.7539 132.55C62.939 131.757 62.7653 131.129 62.9123 129.966C63.0125 129.074 63.2997 128.142 63.6404 127.237L62.4313 125.948L56.1321 120.16C56.4527 124.184 57.5549 130.673 54.4621 132.993C54.4621 132.993 50.6879 134.704 49.0379 135.2C50.1 135.993 60.2803 146.929 66.3658 146.189C71.8969 145.515 69.5188 135.213 68.5635 133.66C66.967 133.237 65.2503 132.821 63.7539 132.55Z" fill="#EEC1BB"/>
<path opacity="0.2" d="M62.9256 130.482C61.1955 130.092 58.7038 128.955 58.2763 127.006C58.1026 126.206 58.0759 125.407 58.1227 124.878L63.2863 128.05C63.2262 128.81 62.8054 129.391 62.9256 130.488V130.482Z" fill="black"/>
<path d="M53.587 113.783C54.442 119.902 54.6758 122.499 58.0292 125.572C63.0726 130.197 70.4139 128.228 71.4092 122.083C72.3044 116.552 70.7546 107.479 64.5355 105.173C58.41 102.906 52.732 107.664 53.587 113.783Z" fill="#EEC1BB"/>
<path d="M61.5162 115.858C61.5295 116.433 61.8635 116.922 62.2777 116.942C62.6852 116.968 63.0058 116.519 62.9991 115.944C62.9858 115.369 62.6518 114.88 62.2376 114.86C61.8301 114.834 61.5095 115.283 61.5162 115.865V115.858Z" fill="#263238"/>
<path d="M60.5408 113.717C60.621 113.717 60.7012 113.697 60.7546 113.638C61.6631 112.706 62.7519 112.957 62.7653 112.957C62.9256 112.997 63.0859 112.898 63.1126 112.732C63.1394 112.567 63.0258 112.409 62.8655 112.369C62.8054 112.356 61.436 112.045 60.307 113.195C60.1935 113.307 60.2068 113.499 60.3271 113.625C60.3872 113.684 60.4607 113.717 60.5342 113.717H60.5408Z" fill="#263238"/>
<path d="M69.5588 111.966C69.6323 111.94 69.6924 111.893 69.7258 111.821C69.7926 111.675 69.7259 111.503 69.5655 111.424C67.9891 110.691 66.7733 111.351 66.7265 111.378C66.5796 111.457 66.5395 111.636 66.633 111.774C66.7265 111.913 66.9203 111.959 67.0605 111.88C67.1073 111.854 68.0559 111.351 69.3117 111.94C69.3919 111.979 69.4787 111.979 69.5588 111.953V111.966Z" fill="#263238"/>
<path d="M66.1654 114.893C66.1654 114.893 67.2409 117.147 68.4099 118.534C68.6103 118.779 68.5101 119.149 68.2162 119.268C67.4613 119.585 66.5528 119.374 66.5528 119.374L66.1654 114.9V114.893Z" fill="#D8847C"/>
<path d="M62.1107 114.84L63.5469 114.563C63.5469 114.563 62.5315 115.587 62.1107 114.84Z" fill="#263238"/>
<path d="M67.9356 115.462C67.9489 116.036 68.2829 116.525 68.6971 116.545C69.1046 116.572 69.4252 116.122 69.4185 115.547C69.4052 114.973 69.0712 114.484 68.657 114.464C68.2495 114.437 67.9289 114.887 67.9356 115.468V115.462Z" fill="#263238"/>
<path d="M68.5302 114.444L69.9664 114.166C69.9664 114.166 68.951 115.191 68.5302 114.444Z" fill="#263238"/>
<path d="M65.3438 122.189C64.2149 122.189 63.1127 121.567 62.5449 120.596C62.4981 120.517 62.5248 120.418 62.605 120.371C62.6851 120.325 62.7853 120.352 62.8321 120.431C63.3732 121.356 64.4553 121.924 65.5308 121.852C65.6177 121.852 65.7045 121.911 65.7112 122.004C65.7112 122.096 65.6511 122.175 65.5575 122.182C65.4841 122.182 65.4173 122.189 65.3438 122.189Z" fill="#263238"/>
<path d="M51.5028 104.611C50.7146 103.765 50.1334 102.735 49.8128 101.631C50.8682 102.688 52.3312 103.329 53.8342 103.402C52.605 102.279 52.5182 100.184 53.5736 98.9019C54.6291 97.62 56.6398 97.2632 58.1294 98.0297C59.619 98.7962 60.5142 100.95 60.3071 102.589C60.1 104.235 59.4921 106.865 55.8916 106.944C52.9257 107.479 49.6926 105.801 48.4501 103.078C49.3252 103.825 50.3873 104.354 51.5095 104.611H51.5028Z" fill="#263238"/>
<path d="M55.5777 123.715C49.5189 119.816 49.7126 104.889 60.5609 104.023C71.4093 103.151 71.4427 116.05 71.4427 116.05C69.5656 104.109 58.9243 108.378 58.9243 108.378C61.0085 113.129 56.7801 116.248 56.7801 116.248C55.2771 119.499 55.5777 123.715 55.5777 123.715Z" fill="#263238"/>
<path d="M51.9437 118.878C52.7387 120.107 53.9678 120.841 55.07 121.065C56.7333 121.396 57.4614 118.746 56.8201 117.14C56.2457 115.699 54.589 114.801 52.9992 115.191C51.4361 115.581 51.0353 117.477 51.9371 118.878H51.9437Z" fill="#EEC1BB"/>
<path opacity="0.2" d="M54.6758 119.552C54.6758 119.552 54.6491 119.552 54.6357 119.552C53.6204 119.321 53.1528 118.799 52.939 118.402C52.7253 118.012 52.6785 117.563 52.8054 117.239C53.0058 116.724 53.6337 116.327 54.2617 116.559C54.3485 116.592 54.3953 116.684 54.3619 116.77C54.3285 116.856 54.2349 116.902 54.1481 116.869C53.7206 116.711 53.2597 117.001 53.1194 117.358C53.0526 117.537 53.0392 117.874 53.2396 118.25C53.42 118.587 53.8275 119.037 54.7159 119.235C54.8027 119.255 54.8629 119.341 54.8428 119.433C54.8228 119.512 54.756 119.559 54.6825 119.559L54.6758 119.552Z" fill="black"/>
<path d="M54.3819 124.389C53.3198 124.389 52.3846 123.609 52.2376 122.539C52.0706 121.369 52.9056 120.285 54.088 120.12C54.6625 120.041 55.2303 120.186 55.6912 120.537C56.1521 120.88 56.4527 121.382 56.5329 121.951C56.613 122.519 56.4661 123.081 56.112 123.537C55.7647 123.993 55.257 124.29 54.6825 124.369C54.5823 124.382 54.4821 124.389 54.3819 124.389ZM52.4046 122.519C52.5583 123.603 53.567 124.363 54.6625 124.204C55.1902 124.131 55.6578 123.86 55.9851 123.437C56.3058 123.015 56.446 122.492 56.3726 121.97C56.2991 121.448 56.0252 120.986 55.5977 120.662C55.1702 120.345 54.6491 120.206 54.1147 120.279C53.0192 120.431 52.2577 121.429 52.4046 122.512V122.519Z" fill="#5748AE"/>
<path d="M71.8434 181.132C71.8434 181.132 75.4105 169.964 66.5929 167.209C61.2021 165.537 59.2983 167.665 59.2983 167.665L60.5809 178.297C64.1881 182.48 70.5541 184.542 75.1567 185.262C78.5033 185.817 71.8501 181.132 71.8501 181.132H71.8434Z" fill="#E0E0E0"/>
<path d="M62.1573 151.667C61.83 155.684 70.2001 157.508 72.9121 156.993C72.9121 156.993 75.8179 160.277 77.8553 159.134C78.7438 158.638 76.3056 157.079 75.1967 155.447C74.0878 153.814 69.7792 153.088 68.8641 151.072C67.2542 147.517 62.5515 147.008 62.1507 151.673L62.1573 151.667Z" fill="white"/>
<path d="M55.9917 152.473C52.4179 163.363 50.0398 174.702 54.0211 179.031C58.0024 183.352 62.6517 187.39 67.5615 188.024C71.1152 188.473 63.9877 182.328 63.9877 182.328C63.9877 182.328 77.4278 176.711 67.2208 168.887C69.7392 165.286 67.7953 155.764 68.5702 151.997C69.345 148.231 59.3117 142.33 55.9917 152.473Z" fill="white"/>
<path d="M65.5642 139.046C65.2836 138.061 68.1226 137.777 69.7793 135.966C70.7746 137.678 68.323 141.458 68.323 141.458C68.323 141.458 66.0719 140.83 65.5642 139.046Z" fill="#263238"/>
<path d="M58.6303 148.178C58.5502 146.228 56.8 144.173 58.0425 141.081C59.2249 138.239 62.1908 136.541 65.2703 136.931C68.2228 137.314 70.4807 139.726 70.6343 142.667C70.8547 145.402 67.0004 148.006 67.5081 150.616C68.0157 153.233 58.637 148.178 58.637 148.178H58.6303Z" fill="white"/>
<path d="M66.1253 137.116C65.2769 138.015 68.1493 139.521 69.5588 139.548C68.7505 138.352 67.5281 137.493 66.1253 137.116Z" fill="#E0E0E0"/>
<path d="M54.3284 204.319H54.2416C52.5515 204.286 51.1086 203.209 50.2603 201.379C50.0666 200.936 50.267 200.427 50.7145 200.236C51.1621 200.044 51.6764 200.242 51.8702 200.685C52.4313 201.908 53.293 202.582 54.2883 202.582C55.5308 202.496 56.6196 201.722 57.1073 200.586C58.3164 198.194 57.5214 194.85 54.983 191.639C50.3672 185.804 50.3805 181.509 51.2088 178.978C51.9837 176.572 53.7005 175.072 54.9563 174.702C55.4172 174.564 55.9049 174.828 56.0385 175.284C56.1721 175.74 55.9116 176.222 55.4506 176.354C54.776 176.559 53.48 177.583 52.8922 179.52C52.1975 181.68 52.2509 185.354 56.3792 190.595C59.3451 194.335 60.2202 198.366 58.6904 201.359C57.9222 203.09 56.2322 204.234 54.3284 204.313V204.319Z" fill="white"/>
<path d="M54.3217 204.319C52.6517 204.319 51.122 203.255 50.2803 201.379C50.1334 200.923 50.3939 200.434 50.8548 200.295C51.2422 200.176 51.6631 200.335 51.8702 200.685C52.5649 202.211 53.7606 202.885 55.0365 202.502C55.4974 202.363 55.985 202.615 56.1253 203.07C56.2656 203.526 56.0118 204.009 55.5508 204.148C55.15 204.267 54.7359 204.326 54.3217 204.326V204.319Z" fill="#E0E0E0"/>
<path d="M60.9416 138.847C61.2155 137.863 58.3831 137.579 56.7265 135.768C55.7245 137.479 58.1761 141.259 58.1761 141.259C58.1761 141.259 60.4339 140.631 60.9416 138.847Z" fill="#263238"/>
<path d="M66.152 138.596C66.8133 138.312 67.5682 138.345 68.1961 138.695C68.5568 138.933 67.9489 139.495 67.5548 139.475C67.1674 139.455 65.6043 138.854 66.152 138.596Z" fill="#263238"/>
<path d="M66.6463 140.803C66.0117 140.77 65.3838 140.592 64.8294 140.281C64.7759 140.255 64.7559 140.189 64.7826 140.136C64.8093 140.083 64.8761 140.063 64.9296 140.09C66.3056 140.777 67.134 140.645 67.4479 140.301C67.675 140.01 67.675 139.601 67.4479 139.31C67.4078 139.264 67.4078 139.204 67.4479 139.158C67.4947 139.125 67.5548 139.138 67.5882 139.184C67.8888 139.561 67.8888 140.09 67.5882 140.46C67.3344 140.704 66.987 140.83 66.633 140.81L66.6463 140.803Z" fill="#263238"/>
<path d="M69.0912 140.883C68.5501 140.77 68.0491 140.526 67.6216 140.182C67.5748 140.142 67.5682 140.076 67.6016 140.03C67.6416 139.984 67.7084 139.977 67.7552 140.01C68.2228 140.354 68.9776 140.777 69.1981 140.645C69.2849 140.592 69.2782 140.42 69.2582 140.288C69.2448 140.235 69.2849 140.182 69.3384 140.169H69.345C69.3985 140.156 69.4519 140.182 69.4653 140.235C69.4653 140.242 69.4653 140.248 69.4653 140.255C69.5187 140.539 69.4653 140.731 69.3116 140.823C69.2448 140.863 69.1647 140.883 69.0845 140.883H69.0912Z" fill="#263238"/>
<path d="M64.2682 137.526C63.814 137.162 62.6984 137.479 62.665 137.995C62.625 138.51 65.0832 138.167 64.2682 137.526Z" fill="#263238"/>
<path d="M67.488 137.711C67.9355 137.526 68.7705 138.048 68.6703 138.464C68.5768 138.88 66.6797 138.015 67.488 137.711Z" fill="#263238"/>
<path d="M66.3324 139.429C66.3524 139.468 66.3324 139.521 66.2856 139.535C66.2722 139.535 66.2589 139.541 66.2455 139.535C66.172 139.535 66.1119 139.488 66.0785 139.422C66.0585 139.389 66.0718 139.336 66.1052 139.316C66.1186 139.31 66.1386 139.303 66.152 139.31C66.2255 139.31 66.2923 139.356 66.3257 139.422L66.3324 139.429Z" fill="#263238"/>
<path d="M65.484 139.131C65.5041 139.171 65.484 139.224 65.4373 139.237C65.4239 139.237 65.4105 139.244 65.3972 139.237C65.3237 139.237 65.2636 139.191 65.2302 139.131C65.2101 139.098 65.2235 139.046 65.2569 139.026C65.2703 139.019 65.2903 139.013 65.3037 139.019C65.3771 139.019 65.4439 139.065 65.4773 139.125L65.484 139.131Z" fill="#263238"/>
<path d="M65.8247 139.746C65.8447 139.779 65.8313 139.832 65.7979 139.852C65.7846 139.858 65.7645 139.865 65.7512 139.858C65.6777 139.858 65.6109 139.812 65.5842 139.746C65.5641 139.713 65.5775 139.66 65.6109 139.64C65.6243 139.634 65.6443 139.627 65.6577 139.634C65.7311 139.634 65.7979 139.68 65.8247 139.746Z" fill="#263238"/>
<path d="M69.0845 139.402C69.1046 139.442 69.0845 139.488 69.0511 139.502C69.0378 139.508 69.0177 139.508 69.0044 139.502C68.9309 139.502 68.8708 139.455 68.8374 139.396C68.8173 139.363 68.8307 139.31 68.8641 139.29C68.8774 139.283 68.8975 139.277 68.9108 139.283C68.9843 139.283 69.0511 139.33 69.0845 139.396V139.402Z" fill="#263238"/>
<path d="M68.5835 139.72C68.5835 139.779 68.5835 139.825 68.51 139.825C68.4366 139.825 68.3764 139.779 68.343 139.72C68.323 139.687 68.3364 139.634 68.3698 139.614C68.3831 139.607 68.4032 139.601 68.4165 139.607C68.49 139.607 68.5501 139.653 68.5835 139.72Z" fill="#263238"/>
<path d="M41.416 139.924C41.416 139.924 33.7474 165.174 39.2383 169.588C44.7293 174.008 48.283 169.522 51.4093 168.055C54.3485 166.674 61.6898 162.187 61.6898 162.187L58.9376 157.356L46.8669 161.004L51.0218 145.079L48.6705 135.239C45.3038 135.385 42.752 136.753 41.4093 139.918L41.416 139.924Z" fill="#EEC1BB"/>
<path d="M70.4607 158.235C70.621 157.667 69.9997 157.191 69.9997 157.191C69.9997 157.191 70.0265 156.392 68.8174 155.572C67.615 154.753 65.1501 154.528 65.1501 154.528C65.1501 154.528 65.7913 154.026 65.6978 153.418C65.6043 152.81 63.5803 153.715 63.5803 153.715C63.5803 153.715 61.1955 154.66 60.4674 155.301C59.7459 155.942 58.5235 158.387 58.5235 158.387L60.7346 162.709C61.5829 162.676 62.3578 161.837 62.939 161.143C63.5201 160.449 65.4039 159.438 66.1855 159.458C66.967 159.477 67.5148 159.616 68.3498 159.94C69.0044 160.191 69.0779 159.874 69.0779 159.722C69.1113 159.768 69.2182 159.815 69.5655 159.781C70.1734 159.715 69.9997 158.837 69.9997 158.837C69.9997 158.837 70.287 158.85 70.454 158.242L70.4607 158.235Z" fill="#EEC1BB"/>
<path opacity="0.2" d="M61.4493 155.922C61.4026 155.922 61.3558 155.903 61.3224 155.87C61.2623 155.803 61.269 155.698 61.3358 155.638C62.645 154.475 63.9009 154.363 65.0832 154.363H65.1434C65.2369 154.363 65.3104 154.436 65.3104 154.528C65.3104 154.621 65.2369 154.693 65.1434 154.693C65.13 154.693 65.1033 154.693 65.0832 154.693C63.9209 154.693 62.7786 154.799 61.5629 155.883C61.5295 155.909 61.4894 155.922 61.4493 155.922Z" fill="black"/>
<path opacity="0.2" d="M69.0779 159.887C69.0779 159.887 69.0646 159.887 69.0512 159.887C68.9577 159.874 68.8976 159.795 68.9109 159.702C68.9109 159.682 68.9376 159.292 68.2229 159.002C67.5615 158.724 66.5128 158.295 65.1901 158.48C65.0966 158.486 65.0165 158.427 65.0031 158.341C64.9898 158.255 65.0565 158.169 65.1434 158.156C66.5529 157.958 67.6952 158.433 68.3097 158.691C69.3184 159.107 69.2449 159.729 69.2382 159.755C69.2249 159.834 69.1581 159.9 69.0712 159.9L69.0779 159.887Z" fill="black"/>
<path opacity="0.2" d="M69.9931 158.896H69.9797C69.8862 158.889 69.8194 158.81 69.8261 158.718C69.8394 158.572 69.766 158.414 69.6324 158.268C69.4386 158.063 68.931 157.766 68.7172 157.667C67.8221 157.251 66.9938 157.046 66.0318 157.006C65.9383 157.006 65.8648 156.927 65.8715 156.834C65.8715 156.742 65.9517 156.669 66.0452 156.676C67.0539 156.715 67.9223 156.933 68.8575 157.37C69.0312 157.449 69.6123 157.773 69.8728 158.044C70.0799 158.262 70.1801 158.513 70.1601 158.751C70.1534 158.837 70.0799 158.903 69.9931 158.903V158.896Z" fill="black"/>
<path opacity="0.2" d="M69.9931 157.356C69.9463 157.356 69.9062 157.337 69.8728 157.303C68.6838 156.041 66.1521 155.843 66.1253 155.843C66.0318 155.837 65.965 155.757 65.9717 155.665C65.9784 155.572 66.0519 155.5 66.1521 155.513C66.259 155.519 68.8441 155.718 70.12 157.079C70.1801 157.145 70.1801 157.251 70.1133 157.31C70.0799 157.337 70.0398 157.356 69.9998 157.356H69.9931Z" fill="black"/>
<path d="M46.0452 135.411C46.0452 135.411 42.5983 136.257 41.0953 140.361C39.6859 144.22 37.8555 152.143 37.8555 152.143L49.0312 157.852L51.142 144.497L49.0712 134.982L46.0452 135.418V135.411Z" fill="#263238"/>
<path d="M58.0826 150.312C55.7914 153.643 61.3759 159.477 63.5535 161.156C63.5535 161.156 62.9857 165.478 65.1968 166.218C66.1587 166.555 65.7312 163.687 66.2456 161.784C66.7599 159.887 64.7159 155.651 64.7626 153.444C64.8227 149.599 60.7279 146.44 58.0826 150.306V150.312Z" fill="#263238"/>
</svg>
