<svg width="216" height="169" viewBox="0 0 216 169" fill="none" xmlns="http://www.w3.org/2000/svg">
<g clip-path="url(#clip0_1106_12808)">
<path d="M217 142.25H0V142.359H217V142.25Z" fill="#EBEBEB"/>
<path d="M195.257 149.234H180.883V149.343H195.257V149.234Z" fill="#EBEBEB"/>
<path d="M143.749 150.415H139.978V150.523H143.749V150.415Z" fill="#EBEBEB"/>
<path d="M180.449 145.206H172.12V145.315H180.449V145.206Z" fill="#EBEBEB"/>
<path d="M41.5121 145.936H22.7676V146.044H41.5121V145.936Z" fill="#EBEBEB"/>
<path d="M48.1263 145.936H45.379V146.044H48.1263V145.936Z" fill="#EBEBEB"/>
<path d="M97.7151 147.767H57.058V147.876H97.7151V147.767Z" fill="#EBEBEB"/>
<path d="M102.858 122.892H19.0569C18.4005 122.891 17.7712 122.629 17.3074 122.165C16.8436 121.7 16.5831 121.07 16.5831 120.414V2.60146C16.5889 1.94867 16.8519 1.32449 17.3151 0.864513C17.7782 0.404532 18.4042 0.145894 19.0569 0.144775H102.858C103.515 0.144775 104.146 0.40589 104.61 0.870678C105.075 1.33546 105.336 1.96585 105.336 2.62316V120.414C105.336 121.071 105.075 121.701 104.61 122.166C104.146 122.631 103.515 122.892 102.858 122.892ZM19.0569 0.231584C18.4292 0.232734 17.8276 0.482923 17.3842 0.927236C16.9407 1.37155 16.6916 1.97368 16.6916 2.60146V120.414C16.6916 121.041 16.9407 121.644 17.3842 122.088C17.8276 122.532 18.4292 122.782 19.0569 122.784H102.858C103.486 122.782 104.088 122.532 104.532 122.088C104.976 121.644 105.226 121.042 105.228 120.414V2.60146C105.226 1.97328 104.976 1.37116 104.532 0.926971C104.088 0.482782 103.486 0.232732 102.858 0.231584H19.0569Z" fill="#EBEBEB"/>
<path d="M196.737 122.892H112.931C112.274 122.891 111.645 122.629 111.18 122.165C110.716 121.7 110.454 121.071 110.453 120.414V2.60146C110.46 1.94827 110.724 1.3241 111.188 0.864242C111.652 0.40438 112.278 0.145881 112.931 0.144775H196.737C197.389 0.147034 198.013 0.406177 198.476 0.866037C198.938 1.3259 199.2 1.94942 199.206 2.60146V120.414C199.206 121.07 198.946 121.699 198.483 122.163C198.02 122.628 197.392 122.89 196.737 122.892ZM112.931 0.231584C112.303 0.232732 111.701 0.482782 111.257 0.926971C110.813 1.37116 110.563 1.97328 110.562 2.60146V120.414C110.563 121.042 110.813 121.644 111.257 122.088C111.701 122.532 112.303 122.782 112.931 122.784H196.737C197.365 122.782 197.967 122.532 198.411 122.088C198.855 121.644 199.105 121.042 199.106 120.414V2.60146C199.105 1.97328 198.855 1.37116 198.411 0.926971C197.967 0.482782 197.365 0.232732 196.737 0.231584H112.931Z" fill="#EBEBEB"/>
<path d="M32.8364 102.401H63.7372C64.4508 102.401 65.1574 102.541 65.8166 102.815C66.4759 103.088 67.0749 103.488 67.5794 103.993C68.084 104.497 68.4842 105.096 68.7573 105.756C69.0304 106.415 69.1709 107.121 69.1709 107.835V135.614C69.1709 137.055 68.5984 138.437 67.5794 139.456C66.5604 140.476 65.1783 141.048 63.7372 141.048H32.8364V102.418V102.401Z" fill="#F0F0F0"/>
<path d="M33.0925 102.401H32.5804C29.5794 102.401 27.1467 104.834 27.1467 107.835V135.596C27.1467 138.598 29.5794 141.031 32.5804 141.031H33.0925C36.0934 141.031 38.5262 138.598 38.5262 135.596V107.835C38.5262 104.834 36.0934 102.401 33.0925 102.401Z" fill="#F5F5F5"/>
<path d="M36.9725 141.031H77.3041V116.651H36.9725V141.031Z" fill="#F0F0F0"/>
<path d="M33.661 142.25H106.352C106.647 142.249 106.929 142.131 107.138 141.922C107.346 141.713 107.463 141.43 107.463 141.135V141.031H63.7546L32.55 141.135C32.55 141.43 32.6669 141.713 32.8752 141.922C33.0834 142.131 33.366 142.249 33.661 142.25Z" fill="#E0E0E0"/>
<path d="M65.4993 86.376H103.023C103.994 86.3577 104.957 86.5467 105.849 86.9303C106.74 87.3139 107.54 87.8833 108.194 88.6005C108.849 89.3177 109.343 90.1663 109.643 91.0895C109.943 92.0127 110.043 92.9894 109.937 93.9544L107.463 122.167H54.7838L57.2533 93.9544C57.4631 91.9012 58.4182 89.9961 59.9377 88.5996C61.4573 87.2031 63.4359 86.412 65.4993 86.376Z" fill="#E0E0E0"/>
<path d="M59.5708 86.3761H97.828C98.7512 86.3609 99.6671 86.5422 100.515 86.9081C101.363 87.274 102.123 87.816 102.745 88.4983C103.368 89.1806 103.838 89.9874 104.124 90.8653C104.411 91.7431 104.507 92.6719 104.407 93.5899L101.903 122.163H49.2199L51.7241 93.5899C51.9234 91.6358 52.832 89.8225 54.278 88.4931C55.724 87.1638 57.607 86.4106 59.5708 86.3761Z" fill="#F5F5F5"/>
<path d="M40.2058 114.424H72.1525C73.0595 114.424 73.9294 114.784 74.5708 115.426C75.2121 116.067 75.5724 116.937 75.5724 117.844V120.93C75.573 121.38 75.485 121.825 75.3134 122.24C75.1417 122.656 74.8899 123.033 74.5723 123.351C74.2547 123.669 73.8775 123.922 73.4623 124.094C73.047 124.266 72.602 124.355 72.1525 124.355H40.2058C38.889 124.355 37.6261 123.832 36.695 122.9C35.7639 121.969 35.2408 120.706 35.2408 119.389C35.2408 118.072 35.7639 116.809 36.695 115.878C37.6261 114.947 38.889 114.424 40.2058 114.424Z" fill="#E0E0E0"/>
<path d="M77.482 102.401H108.383C109.824 102.401 111.206 102.973 112.225 103.993C113.244 105.012 113.817 106.394 113.817 107.835V135.614C113.817 137.055 113.244 138.437 112.225 139.456C111.206 140.476 109.824 141.048 108.383 141.048H77.482V102.418V102.401Z" fill="#F0F0F0"/>
<path d="M77.7381 102.401H77.226C74.225 102.401 71.7923 104.834 71.7923 107.835V135.596C71.7923 138.598 74.225 141.031 77.226 141.031H77.7381C80.739 141.031 83.1718 138.598 83.1718 135.596V107.835C83.1718 104.834 80.739 102.401 77.7381 102.401Z" fill="#F5F5F5"/>
<path d="M162.754 81.1675H133.047V142.25H162.754V81.1675Z" fill="#F0F0F0"/>
<path d="M137.491 137.493V85.9246H136.805V137.493H137.491Z" fill="#E6E6E6"/>
<path d="M158.375 85.9246H136.805V86.7926H158.375V85.9246Z" fill="#E6E6E6"/>
<path d="M193.147 81.1675H163.44V142.25H193.147V81.1675Z" fill="#F0F0F0"/>
<path d="M193.152 142.25H197.084V81.1676H193.152V142.25Z" fill="#E0E0E0"/>
<path d="M167.884 137.493V85.9246H167.199V137.493H167.884Z" fill="#E6E6E6"/>
<path d="M163.444 142.25V81.8621H162.759V142.25H163.444Z" fill="#E6E6E6"/>
<path d="M188.768 85.9246H167.199V86.7926H188.768V85.9246Z" fill="#E6E6E6"/>
<path d="M161.452 94.6792H159.977V108.178H161.452V94.6792Z" fill="#E0E0E0"/>
<path d="M166.218 94.6792H164.742V108.178H166.218V94.6792Z" fill="#E0E0E0"/>
<path d="M184.932 17.4717H33.4571V71.5057H184.932V17.4717Z" fill="#E0E0E0"/>
<path d="M183.543 17.4717H32.0683V71.5057H183.543V17.4717Z" fill="#F0F0F0"/>
<path d="M178.999 66.9612V22.0161L36.6123 22.0161V66.9612H178.999Z" fill="#FAFAFA"/>
<path d="M59.7271 66.9613L69.1622 22.0161H89.9899L80.5547 66.9613H59.7271Z" fill="white"/>
<path d="M89.3432 66.9613L98.7784 22.0161H109.194L99.7549 66.9613H89.3432Z" fill="white"/>
<path d="M152.933 66.9613L162.368 22.0161H172.784L163.345 66.9613H152.933Z" fill="white"/>
<path d="M108.5 161.852C154.974 161.852 192.648 159.652 192.648 156.938C192.648 154.225 154.974 152.025 108.5 152.025C62.0262 152.025 24.3517 154.225 24.3517 156.938C24.3517 159.652 62.0262 161.852 108.5 161.852Z" fill="#F5F5F5"/>
<path d="M72.044 26.4651C73.1377 23.9606 63.4508 21.6906 60.5213 29.4079C57.8652 36.409 53.4558 38.1972 55.5303 43.0455C57.7741 48.2931 70.4686 48.9224 75.9804 43.1063C80.4506 38.3882 75.5984 36.4003 76.2234 31.9644C76.8484 27.5285 75.5377 26.0831 72.044 26.4651Z" fill="#263238"/>
<path d="M54.3975 41.4917C53.8941 38.7572 54.9097 37.6287 56.1943 36.2007C57.9303 34.439 59.1196 32.2125 59.6186 29.7899C59.8773 28.4669 60.5388 27.2562 61.5123 26.3238C62.4858 25.3914 63.7237 24.7828 65.0566 24.5814C67.921 24.0518 70.9546 24.9894 71.7575 26.1786C71.8854 26.3462 71.9582 26.5493 71.966 26.7599C71.9738 26.9705 71.9161 27.1784 71.8009 27.3549L71.4364 27.1205C71.5066 27.0156 71.5408 26.8907 71.5337 26.7646C71.5267 26.6385 71.4788 26.5182 71.3973 26.4217C70.6856 25.3626 67.7951 24.5163 65.139 25.0111C63.2425 25.3626 60.799 26.4912 60.0439 29.8854C59.5296 32.3805 58.3042 34.6734 56.5155 36.4872C55.2655 37.8761 54.3455 38.8831 54.8272 41.4092L54.3975 41.4917Z" fill="#263238"/>
<path d="M48.43 39.4125L48.161 38.5444C47.9752 37.9545 47.6386 37.4234 47.1845 37.0036L46.3165 36.2136C46.042 35.9597 45.6873 35.8099 45.314 35.7901C44.9406 35.7703 44.5721 35.8817 44.2723 36.1051L43.3436 36.7996C43.1738 36.9265 43.0309 37.0858 42.9232 37.2683C42.8155 37.4508 42.745 37.6529 42.716 37.8628C42.6869 38.0728 42.6998 38.2864 42.7539 38.4913C42.808 38.6962 42.9022 38.8884 43.0311 39.0566L43.63 39.8379C43.63 39.8379 45.0362 42.2164 47.0716 43.0411L47.5403 42.6418C47.9888 42.25 48.3122 41.735 48.4703 41.1608C48.6285 40.5867 48.6145 39.9787 48.43 39.4125Z" fill="#FFC3BD"/>
<path d="M65.2996 54.4826L65.0219 54.6953L64.7962 54.8603L64.3622 55.1641C64.0714 55.3551 63.7763 55.533 63.4942 55.7066C62.9036 56.0461 62.2952 56.3532 61.6714 56.6268C60.3886 57.1926 59.0399 57.5951 57.6569 57.8248C56.1965 58.0702 54.7062 58.079 53.2431 57.8508C52.4944 57.733 51.7589 57.5426 51.0471 57.2822C50.8691 57.2258 50.6912 57.152 50.5176 57.0782L50.2572 56.9697L50.127 56.9133L49.9838 56.8525L49.8015 56.7657C49.4227 56.5716 49.0734 56.3246 48.7642 56.0322C48.5419 55.8253 48.3372 55.6003 48.1523 55.3594C47.6612 54.6935 47.264 53.9633 46.9718 53.1892C46.7114 52.5468 46.5118 51.9305 46.3338 51.3271C46.0101 50.1597 45.7479 48.976 45.5483 47.781C45.1518 45.4716 44.9299 43.1357 44.8843 40.7929C44.8306 40.3544 44.9461 39.9118 45.2072 39.5555C45.4684 39.1991 45.8556 38.9558 46.29 38.875C46.7243 38.7942 47.1731 38.8821 47.5449 39.1207C47.9167 39.3593 48.1836 39.7307 48.2912 40.1592V40.207C49.0463 42.286 49.7711 44.4172 50.5349 46.4398C50.9299 47.4468 51.3118 48.4494 51.7458 49.3609C51.9541 49.8167 52.1798 50.2507 52.3925 50.6283C52.5372 50.905 52.7231 51.1582 52.9436 51.3792C52.9436 51.3792 52.9436 51.3792 52.9133 51.3185C52.8133 51.2147 52.6958 51.1295 52.5661 51.0667L52.4836 51.0233C52.4576 51.0233 52.4055 50.9929 52.4359 51.0016H52.5053L52.6398 51.0363C52.7294 51.0642 52.8208 51.0859 52.9133 51.1014C53.2796 51.1745 53.6511 51.2195 54.0243 51.236C54.8057 51.2599 55.5867 51.1782 56.3462 50.9929C57.1796 50.7827 57.9907 50.492 58.7679 50.1248C59.1715 49.9425 59.5708 49.7299 59.9614 49.5172C60.1567 49.4087 60.3477 49.2915 60.53 49.1786L60.964 48.9008L61.3025 48.6882C62.0651 48.2033 62.9858 48.0328 63.8714 48.2125C64.757 48.3922 65.5386 48.9081 66.052 49.6518C66.5653 50.3955 66.7706 51.3093 66.6247 52.2011C66.4787 53.093 65.9929 53.8936 65.2692 54.4349L65.2996 54.4826Z" fill="#FFC3BD"/>
<path d="M72.912 155.046C75.6592 154.139 77.9724 152.281 77.508 149.021C77.3041 147.624 81.7873 147.077 81.7873 147.077C81.2795 151.517 81.835 152.285 82.3688 153.288C82.9027 154.291 82.8723 155.519 81.9348 155.628C80.8238 155.762 80.5764 155.628 79.1963 155.823C77.5818 156.036 76.5359 156.878 73.3113 156.878C71.5709 156.878 72.044 155.332 72.912 155.046Z" fill="#5748AE"/>
<path d="M81.2665 107.618C81.5833 85.3777 79.5305 73.2549 79.5305 73.2549L63.0775 74.0752C63.0775 74.0752 65.5123 94.4231 69.8349 109.411C70.9894 117.453 73.589 131.056 75.3901 140.193C78.0626 139.964 80.7048 139.464 83.2759 138.7C83.9052 130.674 84.018 119.072 81.2665 107.618Z" fill="#5748AE"/>
<path d="M81.6224 149.256C81.6224 149.256 82.2647 145.054 82.6987 138.7C80.5154 139.46 78.2503 139.961 75.95 140.193C76.8874 145.74 77.5558 149.273 77.5558 149.273C78.8711 149.746 80.3111 149.74 81.6224 149.256Z" fill="#FFC3BD"/>
<path d="M74.4917 137.532C74.635 138.296 75.0342 140.21 75.4292 140.883C75.452 140.922 75.4834 140.955 75.5211 140.98C75.5587 141.005 75.6015 141.021 75.6462 141.026C78.7146 141.413 81.7786 140.796 83.0242 140.241C83.059 140.227 83.0905 140.206 83.1167 140.179C83.1428 140.152 83.1631 140.12 83.1761 140.085C83.5233 139.164 83.6491 137.229 83.6882 136.413C83.6904 136.368 83.6824 136.324 83.665 136.284C83.6476 136.243 83.6212 136.207 83.5877 136.178C83.5542 136.149 83.5146 136.128 83.4719 136.117C83.4291 136.106 83.3844 136.104 83.341 136.113C80.4973 136.64 77.625 136.999 74.7391 137.189C74.6996 137.194 74.6615 137.207 74.6272 137.227C74.5929 137.247 74.5632 137.274 74.5399 137.306C74.5166 137.339 74.5003 137.375 74.492 137.414C74.4837 137.453 74.4836 137.493 74.4917 137.532Z" fill="#263238"/>
<path d="M63.2945 47.9241C60.8555 48.3581 57.1361 50.4198 57.1361 50.4198C57.1361 50.4198 55.1787 55.1075 57.5223 58.4843C59.8312 59.0312 60.9943 58.5842 60.9943 58.5842L63.2945 47.9241Z" fill="#263238"/>
<path opacity="0.2" d="M57.5223 58.4844C59.8312 59.0313 60.9943 58.5843 60.9943 58.5843L60.9119 52.2603C59.3451 54.3697 58.0388 56.4618 57.5223 58.4844Z" fill="black"/>
<path opacity="0.2" d="M81.1797 94.4969C79.3395 89.9958 77.3605 86.2891 76.601 82.9036C75.299 92.1096 76.3232 100.578 81.2752 106.646C81.3316 102.166 81.2838 98.1124 81.1797 94.4969Z" fill="black"/>
<path d="M106.33 129.793L99.7636 134.464C94.4037 127.48 86.366 116.811 84.4217 112.167C79.4827 100.383 69.5528 74.405 69.5528 74.405L82.4426 71.4102C82.4426 71.4102 90.5758 78.9625 95.8228 107.462C100.215 113.703 103.913 122.888 106.33 129.793Z" fill="#5748AE"/>
<path d="M105.952 151.93C107.589 148.731 107.61 145.206 105.844 142.428C105.084 141.239 108.943 138.891 108.943 138.891C110.305 143.149 111.416 143.396 112.363 144.056C113.309 144.716 113.404 146.135 112.606 146.617C111.734 147.129 110.992 147.834 110.436 148.679C109.446 149.981 108.891 151.769 107.471 152.884C106.564 153.592 105.232 153.331 105.952 151.93Z" fill="#5748AE"/>
<path d="M109.659 140.844C109.659 140.844 108.526 136.859 106.304 130.891C104.626 132.481 102.769 133.871 100.77 135.032C103.908 139.702 106.204 143.058 106.204 143.058C107.538 142.653 108.734 141.887 109.659 140.844Z" fill="#FFC3BD"/>
<path d="M98.3444 133.209C98.7784 133.843 99.9415 135.427 100.579 135.874C100.617 135.9 100.66 135.918 100.705 135.926C100.75 135.933 100.796 135.93 100.84 135.918C103.791 135.006 106.33 133.179 107.259 132.15C107.285 132.122 107.304 132.09 107.316 132.054C107.328 132.018 107.332 131.979 107.328 131.942C107.267 130.965 106.582 129.146 106.282 128.387C106.266 128.347 106.241 128.311 106.209 128.281C106.176 128.252 106.138 128.23 106.096 128.218C106.055 128.205 106.011 128.202 105.968 128.209C105.925 128.216 105.884 128.232 105.848 128.257C103.48 129.909 101.016 131.421 98.4702 132.784C98.4316 132.801 98.3972 132.826 98.3693 132.858C98.3414 132.889 98.3208 132.927 98.3088 132.967C98.2968 133.008 98.2938 133.05 98.3 133.092C98.3061 133.134 98.3213 133.174 98.3444 133.209Z" fill="#263238"/>
<path d="M59.5708 54.4001C60.1611 58.2413 57.8739 61.2189 61.3936 62.9898C60.8077 65.9109 61.6757 71.7444 63.0689 74.0579C65.0262 75.1213 74.6002 73.55 82.4253 71.4059C82.3124 68.0637 79.5652 61.488 80.329 50.5414C80.3702 49.9426 80.285 49.3418 80.0791 48.778C79.8732 48.2142 79.5511 47.7 79.1337 47.2687C78.7163 46.8374 78.213 46.4986 77.6563 46.2742C77.0996 46.0499 76.502 45.9451 75.9022 45.9666C75.2252 45.9666 74.5048 46.0317 73.7756 46.0968C71.2122 46.2614 68.6639 46.6095 66.1503 47.1385C65.3387 47.3295 64.5011 47.5465 63.7068 47.7722C62.3262 48.1799 61.1428 49.0795 60.3807 50.3008C59.6185 51.5222 59.3304 52.9806 59.5708 54.4001Z" fill="#263238"/>
<path d="M65.1 51.479C65.1 51.479 67.5521 50.5848 68.8367 52.7811C70.9763 51.5788 73.984 46.4962 73.7713 46.1099C70.1908 47.0951 65.1 51.479 65.1 51.479Z" fill="white"/>
<path d="M65.1 51.4789C65.1 51.4789 63.2381 51.2575 62.713 52.9069C62.713 49.6516 64.909 47.6029 65.8682 47.2209C65.534 48.0717 65.1 51.4789 65.1 51.4789Z" fill="white"/>
<path d="M72.8339 37.4941C72.5604 40.0333 72.517 44.1133 73.7756 46.1142C73.7756 46.1142 69.0016 49.3826 65.0956 51.479C63.8674 48.636 65.8638 47.221 65.8638 47.221C67.7257 46.5092 67.7083 44.1263 67.4566 42.3033L72.8339 37.4941Z" fill="#FFC3BD"/>
<path opacity="0.2" d="M67.4653 42.3033L70.5033 39.5688C70.6053 40.0792 70.5724 40.6073 70.4078 41.101C69.8816 42.5236 68.8703 43.7148 67.5521 44.4649C67.5999 43.7433 67.5708 43.0187 67.4653 42.3033Z" fill="black"/>
<path d="M73.8147 32.776C73.3807 36.8994 73.3156 38.6486 71.189 40.6886C67.9861 43.7573 63.1123 42.351 62.3094 38.1928C61.5846 34.447 62.3788 28.3357 66.4063 26.8469C70.4338 25.3582 74.214 28.6569 73.8147 32.776Z" fill="#FFC3BD"/>
<path d="M72.912 35.7926C72.2756 35.1834 71.9036 34.3487 71.8761 33.4681C71.8485 32.5875 72.1674 31.7312 72.7644 31.0832C73.8494 29.9851 75.3684 32.2595 75.3684 32.2595L72.912 35.7926Z" fill="#263238"/>
<path d="M67.8819 33.9175C67.8819 34.256 67.6779 34.5208 67.4479 34.5121C67.2179 34.5034 67.0617 34.2213 67.0747 33.8871C67.0877 33.5529 67.2787 33.2838 67.5087 33.2924C67.7387 33.3011 67.8949 33.5659 67.8819 33.9175Z" fill="#263238"/>
<path d="M63.7416 33.8179C63.7416 34.1521 63.5419 34.4168 63.3076 34.4082C63.0732 34.3995 62.9213 34.1217 62.9343 33.7831C62.9473 33.4446 63.134 33.1842 63.3683 33.1928C63.6027 33.2015 63.7546 33.4793 63.7416 33.8179Z" fill="#263238"/>
<path d="M63.4638 33.2145L62.6652 32.9497C62.6652 32.9497 63.0558 33.5964 63.4638 33.2145Z" fill="#263238"/>
<path d="M64.7615 33.948C64.4261 34.7048 63.988 35.4117 63.4595 36.0488C63.6262 36.1773 63.819 36.268 64.0244 36.3144C64.2297 36.3609 64.4428 36.3621 64.6486 36.3179L64.7615 33.948Z" fill="#ED847E"/>
<path d="M66.5539 37.6374C66.3656 37.664 66.1752 37.6727 65.9853 37.6634C65.9596 37.6623 65.9353 37.6513 65.9175 37.6327C65.8998 37.6141 65.8898 37.5893 65.8899 37.5636C65.8904 37.5505 65.8936 37.5376 65.8991 37.5257C65.9046 37.5138 65.9125 37.5031 65.9221 37.4942C65.9318 37.4854 65.9431 37.4785 65.9555 37.474C65.9678 37.4695 65.9809 37.4675 65.994 37.4681C66.4119 37.493 66.8298 37.4196 67.2142 37.2538C67.5986 37.088 67.9388 36.8343 68.2074 36.5132C68.2144 36.5025 68.2235 36.4933 68.2341 36.4862C68.2447 36.4791 68.2566 36.4741 68.2692 36.4717C68.2817 36.4693 68.2946 36.4694 68.3071 36.472C68.3196 36.4747 68.3315 36.4798 68.342 36.4871C68.3528 36.4946 68.3621 36.504 68.3692 36.515C68.3764 36.526 68.3814 36.5383 68.3838 36.5512C68.3862 36.5641 68.386 36.5773 68.3833 36.5902C68.3806 36.603 68.3754 36.6152 68.368 36.626C67.918 37.1865 67.2672 37.5493 66.5539 37.6374Z" fill="#263238"/>
<path d="M74.5004 36.2311C74.3394 36.572 74.1074 36.8746 73.82 37.1186C73.5326 37.3627 73.1964 37.5425 72.8339 37.6461C71.9094 37.8761 71.4798 36.8604 71.7662 35.8448C72.0223 34.929 72.8165 33.7093 73.7279 33.9307C74.6393 34.152 74.9474 35.3413 74.5004 36.2311Z" fill="#FFC3BD"/>
<path d="M71.6794 26.9121C68.7578 28.735 65.4774 29.906 62.062 30.3454C62.062 27.3808 67.8602 24.0517 71.6794 26.9121Z" fill="#263238"/>
<path d="M69.44 27.2723C68.7673 29.8765 75.516 34.651 74.214 39.2432C76.4187 35.8099 74.8303 28.0839 74.8303 28.0839C74.8303 28.0839 69.1449 24.4857 69.44 27.2723Z" fill="#263238"/>
<path d="M68.7456 31.704C68.7193 31.7003 68.694 31.6911 68.6716 31.6768C68.6491 31.6626 68.63 31.6438 68.6154 31.6215C68.4814 31.4123 68.3 31.2376 68.0858 31.1117C67.8716 30.9857 67.6308 30.9121 67.3828 30.8967C67.357 30.8979 67.3313 30.8938 67.3071 30.8847C67.2829 30.8756 67.2608 30.8618 67.2421 30.8439C67.2235 30.8261 67.2086 30.8046 67.1985 30.7809C67.1884 30.7571 67.1832 30.7315 67.1832 30.7057C67.182 30.6793 67.1862 30.653 67.1955 30.6283C67.2048 30.6036 67.219 30.581 67.2372 30.562C67.2555 30.5429 67.2774 30.5277 67.3017 30.5174C67.326 30.507 67.3521 30.5017 67.3785 30.5017C67.6918 30.5153 67.9973 30.604 68.2692 30.7604C68.5411 30.9168 68.7715 31.1362 68.9409 31.4002C68.9556 31.4215 68.966 31.4455 68.9713 31.4709C68.9767 31.4962 68.9769 31.5224 68.9721 31.5478C68.9672 31.5733 68.9574 31.5975 68.9431 31.6191C68.9288 31.6407 68.9103 31.6592 68.8888 31.6736C68.8681 31.6879 68.8448 31.6979 68.8202 31.7031C68.7956 31.7083 68.7703 31.7086 68.7456 31.704Z" fill="#263238"/>
<path d="M61.9101 31.5607C61.8594 31.5572 61.8117 31.5356 61.7755 31.4999C61.7572 31.4818 61.7426 31.4601 61.7326 31.4363C61.7227 31.4125 61.7176 31.3869 61.7176 31.361C61.7176 31.3352 61.7227 31.3096 61.7326 31.2858C61.7426 31.2619 61.7572 31.2403 61.7755 31.2221C61.992 30.9947 62.2599 30.8224 62.5566 30.7197C62.8534 30.617 63.1704 30.5869 63.4812 30.6318C63.5321 30.6433 63.5765 30.6742 63.6049 30.7181C63.6333 30.7619 63.6434 30.8151 63.6331 30.8662C63.6279 30.8917 63.6177 30.916 63.6031 30.9375C63.5885 30.959 63.5697 30.9774 63.5478 30.9915C63.526 31.0057 63.5016 31.0153 63.476 31.0199C63.4503 31.0245 63.4241 31.0239 63.3987 31.0181C63.1523 30.9867 62.902 31.014 62.6682 31.0977C62.4344 31.1814 62.2237 31.3193 62.0533 31.4999C62.0155 31.5383 61.964 31.5602 61.9101 31.5607Z" fill="#263238"/>
<path d="M67.6042 33.3141L66.8056 33.0537C66.8056 33.0537 67.1919 33.7004 67.6042 33.3141Z" fill="#263238"/>
<path opacity="0.2" d="M80.2249 52.6638C80.1469 54.9812 80.2237 57.3013 80.4549 59.6085C78.2849 57.3167 75.5594 52.9893 75.3814 50.8191L80.2249 52.6638Z" fill="black"/>
<path d="M94.395 44.5125L94.868 41.7563L99.1516 43.41C99.1516 43.41 98.1578 45.9752 96.3306 47.1081L95.8228 46.7869C95.4247 46.5446 95.0884 46.213 94.8406 45.8182C94.5928 45.4235 94.4402 44.9764 94.395 44.5125Z" fill="#FFC3BD"/>
<path d="M97.5415 40.2198L98.952 40.9881C99.2601 41.1554 99.4896 41.4377 99.5904 41.7735C99.6912 42.1093 99.6552 42.4714 99.4901 42.7807L99.156 43.41L94.8724 41.7563L95.8923 40.5367C96.0891 40.3026 96.3604 40.1434 96.6607 40.0857C96.961 40.028 97.272 40.0754 97.5415 40.2198Z" fill="#FFC3BD"/>
<path d="M79.461 47.6593L80.0079 48.2235L80.6025 48.8268C81.0061 49.2218 81.4097 49.6255 81.8263 50.0074C82.6509 50.7844 83.5016 51.5049 84.3566 52.1777C85.163 52.8101 86.0194 53.3762 86.9172 53.8704C87.6037 54.2565 88.3506 54.5236 89.1262 54.6604L87.9588 54.8774C87.6723 55.0163 87.6897 55.0771 87.7504 55.0293C87.8676 54.9508 87.9754 54.8591 88.0716 54.7559C88.3891 54.4254 88.6794 54.0698 88.9396 53.6925C89.5298 52.8548 90.1287 51.9042 90.6756 50.9189C91.2224 49.9337 91.804 48.9223 92.3639 47.8806L94.0348 44.7902V44.7642C94.2307 44.3959 94.5512 44.1093 94.939 43.9557C95.3268 43.802 95.7566 43.7912 96.1515 43.9253C96.5465 44.0595 96.8809 44.3297 97.095 44.6877C97.3091 45.0457 97.3889 45.4682 97.3201 45.8797C97.1205 47.1297 96.8471 48.3103 96.5433 49.5126C96.2395 50.7149 95.914 51.9042 95.48 53.0978C95.0547 54.3286 94.5502 55.5305 93.9697 56.696C93.6329 57.3522 93.2515 57.9845 92.8282 58.5885C92.5611 58.961 92.2619 59.3096 91.9342 59.6302C91.4488 60.1142 90.8759 60.5015 90.2459 60.7717C89.9367 60.9034 89.6054 60.9756 89.2694 60.9844H89.0785C87.3636 60.9944 85.6663 60.6377 84.1005 59.9383C83.4093 59.6428 82.7342 59.3111 82.0781 58.9444C81.4502 58.574 80.844 58.1906 80.2596 57.7942C79.1239 56.9988 78.0423 56.1288 77.022 55.1899C76.5229 54.7298 76.0281 54.2654 75.555 53.7749C75.3207 53.5319 75.082 53.2888 74.852 53.0327C74.6219 52.7766 74.418 52.5423 74.1359 52.2167C73.512 51.526 73.188 50.6158 73.2352 49.6862C73.2824 48.7566 73.6969 47.8839 74.3876 47.26C75.0782 46.636 75.9884 46.312 76.9178 46.3592C77.8473 46.4065 78.72 46.821 79.3439 47.5117L79.461 47.6593Z" fill="#FFC3BD"/>
<path d="M76.0932 45.9883C79.2744 46.0838 82.4383 49.8947 82.4383 49.8947C82.4383 49.8947 81.2144 54.9513 77.7294 57.1302C75.7677 55.6023 74.1055 54.3783 74.1055 54.3783C71.3322 50.3113 72.2566 47.6116 76.0932 45.9883Z" fill="#263238"/>
<path d="M62.4352 73.7757C62.6696 75.1342 62.9517 76.202 63.0428 76.5275C63.0516 76.5621 63.0673 76.5945 63.0889 76.6228C63.1105 76.6512 63.1377 76.6749 63.1687 76.6925C63.6331 76.9485 65.751 77.9946 69.6396 77.7645C73.9796 77.5302 80.3464 75.1603 83.6491 72.6385C83.6973 72.6012 83.7318 72.5492 83.7475 72.4904C83.7632 72.4316 83.7591 72.3692 83.7359 72.313C83.4808 71.7474 83.1834 71.2018 82.8462 70.681C82.8133 70.631 82.765 70.593 82.7087 70.5727C82.6524 70.5523 82.591 70.5507 82.5338 70.5681C81.1102 71.0022 72.1481 73.5673 62.7086 73.4545C62.6686 73.4546 62.629 73.4634 62.5927 73.4803C62.5563 73.4972 62.524 73.5217 62.4981 73.5522C62.4721 73.5827 62.453 73.6185 62.4422 73.6571C62.4313 73.6956 62.429 73.7361 62.4352 73.7757Z" fill="#5748AE"/>
<path opacity="0.3" d="M62.4352 73.7757C62.6696 75.1342 62.9517 76.202 63.0428 76.5275C63.0516 76.5621 63.0673 76.5945 63.0889 76.6228C63.1105 76.6512 63.1377 76.6749 63.1687 76.6925C63.6331 76.9485 65.751 77.9946 69.6396 77.7645C73.9796 77.5302 80.3464 75.1603 83.6491 72.6385C83.6973 72.6012 83.7318 72.5492 83.7475 72.4904C83.7632 72.4316 83.7591 72.3692 83.7359 72.313C83.4808 71.7474 83.1834 71.2018 82.8462 70.681C82.8133 70.631 82.765 70.593 82.7087 70.5727C82.6524 70.5523 82.591 70.5507 82.5338 70.5681C81.1102 71.0022 72.1481 73.5673 62.7086 73.4545C62.6686 73.4546 62.629 73.4634 62.5927 73.4803C62.5563 73.4972 62.524 73.5217 62.4981 73.5522C62.4721 73.5827 62.453 73.6185 62.4422 73.6571C62.4313 73.6956 62.429 73.7361 62.4352 73.7757Z" fill="white"/>
<path d="M149.413 143.991H92.2727C91.2159 144.001 90.1684 143.791 89.1963 143.377C88.2242 142.962 87.3484 142.351 86.624 141.581C85.8996 140.811 85.3424 139.9 84.9873 138.904C84.6321 137.909 84.4869 136.85 84.5606 135.796L91.5046 17.0202C91.663 14.8156 92.6426 12.7506 94.2497 11.2333C95.8569 9.71596 97.9746 8.85678 100.185 8.82552H157.338C158.395 8.81576 159.442 9.02483 160.414 9.43958C161.387 9.85433 162.262 10.4658 162.987 11.2355C163.711 12.0052 164.268 12.9165 164.624 13.912C164.979 14.9076 165.124 15.9658 165.05 17.0202L158.084 135.796C157.926 137.999 156.948 140.063 155.343 141.58C153.737 143.097 151.622 143.957 149.413 143.991Z" fill="#5748AE"/>
<path opacity="0.8" d="M149.413 143.991H92.2727C91.2159 144.001 90.1684 143.791 89.1963 143.377C88.2242 142.962 87.3484 142.351 86.624 141.581C85.8996 140.811 85.3424 139.9 84.9873 138.904C84.6321 137.909 84.4869 136.85 84.5606 135.796L91.5046 17.0202C91.663 14.8156 92.6426 12.7506 94.2497 11.2333C95.8569 9.71596 97.9746 8.85678 100.185 8.82552H157.338C158.395 8.81576 159.442 9.02483 160.414 9.43958C161.387 9.85433 162.262 10.4658 162.987 11.2355C163.711 12.0052 164.268 12.9165 164.624 13.912C164.979 14.9076 165.124 15.9658 165.05 17.0202L158.084 135.796C157.926 137.999 156.948 140.063 155.343 141.58C153.737 143.097 151.622 143.957 149.413 143.991Z" fill="white"/>
<path d="M149.075 141.612H93.5227C92.7801 141.619 92.0441 141.473 91.361 141.182C90.6779 140.89 90.0624 140.461 89.5532 139.92C89.0441 139.38 88.6523 138.74 88.4026 138.04C88.1528 137.341 88.0505 136.598 88.102 135.857L95.046 17.5974C95.1573 16.0521 95.8424 14.6044 96.9667 13.5386C98.091 12.4729 99.5732 11.8661 101.122 11.8376H156.674C157.417 11.831 158.153 11.9782 158.836 12.2698C159.519 12.5614 160.135 12.9912 160.644 13.5321C161.153 14.073 161.544 14.7134 161.794 15.413C162.044 16.1126 162.146 16.8563 162.095 17.5974L155.151 135.857C155.039 137.401 154.354 138.849 153.23 139.914C152.105 140.979 150.623 141.585 149.075 141.612Z" fill="#5748AE"/>
<path d="M148.476 140.979H92.9238C92.181 140.985 91.4449 140.838 90.7618 140.546C90.0786 140.255 89.4632 139.825 88.9541 139.284C88.445 138.743 88.0533 138.103 87.8036 137.403C87.5539 136.703 87.4516 135.96 87.5031 135.219L94.4471 16.9594C94.5584 15.4142 95.2435 13.9665 96.3678 12.9007C97.4921 11.8349 98.9743 11.2282 100.523 11.1997H156.075C156.818 11.1931 157.554 11.3402 158.237 11.6318C158.92 11.9234 159.536 12.3532 160.045 12.8941C160.554 13.4351 160.946 14.0755 161.195 14.7751C161.445 15.4747 161.547 16.2184 161.496 16.9594L154.552 135.219C154.44 136.764 153.755 138.212 152.631 139.277C151.507 140.343 150.025 140.95 148.476 140.979Z" fill="white"/>
<path opacity="0.1" d="M146.853 136.582H95.046C94.587 136.586 94.1321 136.495 93.7099 136.315C93.2877 136.135 92.9073 135.869 92.5927 135.535C92.278 135.2 92.0359 134.805 91.8815 134.372C91.7271 133.94 91.6638 133.481 91.6955 133.023L94.612 83.6936C94.6804 82.7364 95.1053 81.8396 95.8028 81.1806C96.5003 80.5216 97.4197 80.1483 98.3791 80.1344H150.164C150.623 80.1303 151.078 80.2212 151.5 80.4014C151.922 80.5816 152.303 80.8471 152.617 81.1814C152.932 81.5156 153.174 81.9113 153.329 82.3437C153.483 82.776 153.546 83.2356 153.514 83.6936L150.62 133.023C150.551 133.98 150.126 134.876 149.429 135.535C148.731 136.194 147.812 136.568 146.853 136.582Z" fill="#5748AE"/>
<path opacity="0.1" d="M135.347 19.9715H120.248C120.084 19.9731 119.922 19.9407 119.771 19.8764C119.62 19.8121 119.484 19.7172 119.371 19.5978C119.259 19.4783 119.172 19.3369 119.117 19.1823C119.062 19.0278 119.039 18.8635 119.051 18.6998C119.074 18.3565 119.227 18.0348 119.477 17.7984C119.727 17.5621 120.056 17.4283 120.4 17.4237H135.495C135.661 17.4196 135.826 17.4503 135.979 17.5138C136.132 17.5773 136.271 17.6722 136.385 17.7924C136.5 17.9126 136.588 18.0555 136.644 18.2117C136.7 18.368 136.722 18.5342 136.71 18.6998C136.686 19.0449 136.532 19.3679 136.279 19.6039C136.026 19.8399 135.693 19.9713 135.347 19.9715Z" fill="#5748AE"/>
<path opacity="0.1" d="M141.354 67.5811C150.652 58.5514 151.286 44.1228 142.772 35.354C134.257 26.5852 119.818 26.7967 110.52 35.8265C101.223 44.8562 100.588 59.2848 109.102 68.0536C117.617 76.8224 132.056 76.6108 141.354 67.5811Z" fill="#5748AE"/>
<path d="M109.976 66.8006C108.076 64.7779 106.614 62.3843 105.683 59.7702C104.752 57.156 104.371 54.3776 104.564 51.6091H104.998C104.81 54.3181 105.183 57.0367 106.094 59.5947C107.005 62.1527 108.434 64.4951 110.292 66.4751L109.976 66.8006Z" fill="#5748AE"/>
<path d="M147.308 51.7956L146.874 51.7695C146.993 49.8575 146.847 47.9383 146.44 46.0662L146.874 45.9707C147.289 47.8827 147.435 49.8432 147.308 51.7956Z" fill="#5748AE"/>
<path d="M145.182 42.2901C144.119 39.9333 142.6 37.8108 140.711 36.0458C138.823 34.2807 136.603 32.9081 134.18 32.0076L134.332 31.5996C136.81 32.5186 139.081 33.9218 141.011 35.7274C142.942 37.533 144.494 39.7049 145.577 42.1165L145.182 42.2901Z" fill="#5748AE"/>
<path d="M139.371 65.5385C147.473 57.6694 148.027 45.0963 140.608 37.4556C133.189 29.8149 120.606 30.0001 112.504 37.8692C104.401 45.7383 103.847 58.3114 111.266 65.9521C118.685 73.5928 131.268 73.4076 139.371 65.5385Z" fill="#5748AE"/>
<path d="M123.729 54.4C124.684 54.1873 125.131 53.3713 125.335 52.4424C125.357 52.3426 125.374 52.2471 125.391 52.1516V52.0648C125.443 51.6777 125.472 51.2878 125.478 50.8972C124.554 50.8057 123.695 50.3774 123.066 49.6939C122.437 49.0104 122.082 48.1194 122.067 47.1905C122.019 45.3486 122.427 43.5235 123.256 41.8778C123.043 41.9058 122.841 41.9896 122.67 42.1209C122.654 42.1335 122.635 42.1423 122.614 42.1468C122.594 42.1513 122.573 42.1513 122.553 42.1469C122.515 42.1404 122.481 42.1204 122.457 42.0905C122.434 42.0579 122.425 42.0177 122.43 41.9781C122.436 41.9386 122.457 41.9027 122.488 41.8778C122.758 41.6738 123.087 41.5641 123.425 41.5653C123.49 41.4612 123.551 41.3526 123.616 41.2528C123.338 41.2528 123.069 41.2528 122.809 41.2528C123.095 39.2475 126.954 37.5635 129.584 39.0826C130.756 39.317 132.691 40.9924 132.691 40.9924C132.73 42.0595 132.7 43.1281 132.6 44.1913C132.426 46.0056 131.997 48.1367 130.951 49.326C131.211 48.7176 131.307 48.0516 131.229 47.3945C130.978 47.6424 130.667 47.8205 130.326 47.911C130.202 48.177 130.057 48.4325 129.892 48.6749C129.484 50.537 129.193 53.0154 129.814 54.4434C130.374 54.4781 130.916 54.5302 131.433 54.5866L131.558 54.6083C131.899 54.4081 132.227 54.1863 132.539 53.9442C136.445 50.9059 132.301 47.3381 133.277 44.0697C134.254 40.8014 133.429 39.56 130.76 39.4559C131.867 37.6893 124.836 34.868 121.746 40.35C118.946 45.3198 118.044 47.8025 119.051 51.6872C119.429 52.9569 120.287 54.0294 121.442 54.6778C121.639 54.6239 121.839 54.5833 122.041 54.5562C122.592 54.5041 123.165 54.4434 123.729 54.4Z" fill="#263238"/>
<path d="M117.657 62.039C117.498 61.7572 117.353 61.4674 117.223 61.1709C116.928 62.039 116.638 62.9071 116.355 63.7752C116.086 64.5564 115.83 65.3377 115.561 66.0843L115.158 67.139L114.984 67.573C114.923 67.6902 114.984 67.6208 114.984 67.6555C114.799 67.871 114.594 68.0686 114.372 68.2458C114.324 68.2935 114.264 68.3369 114.211 68.3804C115.412 69.1904 116.704 69.8562 118.061 70.3639C118.091 68.3803 118.334 66.3186 118.595 65.7674C117.032 64.6823 117.267 63.5147 117.657 62.039Z" fill="#FFC3BD"/>
<path d="M119.176 56.1838L119.068 56.3358C119.103 56.2837 119.142 56.2359 119.181 56.1882L119.176 56.1838Z" fill="#263238"/>
<path d="M118.174 59.0919C118.168 58.1365 118.457 57.2025 119.003 56.4182C118.171 57.7273 117.487 59.1249 116.963 60.585C116.963 60.585 117.041 60.8151 117.206 61.1753C117.336 61.4719 117.481 61.7616 117.64 62.0434C117.95 61.088 118.129 60.0952 118.174 59.0919Z" fill="#263238"/>
<path d="M133.303 65.3899C132.789 64.6338 132.332 63.8402 131.936 63.0157C131.806 63.0851 131.671 63.1545 131.532 63.2153C130.23 61.8394 129.119 60.7282 129.119 60.7282C127.496 57.3427 128.499 55.4156 131.576 54.6299C132.053 54.7282 132.509 54.912 132.921 55.1725C132.515 54.8871 132.049 54.6999 131.558 54.6256L131.433 54.6039C130.916 54.5475 130.374 54.4954 129.814 54.4607C129.935 54.7775 127.149 58.8011 125.4 59.4391C124.684 57.6335 122.674 57.512 122.674 57.512C122.674 57.512 120.8 57.1257 120.218 58.3063C120.6 55.867 122.948 54.5822 123.729 54.3999C123.165 54.4476 122.592 54.5084 122.041 54.5779C121.839 54.605 121.639 54.6456 121.442 54.6994C120.549 54.9444 119.757 55.4674 119.181 56.1925C119.142 56.2402 119.103 56.288 119.068 56.3401L119.003 56.4225C118.457 57.2068 118.167 58.1408 118.174 59.0962C118.134 60.0973 117.961 61.0885 117.657 62.0434C117.267 63.5018 117.032 64.6867 118.564 65.7718C118.304 66.3231 118.061 68.3761 118.031 70.3683C120.187 71.168 122.47 71.5738 124.771 71.5663C127.716 71.5619 130.626 70.9239 133.303 69.6956C133.229 68.08 133.242 66.4615 133.342 64.8473C133.329 65.0209 133.312 65.2119 133.303 65.3899Z" fill="#263238"/>
<path d="M122.674 57.512C122.674 57.512 124.684 57.6335 125.4 59.4392C127.136 58.7794 129.935 54.7775 129.814 54.4607C129.814 54.4607 125.86 56.3792 122.674 57.512Z" fill="white"/>
<path d="M123.738 54.3999C122.957 54.5865 120.609 55.8713 120.227 58.3063C120.808 57.1257 122.683 57.512 122.683 57.512C122.076 55.2289 123.738 54.3999 123.738 54.3999Z" fill="white"/>
<path d="M129.892 48.6924C129.515 49.2397 129.038 49.7109 128.486 50.0813C128.254 50.2483 128.007 50.3936 127.748 50.5154C127.179 51.4279 126.332 52.1327 125.331 52.525V52.4512C125.127 53.38 124.68 54.1874 123.725 54.4087C123.725 54.4087 122.063 55.2421 122.661 57.5252C125.851 56.3923 129.801 54.4869 129.801 54.4869C129.193 53.0371 129.484 50.5544 129.892 48.6924Z" fill="#FFC3BD"/>
<path d="M125.344 52.438C125.365 52.3382 125.383 52.2427 125.4 52.1472C125.383 52.2297 125.365 52.3382 125.344 52.438Z" fill="#263238"/>
<path opacity="0.2" d="M125.344 52.438C125.365 52.3382 125.383 52.2427 125.4 52.1472C125.383 52.2297 125.365 52.3382 125.344 52.438Z" fill="black"/>
<path d="M125.5 50.8928C125.494 51.2834 125.465 51.6733 125.413 52.0604C125.467 51.6735 125.496 51.2835 125.5 50.8928Z" fill="#263238"/>
<path opacity="0.2" d="M125.5 50.8928C125.494 51.2834 125.465 51.6733 125.413 52.0604C125.467 51.6735 125.496 51.2835 125.5 50.8928Z" fill="black"/>
<path d="M127.748 50.4937C127.049 50.8286 126.271 50.9638 125.5 50.8843C125.496 51.2749 125.467 51.6649 125.413 52.0519V52.1387C125.413 52.2342 125.378 52.3297 125.357 52.4295V52.5033C126.348 52.1063 127.186 51.4019 127.748 50.4937Z" fill="#FFC3BD"/>
<path opacity="0.2" d="M127.748 50.4937C127.049 50.8286 126.271 50.9638 125.5 50.8843C125.496 51.2749 125.467 51.6649 125.413 52.0519V52.1387C125.413 52.2342 125.378 52.3297 125.357 52.4295V52.5033C126.348 52.1063 127.186 51.4019 127.748 50.4937Z" fill="black"/>
<path d="M127.748 50.4935C128.007 50.3717 128.254 50.2264 128.486 50.0594C129.038 49.689 129.515 49.2178 129.892 48.6705C130.057 48.428 130.202 48.1726 130.326 47.9066C130.243 47.9066 130.161 47.95 130.083 47.9587C129.358 48.0238 129.154 47.2078 129.484 46.4786C129.596 46.232 129.742 46.0025 129.918 45.7971C129.728 45.1774 129.775 44.5096 130.048 43.922C129.388 42.5678 128.69 41.3178 128.625 40.4106C127.001 40.9127 125.315 41.1887 123.616 41.231C123.551 41.3308 123.49 41.4393 123.425 41.5435C123.572 41.5429 123.719 41.5649 123.859 41.6086C123.878 41.6154 123.894 41.6257 123.909 41.639C123.923 41.6522 123.934 41.6682 123.942 41.686C123.951 41.7037 123.955 41.7229 123.956 41.7424C123.956 41.7619 123.953 41.7813 123.946 41.7996C123.932 41.8366 123.905 41.8669 123.869 41.8839C123.833 41.9009 123.793 41.9033 123.755 41.8907C123.599 41.8434 123.435 41.8315 123.273 41.856C122.456 43.5031 122.058 45.3265 122.115 47.1644C122.129 48.0932 122.485 48.9842 123.114 49.6678C123.743 50.3513 124.601 50.7796 125.526 50.8711C126.287 50.9498 127.055 50.8192 127.748 50.4935ZM126.78 41.9689C127.016 42.0153 127.238 42.1187 127.425 42.2699C127.613 42.4211 127.761 42.6158 127.856 42.8369C127.873 42.8734 127.875 42.9149 127.862 42.9528C127.85 42.9908 127.823 43.0224 127.787 43.0409C127.751 43.0559 127.71 43.0559 127.674 43.0409C127.655 43.0356 127.637 43.0257 127.621 43.0122C127.606 42.9986 127.595 42.9817 127.587 42.9628C127.508 42.7875 127.388 42.634 127.237 42.5153C127.086 42.3966 126.908 42.3164 126.719 42.2814C126.68 42.2749 126.645 42.2539 126.621 42.2224C126.597 42.191 126.585 42.1516 126.589 42.1121C126.591 42.0899 126.598 42.0683 126.609 42.0489C126.62 42.0296 126.635 42.0129 126.653 42C126.671 41.9872 126.692 41.9785 126.714 41.9746C126.736 41.9707 126.759 41.9717 126.78 41.9775V41.9689ZM126.628 44.113C126.701 44.1674 126.754 44.2431 126.781 44.3295C126.809 44.4159 126.808 44.5087 126.78 44.5948C126.732 44.8466 126.559 45.0289 126.394 44.9898C126.229 44.9507 126.133 44.7294 126.181 44.4776C126.205 44.35 126.271 44.234 126.368 44.1478C126.233 44.0761 126.127 43.9594 126.068 43.8179L126.628 44.113ZM123.069 43.9307C123.093 43.8051 123.157 43.6907 123.252 43.6052C123.119 43.53 123.015 43.4123 122.957 43.271L123.525 43.5618C123.595 43.6182 123.647 43.694 123.674 43.7797C123.701 43.8654 123.702 43.9572 123.677 44.0436C123.625 44.2953 123.456 44.4776 123.291 44.4429C123.126 44.4082 123.022 44.1912 123.069 43.9394V43.9307ZM124.076 46.0402C123.915 46.0497 123.754 46.0239 123.604 45.9647C123.454 45.9055 123.319 45.8142 123.208 45.6973C123.673 45.2762 124.079 44.7944 124.415 44.2649L124.076 46.0402ZM124.914 47.2034C124.895 47.1983 124.878 47.186 124.868 47.169C124.857 47.1521 124.853 47.1318 124.857 47.1123C124.862 47.0934 124.873 47.0768 124.889 47.0663C124.906 47.0557 124.925 47.052 124.944 47.0558C125.258 47.1233 125.582 47.116 125.892 47.0346C126.202 46.9531 126.488 46.7998 126.728 46.5871C126.735 46.5799 126.743 46.5742 126.752 46.5703C126.761 46.5663 126.771 46.5642 126.781 46.564C126.791 46.5638 126.8 46.5655 126.81 46.5691C126.819 46.5727 126.827 46.5781 126.834 46.5849C126.841 46.5917 126.847 46.5999 126.851 46.609C126.855 46.618 126.857 46.6278 126.857 46.6376C126.858 46.6475 126.856 46.6573 126.852 46.6665C126.849 46.6757 126.843 46.6841 126.836 46.6912C126.433 47.0628 125.9 47.2621 125.352 47.2468C125.205 47.2455 125.059 47.2339 124.914 47.2121V47.2034Z" fill="#FFC3BD"/>
<path d="M130.634 45.2852C130.452 44.8511 130.243 44.3867 130.031 43.9526C129.758 44.5402 129.711 45.208 129.901 45.8277C130.093 45.5854 130.346 45.3983 130.634 45.2852Z" fill="#263238"/>
<path d="M126.359 44.1609C126.262 44.2472 126.196 44.3632 126.172 44.4908C126.125 44.7426 126.22 44.9726 126.385 45.003C126.55 45.0334 126.724 44.8598 126.771 44.608C126.8 44.5219 126.8 44.4291 126.773 44.3427C126.746 44.2563 126.692 44.1806 126.619 44.1262C126.583 44.1542 126.54 44.1721 126.494 44.1782C126.448 44.1843 126.402 44.1783 126.359 44.1609Z" fill="#263238"/>
<path d="M123.69 44.0567C123.715 43.9704 123.714 43.8786 123.687 43.7929C123.66 43.7071 123.608 43.6313 123.538 43.575C123.5 43.6025 123.457 43.6205 123.411 43.6273C123.364 43.6341 123.317 43.6295 123.273 43.614C123.178 43.6996 123.114 43.814 123.091 43.9395C123.043 44.1913 123.139 44.4213 123.304 44.4561C123.469 44.4908 123.616 44.3085 123.69 44.0567Z" fill="#263238"/>
<path d="M123.516 43.575L122.948 43.2842C123.006 43.4255 123.11 43.5432 123.243 43.6184C123.288 43.6349 123.337 43.6395 123.385 43.6319C123.433 43.6243 123.478 43.6047 123.516 43.575Z" fill="#263238"/>
<path d="M123.213 45.719C123.324 45.8359 123.459 45.9272 123.609 45.9864C123.759 46.0456 123.92 46.0714 124.081 46.0619L124.423 44.2866C124.086 44.8164 123.679 45.2982 123.213 45.719Z" fill="#ED847E"/>
<path d="M126.828 46.5871C126.813 46.573 126.794 46.5652 126.774 46.5652C126.753 46.5652 126.734 46.573 126.719 46.5871C126.481 46.7985 126.196 46.9511 125.888 47.0325C125.579 47.1139 125.256 47.1219 124.944 47.0559C124.925 47.052 124.906 47.0557 124.889 47.0663C124.873 47.0768 124.862 47.0934 124.857 47.1123C124.853 47.1318 124.857 47.1521 124.868 47.1691C124.878 47.186 124.895 47.1983 124.914 47.2034C125.057 47.228 125.202 47.2425 125.348 47.2468C125.896 47.2621 126.429 47.0628 126.832 46.6913C126.844 46.6764 126.851 46.6576 126.85 46.6383C126.849 46.6191 126.841 46.6009 126.828 46.5871Z" fill="#263238"/>
<path d="M130.634 45.2852C130.346 45.3983 130.093 45.5855 129.901 45.8277C129.724 46.0331 129.578 46.2626 129.467 46.5092C129.137 47.2384 129.341 48.0543 130.065 47.9892C130.144 47.9892 130.226 47.9545 130.308 47.9372C130.649 47.8466 130.96 47.6686 131.211 47.4206C131.12 46.6852 130.926 45.9662 130.634 45.2852Z" fill="#FFC3BD"/>
<path d="M128.707 39.7814C128.733 39.1563 129.089 39.0044 129.575 39.0999C126.945 37.5634 123.087 39.2475 122.8 41.2701C123.061 41.2701 123.33 41.2701 123.608 41.2701C125.307 41.2278 126.992 40.9518 128.616 40.4498C128.591 40.2229 128.622 39.9932 128.707 39.7814Z" fill="#263238"/>
<path d="M128.707 39.7814C128.625 39.9879 128.594 40.2113 128.616 40.4324C128.681 41.3526 129.38 42.6027 130.039 43.9439C130.252 44.3779 130.473 44.8119 130.643 45.2764C130.935 45.9574 131.129 46.6764 131.22 47.4119C131.298 48.0689 131.202 48.735 130.942 49.3433C131.988 48.1541 132.418 46.0229 132.591 44.2086C132.691 43.1454 132.721 42.0769 132.682 41.0097C132.682 41.0097 130.747 39.3343 129.575 39.0999C129.089 39.0044 128.733 39.1564 128.707 39.7814Z" fill="#263238"/>
<path d="M126.728 42.2771C126.917 42.312 127.095 42.3923 127.246 42.511C127.397 42.6297 127.517 42.7832 127.596 42.9585C127.603 42.9774 127.615 42.9943 127.63 43.0078C127.645 43.0214 127.663 43.0313 127.683 43.0366C127.719 43.0516 127.76 43.0516 127.796 43.0366C127.831 43.018 127.858 42.9865 127.871 42.9485C127.884 42.9105 127.882 42.869 127.865 42.8326C127.77 42.6114 127.622 42.4168 127.434 42.2656C127.247 42.1143 127.025 42.011 126.789 41.9645C126.749 41.9596 126.709 41.9705 126.677 41.9949C126.646 42.0193 126.625 42.0551 126.619 42.0947C126.611 42.1332 126.618 42.1734 126.638 42.2071C126.658 42.2409 126.69 42.2659 126.728 42.2771Z" fill="#263238"/>
<path d="M123.729 41.9124C123.767 41.9251 123.807 41.9226 123.843 41.9056C123.879 41.8886 123.906 41.8583 123.92 41.8213C123.927 41.8031 123.93 41.7836 123.93 41.7641C123.929 41.7446 123.925 41.7254 123.916 41.7077C123.908 41.6899 123.897 41.6739 123.883 41.6607C123.868 41.6474 123.852 41.6371 123.833 41.6303C123.693 41.5866 123.546 41.5646 123.399 41.5652C123.061 41.5639 122.732 41.6737 122.462 41.8777C122.431 41.9026 122.41 41.9384 122.404 41.978C122.399 42.0176 122.408 42.0578 122.431 42.0904C122.455 42.1202 122.489 42.1403 122.527 42.1468C122.547 42.1512 122.568 42.1512 122.588 42.1467C122.609 42.1422 122.628 42.1333 122.644 42.1208C122.815 41.9895 123.017 41.9056 123.23 41.8777C123.397 41.8506 123.568 41.8624 123.729 41.9124Z" fill="#263238"/>
<path d="M126.359 44.161C126.402 44.1784 126.448 44.1843 126.494 44.1782C126.54 44.1721 126.583 44.1542 126.62 44.1263L126.051 43.8354C126.112 43.9768 126.221 44.0921 126.359 44.161Z" fill="#263238"/>
<path d="M133.303 65.3898C133.303 65.2118 133.329 65.0209 133.338 64.8386C133.095 64.4523 132.847 64.0616 132.591 63.6753L132.092 62.9331L131.936 63.0156C132.332 63.8401 132.789 64.6337 133.303 65.3898Z" fill="#263238"/>
<path opacity="0.2" d="M133.303 65.3898C133.303 65.2118 133.329 65.0209 133.338 64.8386C133.095 64.4523 132.847 64.0616 132.591 63.6753L132.092 62.9331L131.936 63.0156C132.332 63.8401 132.789 64.6337 133.303 65.3898Z" fill="black"/>
<path d="M134.592 68.9837V69.0531C136.323 68.1177 137.918 66.9494 139.331 65.5808C139.094 64.8806 138.816 64.1951 138.498 63.5278C138.077 62.6201 137.609 61.7349 137.096 60.8758C136.662 60.1292 136.202 59.4174 135.729 58.7056C135.295 59.6127 134.063 61.796 132.105 62.9201L132.604 63.6623C132.86 64.0486 133.108 64.4393 133.351 64.8256C133.564 65.1641 133.785 65.507 133.963 65.8456C134.297 66.4315 134.609 67.0218 134.831 67.5817L134.787 67.8769C134.735 68.2371 134.67 68.6061 134.592 68.9837Z" fill="#FFC3BD"/>
<path d="M129.119 60.7282C129.119 60.7282 130.23 61.8393 131.532 63.2153C131.671 63.1545 131.806 63.085 131.936 63.0156L132.092 62.9331C134.05 61.809 135.273 59.6257 135.716 58.7186C135.842 58.4625 135.907 58.3062 135.907 58.3062C135.907 58.3062 134.649 56.2228 132.921 55.1724C132.509 54.912 132.053 54.7282 131.576 54.6299C128.499 55.4155 127.496 57.3427 129.119 60.7282Z" fill="#263238"/>
<path d="M149.93 17.1894H156.045C156.212 17.1866 156.372 17.1213 156.493 17.0064C156.614 16.8916 156.688 16.7354 156.7 16.5688C156.705 16.4894 156.694 16.4097 156.667 16.3348C156.641 16.2599 156.599 16.1914 156.544 16.1335C156.489 16.0756 156.423 16.0296 156.35 15.9985C156.277 15.9673 156.198 15.9516 156.118 15.9524H149.999C149.833 15.9552 149.673 16.0198 149.552 16.1338C149.431 16.2478 149.357 16.4029 149.344 16.5688C149.338 16.6489 149.348 16.7294 149.375 16.8051C149.402 16.8808 149.444 16.9501 149.5 17.0085C149.555 17.067 149.621 17.1132 149.696 17.1444C149.77 17.1755 149.849 17.1909 149.93 17.1894Z" fill="#5748AE"/>
<path d="M149.804 19.3205H155.919C156.086 19.3177 156.246 19.2524 156.367 19.1375C156.488 19.0226 156.562 18.8665 156.574 18.6998C156.58 18.6201 156.57 18.5399 156.543 18.4645C156.516 18.3891 156.474 18.32 156.42 18.2617C156.365 18.2033 156.299 18.1569 156.225 18.1255C156.152 18.0941 156.073 18.0783 155.993 18.0791H149.878C149.71 18.0809 149.549 18.1457 149.427 18.2607C149.304 18.3757 149.23 18.5324 149.218 18.6998C149.213 18.7796 149.225 18.8596 149.252 18.9347C149.279 19.0099 149.322 19.0786 149.377 19.1368C149.432 19.1949 149.498 19.2412 149.571 19.2728C149.645 19.3044 149.724 19.3206 149.804 19.3205Z" fill="#5748AE"/>
<path d="M100.332 19.3205H106.447C106.615 19.3178 106.775 19.2526 106.897 19.1378C107.019 19.023 107.094 18.8668 107.107 18.6998C107.112 18.6198 107.101 18.5396 107.074 18.4642C107.047 18.3888 107.005 18.3197 106.949 18.2615C106.894 18.2032 106.828 18.1569 106.754 18.1255C106.681 18.0941 106.601 18.0783 106.521 18.0791H100.406C100.239 18.081 100.078 18.1459 99.9566 18.261C99.8351 18.3761 99.7615 18.5328 99.7506 18.6998C99.7452 18.7794 99.7563 18.8593 99.7831 18.9344C99.8099 19.0095 99.8519 19.0784 99.9064 19.1366C99.961 19.1948 100.027 19.2412 100.1 19.2728C100.173 19.3044 100.252 19.3207 100.332 19.3205Z" fill="#5748AE"/>
<path d="M149.678 21.4474H155.806C155.974 21.4457 156.135 21.3809 156.257 21.2659C156.379 21.1509 156.454 20.9941 156.466 20.8267C156.47 20.7469 156.459 20.667 156.431 20.5918C156.404 20.5167 156.362 20.4479 156.307 20.3898C156.252 20.3316 156.186 20.2853 156.112 20.2537C156.039 20.2221 155.96 20.2059 155.88 20.2061H149.752C149.584 20.2088 149.424 20.2739 149.302 20.3887C149.18 20.5035 149.105 20.6597 149.092 20.8267C149.087 20.9067 149.098 20.9869 149.125 21.0624C149.152 21.1378 149.194 21.2068 149.249 21.2651C149.304 21.3234 149.371 21.3697 149.445 21.401C149.518 21.4324 149.598 21.4482 149.678 21.4474Z" fill="#5748AE"/>
<path d="M141.64 99.3191H104.646C103.955 99.3255 103.27 99.189 102.635 98.9179C101.999 98.6469 101.427 98.2473 100.953 97.7443C100.479 97.2412 100.115 96.6456 99.8826 95.9948C99.6503 95.3441 99.5551 94.6523 99.603 93.963C99.7071 92.5224 100.347 91.1731 101.398 90.1816C102.448 89.19 103.831 88.6281 105.275 88.6069H142.27C142.96 88.6005 143.645 88.737 144.281 89.008C144.916 89.2791 145.489 89.6787 145.963 90.1817C146.436 90.6848 146.801 91.2804 147.033 91.9311C147.265 92.5819 147.361 93.2737 147.313 93.963C147.209 95.4036 146.568 96.7529 145.518 97.7444C144.468 98.736 143.084 99.2979 141.64 99.3191Z" fill="white"/>
<path d="M140.798 113.716H103.8C103.109 113.721 102.424 113.584 101.789 113.312C101.154 113.04 100.582 112.64 100.108 112.137C99.6346 111.634 99.2702 111.038 99.0376 110.387C98.8051 109.737 98.7095 109.045 98.7567 108.356C98.8639 106.917 99.5055 105.571 100.555 104.583C101.605 103.594 102.987 103.034 104.429 103.013H141.428C142.118 103.006 142.803 103.143 143.439 103.414C144.074 103.685 144.647 104.084 145.121 104.587C145.594 105.091 145.959 105.686 146.191 106.337C146.423 106.988 146.519 107.679 146.471 108.369C146.364 109.807 145.722 111.154 144.672 112.144C143.623 113.133 142.241 113.694 140.798 113.716Z" fill="white"/>
<path d="M139.952 128.109H102.958C102.267 128.115 101.582 127.979 100.947 127.708C100.311 127.437 99.7385 127.037 99.2648 126.534C98.7912 126.031 98.4267 125.436 98.1944 124.785C97.962 124.134 97.8668 123.442 97.9147 122.753C98.0188 121.312 98.6589 119.962 99.7089 118.97C100.759 117.978 102.143 117.415 103.587 117.393H140.581C141.272 117.387 141.957 117.524 142.593 117.795C143.228 118.067 143.801 118.467 144.274 118.97C144.748 119.474 145.112 120.07 145.345 120.72C145.577 121.371 145.672 122.063 145.624 122.753C145.52 124.194 144.88 125.543 143.83 126.534C142.78 127.526 141.396 128.088 139.952 128.109Z" fill="white"/>
<path d="M107.52 95.8826C108.646 94.7887 108.724 93.0418 107.694 91.9808C106.664 90.9197 104.915 90.9463 103.789 92.0401C102.663 93.134 102.585 94.8809 103.615 95.942C104.646 97.003 106.394 96.9764 107.52 95.8826Z" fill="#5748AE"/>
<path d="M105.327 105.747L105.692 107.123C105.713 107.199 105.759 107.265 105.821 107.312C105.884 107.36 105.961 107.385 106.039 107.384H107.484C107.566 107.384 107.645 107.412 107.709 107.462C107.774 107.512 107.82 107.581 107.841 107.66C107.863 107.739 107.857 107.822 107.827 107.898C107.796 107.973 107.741 108.037 107.671 108.078L106.452 108.946C106.382 108.992 106.329 109.059 106.3 109.137C106.27 109.215 106.265 109.3 106.287 109.38L106.651 110.756C106.673 110.835 106.67 110.919 106.642 110.996C106.614 111.073 106.564 111.14 106.497 111.187C106.43 111.235 106.35 111.26 106.269 111.261C106.187 111.261 106.107 111.237 106.039 111.19L104.92 110.322C104.856 110.277 104.78 110.253 104.703 110.253C104.625 110.253 104.549 110.277 104.486 110.322L103.266 111.19C103.202 111.241 103.123 111.269 103.041 111.269C102.96 111.27 102.88 111.243 102.816 111.193C102.751 111.143 102.705 111.073 102.685 110.993C102.665 110.914 102.673 110.831 102.706 110.756L103.231 109.38C103.263 109.306 103.27 109.222 103.249 109.144C103.229 109.065 103.183 108.996 103.118 108.946L101.999 108.078C101.937 108.025 101.893 107.954 101.873 107.876C101.853 107.797 101.858 107.714 101.887 107.638C101.916 107.562 101.968 107.497 102.035 107.451C102.102 107.406 102.182 107.382 102.263 107.384H103.709C103.791 107.384 103.871 107.359 103.938 107.312C104.005 107.266 104.057 107.2 104.086 107.123L104.594 105.747C104.617 105.668 104.665 105.598 104.731 105.548C104.798 105.499 104.878 105.472 104.961 105.472C105.043 105.472 105.124 105.499 105.19 105.548C105.256 105.598 105.304 105.668 105.327 105.747Z" fill="#5748AE"/>
<path d="M106.33 121.295L106.1 125.158C106.089 125.32 106.017 125.471 105.899 125.582C105.78 125.694 105.624 125.756 105.462 125.757H102.081C102.006 125.752 101.933 125.733 101.866 125.7C101.799 125.667 101.739 125.62 101.69 125.564C101.641 125.507 101.604 125.441 101.581 125.37C101.558 125.299 101.549 125.223 101.556 125.149L101.838 120.34C101.848 120.178 101.919 120.025 102.036 119.913C102.154 119.801 102.309 119.738 102.472 119.736H104.902L106.33 121.295Z" fill="#5748AE"/>
<path d="M104.88 119.745L106.343 121.295H105.393C105.315 121.295 105.239 121.28 105.168 121.25C105.096 121.22 105.032 121.175 104.979 121.119C104.926 121.062 104.886 120.996 104.86 120.923C104.834 120.85 104.823 120.773 104.828 120.696L104.88 119.745ZM104.494 118.682L104.433 119.719L104.377 120.67C104.37 120.808 104.39 120.947 104.437 121.077C104.484 121.208 104.556 121.327 104.65 121.429C104.746 121.53 104.861 121.61 104.989 121.664C105.116 121.719 105.254 121.747 105.393 121.746H107.38L106.669 120.986L105.21 119.437L104.494 118.682Z" fill="white"/>
<path opacity="0.2" d="M140.399 93.3944H112.714C112.602 93.3952 112.491 93.373 112.388 93.329C112.285 93.285 112.192 93.2203 112.115 93.1389C112.038 93.0574 111.979 92.961 111.941 92.8556C111.903 92.7502 111.887 92.6381 111.894 92.5263C111.912 92.2925 112.017 92.0739 112.188 91.9134C112.359 91.7528 112.584 91.6618 112.818 91.6582H140.499C140.611 91.6574 140.722 91.6797 140.825 91.7236C140.928 91.7676 141.021 91.8323 141.098 91.9137C141.175 91.9952 141.234 92.0916 141.272 92.197C141.31 92.3024 141.326 92.4145 141.319 92.5263C141.302 92.7598 141.198 92.9783 141.027 93.1389C140.857 93.2996 140.633 93.3907 140.399 93.3944Z" fill="#5748AE"/>
<path opacity="0.2" d="M135.152 96.2763H112.549C112.437 96.2771 112.326 96.2548 112.223 96.2109C112.119 96.167 112.026 96.1023 111.949 96.021C111.872 95.9396 111.812 95.8432 111.773 95.7378C111.735 95.6324 111.718 95.5202 111.725 95.4082C111.743 95.1744 111.848 94.9558 112.019 94.7952C112.19 94.6347 112.415 94.5437 112.649 94.5401H135.252C135.364 94.5387 135.476 94.5605 135.579 94.6042C135.683 94.6479 135.776 94.7125 135.854 94.794C135.931 94.8755 135.991 94.9721 136.029 95.0778C136.067 95.1835 136.084 95.296 136.076 95.4082C136.057 95.6417 135.952 95.8597 135.781 96.02C135.61 96.1804 135.386 96.2717 135.152 96.2763Z" fill="#5748AE"/>
<path opacity="0.2" d="M139.488 108.924H131.849C131.614 108.927 131.389 109.018 131.218 109.178C131.047 109.339 130.942 109.558 130.925 109.792C130.918 109.904 130.934 110.016 130.972 110.122C131.01 110.227 131.069 110.324 131.146 110.405C131.223 110.486 131.316 110.551 131.419 110.595C131.522 110.639 131.633 110.661 131.745 110.661H139.383C139.618 110.658 139.844 110.567 140.015 110.407C140.186 110.246 140.29 110.027 140.308 109.792C140.315 109.681 140.299 109.569 140.261 109.463C140.223 109.358 140.164 109.261 140.087 109.18C140.01 109.098 139.917 109.034 139.814 108.99C139.711 108.946 139.6 108.924 139.488 108.924Z" fill="#5748AE"/>
<path opacity="0.2" d="M127.383 108.924H111.807C111.572 108.927 111.347 109.018 111.176 109.178C111.005 109.339 110.9 109.558 110.883 109.792C110.875 109.904 110.89 110.017 110.928 110.123C110.966 110.228 111.025 110.325 111.102 110.406C111.179 110.488 111.273 110.553 111.376 110.596C111.479 110.64 111.591 110.662 111.703 110.661H127.284C127.518 110.657 127.743 110.566 127.914 110.405C128.085 110.245 128.19 110.026 128.208 109.792C128.215 109.68 128.199 109.568 128.161 109.462C128.122 109.356 128.063 109.26 127.985 109.178C127.908 109.097 127.814 109.032 127.711 108.988C127.607 108.945 127.496 108.923 127.383 108.924Z" fill="#5748AE"/>
<path opacity="0.2" d="M134.579 106.051H111.972C111.737 106.054 111.512 106.144 111.341 106.305C111.17 106.466 111.065 106.685 111.048 106.919C111.04 107.031 111.056 107.143 111.094 107.248C111.132 107.354 111.192 107.45 111.269 107.532C111.346 107.613 111.439 107.678 111.542 107.722C111.645 107.766 111.756 107.788 111.868 107.787H134.471C134.705 107.784 134.93 107.693 135.101 107.532C135.272 107.372 135.377 107.153 135.395 106.919C135.402 106.808 135.386 106.696 135.348 106.591C135.311 106.486 135.252 106.39 135.175 106.308C135.099 106.227 135.006 106.162 134.904 106.118C134.801 106.074 134.691 106.051 134.579 106.051Z" fill="#5748AE"/>
<path opacity="0.2" d="M138.641 123.317H110.961C110.727 123.322 110.502 123.413 110.332 123.573C110.161 123.734 110.056 123.952 110.036 124.185C110.029 124.297 110.045 124.41 110.084 124.516C110.122 124.621 110.182 124.718 110.259 124.799C110.337 124.881 110.43 124.946 110.534 124.989C110.637 125.033 110.749 125.055 110.861 125.053H138.541C138.776 125.05 139 124.959 139.17 124.798C139.34 124.637 139.444 124.419 139.462 124.185C139.469 124.073 139.453 123.961 139.415 123.856C139.377 123.751 139.317 123.654 139.24 123.573C139.163 123.491 139.07 123.427 138.967 123.383C138.864 123.339 138.753 123.316 138.641 123.317Z" fill="#5748AE"/>
<path opacity="0.2" d="M133.733 120.439H111.13C110.896 120.443 110.671 120.534 110.5 120.695C110.329 120.855 110.224 121.074 110.206 121.308C110.198 121.419 110.214 121.531 110.252 121.637C110.291 121.742 110.35 121.839 110.427 121.92C110.504 122.002 110.597 122.066 110.7 122.11C110.803 122.154 110.914 122.176 111.026 122.176H133.633C133.867 122.172 134.091 122.081 134.261 121.92C134.432 121.76 134.536 121.541 134.553 121.308C134.56 121.196 134.544 121.084 134.506 120.978C134.468 120.873 134.409 120.776 134.332 120.695C134.255 120.614 134.162 120.549 134.059 120.505C133.956 120.461 133.845 120.439 133.733 120.439Z" fill="#5748AE"/>
</g>
<defs>
<clipPath id="clip0_1106_12808">
<rect width="216" height="169" fill="white"/>
</clipPath>
</defs>
</svg>
