<svg width="137" height="17" viewBox="0 0 137 17" fill="none" xmlns="http://www.w3.org/2000/svg">
<path d="M14.001 11.6513C14.001 14.5935 11.9061 16.812 7.55583 16.812C4.46223 16.812 2.30314 15.751 0.498535 13.9342L2.5611 11.0403L2.88331 11.3782C3.62442 12.1497 5.23579 13.436 7.73316 13.436C9.40878 13.436 10.1499 12.7286 10.1499 12.0372C10.1499 11.1852 8.73224 10.8473 7.08874 10.4617C4.52681 9.85077 1.40092 9.03082 1.25587 5.36508V5.22052V5.07579V4.93107C1.33651 2.31046 3.64048 0.172119 7.36244 0.172119C9.92438 0.172119 12.148 0.943827 13.9364 2.66419L11.7773 5.49378L11.4712 5.20433C10.3272 4.15936 8.71585 3.5484 7.04023 3.5484C5.84809 3.5484 5.1391 3.99861 5.1391 4.77032C5.1391 5.47759 6.47645 5.79926 8.02325 6.16901C10.6494 6.79599 13.8558 7.64799 14.001 11.3458V11.4907V11.6513Z" fill="#402F68"/>
<path d="M27.8125 0.461426H16.405V3.85374H27.8125V0.461426Z" fill="#9B06DA"/>
<path d="M27.8125 13.1464V16.5387H16.405V6.87622H27.6355V10.2685H20.2237V13.1464H27.8125Z" fill="#402F68"/>
<path d="M43.6726 12.1898C43.6726 14.6016 42.0451 16.5306 38.984 16.5306H30.2349V0.437256H38.726C41.7875 0.437256 43.3664 2.39866 43.3664 4.53701C43.3664 6.56268 42.0937 7.91329 40.579 8.2348C42.2871 8.50806 43.6726 10.164 43.6726 12.1898ZM34.0535 6.49841H37.9689C38.8709 6.49841 39.4672 5.96791 39.4672 5.14796C39.4672 4.32801 38.8709 3.78132 37.9689 3.78132H34.0535V6.49841ZM39.7733 11.7074C39.7733 10.8072 39.1128 10.2122 38.0816 10.2122H34.0535V13.1865H38.0816C38.726 13.1865 39.7733 12.9936 39.7733 11.7074Z" fill="#402F68"/>
<path d="M56.6317 0.461426H52.3296L46.0942 16.5388H50.4285L54.4887 5.01122L56.5193 10.7991L58.5329 16.5388H62.8511L56.6317 0.461426Z" fill="#402F68"/>
<path d="M54.4836 16.5388L51.9246 12.5857H57.0208L54.4836 16.5388Z" fill="#9B06DA"/>
<path d="M78.5713 11.6513C78.5713 14.5935 76.4765 16.812 72.1261 16.812C69.0325 16.812 66.8734 15.751 65.0688 13.9342L67.1314 11.0403L67.4536 11.3782C68.1947 12.1497 69.8061 13.436 72.3035 13.436C73.9791 13.436 74.7202 12.7286 74.7202 12.0372C74.7202 11.1852 73.3026 10.8473 71.6591 10.4617C69.0971 9.85077 65.9712 9.03082 65.8262 5.36508V5.22052V5.07579V4.93107C65.9068 2.31046 68.2108 0.172119 71.9328 0.172119C74.4947 0.172119 76.7184 0.943827 78.5067 2.66419L76.3476 5.49378L76.0415 5.20433C74.8975 4.15936 73.2862 3.5484 71.6105 3.5484C70.4184 3.5484 69.7094 3.99861 69.7094 4.77032C69.7094 5.47759 71.0468 5.79926 72.5936 6.16901C75.2197 6.79599 78.4261 7.64799 78.5713 11.3458V11.4907V11.6513Z" fill="#402F68"/>
<path d="M93.833 0.461426V3.85374H89.3379V16.5388H85.5031V3.85374H80.9753V0.461426H93.833Z" fill="#402F68"/>
<path d="M96.2683 0.461426H100.087V16.5386H96.2683V0.461426Z" fill="#402F68"/>
<path d="M113.036 0.461426H108.734L102.499 16.5388H106.833L110.893 5.01122L112.924 10.7991L114.937 16.5388H119.256L113.036 0.461426Z" fill="#402F68"/>
<path d="M110.888 16.5388L108.329 12.5857H113.425L110.888 16.5388Z" fill="#9B06DA"/>
<path d="M136.099 0.461426V16.5386H132.312L125.481 7.22986V16.5386H121.662V0.461426H125.191L132.28 10.0434V0.461426H136.099Z" fill="#402F68"/>
</svg>
