<svg width="207" height="26" viewBox="0 0 207 26" fill="none" xmlns="http://www.w3.org/2000/svg">
<path d="M20.5675 17.3827C20.5675 21.8381 17.3765 25.1975 10.75 25.1975C6.03766 25.1975 2.74884 23.5909 0 20.8397L3.14178 16.4575L3.63258 16.9691C4.76148 18.1375 7.21598 20.0854 11.0201 20.0854C13.5724 20.0854 14.7013 19.0141 14.7013 17.9671C14.7013 16.6769 12.5419 16.1653 10.0385 15.5814C6.13603 14.6562 1.37455 13.4146 1.15361 7.86363V7.64472V7.42556V7.20641C1.27643 3.23807 4.78594 0 10.4554 0C14.3578 0 17.745 1.16859 20.4691 3.7737L17.1803 8.05852L16.714 7.6202C14.9715 6.03782 12.5169 5.11266 9.96458 5.11266C8.14866 5.11266 7.0687 5.7944 7.0687 6.96298C7.0687 8.034 9.1058 8.5211 11.4619 9.081C15.4623 10.0304 20.3463 11.3206 20.5675 16.9201V17.1395V17.3827Z" fill="white"/>
<path d="M41.6058 0.43811H24.2296V5.57504H41.6058V0.43811Z" fill="#4BCE97"/>
<path d="M41.6058 19.6467V24.7836H24.2296V10.1519H41.3362V15.2888H30.0463V19.6467H41.6058Z" fill="white"/>
<path d="M65.7645 18.1984C65.7645 21.8505 63.2855 24.7716 58.6226 24.7716H45.2956V0.401611H58.2297C62.8931 0.401611 65.2981 3.37174 65.2981 6.6098C65.2981 9.67725 63.3594 11.7225 61.0522 12.2093C63.654 12.6231 65.7645 15.1307 65.7645 18.1984ZM51.1123 9.57993H57.0763C58.4504 9.57993 59.3586 8.7766 59.3586 7.53496C59.3586 6.29332 58.4504 5.46548 57.0763 5.46548H51.1123V9.57993ZM59.8249 17.4678C59.8249 16.1046 58.8189 15.2037 57.2481 15.2037H51.1123V19.7077H57.2481C58.2297 19.7077 59.8249 19.4155 59.8249 17.4678Z" fill="white"/>
<path d="M85.5044 0.438232H78.9512L69.4532 24.7839H76.0553L82.24 7.32792L85.333 16.0924L88.4002 24.7839H94.9779L85.5044 0.438232Z" fill="white"/>
<path d="M82.2322 24.7839L78.3341 18.7979H86.0969L82.2322 24.7839Z" fill="#4BCE97"/>
<path d="M118.924 17.3827C118.924 21.8381 115.733 25.1975 109.106 25.1975C104.394 25.1975 101.105 23.5909 98.3561 20.8397L101.498 16.4575L101.989 16.9691C103.118 18.1375 105.572 20.0854 109.376 20.0854C111.929 20.0854 113.057 19.0141 113.057 17.9671C113.057 16.6769 110.898 16.1653 108.395 15.5814C104.492 14.6562 99.7306 13.4146 99.5097 7.86363V7.64472V7.42556V7.20641C99.6325 3.23807 103.142 0 108.811 0C112.714 0 116.101 1.16859 118.825 3.7737L115.536 8.05852L115.07 7.6202C113.328 6.03782 110.873 5.11266 108.321 5.11266C106.505 5.11266 105.425 5.7944 105.425 6.96298C105.425 8.034 107.462 8.5211 109.818 9.081C113.818 10.0304 118.702 11.3206 118.924 16.9201V17.1395V17.3827Z" fill="white"/>
<path d="M142.171 0.438232V5.57516H135.324V24.7839H129.483V5.57516H122.586V0.438232H142.171Z" fill="white"/>
<path d="M145.88 0.43811H151.697V24.7835H145.88V0.43811Z" fill="white"/>
<path d="M171.422 0.438232H164.869L155.371 24.7839H161.973L168.158 7.32792L171.251 16.0924L174.318 24.7839H180.896L171.422 0.438232Z" fill="white"/>
<path d="M168.15 24.7839L164.252 18.7979H172.015L168.15 24.7839Z" fill="#4BCE97"/>
<path d="M206.552 0.43811V24.7835H200.784L190.378 10.6874V24.7835H184.561V0.43811H189.936L200.735 14.948V0.43811H206.552Z" fill="white"/>
</svg>
