<svg width="36" height="45" viewBox="0 0 36 45" fill="none" xmlns="http://www.w3.org/2000/svg">
<path d="M36 30.4255C36 38.224 30.4147 44.1041 18.816 44.1041C10.5679 44.1041 4.81139 41.2919 0 36.4764L5.49917 28.8062L6.35823 29.7017C8.33418 31.7467 12.6304 35.1561 19.2888 35.1561C23.7563 35.1561 25.7323 33.2811 25.7323 31.4485C25.7323 29.1902 21.9525 28.2947 17.5707 27.2727C10.7401 25.6533 2.40591 23.48 2.0192 13.764V13.3808V12.9972V12.6136C2.23418 5.6677 8.377 0 18.3004 0C25.131 0 31.0597 2.04542 35.8278 6.60524L30.0713 14.1051L29.255 13.3379C26.2051 10.5682 21.9088 8.94886 17.4413 8.94886C14.2629 8.94886 12.3726 10.1421 12.3726 12.1876C12.3726 14.0622 15.9382 14.9148 20.0622 15.8948C27.0641 17.5566 35.6129 19.8149 36 29.6159V29.9999V30.4255Z" fill="#5748AE"/>
</svg>
