<svg width="128" height="128" viewBox="0 0 128 128" fill="none" xmlns="http://www.w3.org/2000/svg">
<path d="M0 8C0 3.58172 3.58172 0 8 0H119.813C124.231 0 127.813 3.58172 127.813 8V119.813C127.813 124.231 124.231 127.813 119.813 127.813H8C3.58172 127.813 0 124.231 0 119.813V8Z" fill="#9B06DA"/>
<path d="M98.858 79.442C98.858 93.8238 88.0419 104.668 65.5803 104.668C49.6074 104.668 38.4595 99.4815 29.142 90.6008L39.7914 76.4557L41.4551 78.1071C45.2816 81.8784 53.6015 88.166 66.4959 88.166C75.1474 88.166 78.974 84.7081 78.974 81.3285C78.974 77.1639 71.6543 75.5125 63.1686 73.6276C49.9408 70.6413 33.8012 66.6334 33.0523 48.7154V48.0087V47.3013V46.5939C33.4686 33.7845 45.3645 23.3323 64.5818 23.3323C77.8096 23.3323 89.2909 27.1044 98.5246 35.5134L87.3768 49.3444L85.796 47.9296C79.8896 42.8218 71.5697 39.8355 62.9181 39.8355C56.7629 39.8355 53.1022 42.0361 53.1022 45.8082C53.1022 49.2653 60.0072 50.8376 67.9937 52.6449C81.5532 55.7096 98.1083 59.8742 98.858 77.9489V78.6571V79.442Z" fill="white"/>
</svg>
